<svg width="660" height="276" viewBox="0 0 660 276" fill="none" xmlns="http://www.w3.org/2000/svg">
<rect width="660" height="276" fill="#FF7D04"/>
<g clip-path="url(#clip0_83_163)">
<path d="M284.333 188H245.718C245.793 187.327 245.861 186.661 245.951 185.806C245.114 185.641 244.266 185.531 243.414 185.477C206.781 185.477 170.142 185.477 133.499 185.477C132.743 185.525 131.991 185.62 131.247 185.762L131.502 187.993H93V89.0073H131.547L131.307 90.675C132.196 90.8308 133.093 90.9358 133.995 90.9895C142.102 90.9895 150.212 90.9895 158.324 90.9895H210.737C221.511 90.9895 232.284 90.9895 243.053 90.9895C243.984 90.9895 244.915 90.8213 245.959 90.7189L245.748 89H284.251C283.5 94.9539 283.92 100.886 283.905 106.803C283.845 129.448 283.845 152.091 283.905 174.732C283.913 179.142 283.44 183.567 284.333 188ZM162.393 113.159C162.348 113.159 161.95 113.159 161.905 113.159C160.276 113.028 159.007 113.013 157.401 113.006C149.474 112.969 141.546 113.006 133.619 113.006C131.668 113.006 131.367 113.298 131.367 115.244C131.367 124.299 131.367 133.354 131.367 142.41C131.367 143.909 131.758 144.282 133.304 144.282C145.88 144.282 158.454 144.282 171.026 144.282C171.479 144.258 171.931 144.204 172.377 144.121L172.482 142.57C173.983 142.717 175.124 142.943 176.235 142.936C178.593 142.936 180.942 142.775 183.299 142.702C183.67 142.719 184.04 142.765 184.403 142.841L184.005 144.136H189.537V142.512C193.685 143.185 197.919 143.185 202.066 142.512V144.143C202.667 144.194 203.23 144.282 203.8 144.282H220.06C223.663 144.282 227.259 144.282 230.855 144.282C231.951 144.282 232.626 143.872 232.604 142.746C232.521 138.855 232.454 134.964 232.281 131.043C232.174 130.445 231.842 129.908 231.35 129.536C229.414 128.015 226.666 128.461 225.345 131.438L223.663 131.54C224.054 130.897 224.346 130.348 224.699 129.843C226.854 126.764 230.63 126.442 232.957 129.112C233.471 129.647 233.857 130.287 234.086 130.985C234.316 131.684 234.384 132.423 234.285 133.15C233.925 136.353 234.15 139.623 234.18 142.863C234.18 143.946 234.931 144.223 235.952 144.223C238.594 144.223 241.207 144.223 243.879 144.223C245.688 144.223 246.034 143.872 246.034 142.132C246.034 133.262 246.034 124.384 246.034 115.5C246.032 114.888 245.938 114.279 245.756 113.693C245.694 113.535 245.593 113.395 245.462 113.284C245.331 113.173 245.174 113.095 245.005 113.057C243.759 112.962 242.505 112.947 241.252 112.947C233.595 112.947 225.945 112.947 218.288 112.947C216.787 112.947 215.331 112.947 213.447 113.094C211.945 113.094 209.13 113.094 206.548 113.284C206.653 114.695 206.503 116.517 206.548 118.133H169.217C169.314 116.486 169.314 114.835 169.217 113.189C166.897 113.254 164.645 113.159 162.393 113.159ZM247.272 90.6311C247.135 91.2828 247.043 91.9425 246.994 92.606C246.994 108.98 246.994 125.362 246.994 141.751C247.044 142.421 247.147 143.086 247.302 143.741C247.996 143.874 248.698 143.964 249.404 144.011C259.794 144.011 270.183 144.011 280.572 144.011C281.259 143.956 281.941 143.856 282.614 143.711C282.759 143.083 282.856 142.445 282.907 141.802C282.907 125.33 282.907 108.859 282.907 92.3866C282.907 90.7043 282.554 90.3605 280.858 90.3605C270.378 90.3605 259.899 90.3605 249.419 90.3605C248.693 90.4056 247.971 90.496 247.257 90.6311H247.272ZM247.272 186.347C247.958 186.491 248.652 186.589 249.352 186.64C259.741 186.64 270.13 186.64 280.52 186.64C281.232 186.582 281.939 186.476 282.637 186.325C282.762 185.717 282.847 185.101 282.892 184.482C282.892 172.579 282.892 160.678 282.892 148.78C282.892 147.208 282.532 146.849 280.865 146.849C270.251 146.849 259.633 146.849 249.014 146.849C247.287 146.849 246.972 147.215 246.972 148.905C246.972 160.715 246.972 172.525 246.972 184.335C247.023 185.012 247.123 185.684 247.272 186.347ZM94.3888 107.995C94.3888 113.276 94.3888 118.557 94.3888 123.838C94.3888 125.894 94.6815 126.172 96.7084 126.172H127.734C129.723 126.172 130.039 125.886 130.046 123.977C130.046 113.503 130.046 103.019 130.046 92.5255C130.046 90.6604 129.716 90.3312 127.847 90.3312H96.5507C94.7191 90.3312 94.3888 90.6384 94.3888 92.3866V107.995ZM215.428 183.421C216.127 183.56 216.834 183.655 217.545 183.706C226.243 183.706 234.946 183.706 243.654 183.706C245.298 183.706 245.696 183.363 245.703 181.783C245.703 171.123 245.703 160.466 245.703 149.812C245.703 148.239 245.283 147.895 243.654 147.895C234.991 147.895 226.333 147.895 217.68 147.895C216.923 147.946 216.171 148.049 215.428 148.203V183.421ZM160.494 148.203C159.795 148.063 159.088 147.968 158.377 147.917C150.034 147.917 141.697 147.917 133.364 147.917C131.72 147.917 131.315 148.254 131.315 149.834C131.315 160.488 131.315 171.145 131.315 181.805C131.315 183.392 131.72 183.721 133.357 183.721C141.699 183.721 150.039 183.721 158.377 183.721C159.09 183.664 159.798 183.554 160.494 183.392V148.203ZM162.821 111.631C163.639 111.682 164.255 111.755 164.878 111.755H211.33C213.462 111.755 213.709 111.514 213.717 109.356C213.717 104.48 213.717 99.6034 213.717 94.7272C213.717 92.7742 213.402 92.4743 211.465 92.4743H164.727C162.783 92.4743 162.475 92.7742 162.475 94.7345C162.475 99.6644 162.475 104.589 162.475 109.509C162.538 110.231 162.654 110.947 162.821 111.653V111.631ZM213.439 156.958C213.387 155.853 212.501 155.897 211.615 155.897H164.645C162.873 155.897 162.528 156.241 162.513 158.011C162.513 160.769 162.513 163.519 162.513 166.269C162.513 168.259 162.813 168.529 164.9 168.529C180.384 168.529 195.871 168.529 211.36 168.529C211.675 168.529 211.998 168.529 212.313 168.529C212.507 168.545 212.703 168.519 212.886 168.453C213.069 168.387 213.235 168.283 213.372 168.147C213.508 168.012 213.613 167.849 213.678 167.67C213.743 167.49 213.766 167.299 213.747 167.11C213.747 164.916 213.784 162.678 213.747 160.454C213.679 159.284 213.522 158.121 213.439 156.958ZM213.732 171.638C212.988 171.501 212.236 171.408 211.48 171.36C195.896 171.36 180.317 171.36 164.742 171.36C162.791 171.36 162.49 171.66 162.49 173.62C162.49 176.195 162.49 178.769 162.49 181.344C162.49 183.465 162.768 183.728 164.9 183.728H210.406C213.732 183.728 213.732 183.728 213.739 180.517L213.732 171.638ZM215.601 111.755C225.36 111.806 235.066 111.755 244.637 111.755C245.388 109.758 245.35 94.3322 244.69 92.7376C244.061 92.6105 243.424 92.5274 242.783 92.489C234.275 92.489 225.768 92.489 217.26 92.489C215.639 92.489 215.271 92.8547 215.271 94.4492C215.271 99.4571 215.271 104.47 215.271 109.488C215.329 110.249 215.437 111.007 215.594 111.755H215.601ZM132.418 111.331C134.13 111.982 156.943 111.96 160.396 111.331C160.533 110.711 160.624 110.083 160.666 109.451C160.666 104.575 160.666 99.6985 160.666 94.8222C160.614 94.1256 160.508 93.4337 160.351 92.7523C159.727 92.6301 159.095 92.547 158.459 92.5036C150.352 92.5036 142.242 92.5036 134.13 92.5036C132.501 92.5036 132.133 92.862 132.133 94.4492C132.133 99.4669 132.133 104.485 132.133 109.495C132.176 110.113 132.269 110.727 132.411 111.331H132.418ZM112.277 173.218C106.948 173.218 101.618 173.218 96.288 173.218C95.2671 173.218 94.4263 173.43 94.4113 174.615C94.4113 178.074 94.4113 181.534 94.4113 185.001C94.3729 185.234 94.3928 185.472 94.4692 185.696C94.5457 185.919 94.6765 186.122 94.8504 186.285C95.0244 186.449 95.2364 186.57 95.4684 186.636C95.7004 186.703 95.9455 186.714 96.1829 186.669C106.888 186.669 117.592 186.669 128.297 186.669C129.798 186.669 130.234 186.047 129.926 184.657C129.831 184.227 129.788 183.788 129.798 183.348C129.873 180.656 129.994 177.957 130.046 175.302C130.046 173.627 129.708 173.283 127.997 173.283L112.277 173.218ZM112.315 128.988C106.985 128.988 101.655 128.988 96.3255 128.988C94.8242 128.988 94.3963 129.368 94.3963 130.867C94.3963 138.46 94.3963 146.052 94.3963 153.644C94.3963 155.407 94.7566 155.736 96.5432 155.736H127.862C129.723 155.736 130.061 155.414 130.061 153.542C130.061 145.994 130.061 138.448 130.061 130.904C130.061 129.317 129.693 128.98 128.042 128.973L112.315 128.988ZM112.09 170.394H127.937C129.671 170.394 130.031 170.072 130.046 168.39C130.046 165.684 130.046 162.978 130.046 160.271C130.046 159.116 129.551 158.56 128.342 158.56H96.0628C94.8542 158.56 94.3512 159.116 94.3587 160.271C94.3587 162.978 94.3587 165.684 94.3587 168.39C94.3587 170.072 94.7266 170.394 96.4606 170.394H112.09ZM187.916 153.096C195.798 153.096 203.675 153.096 211.547 153.096C212.11 153.096 213.131 152.95 213.161 152.752C213.423 151.447 213.506 150.114 213.409 148.788C213.289 147.588 212.095 147.947 211.3 147.947C196.046 147.947 180.782 147.947 165.508 147.947C162.505 147.947 162.325 148.093 162.415 151.121C162.46 152.796 162.791 153.118 164.525 153.125L187.916 153.096ZM204.851 113.445C203.35 113.445 172.887 112.845 171.341 113.445C171.341 115.771 171.228 116.085 171.341 116.626C181.047 116.626 192.893 116.626 202.599 116.626H204.851C204.9 115.979 204.9 115.328 204.851 114.681C204.89 114.265 204.9 113.847 204.881 113.43L204.851 113.445Z" fill="#454545"/>
<path d="M127.066 135.285V152.613C122.562 151.735 118.058 152.277 113.591 152.189C109.125 152.101 104.673 152.145 100.207 152.189C99.2524 152.267 98.3061 152.419 97.3765 152.642V135.629C106.385 135.914 115.303 135.702 124.236 135.739C125.19 135.664 126.137 135.512 127.066 135.285Z" fill="#454545"/>
<path d="M97.3539 134.452V132.564C102.331 132.564 107.338 132.564 112.367 132.564C117.397 132.564 122.209 132.791 127.028 132.345V134.459L97.3539 134.452Z" fill="#454545"/>
<path d="M113.824 130.626C113.844 130.828 113.815 131.032 113.738 131.22C113.661 131.409 113.538 131.576 113.381 131.709C113.223 131.841 113.035 131.935 112.833 131.982C112.631 132.029 112.419 132.028 112.217 131.979C111.279 131.818 111.302 131.014 111.302 130.516C111.302 130.217 112.142 129.587 112.435 129.639C112.848 129.69 113.771 129.917 113.824 130.626Z" fill="#454545"/>
<path d="M186.918 113.598C187.079 113.536 187.251 113.508 187.425 113.515C187.598 113.522 187.767 113.564 187.923 113.639C188.078 113.714 188.215 113.82 188.326 113.95C188.437 114.08 188.518 114.231 188.565 114.393C188.612 114.556 188.623 114.726 188.599 114.893C188.574 115.06 188.513 115.221 188.421 115.363C188.329 115.506 188.207 115.629 188.063 115.723C187.919 115.817 187.756 115.88 187.586 115.909C187.38 115.934 187.172 115.911 186.978 115.844C186.822 115.799 186.679 115.723 186.557 115.619C186.435 115.516 186.338 115.388 186.272 115.244C186.2 115.095 186.16 114.934 186.153 114.769C186.147 114.605 186.175 114.441 186.235 114.287C186.295 114.133 186.387 113.993 186.504 113.875C186.621 113.756 186.762 113.662 186.918 113.598Z" fill="#454545"/>
<path d="M291.873 121.482H320.233V124.63H295.104V145.316L307.566 145.4C310.249 145.288 312.929 145.676 315.462 146.544C317.515 147.276 319.382 148.432 320.933 149.934C322.362 151.352 323.441 153.067 324.089 154.95C324.745 156.833 325.08 158.808 325.08 160.796C325.149 164.073 324.391 167.317 322.872 170.241C321.306 173.115 319.171 175.658 316.593 177.724C313.197 180.577 309.254 182.746 304.992 184.105C300.73 185.48 296.366 186.533 291.938 187.254L291.873 121.482ZM321.31 160.723C321.373 158.727 320.972 156.742 320.136 154.919C319.409 153.396 318.297 152.079 316.905 151.088C315.464 150.089 313.835 149.376 312.112 148.989C310.147 148.534 308.132 148.312 306.112 148.328H295.104V183.434C298.223 182.815 301.287 181.962 304.271 180.883C307.284 179.812 310.126 178.331 312.715 176.486C315.209 174.699 317.323 172.457 318.941 169.885C320.604 167.124 321.44 163.965 321.353 160.765L321.31 160.723Z" fill="#454545"/>
<path d="M343.66 183.518C339.998 183.518 337.208 182.507 335.291 180.485C333.272 178.193 332.242 175.23 332.415 172.214V146.072H347.129V147.835H334.203V158.791H352.59V160.555H334.225V172.214C334.066 174.752 334.91 177.254 336.584 179.204C338.156 180.869 340.515 181.702 343.66 181.702H347.182V183.518H343.66Z" fill="#454545"/>
<path d="M355.821 183.518H353.914L367.271 148.695L380.637 183.518H378.72L367.271 153.796L355.821 183.518Z" fill="#454545"/>
<path d="M388.393 121.482H416.742V124.63H391.548V145.316L404.011 145.4C406.697 145.288 409.38 145.676 411.917 146.544C413.968 147.273 415.832 148.43 417.378 149.934C418.809 151.349 419.889 153.065 420.533 154.95C421.198 156.831 421.536 158.807 421.535 160.796C421.601 164.074 420.839 167.318 419.316 170.241C417.75 173.112 415.62 175.655 413.048 177.724C409.648 180.578 405.701 182.746 401.436 184.105C397.178 185.481 392.817 186.534 388.393 187.254V121.482ZM417.83 160.723C417.887 158.727 417.486 156.744 416.656 154.919C415.923 153.399 414.813 152.083 413.425 151.088C411.988 150.089 410.362 149.376 408.642 148.989C406.673 148.534 404.655 148.312 402.632 148.328H391.548V183.434C394.667 182.816 397.732 181.964 400.715 180.883C403.729 179.814 406.572 178.334 409.159 176.486C411.659 174.702 413.777 172.459 415.396 169.885C417.061 167.124 417.904 163.966 417.83 160.765V160.723Z" fill="#454545"/>
<path d="M446.222 144.718C448.763 144.708 451.278 145.208 453.611 146.187C458.195 148.093 461.845 151.65 463.801 156.115C464.796 158.397 465.309 160.851 465.309 163.331C465.309 165.81 464.796 168.264 463.801 170.546C462.821 172.746 461.425 174.747 459.686 176.444C457.945 178.146 455.882 179.504 453.611 180.443C451.269 181.412 448.751 181.912 446.206 181.912C443.662 181.912 441.143 181.412 438.801 180.443C434.24 178.533 430.604 174.99 428.644 170.546C427.652 168.263 427.143 165.808 427.147 163.328C427.15 160.849 427.667 158.396 428.666 156.115C429.632 153.901 431.025 151.888 432.769 150.186C434.513 148.496 436.566 147.139 438.823 146.187C441.159 145.205 443.678 144.705 446.222 144.718ZM446.222 146.407C443.909 146.395 441.618 146.845 439.49 147.73C435.316 149.456 431.994 152.697 430.227 156.766C429.327 158.838 428.863 161.065 428.863 163.315C428.863 165.565 429.327 167.792 430.227 169.864C431.986 173.939 435.31 177.182 439.49 178.9C441.62 179.772 443.907 180.222 446.217 180.222C448.527 180.222 450.814 179.772 452.944 178.9C455.011 178.047 456.891 176.814 458.48 175.269C460.066 173.714 461.335 171.88 462.217 169.864C463.113 167.791 463.575 165.564 463.575 163.315C463.575 161.066 463.113 158.839 462.217 156.766C461.334 154.753 460.066 152.922 458.48 151.372C456.891 149.823 455.012 148.586 452.944 147.73C450.82 146.846 448.532 146.396 446.222 146.407Z" fill="#454545"/>
<path d="M495.899 145.809C499.55 146.422 502.889 148.202 505.388 150.868C507.75 153.639 508.97 157.166 508.813 160.765C508.866 164.017 508.108 167.233 506.605 170.137C505.048 173.028 502.913 175.587 500.325 177.662C496.929 180.514 492.987 182.683 488.725 184.042C484.463 185.417 480.099 186.47 475.671 187.191V123.633H478.837V183.455C481.982 182.83 485.075 181.977 488.09 180.904C491.173 179.832 494.09 178.352 496.76 176.507C499.324 174.742 501.503 172.498 503.169 169.906C504.878 167.149 505.741 163.974 505.657 160.754C505.723 158.748 505.286 156.756 504.386 154.95C503.591 153.415 502.414 152.097 500.961 151.12C499.435 150.125 497.733 149.413 495.942 149.021C493.975 148.572 491.962 148.35 489.942 148.36H482.402V145.285H484.384C486.022 145.269 487.656 145.107 489.264 144.802C490.97 144.491 492.625 143.958 494.186 143.217C495.669 142.518 496.978 141.511 498.02 140.268C499.068 138.966 499.613 137.346 499.561 135.692C499.613 134.059 499.154 132.449 498.247 131.074C497.37 129.796 496.215 128.721 494.865 127.926C493.434 127.094 491.878 126.485 490.255 126.121C488.655 125.752 487.018 125.562 485.375 125.554H475.681V122.531H485.375C487.452 122.534 489.52 122.802 491.526 123.329C493.5 123.827 495.374 124.643 497.073 125.743C498.709 126.81 500.094 128.206 501.133 129.836C502.226 131.615 502.775 133.661 502.717 135.734C502.761 137.882 502.113 139.989 500.864 141.758C499.591 143.5 497.882 144.895 495.899 145.809Z" fill="#454545"/>
<path d="M537.841 148.643V182.353H536.032V155.664L518.475 181.786V147.258H520.284V174.544L537.841 148.643Z" fill="#454545"/>
<path d="M568 121.482V124.63H554.547V186.845H551.38V124.63H537.927V121.482H568Z" fill="#454545"/>
<path d="M567.989 109.203H291.916V111.302H567.989V109.203Z" fill="#454545"/>
<path d="M298.271 96.9028C298.286 97.1609 298.233 97.4185 298.118 97.6516C298.004 97.8846 297.83 98.0856 297.614 98.2357C297.029 98.5931 296.342 98.7586 295.654 98.7079H292.562V92.0961H295.567C296.206 92.0644 296.839 92.2179 297.388 92.5369C297.6 92.6732 297.772 92.861 297.887 93.0818C298.003 93.3027 298.057 93.5489 298.045 93.7963C298.054 94.1285 297.948 94.4541 297.743 94.7199C297.522 94.9847 297.226 95.1815 296.892 95.2866C297.29 95.334 297.655 95.5277 297.911 95.8281C298.167 96.1285 298.296 96.5129 298.271 96.9028ZM293.456 95.0242H295.503C295.925 95.0471 296.344 94.9485 296.709 94.7408C296.847 94.6453 296.958 94.5172 297.032 94.3685C297.105 94.2199 297.139 94.0555 297.129 93.8907C297.138 93.7291 297.104 93.5679 297.031 93.4227C296.957 93.2775 296.846 93.1532 296.709 93.0617C296.342 92.861 295.923 92.7663 295.503 92.7888H293.456V95.0242ZM296.935 97.7214C297.082 97.628 297.201 97.4979 297.278 97.3447C297.356 97.1915 297.39 97.0207 297.377 96.8503C297.385 96.6839 297.352 96.5181 297.28 96.3666C297.209 96.2152 297.102 96.0824 296.968 95.9793C296.587 95.7613 296.147 95.6623 295.708 95.6959H293.456V98.0048H295.611C296.071 98.0357 296.531 97.9374 296.935 97.7214Z" fill="#454545"/>
<path d="M305.003 92.6837C305.254 92.937 305.446 93.239 305.569 93.57C305.691 93.9009 305.741 94.2534 305.714 94.6043V98.7078H304.798V97.6583C304.584 98.0118 304.265 98.2937 303.883 98.4664C303.44 98.6735 302.952 98.7742 302.461 98.7603C301.812 98.7962 301.171 98.6065 300.651 98.225C300.445 98.0566 300.28 97.8462 300.166 97.6087C300.052 97.3712 299.993 97.1123 299.993 96.8502C299.993 96.5881 300.052 96.3292 300.166 96.0917C300.28 95.8542 300.445 95.6438 300.651 95.4753C301.232 95.0775 301.937 94.8917 302.644 94.9506H304.798V94.5518C304.816 94.3139 304.782 94.0751 304.698 93.8509C304.615 93.6266 304.484 93.4221 304.314 93.2504C303.911 92.9236 303.393 92.7618 302.87 92.7991C302.448 92.7996 302.029 92.8706 301.632 93.009C301.257 93.1311 300.912 93.3276 300.619 93.5863L300.199 92.9146C300.565 92.6191 300.985 92.3946 301.438 92.2534C301.931 92.096 302.448 92.018 302.967 92.0225C303.709 91.9743 304.44 92.2117 305.003 92.6837ZM303.926 97.7213C304.311 97.4678 304.602 97.0996 304.755 96.6718V95.6223H302.601C301.438 95.6223 300.856 96.0211 300.856 96.8082C300.846 96.9852 300.882 97.1618 300.962 97.3215C301.041 97.4812 301.16 97.6187 301.308 97.7213C301.684 97.9644 302.13 98.0823 302.579 98.0571C303.067 98.086 303.552 97.9688 303.969 97.7213H303.926Z" fill="#454545"/>
<path d="M317.724 92.0959V98.7183H308.342V92.0959H309.257V97.9311H312.597V92.0959H313.512V97.9311H316.808V92.0959H317.724Z" fill="#454545"/>
<path d="M326.513 95.6747H320.826C320.841 95.992 320.921 96.3031 321.062 96.5897C321.203 96.8762 321.401 97.1325 321.644 97.3434C322.163 97.7727 322.828 97.9973 323.508 97.9731C323.907 97.9771 324.302 97.9021 324.671 97.7528C325.023 97.6067 325.336 97.3841 325.586 97.102L326.103 97.6898C325.799 98.0418 325.411 98.3157 324.973 98.4874C324.436 98.6985 323.858 98.7937 323.28 98.7666C322.702 98.7394 322.136 98.5905 321.623 98.33C321.094 98.0561 320.657 97.641 320.363 97.1335C320.056 96.6021 319.9 96.0009 319.91 95.3914C319.903 94.7882 320.051 94.1928 320.341 93.6597C320.617 93.1601 321.031 92.7457 321.537 92.4633C322.055 92.1811 322.639 92.033 323.233 92.033C323.827 92.033 324.411 92.1811 324.929 92.4633C325.422 92.75 325.827 93.1594 326.103 93.6492C326.391 94.1865 326.535 94.7856 326.524 95.3914L326.513 95.6747ZM321.59 93.4078C321.138 93.8262 320.864 94.3962 320.826 95.0031H325.651C325.611 94.3987 325.343 93.8303 324.897 93.4078C324.448 93.0006 323.852 92.782 323.238 92.7991C322.936 92.7897 322.635 92.8387 322.352 92.9431C322.069 93.0476 321.81 93.2055 321.59 93.4078Z" fill="#454545"/>
<path d="M338.059 96.9028C338.074 97.1609 338.022 97.4185 337.907 97.6516C337.792 97.8846 337.618 98.0856 337.402 98.2357C336.816 98.5898 336.13 98.755 335.442 98.7079H332.351V92.0961H335.345C335.987 92.0624 336.624 92.2158 337.176 92.5369C337.387 92.6747 337.558 92.8628 337.673 93.0833C337.788 93.3037 337.843 93.5492 337.833 93.7963C337.837 94.1277 337.731 94.4516 337.532 94.7199C337.31 94.9847 337.014 95.1815 336.681 95.2866C337.079 95.334 337.443 95.5277 337.699 95.8281C337.955 96.1285 338.084 96.5129 338.059 96.9028ZM333.245 95.0242H335.28C335.706 95.0492 336.13 94.9506 336.498 94.7409C336.636 94.6453 336.747 94.5172 336.82 94.3686C336.893 94.2199 336.927 94.0555 336.918 93.8908C336.926 93.7291 336.892 93.5679 336.819 93.4227C336.745 93.2775 336.635 93.1532 336.498 93.0617C336.127 92.8602 335.704 92.7655 335.28 92.7888H333.245V95.0242ZM336.724 97.7214C336.869 97.6267 336.985 97.4961 337.061 97.3429C337.136 97.1898 337.169 97.0198 337.155 96.8503C337.163 96.6848 337.132 96.5196 337.063 96.3682C336.993 96.2168 336.888 96.0835 336.756 95.9793C336.376 95.7613 335.936 95.6624 335.496 95.6959H333.245V98.0048H335.399C335.859 98.034 336.318 97.9357 336.724 97.7214Z" fill="#454545"/>
<path d="M341.42 98.33C340.898 98.0509 340.466 97.6368 340.171 97.1335C339.864 96.6021 339.708 96.0009 339.718 95.3914C339.708 94.7852 339.864 94.1873 340.171 93.6597C340.466 93.1564 340.898 92.7424 341.42 92.4633C341.964 92.1812 342.57 92.0337 343.186 92.0337C343.802 92.0337 344.409 92.1812 344.953 92.4633C345.473 92.7408 345.902 93.1554 346.192 93.6597C346.49 94.1901 346.642 94.7867 346.633 95.3914C346.642 95.9994 346.49 96.5993 346.192 97.1335C345.902 97.6378 345.473 98.0524 344.953 98.33C344.411 98.6193 343.804 98.771 343.186 98.771C342.569 98.771 341.961 98.6193 341.42 98.33ZM344.479 97.6583C344.862 97.4422 345.176 97.1259 345.384 96.7452C345.604 96.3266 345.715 95.8617 345.707 95.3914C345.716 94.9243 345.605 94.4624 345.384 94.048C345.182 93.6627 344.867 93.3448 344.479 93.1349C344.087 92.9123 343.64 92.7997 343.186 92.8096C342.73 92.801 342.279 92.9134 341.883 93.1349C341.5 93.351 341.186 93.6673 340.978 94.048C340.757 94.4624 340.646 94.9243 340.655 95.3914C340.647 95.8617 340.758 96.3266 340.978 96.7452C341.193 97.1216 341.505 97.4364 341.883 97.6583C342.282 97.8714 342.731 97.9799 343.186 97.9731C343.649 97.9867 344.107 97.8778 344.511 97.6583H344.479Z" fill="#454545"/>
<path d="M349.875 98.3302C349.354 98.051 348.921 97.637 348.626 97.1337C348.319 96.6023 348.163 96.0011 348.173 95.3916C348.163 94.7854 348.319 94.1875 348.626 93.6599C348.921 93.1566 349.354 92.7426 349.875 92.4635C350.419 92.1805 351.025 92.0325 351.642 92.0325C352.258 92.0325 352.865 92.1805 353.408 92.4635C353.928 92.741 354.357 93.1556 354.647 93.6599C354.945 94.1903 355.097 94.7869 355.088 95.3916C355.097 95.9996 354.945 96.5995 354.647 97.1337C354.357 97.638 353.928 98.0526 353.408 98.3302C352.867 98.6195 352.259 98.7712 351.642 98.7712C351.024 98.7712 350.417 98.6195 349.875 98.3302ZM352.934 97.6585C353.317 97.4424 353.631 97.1261 353.839 96.7454C354.059 96.3268 354.17 95.8619 354.162 95.3916C354.171 94.9245 354.06 94.4626 353.839 94.0482C353.637 93.6629 353.322 93.3449 352.934 93.1351C352.542 92.9125 352.095 92.7999 351.642 92.8098C351.185 92.8012 350.734 92.9136 350.338 93.1351C349.955 93.3512 349.642 93.6675 349.434 94.0482C349.212 94.4626 349.101 94.9245 349.11 95.3916C349.102 95.8619 349.213 96.3268 349.434 96.7454C349.648 97.1217 349.96 97.4366 350.338 97.6585C350.737 97.8716 351.187 97.9801 351.642 97.9733C352.093 97.9812 352.539 97.8726 352.934 97.6585Z" fill="#454545"/>
<path d="M362.24 92.6523C362.728 92.9194 363.128 93.3162 363.393 93.7962C363.679 94.3151 363.824 94.8969 363.813 95.4859C363.823 96.0841 363.671 96.6743 363.371 97.1966C363.096 97.6924 362.676 98.0978 362.165 98.3615C361.62 98.6501 361.008 98.7948 360.388 98.7813C359.887 98.8052 359.388 98.7131 358.931 98.5124C358.474 98.3117 358.073 98.0082 357.76 97.6269C357.106 96.7041 356.781 95.5983 356.833 94.4784C356.761 93.3334 357.051 92.1943 357.663 91.2145C358.305 90.4049 359.235 89.8584 360.269 89.6822L363.318 89L363.468 89.8186L360.603 90.4588C359.777 90.5838 359.019 90.9756 358.449 91.5713C357.941 92.2577 357.676 93.0866 357.695 93.9326C357.958 93.4376 358.357 93.0234 358.848 92.7362C359.359 92.4405 359.944 92.288 360.539 92.2954C361.128 92.2672 361.715 92.3902 362.24 92.6523ZM361.68 97.7213C362.054 97.5055 362.36 97.1932 362.564 96.8188C362.774 96.4121 362.881 95.9622 362.876 95.5069C362.889 95.0608 362.781 94.6191 362.564 94.2265C362.367 93.8586 362.064 93.5555 361.691 93.3554C361.298 93.1481 360.856 93.0433 360.409 93.0511C359.963 93.0447 359.521 93.1494 359.128 93.3554C358.755 93.5591 358.449 93.861 358.244 94.2265C358.032 94.621 357.924 95.0613 357.932 95.5069C357.927 95.9622 358.034 96.4121 358.244 96.8188C358.448 97.1932 358.753 97.5055 359.128 97.7213C359.519 97.9332 359.961 98.0417 360.409 98.0362C360.854 98.0428 361.293 97.9342 361.68 97.7213Z" fill="#454545"/>
<path d="M371.213 92.453C371.721 92.7338 372.142 93.1436 372.43 93.6389C372.713 94.1839 372.86 94.786 372.86 95.3968C372.86 96.0075 372.713 96.6097 372.43 97.1547C372.143 97.6538 371.722 98.0674 371.213 98.3511C370.681 98.6335 370.084 98.7781 369.479 98.7709C368.963 98.7762 368.453 98.6611 367.992 98.4351C367.55 98.2091 367.178 97.8721 366.915 97.459V101.153H366V92.0961H366.883V93.3975C367.138 92.9594 367.51 92.5967 367.96 92.348C368.433 92.1118 368.958 91.9928 369.489 92.0017C370.094 92.0036 370.688 92.1591 371.213 92.453ZM370.706 97.7004C371.091 97.4821 371.407 97.1666 371.622 96.7874C371.842 96.3688 371.953 95.9038 371.945 95.4335C371.953 94.9666 371.842 94.505 371.622 94.0902C371.407 93.711 371.091 93.3955 370.706 93.1771C370.312 92.9621 369.866 92.85 369.414 92.8518C368.961 92.8471 368.515 92.9593 368.121 93.1771C367.738 93.3931 367.425 93.7094 367.217 94.0902C366.988 94.5023 366.873 94.9651 366.883 95.4335C366.873 95.9052 366.988 96.3715 367.217 96.7874C367.425 97.1681 367.738 97.4844 368.121 97.7004C368.516 97.9145 368.962 98.0232 369.414 98.0153C369.869 98.008 370.315 97.8849 370.706 97.6584V97.7004Z" fill="#454545"/>
<path d="M379.388 92.6838C379.639 92.937 379.831 93.2391 379.954 93.57C380.076 93.901 380.126 94.2535 380.099 94.6044V98.7079H379.216V97.6584C379.005 98.0112 378.69 98.2931 378.311 98.4665C377.864 98.6736 377.373 98.7744 376.878 98.7603C376.23 98.7927 375.59 98.6033 375.069 98.2251C374.853 98.0595 374.68 97.847 374.565 97.6046C374.449 97.3621 374.392 97.0966 374.401 96.8293C374.391 96.5719 374.442 96.3158 374.55 96.0809C374.659 95.8461 374.821 95.6388 375.026 95.4754C375.607 95.0808 376.312 94.8954 377.018 94.9507H379.173V94.5519C379.191 94.313 379.156 94.0731 379.07 93.8486C378.985 93.624 378.851 93.4201 378.677 93.2505C378.278 92.9233 377.764 92.7613 377.244 92.7992C376.822 92.7997 376.403 92.8707 376.006 93.0091C375.61 93.1271 375.243 93.3237 374.929 93.5863L374.519 92.9147C374.885 92.6191 375.306 92.3947 375.758 92.2535C376.248 92.097 376.761 92.0191 377.277 92.0226C377.656 91.9894 378.039 92.0308 378.401 92.1444C378.764 92.258 379.099 92.4414 379.388 92.6838ZM378.311 97.7213C378.696 97.4679 378.987 97.0997 379.14 96.6718V95.6223H376.986C375.823 95.6223 375.241 96.0211 375.241 96.8083C375.231 96.9853 375.267 97.1619 375.347 97.3216C375.426 97.4812 375.545 97.6188 375.693 97.7213C376.065 97.9637 376.507 98.0816 376.954 98.0572C377.445 98.0863 377.933 97.9691 378.354 97.7213H378.311Z" fill="#454545"/>
<path d="M388.705 95.7587H387.229V98.7078H386.314V95.7587H384.838L382.759 98.7078H381.682L384.127 95.2969L381.854 92.0959H382.845L384.838 95.003H386.314V92.0959H387.229V95.003H388.705L390.708 92.0959H391.699L389.448 95.3179L391.893 98.7183H390.816L388.705 95.7587Z" fill="#454545"/>
<path d="M399.314 95.6747H393.638C393.671 96.3129 393.961 96.9127 394.446 97.3434C394.966 97.7709 395.63 97.9952 396.309 97.9731C396.708 97.977 397.104 97.9021 397.473 97.7527C397.826 97.6094 398.14 97.3864 398.388 97.102L398.905 97.6897C398.601 98.0418 398.212 98.3157 397.774 98.4874C397.239 98.6983 396.663 98.7934 396.087 98.7663C395.51 98.7391 394.947 98.5902 394.435 98.3299C393.907 98.0561 393.47 97.641 393.175 97.1335C392.868 96.602 392.712 96.0009 392.723 95.3914C392.71 94.7876 392.859 94.1909 393.153 93.6597C393.425 93.1605 393.836 92.7459 394.338 92.4633C394.854 92.1693 395.443 92.0204 396.04 92.033C396.634 92.0223 397.219 92.1712 397.731 92.4633C398.227 92.7454 398.634 93.1559 398.905 93.6492C399.201 94.1837 399.35 94.7841 399.336 95.3914L399.314 95.6747ZM394.392 93.4078C393.942 93.8272 393.673 94.3974 393.638 95.003H398.507C398.472 94.3974 398.202 93.8272 397.753 93.4078C397.531 93.2052 397.27 93.0471 396.985 92.9427C396.701 92.8382 396.398 92.7895 396.094 92.7991C395.783 92.7826 395.471 92.8281 395.179 92.9327C394.886 93.0374 394.618 93.199 394.392 93.4078Z" fill="#454545"/>
<path d="M401.566 92.0959H402.481V95.024H406.79V92.0959H407.705V98.7183H406.79V95.7902H402.481V98.7183H401.566V92.0959Z" fill="#454545"/>
<path d="M410.495 92.0959H411.432V97.3434L415.966 92.0959H416.817V98.7183H415.891V93.4708L411.378 98.7183H410.549L410.495 92.0959Z" fill="#454545"/>
<path d="M425.531 95.6749H419.844C419.859 95.9921 419.94 96.3032 420.08 96.5898C420.221 96.8764 420.419 97.1326 420.663 97.3436C421.177 97.773 421.838 97.9979 422.515 97.9733C422.914 97.9793 423.311 97.9042 423.678 97.7529C424.035 97.6096 424.353 97.3867 424.605 97.1022L425.111 97.6899C424.825 98.0382 424.455 98.3122 424.034 98.4875C423.56 98.6798 423.05 98.7762 422.537 98.7709C421.89 98.7835 421.252 98.6315 420.684 98.3301C420.156 98.0562 419.719 97.6412 419.424 97.1337C419.117 96.6022 418.961 96.001 418.972 95.3915C418.959 94.7877 419.108 94.1911 419.402 93.6598C419.679 93.1602 420.093 92.7458 420.598 92.4634C421.115 92.1812 421.697 92.033 422.289 92.033C422.881 92.033 423.464 92.1812 423.98 92.4634C424.479 92.7425 424.886 93.1537 425.154 93.6494C425.45 94.1839 425.599 94.7842 425.585 95.3915L425.531 95.6749ZM420.598 93.408C420.153 93.8304 419.884 94.3988 419.844 95.0032H424.669C424.631 94.3963 424.358 93.8263 423.905 93.408C423.448 93.0154 422.86 92.7988 422.251 92.7988C421.642 92.7988 421.055 93.0154 420.598 93.408Z" fill="#454545"/>
<path d="M430.82 94.8982H434.202V95.6853H430.82V94.8982Z" fill="#454545"/>
<path d="M440.104 92.0959H441.02V95.024H445.328V92.0959H446.244V98.7183H445.328V95.7902H441.02V98.7183H440.104V92.0959Z" fill="#454545"/>
<path d="M453.439 92.6836C453.69 92.9369 453.882 93.2389 454.005 93.5699C454.127 93.9009 454.177 94.2534 454.15 94.6042V98.7077H453.267V97.6582C453.056 98.011 452.741 98.293 452.362 98.4664C451.915 98.6735 451.424 98.7742 450.929 98.7602C450.281 98.7925 449.641 98.6032 449.12 98.225C448.904 98.0594 448.732 97.8468 448.616 97.6044C448.5 97.362 448.444 97.0965 448.452 96.8291C448.442 96.5718 448.493 96.3157 448.601 96.0808C448.71 95.8459 448.872 95.6387 449.077 95.4753C449.658 95.0807 450.363 94.8952 451.069 94.9505H453.224V94.5517C453.242 94.3129 453.207 94.073 453.121 93.8485C453.036 93.6239 452.902 93.4199 452.728 93.2504C452.329 92.9232 451.815 92.7612 451.296 92.7991C450.873 92.7996 450.454 92.8706 450.057 93.009C449.68 93.1334 449.332 93.3297 449.034 93.5862L448.624 92.9145C448.99 92.619 449.41 92.3945 449.863 92.2533C450.357 92.096 450.873 92.018 451.392 92.0224C452.137 91.9714 452.873 92.209 453.439 92.6836ZM452.362 97.7212C452.747 97.4677 453.038 97.0996 453.191 96.6717V95.6222H451.037C449.874 95.6222 449.292 96.021 449.292 96.8081C449.282 96.9852 449.319 97.1618 449.398 97.3214C449.477 97.4811 449.596 97.6186 449.744 97.7212C450.116 97.9636 450.558 98.0815 451.005 98.057C451.481 98.0776 451.953 97.9608 452.362 97.7212Z" fill="#454545"/>
<path d="M466.149 92.0959V98.7183H456.767V92.0959H457.683V97.9311H460.979V92.0959H461.905V97.9311H465.19V92.0959H466.149Z" fill="#454545"/>
<path d="M474.916 95.6749H469.229C469.245 95.9921 469.325 96.3032 469.466 96.5898C469.606 96.8764 469.804 97.1326 470.048 97.3436C470.562 97.773 471.224 97.9979 471.901 97.9733C472.3 97.9784 472.696 97.9034 473.064 97.7529C473.418 97.6095 473.731 97.3865 473.979 97.1022L474.496 97.6899C474.192 98.0419 473.804 98.3158 473.365 98.4875C472.83 98.6984 472.255 98.7936 471.678 98.7664C471.102 98.7392 470.538 98.5904 470.026 98.3301C469.498 98.0562 469.061 97.6412 468.766 97.1337C468.46 96.6022 468.304 96.001 468.314 95.3915C468.301 94.7877 468.45 94.1911 468.745 93.6598C469.02 93.1629 469.43 92.7491 469.929 92.4634C470.445 92.1695 471.034 92.0205 471.631 92.0331C472.225 92.0191 472.811 92.1683 473.322 92.4634C473.821 92.7425 474.228 93.1537 474.496 93.6494C474.793 94.1839 474.941 94.7842 474.927 95.3915L474.916 95.6749ZM469.983 93.408C469.538 93.8304 469.269 94.3988 469.229 95.0032H474.044C474.009 94.3975 473.74 93.8274 473.29 93.408C472.833 93.0154 472.246 92.7988 471.637 92.7988C471.028 92.7988 470.44 93.0154 469.983 93.408Z" fill="#454545"/>
<path d="M486.463 96.9027C486.478 97.1608 486.425 97.4184 486.31 97.6515C486.196 97.8845 486.022 98.0855 485.806 98.2356C485.219 98.5883 484.534 98.7534 483.846 98.7078H480.754V92.096H483.749C484.387 92.0598 485.022 92.2135 485.569 92.5368C485.781 92.6731 485.954 92.8609 486.069 93.0817C486.184 93.3026 486.238 93.5488 486.226 93.7962C486.236 94.1284 486.129 94.454 485.925 94.7198C485.705 94.9821 485.414 95.1786 485.084 95.2865C485.481 95.3363 485.844 95.5306 486.1 95.8305C486.356 96.1303 486.485 96.5134 486.463 96.9027ZM481.648 95.0241H483.684C484.106 95.047 484.526 94.9484 484.891 94.7407C485.029 94.6452 485.14 94.5171 485.213 94.3684C485.286 94.2198 485.32 94.0554 485.311 93.8906C485.319 93.729 485.285 93.5678 485.212 93.4226C485.138 93.2774 485.028 93.1531 484.891 93.0616C484.524 92.8575 484.105 92.7626 483.684 92.7887H481.648V95.0241ZM485.117 97.7213C485.264 97.6279 485.382 97.4978 485.46 97.3446C485.537 97.1914 485.571 97.0206 485.558 96.8502C485.567 96.6847 485.536 96.5195 485.466 96.368C485.397 96.2166 485.292 96.0834 485.16 95.9792C484.776 95.7591 484.332 95.66 483.889 95.6958H481.648V98.0047H483.803C484.259 98.0342 484.715 97.9358 485.117 97.7213Z" fill="#454545"/>
<path d="M489.845 98.33C489.325 98.0525 488.896 97.6378 488.607 97.1336C488.3 96.6021 488.144 96.0009 488.154 95.3914C488.144 94.7852 488.3 94.1873 488.607 93.6597C488.896 93.1555 489.325 92.7408 489.845 92.4633C490.391 92.1812 490.999 92.0337 491.617 92.0337C492.235 92.0337 492.843 92.1812 493.389 92.4633C493.908 92.7382 494.335 93.1537 494.617 93.6597C494.923 94.1873 495.08 94.7852 495.069 95.3914C495.079 96.0009 494.923 96.6021 494.617 97.1336C494.335 97.6396 493.908 98.0551 493.389 98.33C492.846 98.6193 492.236 98.771 491.617 98.771C490.998 98.771 490.389 98.6193 489.845 98.33ZM492.915 97.6583C493.295 97.4421 493.605 97.1256 493.809 96.7452C494.029 96.3266 494.14 95.8617 494.132 95.3914C494.141 94.9243 494.03 94.4624 493.809 94.048C493.611 93.6635 493.3 93.3454 492.915 93.135C492.517 92.9218 492.071 92.8101 491.617 92.8101C491.163 92.8101 490.717 92.9218 490.319 93.135C489.931 93.3448 489.616 93.6627 489.414 94.048C489.189 94.4615 489.074 94.9234 489.08 95.3914C489.076 95.8626 489.191 96.3276 489.414 96.7452C489.622 97.126 489.936 97.4423 490.319 97.6583C490.719 97.865 491.165 97.9732 491.617 97.9732C492.07 97.9732 492.515 97.865 492.915 97.6583Z" fill="#454545"/>
<path d="M503.331 92.0959V98.7183H502.415V92.8831H498.107V98.7183H497.191V92.0959H503.331Z" fill="#454545"/>
<path d="M511.7 92.0959V98.7183H510.784V92.8831H507.553L507.467 94.5203C507.439 95.586 507.272 96.6439 506.971 97.6688C506.905 97.9781 506.732 98.2561 506.481 98.4565C506.23 98.657 505.917 98.7678 505.592 98.7707C505.37 98.765 505.15 98.7333 504.935 98.6763L505 97.8996C505.105 97.9312 505.214 97.9489 505.323 97.9521C505.488 97.955 505.651 97.9121 505.792 97.8285C505.933 97.7449 506.047 97.624 506.12 97.4799C506.318 97.1113 506.439 96.7082 506.476 96.2939C506.54 95.8216 506.594 95.2444 506.637 94.4258L506.756 92.0645L511.7 92.0959Z" fill="#454545"/>
<path d="M515.556 98.3302C515.036 98.0526 514.606 97.638 514.317 97.1337C514.011 96.6023 513.854 96.0011 513.865 95.3916C513.854 94.7854 514.01 94.1875 514.317 93.6599C514.606 93.1556 515.036 92.741 515.556 92.4635C516.099 92.1805 516.706 92.0325 517.322 92.0325C517.938 92.0325 518.545 92.1805 519.089 92.4635C519.609 92.741 520.038 93.1556 520.327 93.6599C520.631 94.1883 520.783 94.7863 520.769 95.3916C520.783 96.0002 520.63 96.6014 520.327 97.1337C520.038 97.638 519.609 98.0526 519.089 98.3302C518.547 98.6195 517.94 98.7712 517.322 98.7712C516.705 98.7712 516.097 98.6195 515.556 98.3302ZM518.625 97.6585C519.003 97.4392 519.312 97.1235 519.519 96.7454C519.74 96.3268 519.851 95.8619 519.843 95.3916C519.852 94.9245 519.741 94.4626 519.519 94.0482C519.319 93.6658 519.008 93.3486 518.625 93.1351C518.229 92.9136 517.779 92.8012 517.322 92.8098C516.869 92.7999 516.421 92.9125 516.03 93.1351C515.641 93.3449 515.326 93.6629 515.125 94.0482C514.895 94.4598 514.78 94.923 514.791 95.3916C514.781 95.8633 514.896 96.3295 515.125 96.7454C515.333 97.1261 515.646 97.4424 516.03 97.6585C516.424 97.8726 516.87 97.9812 517.322 97.9733C517.777 97.9801 518.226 97.8716 518.625 97.6585Z" fill="#454545"/>
<path d="M532.316 92.0959V98.7183H522.945V92.0959H523.86V97.9311H527.189V92.0959H528.115V97.9311H531.4V92.0959H532.316ZM533.393 97.9311V100.167H532.52V98.7078H531.378V97.9206L533.393 97.9311Z" fill="#454545"/>
<path d="M541.094 95.6749H535.407C535.422 95.9921 535.502 96.3032 535.643 96.5898C535.784 96.8764 535.982 97.1326 536.225 97.3436C536.74 97.773 537.401 97.9979 538.078 97.9733C538.477 97.9793 538.873 97.9042 539.241 97.7529C539.598 97.6096 539.915 97.3867 540.168 97.1022L540.685 97.6899C540.38 98.0419 539.992 98.3158 539.554 98.4875C539.079 98.6798 538.57 98.7762 538.056 98.7709C537.41 98.7835 536.771 98.6315 536.204 98.3301C535.675 98.0562 535.238 97.6412 534.944 97.1337C534.637 96.6022 534.481 96.001 534.491 95.3915C534.479 94.7877 534.627 94.1911 534.922 93.6598C535.198 93.1602 535.612 92.7458 536.118 92.4634C536.634 92.1812 537.216 92.033 537.809 92.033C538.401 92.033 538.983 92.1812 539.5 92.4634C539.999 92.7449 540.409 93.1553 540.685 93.6494C540.972 94.1867 541.116 94.7857 541.105 95.3915L541.094 95.6749ZM536.161 93.408C535.715 93.8304 535.447 94.3988 535.407 95.0032H540.232C540.194 94.3963 539.92 93.8263 539.467 93.408C539.011 93.0154 538.423 92.7988 537.814 92.7988C537.205 92.7988 536.617 93.0154 536.161 93.408Z" fill="#454545"/>
<path d="M543.345 92.0959H544.261V95.024H548.569V92.0959H549.485V98.7183H548.569V95.7902H544.261V98.7183H543.345V92.0959Z" fill="#454545"/>
<path d="M552.263 92.0959H553.179V97.3434L557.714 92.0959H558.532V98.7183H557.617V93.4708L553.093 98.7183H552.263V92.0959Z" fill="#454545"/>
<path d="M567.3 95.6747H561.624C561.638 95.9913 561.716 96.3018 561.855 96.5884C561.994 96.8749 562.19 97.1316 562.431 97.3434C562.95 97.7727 563.615 97.9973 564.295 97.9731C564.694 97.9771 565.09 97.9021 565.458 97.7528C565.812 97.6094 566.125 97.3864 566.374 97.102L566.891 97.6898C566.586 98.0418 566.198 98.3157 565.76 98.4874C565.223 98.6985 564.645 98.7937 564.067 98.7666C563.489 98.7394 562.923 98.5905 562.41 98.33C561.882 98.0561 561.444 97.641 561.15 97.1335C560.843 96.6021 560.687 96.0009 560.697 95.3914C560.689 94.7867 560.841 94.1901 561.139 93.6597C561.408 93.1584 561.819 92.7431 562.324 92.4633C562.842 92.1811 563.426 92.033 564.02 92.033C564.614 92.033 565.198 92.1811 565.717 92.4633C566.213 92.7455 566.619 93.1559 566.891 93.6492C567.178 94.1865 567.322 94.7856 567.311 95.3914L567.3 95.6747ZM562.378 93.4078C561.928 93.8272 561.658 94.3974 561.624 95.0031H566.438C566.398 94.3987 566.13 93.8303 565.684 93.4078C565.462 93.2052 565.202 93.0472 564.917 92.9427C564.632 92.8383 564.329 92.7895 564.026 92.7991C563.723 92.7897 563.422 92.8387 563.139 92.9431C562.856 93.0476 562.598 93.2055 562.378 93.4078Z" fill="#454545"/>
</g>
<defs>
<clipPath id="clip0_83_163">
<rect width="475" height="99" fill="white" transform="translate(93 89)"/>
</clipPath>
</defs>
</svg>
