<svg width="268" height="216" viewBox="0 0 268 216" fill="none" xmlns="http://www.w3.org/2000/svg">
<g filter="url(#filter0_d_83_253)">
<rect x="8" y="6" width="252" height="200" rx="5" fill="white"/>
</g>
<path d="M92.124 172V159.4H100.134V160.552H93.078L93.42 160.21L93.438 172H92.124ZM103.265 172.09C102.353 172.09 101.531 171.886 100.799 171.478C100.079 171.058 99.5086 170.488 99.0886 169.768C98.6686 169.036 98.4586 168.202 98.4586 167.266C98.4586 166.318 98.6686 165.484 99.0886 164.764C99.5086 164.044 100.079 163.48 100.799 163.072C101.519 162.664 102.341 162.46 103.265 162.46C104.201 162.46 105.029 162.664 105.749 163.072C106.481 163.48 107.051 164.044 107.459 164.764C107.879 165.484 108.089 166.318 108.089 167.266C108.089 168.202 107.879 169.036 107.459 169.768C107.051 170.488 106.481 171.058 105.749 171.478C105.017 171.886 104.189 172.09 103.265 172.09ZM103.265 170.956C103.949 170.956 104.555 170.806 105.083 170.506C105.611 170.194 106.025 169.762 106.325 169.21C106.637 168.646 106.793 167.998 106.793 167.266C106.793 166.522 106.637 165.874 106.325 165.322C106.025 164.77 105.611 164.344 105.083 164.044C104.555 163.732 103.955 163.576 103.283 163.576C102.611 163.576 102.011 163.732 101.483 164.044C100.955 164.344 100.535 164.77 100.223 165.322C99.9106 165.874 99.7546 166.522 99.7546 167.266C99.7546 167.998 99.9106 168.646 100.223 169.21C100.535 169.762 100.955 170.194 101.483 170.506C102.011 170.806 102.605 170.956 103.265 170.956ZM114.78 172.09C113.844 172.09 113.004 171.886 112.26 171.478C111.528 171.058 110.952 170.488 110.532 169.768C110.112 169.036 109.902 168.202 109.902 167.266C109.902 166.318 110.112 165.484 110.532 164.764C110.952 164.044 111.528 163.48 112.26 163.072C113.004 162.664 113.844 162.46 114.78 162.46C115.584 162.46 116.31 162.616 116.958 162.928C117.606 163.24 118.116 163.708 118.488 164.332L117.534 164.98C117.21 164.5 116.808 164.146 116.328 163.918C115.848 163.69 115.326 163.576 114.762 163.576C114.09 163.576 113.484 163.732 112.944 164.044C112.404 164.344 111.978 164.77 111.666 165.322C111.354 165.874 111.198 166.522 111.198 167.266C111.198 168.01 111.354 168.658 111.666 169.21C111.978 169.762 112.404 170.194 112.944 170.506C113.484 170.806 114.09 170.956 114.762 170.956C115.326 170.956 115.848 170.842 116.328 170.614C116.808 170.386 117.21 170.038 117.534 169.57L118.488 170.218C118.116 170.83 117.606 171.298 116.958 171.622C116.31 171.934 115.584 172.09 114.78 172.09ZM122.587 172V163.324L122.911 163.666H119.005V162.55H127.447V163.666H123.541L123.865 163.324V172H122.587ZM129.295 172V162.55H130.573V170.056L136.891 162.55H138.025V172H136.747V164.476L130.447 172H129.295ZM141.687 172V162.55H142.965V166.726H148.923V162.55H150.201V172H148.923V167.824H142.965V172H141.687ZM163.05 172V162.55H164.328V172H163.05ZM157.812 165.88C159 165.892 159.906 166.156 160.53 166.672C161.154 167.188 161.466 167.932 161.466 168.904C161.466 169.912 161.13 170.686 160.458 171.226C159.786 171.766 158.826 172.03 157.578 172.018L153.834 172V162.55H155.112V165.844L157.812 165.88ZM157.488 171.046C158.376 171.058 159.042 170.884 159.486 170.524C159.942 170.152 160.17 169.612 160.17 168.904C160.17 168.196 159.948 167.68 159.504 167.356C159.06 167.02 158.388 166.846 157.488 166.834L155.112 166.798V171.01L157.488 171.046ZM172.016 172.09C171.032 172.09 170.168 171.886 169.424 171.478C168.68 171.058 168.098 170.488 167.678 169.768C167.258 169.036 167.048 168.202 167.048 167.266C167.048 166.33 167.246 165.502 167.642 164.782C168.05 164.062 168.602 163.498 169.298 163.09C170.006 162.67 170.798 162.46 171.674 162.46C172.562 162.46 173.348 162.664 174.032 163.072C174.728 163.468 175.274 164.032 175.67 164.764C176.066 165.484 176.264 166.318 176.264 167.266C176.264 167.326 176.258 167.392 176.246 167.464C176.246 167.524 176.246 167.59 176.246 167.662H168.02V166.708H175.562L175.058 167.086C175.058 166.402 174.908 165.796 174.608 165.268C174.32 164.728 173.924 164.308 173.42 164.008C172.916 163.708 172.334 163.558 171.674 163.558C171.026 163.558 170.444 163.708 169.928 164.008C169.412 164.308 169.01 164.728 168.722 165.268C168.434 165.808 168.29 166.426 168.29 167.122V167.32C168.29 168.04 168.446 168.676 168.758 169.228C169.082 169.768 169.526 170.194 170.09 170.506C170.666 170.806 171.32 170.956 172.052 170.956C172.628 170.956 173.162 170.854 173.654 170.65C174.158 170.446 174.59 170.134 174.95 169.714L175.67 170.542C175.25 171.046 174.722 171.43 174.086 171.694C173.462 171.958 172.772 172.09 172.016 172.09Z" fill="#454545"/>
<path d="M96.5977 91.5684C97.1563 90.2578 98.1602 89.8106 99.5605 89.8106C106.908 89.8496 114.256 89.8223 121.604 89.8398C122.129 89.8398 122.408 89.7207 122.656 89.2168C123.367 87.7695 124.609 87.1231 126.199 87.0293C128.436 86.8965 130.668 86.7227 132.947 86.5645V84.1797H113.533C113.289 84.1797 113.045 84.1797 112.801 84.1797C111.393 84.0938 110.506 83.1797 110.506 81.7617C110.506 72.4609 110.506 63.1602 110.506 53.8594C110.506 52.3789 111.447 51.4375 112.936 51.4355C127.046 51.4355 141.156 51.4355 155.266 51.4355C156.748 51.4355 157.689 52.3848 157.689 53.8672C157.689 63.1445 157.689 72.4212 157.689 81.6973C157.689 83.2598 156.766 84.1719 155.164 84.1816C152.527 84.1973 149.891 84.1816 147.254 84.1816H135.262V86.5391C135.938 86.5996 136.629 86.6699 137.328 86.7207C138.959 86.8359 140.592 86.9316 142.221 87.0547C143.754 87.1699 144.92 87.8965 145.576 89.293C145.799 89.7695 146.072 89.8418 146.525 89.8418C153.923 89.8314 161.319 89.8314 168.715 89.8418C170.773 89.8418 171.596 90.6641 171.596 92.7227V114.021C171.596 115.895 170.738 116.768 168.887 116.768C145.695 116.768 122.504 116.773 99.3125 116.783C97.957 116.783 97.0957 116.219 96.5957 115.006L96.5977 91.5684ZM112.725 81.9238H155.449V79.3457H122.832C122.516 79.3556 122.199 79.3399 121.885 79.2988C121.632 79.2552 121.404 79.1226 121.241 78.9252C121.078 78.7278 120.991 78.4785 120.996 78.2225C121 77.9665 121.096 77.7206 121.267 77.5293C121.437 77.338 121.67 77.214 121.924 77.1797C122.215 77.152 122.508 77.1429 122.801 77.1523H155.441V53.6816H112.74V77.1484H113.568C114.668 77.1484 115.766 77.1367 116.865 77.1484C117.607 77.1602 118.088 77.6016 118.094 78.2227C118.1 78.8438 117.625 79.2871 116.885 79.3301C116.445 79.3535 116.006 79.3301 115.566 79.3301C114.627 79.3301 113.688 79.3301 112.725 79.3301V81.9238ZM151.17 106.596V92.0684H135.244V106.596H151.17ZM132.973 99.332H117.033V103.861C119.098 103.861 121.115 103.861 123.135 103.861C124.412 103.861 125.012 104.465 125.014 105.744C125.014 108.111 125.014 110.477 125.014 112.842V114.52H132.971L132.973 99.332ZM153.465 100.074V114.518H157.391C156.609 113.033 156.357 111.488 157.209 110.125C158.088 108.719 158.701 107.373 158.641 105.662C158.602 104.576 159.658 103.881 160.84 103.861C163.033 103.826 163.893 104.252 164.16 105.582C164.238 106.039 164.262 106.503 164.232 106.965C164.209 107.355 164.263 107.747 164.393 108.116C164.523 108.485 164.725 108.824 164.988 109.113C165.382 109.55 165.678 110.065 165.858 110.625C166.037 111.184 166.097 111.775 166.031 112.359C165.951 113.094 165.709 113.809 165.543 114.521H169.352V100.068L153.465 100.074ZM98.8438 92.0684V105.154H103.404C103.418 105.123 103.428 105.089 103.434 105.055C103.297 103.992 103.16 102.929 103.021 101.865C102.807 100.225 102.998 99.9121 104.605 99.4141C104.404 99.108 104.185 98.8139 103.949 98.5332C103.053 97.5684 102.689 96.3574 102.359 95.1328C102.164 94.4375 102.484 93.8672 103.111 93.6875C103.697 93.5234 104.23 93.8379 104.463 94.5C104.609 94.9141 104.658 95.375 104.854 95.752C105.299 96.5664 105.83 97.3418 106.416 98.291C106.568 97.8008 106.654 97.5547 106.721 97.3047C106.867 96.7578 107.203 96.3594 107.76 96.3047C108.602 96.2207 109 95.7617 109.127 94.9785C109.146 94.8822 109.179 94.789 109.223 94.7012C109.482 94.1328 110.053 93.8574 110.607 94.0781C111.162 94.2988 111.434 94.7578 111.281 95.3672C111.15 95.8848 110.937 96.3828 110.814 96.9043C110.648 97.6133 110.205 98.0313 109.516 98.1055C108.654 98.1992 108.488 98.7402 108.455 99.4863C108.65 99.5 108.824 99.5195 108.99 99.5234C110.553 99.5645 111.041 100.125 110.834 101.672C110.682 102.822 110.533 103.975 110.379 105.148H114.721V92.0625L98.8438 92.0684ZM98.8281 107.426V114.516H114.744V107.426H98.8281ZM169.352 97.8086V92.0684H153.453V97.8086H169.352ZM135.24 114.533H151.168V108.869H135.24V114.533ZM132.988 92.0938H117.041V97.0859H127.105C128.863 97.0859 130.621 97.0957 132.379 97.0723C132.586 97.0723 132.965 96.877 132.965 96.7637C133 95.2129 132.988 93.6602 132.988 92.0938ZM160.758 106.098C160.758 106.422 160.746 106.709 160.758 106.996C160.821 108.253 160.39 109.484 159.559 110.428C158.635 111.537 158.727 112.994 159.73 113.912C160.183 114.329 160.776 114.56 161.391 114.56C162.006 114.56 162.598 114.329 163.051 113.912C164.045 113.012 164.143 111.521 163.213 110.424C162.381 109.48 161.954 108.247 162.023 106.99C162.035 106.705 162.023 106.418 162.023 106.092L160.758 106.098ZM117.029 106.098V114.533H118.773V106.1L117.029 106.098ZM121.068 106.084V114.521H122.762V106.084H121.068ZM143.139 89.7949L143.184 89.5684C142.782 89.4378 142.373 89.3289 141.959 89.2422C141.529 89.1699 141.086 89.168 140.648 89.1387C138.387 88.9883 136.125 88.7031 133.865 88.7266C131.311 88.75 128.758 89.0391 126.207 89.2441C125.789 89.2793 125.387 89.4746 124.977 89.5957L125.037 89.791L143.139 89.7949ZM108.609 101.773H105.217L105.68 105.146H108.139L108.609 101.773Z" fill="#454545"/>
<path d="M140.233 103.008C141.19 103.008 142.149 102.995 143.106 103.008C144.016 103.026 144.578 103.504 144.59 104.229C144.602 104.954 144.031 105.471 143.141 105.479C141.224 105.495 139.308 105.495 137.393 105.479C136.555 105.469 136.012 104.963 136 104.266C135.988 103.569 136.529 103.042 137.367 103.016C138.32 102.987 139.274 103.008 140.233 103.008Z" fill="#FF7D04"/>
<path d="M148.264 103.016C148.682 102.995 149.1 102.995 149.518 103.016C150.231 103.088 150.701 103.485 150.711 104.227C150.721 104.969 150.258 105.399 149.539 105.456C148.674 105.518 147.806 105.518 146.942 105.456C146.276 105.401 145.856 104.977 145.846 104.262C145.836 103.547 146.252 103.145 146.914 103.042C147.361 103.003 147.81 102.998 148.258 103.028L148.264 103.016Z" fill="#FF7D04"/>
<defs>
<filter id="filter0_d_83_253" x="0" y="0" width="268" height="216" filterUnits="userSpaceOnUse" color-interpolation-filters="sRGB">
<feFlood flood-opacity="0" result="BackgroundImageFix"/>
<feColorMatrix in="SourceAlpha" type="matrix" values="0 0 0 0 0 0 0 0 0 0 0 0 0 0 0 0 0 0 127 0" result="hardAlpha"/>
<feOffset dy="2"/>
<feGaussianBlur stdDeviation="4"/>
<feComposite in2="hardAlpha" operator="out"/>
<feColorMatrix type="matrix" values="0 0 0 0 0 0 0 0 0 0 0 0 0 0 0 0 0 0 0.25 0"/>
<feBlend mode="normal" in2="BackgroundImageFix" result="effect1_dropShadow_83_253"/>
<feBlend mode="normal" in="SourceGraphic" in2="effect1_dropShadow_83_253" result="shape"/>
</filter>
</defs>
</svg>
