<svg width="268" height="216" viewBox="0 0 268 216" fill="none" xmlns="http://www.w3.org/2000/svg">
<g filter="url(#filter0_d_21_116)">
<rect x="8" y="6" width="252" height="200" rx="5" fill="#FF7D04"/>
</g>
<line x1="8" y1="177.5" x2="58" y2="177.5" stroke="white"/>
<line x1="210" y1="177.5" x2="260" y2="177.5" stroke="white"/>
<path d="M94.784 184.096C93.9413 184.096 93.1627 183.957 92.448 183.68C91.7333 183.392 91.1147 182.992 90.592 182.48C90.0693 181.968 89.6587 181.365 89.36 180.672C89.072 179.979 88.928 179.221 88.928 178.4C88.928 177.579 89.072 176.821 89.36 176.128C89.6587 175.435 90.0693 174.832 90.592 174.32C91.1253 173.808 91.7493 173.413 92.464 173.136C93.1787 172.848 93.9573 172.704 94.8 172.704C95.6107 172.704 96.3733 172.843 97.088 173.12C97.8027 173.387 98.4053 173.792 98.896 174.336L98.144 175.088C97.6853 174.619 97.1787 174.283 96.624 174.08C96.0693 173.867 95.472 173.76 94.832 173.76C94.16 173.76 93.536 173.877 92.96 174.112C92.384 174.336 91.8827 174.661 91.456 175.088C91.0293 175.504 90.6933 175.995 90.448 176.56C90.2133 177.115 90.096 177.728 90.096 178.4C90.096 179.072 90.2133 179.691 90.448 180.256C90.6933 180.811 91.0293 181.301 91.456 181.728C91.8827 182.144 92.384 182.469 92.96 182.704C93.536 182.928 94.16 183.04 94.832 183.04C95.472 183.04 96.0693 182.933 96.624 182.72C97.1787 182.507 97.6853 182.165 98.144 181.696L98.896 182.448C98.4053 182.992 97.8027 183.403 97.088 183.68C96.3733 183.957 95.6053 184.096 94.784 184.096ZM101.341 184V172.8H102.317L107.437 181.536H106.925L111.997 172.8H112.973V184H111.837V174.576H112.109L107.437 182.576H106.877L102.173 174.576H102.477V184H101.341ZM121.659 184.096C120.817 184.096 120.033 183.957 119.307 183.68C118.593 183.392 117.969 182.992 117.435 182.48C116.913 181.957 116.502 181.355 116.203 180.672C115.915 179.979 115.771 179.221 115.771 178.4C115.771 177.579 115.915 176.827 116.203 176.144C116.502 175.451 116.913 174.848 117.435 174.336C117.969 173.813 118.593 173.413 119.307 173.136C120.022 172.848 120.806 172.704 121.659 172.704C122.502 172.704 123.281 172.848 123.995 173.136C124.71 173.413 125.329 173.808 125.851 174.32C126.385 174.832 126.795 175.435 127.083 176.128C127.382 176.821 127.531 177.579 127.531 178.4C127.531 179.221 127.382 179.979 127.083 180.672C126.795 181.365 126.385 181.968 125.851 182.48C125.329 182.992 124.71 183.392 123.995 183.68C123.281 183.957 122.502 184.096 121.659 184.096ZM121.659 183.04C122.331 183.04 122.95 182.928 123.515 182.704C124.091 182.469 124.587 182.144 125.003 181.728C125.43 181.301 125.761 180.811 125.995 180.256C126.23 179.691 126.347 179.072 126.347 178.4C126.347 177.728 126.23 177.115 125.995 176.56C125.761 175.995 125.43 175.504 125.003 175.088C124.587 174.661 124.091 174.336 123.515 174.112C122.95 173.877 122.331 173.76 121.659 173.76C120.987 173.76 120.363 173.877 119.787 174.112C119.211 174.336 118.71 174.661 118.283 175.088C117.867 175.504 117.537 175.995 117.291 176.56C117.057 177.115 116.939 177.728 116.939 178.4C116.939 179.061 117.057 179.675 117.291 180.24C117.537 180.805 117.867 181.301 118.283 181.728C118.71 182.144 119.211 182.469 119.787 182.704C120.363 182.928 120.987 183.04 121.659 183.04ZM132.424 184V173.504L132.745 173.824H128.489V172.8H137.529V173.824H133.289L133.593 173.504V184H132.424ZM139.607 184V172.8H143.799C144.748 172.8 145.564 172.955 146.247 173.264C146.929 173.563 147.452 174 147.815 174.576C148.188 175.141 148.375 175.829 148.375 176.64C148.375 177.429 148.188 178.112 147.815 178.688C147.452 179.253 146.929 179.691 146.247 180C145.564 180.309 144.748 180.464 143.799 180.464H140.263L140.791 179.904V184H139.607ZM140.791 180L140.263 179.424H143.767C144.887 179.424 145.735 179.184 146.311 178.704C146.897 178.213 147.191 177.525 147.191 176.64C147.191 175.744 146.897 175.051 146.311 174.56C145.735 174.069 144.887 173.824 143.767 173.824H140.263L140.791 173.264V180ZM151.85 177.808H157.77V178.816H151.85V177.808ZM151.978 182.976H158.714V184H150.794V172.8H158.474V173.824H151.978V182.976ZM163.565 184V173.504L163.885 173.824H159.629V172.8H168.669V173.824H164.429L164.733 173.504V184H163.565ZM175.435 176.8C176.758 176.8 177.766 177.099 178.459 177.696C179.163 178.283 179.515 179.157 179.515 180.32C179.515 181.525 179.142 182.443 178.395 183.072C177.649 183.691 176.582 184 175.195 184H170.747V172.8H171.915V176.8H175.435ZM175.163 183.056C176.198 183.056 176.982 182.827 177.515 182.368C178.059 181.909 178.331 181.237 178.331 180.352C178.331 179.467 178.065 178.816 177.531 178.4C176.998 177.973 176.209 177.76 175.163 177.76H171.915V183.056H175.163Z" fill="white"/>
<path d="M92.124 140V127.4H100.134V128.552H93.078L93.42 128.21L93.438 140H92.124ZM103.265 140.09C102.353 140.09 101.531 139.886 100.799 139.478C100.079 139.058 99.5086 138.488 99.0886 137.768C98.6686 137.036 98.4586 136.202 98.4586 135.266C98.4586 134.318 98.6686 133.484 99.0886 132.764C99.5086 132.044 100.079 131.48 100.799 131.072C101.519 130.664 102.341 130.46 103.265 130.46C104.201 130.46 105.029 130.664 105.749 131.072C106.481 131.48 107.051 132.044 107.459 132.764C107.879 133.484 108.089 134.318 108.089 135.266C108.089 136.202 107.879 137.036 107.459 137.768C107.051 138.488 106.481 139.058 105.749 139.478C105.017 139.886 104.189 140.09 103.265 140.09ZM103.265 138.956C103.949 138.956 104.555 138.806 105.083 138.506C105.611 138.194 106.025 137.762 106.325 137.21C106.637 136.646 106.793 135.998 106.793 135.266C106.793 134.522 106.637 133.874 106.325 133.322C106.025 132.77 105.611 132.344 105.083 132.044C104.555 131.732 103.955 131.576 103.283 131.576C102.611 131.576 102.011 131.732 101.483 132.044C100.955 132.344 100.535 132.77 100.223 133.322C99.9106 133.874 99.7546 134.522 99.7546 135.266C99.7546 135.998 99.9106 136.646 100.223 137.21C100.535 137.762 100.955 138.194 101.483 138.506C102.011 138.806 102.605 138.956 103.265 138.956ZM114.78 140.09C113.844 140.09 113.004 139.886 112.26 139.478C111.528 139.058 110.952 138.488 110.532 137.768C110.112 137.036 109.902 136.202 109.902 135.266C109.902 134.318 110.112 133.484 110.532 132.764C110.952 132.044 111.528 131.48 112.26 131.072C113.004 130.664 113.844 130.46 114.78 130.46C115.584 130.46 116.31 130.616 116.958 130.928C117.606 131.24 118.116 131.708 118.488 132.332L117.534 132.98C117.21 132.5 116.808 132.146 116.328 131.918C115.848 131.69 115.326 131.576 114.762 131.576C114.09 131.576 113.484 131.732 112.944 132.044C112.404 132.344 111.978 132.77 111.666 133.322C111.354 133.874 111.198 134.522 111.198 135.266C111.198 136.01 111.354 136.658 111.666 137.21C111.978 137.762 112.404 138.194 112.944 138.506C113.484 138.806 114.09 138.956 114.762 138.956C115.326 138.956 115.848 138.842 116.328 138.614C116.808 138.386 117.21 138.038 117.534 137.57L118.488 138.218C118.116 138.83 117.606 139.298 116.958 139.622C116.31 139.934 115.584 140.09 114.78 140.09ZM122.587 140V131.324L122.911 131.666H119.005V130.55H127.447V131.666H123.541L123.865 131.324V140H122.587ZM129.295 140V130.55H130.573V138.056L136.891 130.55H138.025V140H136.747V132.476L130.447 140H129.295ZM141.687 140V130.55H142.965V134.726H148.923V130.55H150.201V140H148.923V135.824H142.965V140H141.687ZM163.05 140V130.55H164.328V140H163.05ZM157.812 133.88C159 133.892 159.906 134.156 160.53 134.672C161.154 135.188 161.466 135.932 161.466 136.904C161.466 137.912 161.13 138.686 160.458 139.226C159.786 139.766 158.826 140.03 157.578 140.018L153.834 140V130.55H155.112V133.844L157.812 133.88ZM157.488 139.046C158.376 139.058 159.042 138.884 159.486 138.524C159.942 138.152 160.17 137.612 160.17 136.904C160.17 136.196 159.948 135.68 159.504 135.356C159.06 135.02 158.388 134.846 157.488 134.834L155.112 134.798V139.01L157.488 139.046ZM172.016 140.09C171.032 140.09 170.168 139.886 169.424 139.478C168.68 139.058 168.098 138.488 167.678 137.768C167.258 137.036 167.048 136.202 167.048 135.266C167.048 134.33 167.246 133.502 167.642 132.782C168.05 132.062 168.602 131.498 169.298 131.09C170.006 130.67 170.798 130.46 171.674 130.46C172.562 130.46 173.348 130.664 174.032 131.072C174.728 131.468 175.274 132.032 175.67 132.764C176.066 133.484 176.264 134.318 176.264 135.266C176.264 135.326 176.258 135.392 176.246 135.464C176.246 135.524 176.246 135.59 176.246 135.662H168.02V134.708H175.562L175.058 135.086C175.058 134.402 174.908 133.796 174.608 133.268C174.32 132.728 173.924 132.308 173.42 132.008C172.916 131.708 172.334 131.558 171.674 131.558C171.026 131.558 170.444 131.708 169.928 132.008C169.412 132.308 169.01 132.728 168.722 133.268C168.434 133.808 168.29 134.426 168.29 135.122V135.32C168.29 136.04 168.446 136.676 168.758 137.228C169.082 137.768 169.526 138.194 170.09 138.506C170.666 138.806 171.32 138.956 172.052 138.956C172.628 138.956 173.162 138.854 173.654 138.65C174.158 138.446 174.59 138.134 174.95 137.714L175.67 138.542C175.25 139.046 174.722 139.43 174.086 139.694C173.462 139.958 172.772 140.09 172.016 140.09Z" fill="white"/>
<path d="M96.5977 80.5684C97.1563 79.2578 98.1602 78.8106 99.5605 78.8106C106.908 78.8496 114.256 78.8223 121.604 78.8398C122.129 78.8398 122.408 78.7207 122.656 78.2168C123.367 76.7695 124.609 76.1231 126.199 76.0293C128.436 75.8965 130.668 75.7227 132.947 75.5645V73.1797H113.533C113.289 73.1797 113.045 73.1797 112.801 73.1797C111.393 73.0938 110.506 72.1797 110.506 70.7617C110.506 61.4609 110.506 52.1602 110.506 42.8594C110.506 41.3789 111.447 40.4375 112.936 40.4355C127.046 40.4355 141.156 40.4355 155.266 40.4355C156.748 40.4355 157.689 41.3848 157.689 42.8672C157.689 52.1445 157.689 61.4212 157.689 70.6973C157.689 72.2598 156.766 73.1719 155.164 73.1816C152.527 73.1973 149.891 73.1816 147.254 73.1816H135.262V75.5391C135.938 75.5996 136.629 75.6699 137.328 75.7207C138.959 75.8359 140.592 75.9316 142.221 76.0547C143.754 76.1699 144.92 76.8965 145.576 78.293C145.799 78.7695 146.072 78.8418 146.525 78.8418C153.923 78.8314 161.319 78.8314 168.715 78.8418C170.773 78.8418 171.596 79.6641 171.596 81.7227V103.021C171.596 104.895 170.738 105.768 168.887 105.768C145.695 105.768 122.504 105.773 99.3125 105.783C97.957 105.783 97.0957 105.219 96.5957 104.006L96.5977 80.5684ZM112.725 70.9238H155.449V68.3457H122.832C122.516 68.3556 122.199 68.3399 121.885 68.2988C121.632 68.2552 121.404 68.1226 121.241 67.9252C121.078 67.7278 120.991 67.4785 120.996 67.2225C121 66.9665 121.096 66.7206 121.267 66.5293C121.437 66.338 121.67 66.214 121.924 66.1797C122.215 66.152 122.508 66.1429 122.801 66.1523H155.441V42.6816H112.74V66.1484H113.568C114.668 66.1484 115.766 66.1367 116.865 66.1484C117.607 66.1602 118.088 66.6016 118.094 67.2227C118.1 67.8438 117.625 68.2871 116.885 68.3301C116.445 68.3535 116.006 68.3301 115.566 68.3301C114.627 68.3301 113.688 68.3301 112.725 68.3301V70.9238ZM151.17 95.5957V81.0684H135.244V95.5957H151.17ZM132.973 88.332H117.033V92.8613C119.098 92.8613 121.115 92.8613 123.135 92.8613C124.412 92.8613 125.012 93.4648 125.014 94.7441C125.014 97.1113 125.014 99.4766 125.014 101.842V103.52H132.971L132.973 88.332ZM153.465 89.0742V103.518H157.391C156.609 102.033 156.357 100.488 157.209 99.125C158.088 97.7188 158.701 96.3731 158.641 94.6621C158.602 93.5762 159.658 92.8809 160.84 92.8613C163.033 92.8262 163.893 93.252 164.16 94.582C164.238 95.0386 164.262 95.5027 164.232 95.9648C164.209 96.3553 164.263 96.7465 164.393 97.1155C164.523 97.4845 164.725 97.8238 164.988 98.1133C165.382 98.55 165.678 99.0651 165.858 99.6246C166.037 100.184 166.097 100.775 166.031 101.359C165.951 102.094 165.709 102.809 165.543 103.521H169.352V89.0684L153.465 89.0742ZM98.8438 81.0684V94.1543H103.404C103.418 94.1226 103.428 94.0891 103.434 94.0547C103.297 92.9922 103.16 91.929 103.021 90.8652C102.807 89.2246 102.998 88.9121 104.605 88.4141C104.404 88.108 104.185 87.8139 103.949 87.5332C103.053 86.5684 102.689 85.3574 102.359 84.1328C102.164 83.4375 102.484 82.8672 103.111 82.6875C103.697 82.5234 104.23 82.8379 104.463 83.5C104.609 83.9141 104.658 84.375 104.854 84.752C105.299 85.5664 105.83 86.3418 106.416 87.291C106.568 86.8008 106.654 86.5547 106.721 86.3047C106.867 85.7578 107.203 85.3594 107.76 85.3047C108.602 85.2207 109 84.7617 109.127 83.9785C109.146 83.8822 109.179 83.789 109.223 83.7012C109.482 83.1328 110.053 82.8574 110.607 83.0781C111.162 83.2988 111.434 83.7578 111.281 84.3672C111.15 84.8848 110.937 85.3828 110.814 85.9043C110.648 86.6133 110.205 87.0313 109.516 87.1055C108.654 87.1992 108.488 87.7402 108.455 88.4863C108.65 88.5 108.824 88.5195 108.99 88.5234C110.553 88.5645 111.041 89.125 110.834 90.6719C110.682 91.8223 110.533 92.9746 110.379 94.1484H114.721V81.0625L98.8438 81.0684ZM98.8281 96.4258V103.516H114.744V96.4258H98.8281ZM169.352 86.8086V81.0684H153.453V86.8086H169.352ZM135.24 103.533H151.168V97.8691H135.24V103.533ZM132.988 81.0938H117.041V86.0859H127.105C128.863 86.0859 130.621 86.0957 132.379 86.0723C132.586 86.0723 132.965 85.877 132.965 85.7637C133 84.2129 132.988 82.6602 132.988 81.0938ZM160.758 95.0977C160.758 95.4219 160.746 95.709 160.758 95.9961C160.821 97.2526 160.39 98.484 159.559 99.4277C158.635 100.537 158.727 101.994 159.73 102.912C160.183 103.329 160.776 103.56 161.391 103.56C162.006 103.56 162.598 103.329 163.051 102.912C164.045 102.012 164.143 100.521 163.213 99.4238C162.381 98.4799 161.954 97.2466 162.023 95.9902C162.035 95.7051 162.023 95.418 162.023 95.0918L160.758 95.0977ZM117.029 95.0977V103.533H118.773V95.0996L117.029 95.0977ZM121.068 95.084V103.521H122.762V95.084H121.068ZM143.139 78.7949L143.184 78.5684C142.782 78.4378 142.373 78.3289 141.959 78.2422C141.529 78.1699 141.086 78.168 140.648 78.1387C138.387 77.9883 136.125 77.7031 133.865 77.7266C131.311 77.75 128.758 78.0391 126.207 78.2441C125.789 78.2793 125.387 78.4746 124.977 78.5957L125.037 78.791L143.139 78.7949ZM108.609 90.7734H105.217L105.68 94.1465H108.139L108.609 90.7734Z" fill="white"/>
<path d="M140.233 92.0083C141.19 92.0083 142.149 91.9946 143.106 92.0083C144.016 92.0259 144.578 92.5044 144.59 93.229C144.602 93.9536 144.031 94.4712 143.141 94.479C141.224 94.4946 139.308 94.4946 137.393 94.479C136.555 94.4692 136.012 93.9634 136 93.2661C135.988 92.5688 136.529 92.0415 137.367 92.0161C138.32 91.9868 139.274 92.0083 140.233 92.0083Z" fill="white"/>
<path d="M148.264 92.0161C148.682 91.9946 149.1 91.9946 149.518 92.0161C150.231 92.0884 150.701 92.4849 150.711 93.2271C150.721 93.9692 150.258 94.3989 149.539 94.4556C148.674 94.5181 147.806 94.5181 146.942 94.4556C146.276 94.4009 145.856 93.9771 145.846 93.2622C145.836 92.5474 146.252 92.145 146.914 92.0415C147.361 92.0027 147.81 91.9981 148.258 92.0278L148.264 92.0161Z" fill="white"/>
<defs>
<filter id="filter0_d_21_116" x="0" y="0" width="268" height="216" filterUnits="userSpaceOnUse" color-interpolation-filters="sRGB">
<feFlood flood-opacity="0" result="BackgroundImageFix"/>
<feColorMatrix in="SourceAlpha" type="matrix" values="0 0 0 0 0 0 0 0 0 0 0 0 0 0 0 0 0 0 127 0" result="hardAlpha"/>
<feOffset dy="2"/>
<feGaussianBlur stdDeviation="4"/>
<feComposite in2="hardAlpha" operator="out"/>
<feColorMatrix type="matrix" values="0 0 0 0 0 0 0 0 0 0 0 0 0 0 0 0 0 0 0.25 0"/>
<feBlend mode="normal" in2="BackgroundImageFix" result="effect1_dropShadow_21_116"/>
<feBlend mode="normal" in="SourceGraphic" in2="effect1_dropShadow_21_116" result="shape"/>
</filter>
</defs>
</svg>
