<svg width="268" height="216" viewBox="0 0 268 216" fill="none" xmlns="http://www.w3.org/2000/svg">
<g filter="url(#filter0_d_21_91)">
<rect x="8" y="6" width="252" height="200" rx="5" fill="white"/>
</g>
<path d="M100.632 172.108C99.684 172.108 98.808 171.952 98.004 171.64C97.2 171.316 96.504 170.866 95.916 170.29C95.328 169.714 94.866 169.036 94.53 168.256C94.206 167.476 94.044 166.624 94.044 165.7C94.044 164.776 94.206 163.924 94.53 163.144C94.866 162.364 95.328 161.686 95.916 161.11C96.516 160.534 97.218 160.09 98.022 159.778C98.826 159.454 99.702 159.292 100.65 159.292C101.562 159.292 102.42 159.448 103.224 159.76C104.028 160.06 104.706 160.516 105.258 161.128L104.412 161.974C103.896 161.446 103.326 161.068 102.702 160.84C102.078 160.6 101.406 160.48 100.686 160.48C99.93 160.48 99.228 160.612 98.58 160.876C97.932 161.128 97.368 161.494 96.888 161.974C96.408 162.442 96.03 162.994 95.754 163.63C95.49 164.254 95.358 164.944 95.358 165.7C95.358 166.456 95.49 167.152 95.754 167.788C96.03 168.412 96.408 168.964 96.888 169.444C97.368 169.912 97.932 170.278 98.58 170.542C99.228 170.794 99.93 170.92 100.686 170.92C101.406 170.92 102.078 170.8 102.702 170.56C103.326 170.32 103.896 169.936 104.412 169.408L105.258 170.254C104.706 170.866 104.028 171.328 103.224 171.64C102.42 171.952 101.556 172.108 100.632 172.108ZM107.703 172V162.55H116.199V172H114.921V163.324L115.245 163.666H108.657L108.981 163.324V172H107.703ZM125.7 172V169.912L125.646 169.57V166.078C125.646 165.274 125.418 164.656 124.962 164.224C124.518 163.792 123.852 163.576 122.964 163.576C122.352 163.576 121.77 163.678 121.218 163.882C120.666 164.086 120.198 164.356 119.814 164.692L119.238 163.738C119.718 163.33 120.294 163.018 120.966 162.802C121.638 162.574 122.346 162.46 123.09 162.46C124.314 162.46 125.256 162.766 125.916 163.378C126.588 163.978 126.924 164.896 126.924 166.132V172H125.7ZM122.442 172.09C121.734 172.09 121.116 171.976 120.588 171.748C120.072 171.508 119.676 171.184 119.4 170.776C119.124 170.356 118.986 169.876 118.986 169.336C118.986 168.844 119.1 168.4 119.328 168.004C119.568 167.596 119.952 167.272 120.48 167.032C121.02 166.78 121.74 166.654 122.64 166.654H125.898V167.608H122.676C121.764 167.608 121.128 167.77 120.768 168.094C120.42 168.418 120.246 168.82 120.246 169.3C120.246 169.84 120.456 170.272 120.876 170.596C121.296 170.92 121.884 171.082 122.64 171.082C123.36 171.082 123.978 170.92 124.494 170.596C125.022 170.26 125.406 169.78 125.646 169.156L125.934 170.038C125.694 170.662 125.274 171.16 124.674 171.532C124.086 171.904 123.342 172.09 122.442 172.09ZM128.598 171.982L128.688 170.884C128.772 170.896 128.85 170.914 128.922 170.938C129.006 170.95 129.078 170.956 129.138 170.956C129.522 170.956 129.828 170.812 130.056 170.524C130.296 170.236 130.476 169.852 130.596 169.372C130.716 168.892 130.8 168.352 130.848 167.752C130.896 167.14 130.938 166.528 130.974 165.916L131.136 162.55H138.066V172H136.788V163.288L137.112 163.666H131.964L132.27 163.27L132.126 166.006C132.09 166.822 132.024 167.602 131.928 168.346C131.844 169.09 131.706 169.744 131.514 170.308C131.334 170.872 131.082 171.316 130.758 171.64C130.434 171.952 130.02 172.108 129.516 172.108C129.372 172.108 129.222 172.096 129.066 172.072C128.922 172.048 128.766 172.018 128.598 171.982ZM145.767 165.88C146.955 165.892 147.855 166.156 148.467 166.672C149.091 167.188 149.403 167.932 149.403 168.904C149.403 169.912 149.067 170.686 148.395 171.226C147.735 171.766 146.775 172.03 145.515 172.018L141.699 172V162.55H142.977V165.844L145.767 165.88ZM145.443 171.046C146.319 171.058 146.979 170.884 147.423 170.524C147.879 170.152 148.107 169.612 148.107 168.904C148.107 168.196 147.885 167.68 147.441 167.356C146.997 167.02 146.331 166.846 145.443 166.834L142.977 166.798V171.01L145.443 171.046ZM151.841 172V162.55H153.119V166.726H159.077V162.55H160.355V172H159.077V167.824H153.119V172H151.841ZM163.988 172V162.55H165.266V170.056L171.584 162.55H172.718V172H171.44V164.476L165.14 172H163.988Z" fill="#454545"/>
<path d="M96.5977 92.3008C96.9355 91.6992 97.4551 91.5196 98.1289 91.5449C99.3418 91.586 100.557 91.5567 101.852 91.5567V88.1289C101.852 86.8848 101.84 85.6387 101.852 84.3946C101.867 82.9863 102.789 82.0606 104.195 82.0508C105.441 82.0365 106.687 82.0365 107.932 82.0508C109.404 82.0625 110.34 82.9981 110.348 84.4922C110.359 86.8106 110.348 89.1289 110.348 91.5059H113.359C113.371 91.2676 113.393 91.0078 113.395 90.75C113.395 88.627 113.395 86.502 113.395 84.3789C113.416 80.166 116.205 77.2266 120.406 77.1758C126.24 77.1035 132.076 77.1543 137.91 77.1602C138.742 77.1602 139.18 77.4942 139.232 78.1231C139.285 78.752 139.008 79.168 138.389 79.2949C138.1 79.3426 137.808 79.359 137.516 79.3438C131.9 79.3438 126.285 79.3438 120.67 79.3438C118.098 79.3438 116.277 80.6895 115.725 82.9551C115.637 83.3349 115.595 83.7236 115.598 84.1133C115.587 88.2643 115.587 92.4147 115.598 96.5645C115.598 96.709 115.621 96.8535 115.639 97.0547H119.285C119.285 96.1739 119.285 95.2969 119.285 94.4356C119.295 92.2442 120.602 90.9199 122.789 90.9199C124.716 90.9108 126.645 90.9108 128.574 90.9199C130.709 90.9336 132.033 92.2735 132.047 94.4063C132.047 95.2793 132.047 96.1524 132.047 97.0703H136.148C136.148 96.2285 136.148 95.3848 136.148 94.541C136.148 92.2188 137.449 90.9219 139.777 90.918C141.585 90.918 143.391 90.918 145.197 90.918C147.641 90.918 148.908 92.1758 148.908 94.5977C148.908 95.4004 148.908 96.2012 148.908 97.0586H152.598V96.2617C152.598 92.3321 152.598 88.4017 152.598 84.4707C152.598 81.2774 150.699 79.3711 147.506 79.3457C145.918 79.334 144.332 79.3574 142.744 79.3457C141.793 79.334 141.182 78.6192 141.572 77.9004C141.754 77.5645 142.256 77.2051 142.621 77.1973C144.67 77.1465 146.723 77.0977 148.77 77.2422C151.895 77.4649 154.629 80.3301 154.744 83.4707C154.84 85.834 154.781 88.2051 154.793 90.5742V91.502H157.838V90.7481C157.838 88.6973 157.838 86.6465 157.838 84.5977C157.838 82.9629 158.75 82.0586 160.377 82.0586C161.574 82.0586 162.77 82.0586 163.967 82.0586C165.414 82.0723 166.332 82.9922 166.34 84.4512C166.354 86.5254 166.34 88.6016 166.34 90.6758V91.5703H170.031C171.275 91.5703 171.594 91.8867 171.594 93.1231V105.719C171.594 106.998 171.293 107.291 169.984 107.293H159.977V108.996C160.668 108.996 161.344 108.986 162.02 108.996C162.883 109.012 163.264 109.387 163.27 110.256C163.28 112.111 163.28 113.967 163.27 115.822C163.27 116.676 162.865 117.068 162.002 117.07C158.438 117.078 154.874 117.078 151.309 117.07C150.514 117.07 150.043 116.631 150.055 115.957C150.066 115.283 150.535 114.881 151.346 114.879C154.299 114.879 157.253 114.879 160.207 114.879H161.035V111.217H107.162V114.859H146.141C147.313 114.859 147.863 115.229 147.84 115.986C147.816 116.744 147.291 117.057 146.158 117.057H106.607C105.176 117.057 104.924 116.799 104.924 115.34C104.924 113.729 104.924 112.118 104.924 110.506C104.924 109.293 105.232 108.98 106.422 108.977C107.008 108.977 107.594 108.977 108.225 108.977V107.273H107.41C104.285 107.273 101.16 107.26 98.0352 107.283C97.3789 107.283 96.8984 107.088 96.5977 106.502V92.3008ZM157.678 108.957C157.678 106.477 157.713 104.074 157.648 101.654C157.637 101.193 157.309 100.688 157.004 100.299C156.389 99.5176 155.506 99.3047 154.523 99.3067C140.906 99.3184 127.288 99.3184 113.668 99.3067C113.447 99.3067 113.227 99.3067 113.01 99.3223C111.723 99.4395 110.553 100.512 110.52 101.793C110.461 104.137 110.51 106.48 110.52 108.824C110.52 108.859 110.574 108.897 110.623 108.955L157.678 108.957ZM98.8438 93.7832V105.029H108.299C108.299 103.959 108.279 102.938 108.299 101.92C108.314 101.259 108.466 100.607 108.745 100.008C109.025 99.4085 109.426 98.8737 109.924 98.4375C110.873 97.5567 112.023 97.1446 113.352 97.0899V93.7832H98.8438ZM154.848 97.0449C158.168 97.3164 160.213 99.6895 159.926 103.152C159.875 103.773 159.926 104.4 159.926 105.025H169.352V93.8086H154.842L154.848 97.0449ZM121.5 97.0625H129.857C129.857 96.0645 129.879 95.1094 129.857 94.1699C129.84 93.5489 129.467 93.1426 128.85 93.1367C126.732 93.112 124.615 93.112 122.498 93.1367C122.368 93.1303 122.238 93.1512 122.117 93.198C121.995 93.2448 121.885 93.3165 121.793 93.4085C121.701 93.5005 121.63 93.6107 121.583 93.7321C121.536 93.8535 121.515 93.9834 121.521 94.1133C121.467 95.0781 121.5 96.0489 121.5 97.0625ZM146.711 97.0742C146.711 96.043 146.744 95.0508 146.699 94.0606C146.672 93.4746 146.26 93.1348 145.674 93.1309C143.58 93.114 141.487 93.114 139.395 93.1309C138.809 93.1309 138.404 93.4942 138.375 94.0762C138.326 95.0625 138.361 96.0547 138.361 97.0742H146.711ZM104.068 91.4981H108.109V84.2949H104.068V91.4981ZM160.104 84.2598V91.5098H164.078V84.2598H160.104Z" fill="#454545"/>
<path d="M159.307 61.373C159.307 64.0098 159.307 66.6465 159.307 69.2813C159.307 70.8008 158.586 71.5156 157.063 71.5176C153.84 71.5176 150.618 71.5176 147.396 71.5176C145.928 71.5176 145.205 70.793 145.203 69.3066C145.203 63.9863 145.203 58.6654 145.203 53.3438C145.203 51.873 145.943 51.1406 147.41 51.1367C150.656 51.1367 153.902 51.1367 157.148 51.1367C158.557 51.1367 159.297 51.8965 159.307 53.3184C159.313 56.0039 159.307 58.6895 159.307 61.373ZM157.066 53.375H147.396C147.396 54.707 147.426 55.9961 147.383 57.2812C147.363 57.8535 147.547 58.0625 148.104 58.2051C151.379 59.0469 154.275 60.5801 156.633 63.0508C156.742 63.168 156.869 63.2676 157.066 63.4414V53.375ZM147.441 60.3066V69.2813H157.109C157.109 68.4199 157.121 67.5957 157.098 66.7715C157.078 66.5843 156.993 66.4101 156.857 66.2793C155.813 65.2891 154.789 64.2715 153.689 63.3496C151.887 61.834 149.785 60.9004 147.441 60.3066V60.3066Z" fill="#454545"/>
<path d="M127.045 61.3184C127.045 58.6816 127.045 56.0449 127.045 53.4102C127.045 51.8477 127.766 51.1367 129.33 51.1348C132.527 51.1348 135.724 51.1348 138.922 51.1348C140.402 51.1348 141.145 51.8633 141.146 53.3223C141.146 58.6673 141.146 64.013 141.146 69.3594C141.146 70.7852 140.404 71.5078 138.973 71.5078C135.727 71.5156 132.48 71.5156 129.232 71.5078C127.77 71.5078 127.049 70.7754 127.045 69.293C127.039 66.6406 127.045 63.9785 127.045 61.3184ZM138.914 59.2324C135.885 58.7852 132.914 58.7441 129.961 59.5371C129.428 59.6797 129.219 59.8613 129.227 60.4492C129.262 63.1562 129.24 65.8652 129.244 68.5723C129.244 68.8066 129.266 69.041 129.279 69.2734H138.914V59.2324ZM129.27 57.4922C132.48 56.5156 135.674 56.5918 138.895 56.998V53.377H129.27V57.4922Z" fill="#454545"/>
<path d="M111.08 64.2383C113.233 64.1316 115.344 63.6006 117.291 62.6758C118.334 62.2012 119.35 61.6699 120.363 61.1367C120.545 61.0391 120.777 60.8066 120.779 60.6367C120.807 58.2266 120.797 55.8164 120.797 53.3691H111.086C111.086 54.5273 111.086 55.666 111.086 56.8047C111.102 57.0723 111.083 57.3408 111.029 57.6035C110.879 58.168 110.475 58.4805 109.895 58.4277C109.314 58.375 108.918 58.0371 108.918 57.4336C108.891 55.8965 108.873 54.3574 108.932 52.8203C108.963 52.3613 109.169 51.9318 109.508 51.6206C109.847 51.3094 110.292 51.1404 110.752 51.1484C114.217 51.1237 117.682 51.1237 121.148 51.1484C122.32 51.1602 123.004 52.0059 123.006 53.3242C123.006 58.6628 123.006 64.0078 123.006 69.3594C123.006 69.4805 123.006 69.6035 122.992 69.7246C122.91 70.7285 122.193 71.4922 121.195 71.498C117.706 71.5228 114.216 71.5228 110.725 71.498C110.485 71.4991 110.247 71.4522 110.025 71.3602C109.803 71.2681 109.602 71.1327 109.434 70.9618C109.265 70.791 109.132 70.5882 109.043 70.3654C108.954 70.1425 108.91 69.9041 108.914 69.6641C108.885 67.0273 108.893 64.3906 108.914 61.7559C108.906 61.615 108.927 61.474 108.976 61.3415C109.024 61.2089 109.098 61.0874 109.195 60.9843C109.291 60.8813 109.407 60.7987 109.536 60.7417C109.665 60.6846 109.804 60.6542 109.945 60.6523C110.092 60.6443 110.238 60.6664 110.375 60.7174C110.512 60.7683 110.638 60.847 110.743 60.9485C110.849 61.05 110.932 61.1722 110.989 61.3074C111.045 61.4426 111.073 61.588 111.07 61.7344C111.107 62.5371 111.08 63.3398 111.08 64.2383ZM120.746 69.2832V63.3906C117.689 65.0957 114.563 66.3027 111.123 66.4648V69.2832H120.746Z" fill="#454545"/>
<path d="M134.098 87.1982C132.83 87.1982 131.559 87.1982 130.291 87.1982C129.402 87.1982 128.949 86.8076 128.947 86.1025C128.945 85.3975 129.393 85.0127 130.289 85.0088C132.828 84.9971 135.367 84.9971 137.906 85.0088C138.801 85.0088 139.252 85.3994 139.252 86.1006C139.252 86.8018 138.795 87.1885 137.908 87.1982C136.635 87.2139 135.367 87.1982 134.098 87.1982Z" fill="#FF7D04"/>
<path d="M106.121 97.2119C106.484 97.2119 106.852 97.1943 107.215 97.2119C107.35 97.2088 107.485 97.2328 107.611 97.2826C107.736 97.3324 107.851 97.407 107.948 97.5018C108.044 97.5967 108.121 97.71 108.172 97.835C108.224 97.96 108.251 98.0941 108.25 98.2295C108.289 98.8428 107.936 99.2978 107.334 99.3545C106.511 99.4297 105.683 99.4297 104.859 99.3545C104.273 99.3017 103.9 98.8681 103.934 98.2412C103.967 97.6142 104.324 97.2646 104.953 97.2119C105.34 97.1885 105.732 97.2119 106.121 97.2119Z" fill="#FF7D04"/>
<path d="M162.104 97.1211C162.467 97.1211 162.834 97.1074 163.197 97.1211C163.822 97.1504 164.203 97.5 164.26 98.1113C164.316 98.7226 163.977 99.1972 163.377 99.2558C162.533 99.3375 161.682 99.3375 160.838 99.2558C160.238 99.1972 159.896 98.7226 159.953 98.1093C160.01 97.4961 160.383 97.1445 161.014 97.1191C161.373 97.1094 161.734 97.1211 162.104 97.1211Z" fill="#FF7D04"/>
<defs>
<filter id="filter0_d_21_91" x="0" y="0" width="268" height="216" filterUnits="userSpaceOnUse" color-interpolation-filters="sRGB">
<feFlood flood-opacity="0" result="BackgroundImageFix"/>
<feColorMatrix in="SourceAlpha" type="matrix" values="0 0 0 0 0 0 0 0 0 0 0 0 0 0 0 0 0 0 127 0" result="hardAlpha"/>
<feOffset dy="2"/>
<feGaussianBlur stdDeviation="4"/>
<feComposite in2="hardAlpha" operator="out"/>
<feColorMatrix type="matrix" values="0 0 0 0 0 0 0 0 0 0 0 0 0 0 0 0 0 0 0.25 0"/>
<feBlend mode="normal" in2="BackgroundImageFix" result="effect1_dropShadow_21_91"/>
<feBlend mode="normal" in="SourceGraphic" in2="effect1_dropShadow_21_91" result="shape"/>
</filter>
</defs>
</svg>
