<svg width="268" height="216" viewBox="0 0 268 216" fill="none" xmlns="http://www.w3.org/2000/svg">
<g filter="url(#filter0_d_21_172)">
<rect x="8" y="6" width="252" height="200" rx="5" fill="#FF7D04"/>
</g>
<line x1="8" y1="177.5" x2="58" y2="177.5" stroke="white"/>
<line x1="210" y1="177.5" x2="260" y2="177.5" stroke="white"/>
<path d="M94.784 184.096C93.9413 184.096 93.1627 183.957 92.448 183.68C91.7333 183.392 91.1147 182.992 90.592 182.48C90.0693 181.968 89.6587 181.365 89.36 180.672C89.072 179.979 88.928 179.221 88.928 178.4C88.928 177.579 89.072 176.821 89.36 176.128C89.6587 175.435 90.0693 174.832 90.592 174.32C91.1253 173.808 91.7493 173.413 92.464 173.136C93.1787 172.848 93.9573 172.704 94.8 172.704C95.6107 172.704 96.3733 172.843 97.088 173.12C97.8027 173.387 98.4053 173.792 98.896 174.336L98.144 175.088C97.6853 174.619 97.1787 174.283 96.624 174.08C96.0693 173.867 95.472 173.76 94.832 173.76C94.16 173.76 93.536 173.877 92.96 174.112C92.384 174.336 91.8827 174.661 91.456 175.088C91.0293 175.504 90.6933 175.995 90.448 176.56C90.2133 177.115 90.096 177.728 90.096 178.4C90.096 179.072 90.2133 179.691 90.448 180.256C90.6933 180.811 91.0293 181.301 91.456 181.728C91.8827 182.144 92.384 182.469 92.96 182.704C93.536 182.928 94.16 183.04 94.832 183.04C95.472 183.04 96.0693 182.933 96.624 182.72C97.1787 182.507 97.6853 182.165 98.144 181.696L98.896 182.448C98.4053 182.992 97.8027 183.403 97.088 183.68C96.3733 183.957 95.6053 184.096 94.784 184.096ZM101.341 184V172.8H102.317L107.437 181.536H106.925L111.997 172.8H112.973V184H111.837V174.576H112.109L107.437 182.576H106.877L102.173 174.576H102.477V184H101.341ZM121.659 184.096C120.817 184.096 120.033 183.957 119.307 183.68C118.593 183.392 117.969 182.992 117.435 182.48C116.913 181.957 116.502 181.355 116.203 180.672C115.915 179.979 115.771 179.221 115.771 178.4C115.771 177.579 115.915 176.827 116.203 176.144C116.502 175.451 116.913 174.848 117.435 174.336C117.969 173.813 118.593 173.413 119.307 173.136C120.022 172.848 120.806 172.704 121.659 172.704C122.502 172.704 123.281 172.848 123.995 173.136C124.71 173.413 125.329 173.808 125.851 174.32C126.385 174.832 126.795 175.435 127.083 176.128C127.382 176.821 127.531 177.579 127.531 178.4C127.531 179.221 127.382 179.979 127.083 180.672C126.795 181.365 126.385 181.968 125.851 182.48C125.329 182.992 124.71 183.392 123.995 183.68C123.281 183.957 122.502 184.096 121.659 184.096ZM121.659 183.04C122.331 183.04 122.95 182.928 123.515 182.704C124.091 182.469 124.587 182.144 125.003 181.728C125.43 181.301 125.761 180.811 125.995 180.256C126.23 179.691 126.347 179.072 126.347 178.4C126.347 177.728 126.23 177.115 125.995 176.56C125.761 175.995 125.43 175.504 125.003 175.088C124.587 174.661 124.091 174.336 123.515 174.112C122.95 173.877 122.331 173.76 121.659 173.76C120.987 173.76 120.363 173.877 119.787 174.112C119.211 174.336 118.71 174.661 118.283 175.088C117.867 175.504 117.537 175.995 117.291 176.56C117.057 177.115 116.939 177.728 116.939 178.4C116.939 179.061 117.057 179.675 117.291 180.24C117.537 180.805 117.867 181.301 118.283 181.728C118.71 182.144 119.211 182.469 119.787 182.704C120.363 182.928 120.987 183.04 121.659 183.04ZM132.424 184V173.504L132.745 173.824H128.489V172.8H137.529V173.824H133.289L133.593 173.504V184H132.424ZM139.607 184V172.8H143.799C144.748 172.8 145.564 172.955 146.247 173.264C146.929 173.563 147.452 174 147.815 174.576C148.188 175.141 148.375 175.829 148.375 176.64C148.375 177.429 148.188 178.112 147.815 178.688C147.452 179.253 146.929 179.691 146.247 180C145.564 180.309 144.748 180.464 143.799 180.464H140.263L140.791 179.904V184H139.607ZM140.791 180L140.263 179.424H143.767C144.887 179.424 145.735 179.184 146.311 178.704C146.897 178.213 147.191 177.525 147.191 176.64C147.191 175.744 146.897 175.051 146.311 174.56C145.735 174.069 144.887 173.824 143.767 173.824H140.263L140.791 173.264V180ZM151.85 177.808H157.77V178.816H151.85V177.808ZM151.978 182.976H158.714V184H150.794V172.8H158.474V173.824H151.978V182.976ZM163.565 184V173.504L163.885 173.824H159.629V172.8H168.669V173.824H164.429L164.733 173.504V184H163.565ZM175.435 176.8C176.758 176.8 177.766 177.099 178.459 177.696C179.163 178.283 179.515 179.157 179.515 180.32C179.515 181.525 179.142 182.443 178.395 183.072C177.649 183.691 176.582 184 175.195 184H170.747V172.8H171.915V176.8H175.435ZM175.163 183.056C176.198 183.056 176.982 182.827 177.515 182.368C178.059 181.909 178.331 181.237 178.331 180.352C178.331 179.467 178.065 178.816 177.531 178.4C176.998 177.973 176.209 177.76 175.163 177.76H171.915V183.056H175.163Z" fill="white"/>
<path d="M110.632 140.108C109.684 140.108 108.808 139.952 108.004 139.64C107.2 139.316 106.504 138.866 105.916 138.29C105.328 137.714 104.866 137.036 104.53 136.256C104.206 135.476 104.044 134.624 104.044 133.7C104.044 132.776 104.206 131.924 104.53 131.144C104.866 130.364 105.328 129.686 105.916 129.11C106.516 128.534 107.218 128.09 108.022 127.778C108.826 127.454 109.702 127.292 110.65 127.292C111.562 127.292 112.42 127.448 113.224 127.76C114.028 128.06 114.706 128.516 115.258 129.128L114.412 129.974C113.896 129.446 113.326 129.068 112.702 128.84C112.078 128.6 111.406 128.48 110.686 128.48C109.93 128.48 109.228 128.612 108.58 128.876C107.932 129.128 107.368 129.494 106.888 129.974C106.408 130.442 106.03 130.994 105.754 131.63C105.49 132.254 105.358 132.944 105.358 133.7C105.358 134.456 105.49 135.152 105.754 135.788C106.03 136.412 106.408 136.964 106.888 137.444C107.368 137.912 107.932 138.278 108.58 138.542C109.228 138.794 109.93 138.92 110.686 138.92C111.406 138.92 112.078 138.8 112.702 138.56C113.326 138.32 113.896 137.936 114.412 137.408L115.258 138.254C114.706 138.866 114.028 139.328 113.224 139.64C112.42 139.952 111.556 140.108 110.632 140.108ZM119.239 140V131.324L119.563 131.666H115.657V130.55H124.099V131.666H120.193L120.517 131.324V140H119.239ZM126.109 143.582C125.665 143.582 125.239 143.51 124.831 143.366C124.435 143.222 124.093 143.006 123.805 142.718L124.399 141.764C124.639 141.992 124.897 142.166 125.173 142.286C125.461 142.418 125.779 142.484 126.127 142.484C126.547 142.484 126.907 142.364 127.207 142.124C127.519 141.896 127.813 141.488 128.089 140.9L128.701 139.514L128.845 139.316L132.733 130.55H133.993L129.259 141.134C128.995 141.746 128.701 142.232 128.377 142.592C128.065 142.952 127.723 143.204 127.351 143.348C126.979 143.504 126.565 143.582 126.109 143.582ZM128.629 140.27L124.273 130.55H125.605L129.457 139.226L128.629 140.27ZM133.852 139.982L133.942 138.884C134.026 138.896 134.104 138.914 134.176 138.938C134.26 138.95 134.332 138.956 134.392 138.956C134.776 138.956 135.082 138.812 135.31 138.524C135.55 138.236 135.73 137.852 135.85 137.372C135.97 136.892 136.054 136.352 136.102 135.752C136.15 135.14 136.192 134.528 136.228 133.916L136.39 130.55H143.32V140H142.042V131.288L142.366 131.666H137.218L137.524 131.27L137.38 134.006C137.344 134.822 137.278 135.602 137.182 136.346C137.098 137.09 136.96 137.744 136.768 138.308C136.588 138.872 136.336 139.316 136.012 139.64C135.688 139.952 135.274 140.108 134.77 140.108C134.626 140.108 134.476 140.096 134.32 140.072C134.176 140.048 134.02 140.018 133.852 139.982ZM151.021 133.88C152.209 133.892 153.109 134.156 153.721 134.672C154.345 135.188 154.657 135.932 154.657 136.904C154.657 137.912 154.321 138.686 153.649 139.226C152.989 139.766 152.029 140.03 150.769 140.018L146.953 140V130.55H148.231V133.844L151.021 133.88ZM150.697 139.046C151.573 139.058 152.233 138.884 152.677 138.524C153.133 138.152 153.361 137.612 153.361 136.904C153.361 136.196 153.139 135.68 152.695 135.356C152.251 135.02 151.585 134.846 150.697 134.834L148.231 134.798V139.01L150.697 139.046ZM162.494 140V136.598L162.728 136.868H159.524C158.312 136.868 157.364 136.604 156.68 136.076C155.996 135.548 155.654 134.78 155.654 133.772C155.654 132.692 156.02 131.888 156.752 131.36C157.484 130.82 158.462 130.55 159.686 130.55H163.664V140H162.494ZM155.582 140L158.174 136.364H159.506L156.968 140H155.582ZM162.494 136.22V131.288L162.728 131.666H159.722C158.846 131.666 158.162 131.834 157.67 132.17C157.19 132.506 156.95 133.052 156.95 133.808C156.95 135.212 157.844 135.914 159.632 135.914H162.728L162.494 136.22Z" fill="white"/>
<path d="M141.715 35.5977C142.422 35.7637 143.143 35.8789 143.83 36.1016C148.977 37.7539 152.012 41.2695 152.986 46.5742C153.139 47.4141 153.271 48.2578 153.404 49.1016C153.549 50.0117 153.234 50.584 152.547 50.6895C151.859 50.7949 151.395 50.3594 151.23 49.4629C150.965 48.0254 150.789 46.5605 150.373 45.166C149.739 43.0699 148.456 41.229 146.709 39.908C144.963 38.587 142.842 37.854 140.652 37.8145C136.309 37.7559 131.963 37.7656 127.617 37.8145C125.126 37.8271 122.721 38.7229 120.828 40.3427C118.936 41.9625 117.68 44.2011 117.283 46.6602C116.248 52.8652 115.264 59.0801 114.258 65.291C114.244 65.3809 114.242 65.4727 114.225 65.6582L115.762 65.416C117.129 65.2012 118.496 64.9707 119.883 64.7734C120.805 64.6426 121.34 64.9844 121.422 65.6973C121.504 66.4102 121.031 66.8184 120.127 66.959C118.295 67.2422 116.463 67.5254 114.637 67.8418C113.872 67.9658 113.174 68.3546 112.667 68.9404C112.159 69.5263 111.873 70.2718 111.859 71.0469C111.823 72.2188 111.823 73.3906 111.859 74.5625C111.916 76.3496 113.201 77.6699 114.984 77.832C115.252 77.8555 115.521 77.8594 115.789 77.8594C127.996 77.8594 140.202 77.8594 152.408 77.8594C153.328 77.8594 154.213 77.7734 154.975 77.1855C155.39 76.8843 155.729 76.4903 155.965 76.035C156.202 75.5796 156.329 75.0755 156.336 74.5625C156.365 73.3906 156.369 72.2188 156.336 71.0469C156.293 69.3809 155.262 68.1309 153.602 67.7891C149.008 66.8618 144.351 66.2846 139.67 66.0625C134.987 65.8251 130.294 65.9191 125.625 66.3438C125.455 66.3597 125.284 66.3669 125.113 66.3652C124.408 66.3652 123.965 65.9746 123.941 65.3359C123.918 64.6973 124.318 64.2441 125.012 64.1836C126.35 64.0664 127.687 63.9629 129.027 63.8887C134.978 63.5543 140.947 63.7504 146.863 64.4746C149.16 64.7578 151.443 65.1543 153.834 65.5137C153.676 64.5039 153.523 63.5098 153.361 62.5156C152.943 59.9395 152.514 57.3672 152.105 54.7891C151.957 53.8477 152.26 53.3125 152.943 53.1934C153.627 53.0742 154.127 53.5449 154.281 54.4961C154.916 58.3691 155.543 62.2441 156.193 66.1172C156.246 66.3924 156.383 66.6447 156.584 66.8398C157.705 67.8535 158.398 69.0977 158.482 70.5957C158.587 72.0574 158.587 73.5247 158.482 74.9863C158.234 77.8477 156.113 79.8203 153.229 80.0332L152.18 80.1055C152.375 81.4258 152.557 82.7188 152.752 84.0117C153.76 90.6667 154.769 97.3216 155.779 103.977C155.992 105.375 156.209 106.771 156.414 108.172C156.609 109.498 155.752 110.543 154.426 110.596C154.059 110.609 153.691 110.609 153.326 110.596C152.389 110.559 151.676 110.074 151.402 109.174C149.937 104.348 148.486 99.5176 147.047 94.6816C146.993 94.5374 146.971 94.3832 146.983 94.2297C146.994 94.0762 147.038 93.9269 147.112 93.792C147.186 93.6571 147.289 93.5398 147.412 93.4479C147.536 93.3561 147.678 93.2919 147.828 93.2598C148.439 93.1016 148.953 93.4258 149.18 94.168C150.211 97.5742 151.236 100.982 152.254 104.391C152.654 105.717 153.054 107.044 153.455 108.371H154.236C152.804 98.9115 151.372 89.487 149.939 80.0977H144.967C145.529 81.9785 146.068 83.793 146.611 85.6055C146.963 86.7773 147.32 87.9375 147.67 89.1035C147.963 90.0801 147.734 90.6895 146.998 90.8867C146.32 91.0703 145.844 90.6914 145.549 89.7148C145.283 88.8281 145.057 87.9258 144.744 87.0566C144.601 86.7104 144.373 86.4056 144.082 86.1699C142.85 85.1289 141.426 84.8672 139.814 84.9043C135.812 85 131.807 84.9707 127.803 84.9141C126.69 84.8766 125.592 85.182 124.658 85.7891C123.955 86.2039 123.444 86.88 123.236 87.6699C121.156 94.7012 119.037 101.732 116.926 108.752C116.793 109.169 116.566 109.55 116.263 109.865C115.959 110.18 115.586 110.421 115.174 110.569C114.762 110.716 114.322 110.767 113.887 110.716C113.452 110.666 113.035 110.515 112.668 110.277C112.328 110.076 112.058 109.774 111.895 109.414C111.732 109.054 111.683 108.652 111.756 108.264C112.83 101.15 113.909 94.0378 114.994 86.9258C115.301 84.9004 115.613 82.875 115.916 80.8496C115.953 80.6152 115.953 80.375 115.973 80.1152C115.297 80.0547 114.656 80.0605 114.043 79.9316C111.789 79.4453 110.021 77.668 109.781 75.3711C109.607 73.709 109.672 72.0098 109.758 70.334C109.824 69.0469 110.504 67.9902 111.412 67.0781C111.641 66.8413 111.795 66.5425 111.855 66.2188C112.928 59.7734 113.986 53.3281 115.029 46.8828C116.006 40.7754 119.99 36.748 126.076 35.7246C126.167 35.6961 126.253 35.6568 126.334 35.6074L141.715 35.5977ZM118.244 80.0977L113.967 108.303C114.646 108.57 114.787 108.234 114.922 107.783C117.16 100.295 119.406 92.8079 121.66 85.3223C122.176 83.6035 122.691 81.8848 123.223 80.0957L118.244 80.0977ZM143.531 82.9941C143.312 82.2559 143.047 81.4492 142.844 80.627C142.727 80.1543 142.486 80.0215 142.021 80.041C141.021 80.0723 140.021 80.0508 139.021 80.0508C134.755 80.0508 130.487 80.0508 126.219 80.0508C125.975 80.0508 125.561 80.1094 125.514 80.2461C125.178 81.1836 124.918 82.1484 124.662 83.0098C125.367 82.9102 126.002 82.7422 126.639 82.7383C131.587 82.7161 136.534 82.7161 141.482 82.7383C142.152 82.7441 142.814 82.9023 143.531 82.9941Z" fill="white"/>
<path d="M150.479 75.4941C149.522 75.4941 148.563 75.5078 147.606 75.4941C146.695 75.4766 146.133 74.998 146.121 74.2734C146.11 73.5488 146.68 73.0312 147.57 73.0234C149.487 73.0078 151.403 73.0078 153.319 73.0234C154.156 73.0332 154.699 73.5391 154.711 74.2363C154.723 74.9336 154.182 75.4609 153.344 75.4863C152.391 75.5156 151.438 75.4941 150.479 75.4941Z" fill="white"/>
<path d="M142.447 75.4863C142.03 75.5078 141.611 75.5078 141.194 75.4863C140.481 75.4141 140.01 75.0176 140 74.2754C139.99 73.5332 140.453 73.1035 141.172 73.0469C142.037 72.9844 142.905 72.9844 143.77 73.0469C144.436 73.1016 144.856 73.5254 144.865 74.2402C144.875 74.9551 144.459 75.3574 143.797 75.4609C143.35 75.4997 142.901 75.5043 142.453 75.4746L142.447 75.4863Z" fill="white"/>
<defs>
<filter id="filter0_d_21_172" x="0" y="0" width="268" height="216" filterUnits="userSpaceOnUse" color-interpolation-filters="sRGB">
<feFlood flood-opacity="0" result="BackgroundImageFix"/>
<feColorMatrix in="SourceAlpha" type="matrix" values="0 0 0 0 0 0 0 0 0 0 0 0 0 0 0 0 0 0 127 0" result="hardAlpha"/>
<feOffset dy="2"/>
<feGaussianBlur stdDeviation="4"/>
<feComposite in2="hardAlpha" operator="out"/>
<feColorMatrix type="matrix" values="0 0 0 0 0 0 0 0 0 0 0 0 0 0 0 0 0 0 0.25 0"/>
<feBlend mode="normal" in2="BackgroundImageFix" result="effect1_dropShadow_21_172"/>
<feBlend mode="normal" in="SourceGraphic" in2="effect1_dropShadow_21_172" result="shape"/>
</filter>
</defs>
</svg>
