<svg width="268" height="216" viewBox="0 0 268 216" fill="none" xmlns="http://www.w3.org/2000/svg">
<g filter="url(#filter0_d_19_42)">
<rect x="8" y="6" width="252" height="200" rx="5" fill="#FF7D04"/>
</g>
<path d="M116.746 140L111.904 133.718L112.984 133.07L118.276 140H116.746ZM108.124 140V127.4H109.42V140H108.124ZM109.024 134.222V133.052H112.966V134.222H109.024ZM113.092 133.844L111.868 133.628L116.566 127.4H118.006L113.092 133.844ZM120.179 143.582C119.735 143.582 119.309 143.51 118.901 143.366C118.505 143.222 118.163 143.006 117.875 142.718L118.469 141.764C118.709 141.992 118.967 142.166 119.243 142.286C119.531 142.418 119.849 142.484 120.197 142.484C120.617 142.484 120.977 142.364 121.277 142.124C121.589 141.896 121.883 141.488 122.159 140.9L122.771 139.514L122.915 139.316L126.803 130.55H128.063L123.329 141.134C123.065 141.746 122.771 142.232 122.447 142.592C122.135 142.952 121.793 143.204 121.421 143.348C121.049 143.504 120.635 143.582 120.179 143.582ZM122.699 140.27L118.343 130.55H119.675L123.527 139.226L122.699 140.27ZM127.961 140L131.957 134.816L131.939 135.446L128.141 130.55H129.581L132.695 134.6L132.155 134.582L135.269 130.55H136.673L132.839 135.5L132.857 134.816L136.889 140H135.431L132.137 135.68L132.641 135.752L129.401 140H127.961ZM138.984 140V130.55H140.262V134.726H146.22V130.55H147.498V140H146.22V135.824H140.262V140H138.984ZM151.131 140V130.55H152.409V138.056L158.727 130.55H159.861V140H158.583V132.476L152.283 140H151.131Z" fill="white"/>
<line x1="8" y1="177.5" x2="58" y2="177.5" stroke="white"/>
<line x1="210" y1="177.5" x2="260" y2="177.5" stroke="white"/>
<path d="M94.784 184.096C93.9413 184.096 93.1627 183.957 92.448 183.68C91.7333 183.392 91.1147 182.992 90.592 182.48C90.0693 181.968 89.6587 181.365 89.36 180.672C89.072 179.979 88.928 179.221 88.928 178.4C88.928 177.579 89.072 176.821 89.36 176.128C89.6587 175.435 90.0693 174.832 90.592 174.32C91.1253 173.808 91.7493 173.413 92.464 173.136C93.1787 172.848 93.9573 172.704 94.8 172.704C95.6107 172.704 96.3733 172.843 97.088 173.12C97.8027 173.387 98.4053 173.792 98.896 174.336L98.144 175.088C97.6853 174.619 97.1787 174.283 96.624 174.08C96.0693 173.867 95.472 173.76 94.832 173.76C94.16 173.76 93.536 173.877 92.96 174.112C92.384 174.336 91.8827 174.661 91.456 175.088C91.0293 175.504 90.6933 175.995 90.448 176.56C90.2133 177.115 90.096 177.728 90.096 178.4C90.096 179.072 90.2133 179.691 90.448 180.256C90.6933 180.811 91.0293 181.301 91.456 181.728C91.8827 182.144 92.384 182.469 92.96 182.704C93.536 182.928 94.16 183.04 94.832 183.04C95.472 183.04 96.0693 182.933 96.624 182.72C97.1787 182.507 97.6853 182.165 98.144 181.696L98.896 182.448C98.4053 182.992 97.8027 183.403 97.088 183.68C96.3733 183.957 95.6053 184.096 94.784 184.096ZM101.341 184V172.8H102.317L107.437 181.536H106.925L111.997 172.8H112.973V184H111.837V174.576H112.109L107.437 182.576H106.877L102.173 174.576H102.477V184H101.341ZM121.659 184.096C120.817 184.096 120.033 183.957 119.307 183.68C118.593 183.392 117.969 182.992 117.435 182.48C116.913 181.957 116.502 181.355 116.203 180.672C115.915 179.979 115.771 179.221 115.771 178.4C115.771 177.579 115.915 176.827 116.203 176.144C116.502 175.451 116.913 174.848 117.435 174.336C117.969 173.813 118.593 173.413 119.307 173.136C120.022 172.848 120.806 172.704 121.659 172.704C122.502 172.704 123.281 172.848 123.995 173.136C124.71 173.413 125.329 173.808 125.851 174.32C126.385 174.832 126.795 175.435 127.083 176.128C127.382 176.821 127.531 177.579 127.531 178.4C127.531 179.221 127.382 179.979 127.083 180.672C126.795 181.365 126.385 181.968 125.851 182.48C125.329 182.992 124.71 183.392 123.995 183.68C123.281 183.957 122.502 184.096 121.659 184.096ZM121.659 183.04C122.331 183.04 122.95 182.928 123.515 182.704C124.091 182.469 124.587 182.144 125.003 181.728C125.43 181.301 125.761 180.811 125.995 180.256C126.23 179.691 126.347 179.072 126.347 178.4C126.347 177.728 126.23 177.115 125.995 176.56C125.761 175.995 125.43 175.504 125.003 175.088C124.587 174.661 124.091 174.336 123.515 174.112C122.95 173.877 122.331 173.76 121.659 173.76C120.987 173.76 120.363 173.877 119.787 174.112C119.211 174.336 118.71 174.661 118.283 175.088C117.867 175.504 117.537 175.995 117.291 176.56C117.057 177.115 116.939 177.728 116.939 178.4C116.939 179.061 117.057 179.675 117.291 180.24C117.537 180.805 117.867 181.301 118.283 181.728C118.71 182.144 119.211 182.469 119.787 182.704C120.363 182.928 120.987 183.04 121.659 183.04ZM132.424 184V173.504L132.745 173.824H128.489V172.8H137.529V173.824H133.289L133.593 173.504V184H132.424ZM139.607 184V172.8H143.799C144.748 172.8 145.564 172.955 146.247 173.264C146.929 173.563 147.452 174 147.815 174.576C148.188 175.141 148.375 175.829 148.375 176.64C148.375 177.429 148.188 178.112 147.815 178.688C147.452 179.253 146.929 179.691 146.247 180C145.564 180.309 144.748 180.464 143.799 180.464H140.263L140.791 179.904V184H139.607ZM140.791 180L140.263 179.424H143.767C144.887 179.424 145.735 179.184 146.311 178.704C146.897 178.213 147.191 177.525 147.191 176.64C147.191 175.744 146.897 175.051 146.311 174.56C145.735 174.069 144.887 173.824 143.767 173.824H140.263L140.791 173.264V180ZM151.85 177.808H157.77V178.816H151.85V177.808ZM151.978 182.976H158.714V184H150.794V172.8H158.474V173.824H151.978V182.976ZM163.565 184V173.504L163.885 173.824H159.629V172.8H168.669V173.824H164.429L164.733 173.504V184H163.565ZM175.435 176.8C176.758 176.8 177.766 177.099 178.459 177.696C179.163 178.283 179.515 179.157 179.515 180.32C179.515 181.525 179.142 182.443 178.395 183.072C177.649 183.691 176.582 184 175.195 184H170.747V172.8H171.915V176.8H175.435ZM175.163 183.056C176.198 183.056 176.982 182.827 177.515 182.368C178.059 181.909 178.331 181.237 178.331 180.352C178.331 179.467 178.065 178.816 177.531 178.4C176.998 177.973 176.209 177.76 175.163 177.76H171.915V183.056H175.163Z" fill="white"/>
<path d="M96.5977 78.5176C97.1836 77.2227 98.2109 76.7598 99.6055 76.8418C101 76.9239 102.381 76.8574 103.85 76.8574C103.865 76.543 103.889 76.2852 103.889 76.0293C103.889 73.9063 103.889 71.7813 103.889 69.6582C103.889 68.0625 104.791 67.1602 106.373 67.1426C107.082 67.1426 107.789 67.1309 108.498 67.1426C109.98 67.1699 110.92 68.0996 110.93 69.5801C110.945 71.7031 110.93 73.8281 110.93 75.9512V76.8574H111.977C130.87 76.8574 149.763 76.8574 168.656 76.8574C169.165 76.8299 169.675 76.8921 170.162 77.041C171.127 77.4043 171.586 78.1856 171.588 79.2149C171.588 81.5332 171.588 83.8516 171.588 86.1719V107.773C171.588 109.76 170.77 110.59 168.809 110.59H111.406C110.234 110.59 109.705 110.236 109.727 109.457C109.748 108.713 110.25 108.393 111.4 108.393H118.387V88.8008H98.8555V108.4H99.6094C101.781 108.4 103.954 108.4 106.127 108.4C107.039 108.4 107.564 108.807 107.564 109.496C107.564 110.186 107.039 110.594 106.127 110.594C103.906 110.594 101.684 110.549 99.4648 110.613C98.0664 110.652 97.1211 110.143 96.5996 108.838L96.5977 78.5176ZM149.795 108.352H169.365V88.8203H149.795V108.352ZM120.693 88.791V108.352H147.51V88.7832L120.693 88.791ZM120.676 86.5059H147.514V79.0977H120.668L120.676 86.5059ZM169.383 79.1172H149.82V86.5215H169.375L169.383 79.1172ZM118.393 86.5391V79.1172H98.8438V86.5391H118.393ZM108.691 76.8184V69.3809H106.131V76.8145L108.691 76.8184Z" fill="white"/>
<path d="M139.518 35.5977C140.816 36.1191 141.311 37.0762 141.285 38.4687C141.23 41.5664 141.254 44.668 141.285 47.7676C141.299 48.1926 141.446 48.6025 141.705 48.9395C143.381 51.0059 145.115 53.0234 146.783 55.0957C147.08 55.4937 147.257 55.9679 147.295 56.4629C147.371 57.457 147.324 58.4629 147.316 59.4629C147.305 61.166 146.4 62.0664 144.678 62.0703C141.041 62.0703 137.404 62.0703 133.768 62.0703H123.662C121.746 62.0703 121.037 61.1973 120.84 59.3184C120.572 56.75 121.279 54.7031 123.148 52.9102C124.393 51.7168 125.416 50.291 126.49 48.9336C126.747 48.5956 126.893 48.1862 126.908 47.7617C126.941 44.6621 126.967 41.5605 126.908 38.4629C126.883 37.0684 127.385 36.1191 128.678 35.5918L139.518 35.5977ZM129.156 47.707H139.012V37.8437H129.156V47.707ZM124.371 54.9512H143.826C142.459 53.3145 141.191 51.7754 139.895 50.2637C139.716 50.0764 139.473 49.9651 139.215 49.9531C135.801 49.9336 132.387 49.9336 128.975 49.9531C128.741 49.9519 128.517 50.0408 128.348 50.2012C127.035 51.7344 125.748 53.291 124.371 54.9414V54.9512ZM123.111 59.834H145.059V57.2754H123.111V59.834Z" fill="white"/>
<path d="M116.52 35.5977C117.832 36.168 118.246 37.1914 118.23 38.584C118.182 43.0488 118.215 47.5137 118.211 51.9785C118.211 53.9512 117.379 54.7871 115.418 54.7871C110.1 54.7871 104.781 54.7617 99.4629 54.8047C98.0703 54.8164 97.1191 54.332 96.5977 53.0293V37.3555C96.7416 36.9502 96.974 36.5822 97.2781 36.2781C97.5822 35.974 97.9502 35.7416 98.3555 35.5977H116.52ZM115.967 37.8438H98.8438V52.5488H115.973L115.967 37.8438Z" fill="white"/>
<path d="M169.84 35.5977C171.145 36.1094 171.631 37.0625 171.615 38.459C171.568 43.0234 171.6 47.5859 171.598 52.1504C171.598 53.877 170.707 54.7852 169 54.7852C163.531 54.7852 158.063 54.7852 152.594 54.7852C150.879 54.7852 149.986 53.8906 149.979 52.166C149.979 49.8965 149.979 47.627 149.979 45.3574C149.975 45.2108 149.98 45.064 149.994 44.918C150.074 44.2715 150.508 43.8633 151.098 43.873C151.24 43.87 151.381 43.896 151.512 43.9494C151.644 44.0028 151.764 44.0825 151.863 44.1836C151.963 44.2847 152.041 44.4051 152.093 44.5374C152.145 44.6697 152.169 44.8111 152.164 44.9531C152.195 46.5391 152.182 48.127 152.184 49.7129C152.184 50.6367 152.184 51.5605 152.184 52.5371H169.371V37.8438H152.184C152.184 38.7148 152.205 39.5879 152.184 40.4609C152.158 41.2422 151.693 41.6934 151 41.6328C150.4 41.5762 150.045 41.2129 150.023 40.6328C149.992 39.6094 149.98 38.582 150.045 37.5625C150.109 36.543 150.859 36.0176 151.688 35.5957L169.84 35.5977Z" fill="white"/>
<path d="M154.85 64.4805C153.602 64.4805 152.48 64.4805 151.359 64.4805C150.484 64.4805 150.008 64.0898 150.002 63.4004C149.996 62.7109 150.492 62.2891 151.344 62.2891C157.638 62.2891 163.933 62.2891 170.229 62.2891C171.084 62.2891 171.586 62.709 171.596 63.3828C171.605 64.0566 171.1 64.4746 170.246 64.4805C169.127 64.4805 168.006 64.4805 166.762 64.4805C166.762 65.3828 166.732 66.248 166.789 67.1094C166.799 67.2793 167.129 67.457 167.342 67.5762C168.017 67.9564 168.551 68.5453 168.863 69.2544C169.175 69.9636 169.25 70.7549 169.074 71.5098C168.889 72.2487 168.47 72.908 167.88 73.389C167.289 73.87 166.559 74.147 165.798 74.1784C165.037 74.2098 164.286 73.9941 163.658 73.5634C163.03 73.1327 162.558 72.5102 162.312 71.7891C162.038 70.9973 162.06 70.1326 162.376 69.3563C162.692 68.58 163.28 67.9451 164.029 67.5703C164.443 67.3594 164.594 67.1387 164.568 66.6875C164.531 65.9863 164.559 65.2832 164.559 64.5391H157.047C157.047 65.4121 157.016 66.2598 157.072 67.1016C157.084 67.2754 157.408 67.459 157.619 67.582C158.445 67.9873 159.079 68.7001 159.385 69.5675C159.692 70.4349 159.646 71.3878 159.257 72.2218C158.869 73.0557 158.17 73.7043 157.309 74.0284C156.448 74.3524 155.494 74.3261 154.652 73.9551C153.314 73.4102 152.537 72.3828 152.426 70.9492C152.311 69.4766 152.945 68.3223 154.242 67.6289C154.734 67.3633 154.887 67.0742 154.852 66.5527C154.816 65.8887 154.85 65.2324 154.85 64.4805ZM155.957 71.9785C156.127 71.979 156.295 71.9459 156.452 71.8811C156.61 71.8163 156.752 71.7211 156.872 71.601C156.993 71.4808 157.088 71.3381 157.153 71.181C157.217 71.0239 157.251 70.8555 157.25 70.6855C157.253 70.5095 157.22 70.3348 157.155 70.1715C157.089 70.0083 156.991 69.8599 156.867 69.7352C156.742 69.6104 156.595 69.5119 156.432 69.4453C156.269 69.3787 156.094 69.3455 155.918 69.3477C155.575 69.3575 155.249 69.4981 155.006 69.7407C154.764 69.9833 154.623 70.3094 154.613 70.6523C154.612 70.8284 154.646 71.0029 154.713 71.1655C154.78 71.3282 154.88 71.4757 155.005 71.5993C155.13 71.723 155.279 71.8202 155.443 71.8854C155.606 71.9505 155.781 71.9822 155.957 71.9785ZM166.951 70.6387C166.946 70.2957 166.807 69.9683 166.563 69.7266C166.32 69.4849 165.991 69.3482 165.648 69.3457C165.294 69.3548 164.957 69.5013 164.708 69.7542C164.46 70.0071 164.319 70.3466 164.316 70.7012C164.33 71.0435 164.475 71.3675 164.721 71.6058C164.967 71.844 165.296 71.9782 165.639 71.9805C165.815 71.9841 165.989 71.9516 166.152 71.8851C166.315 71.8186 166.462 71.7194 166.585 71.5937C166.708 71.4679 166.804 71.3183 166.867 71.1541C166.93 70.9898 166.959 70.8144 166.951 70.6387V70.6387Z" fill="white"/>
<path d="M103.639 98.4866C103.639 99.2678 103.65 100.049 103.639 100.821C103.623 101.553 103.188 102.028 102.561 102.033C101.934 102.039 101.461 101.567 101.451 100.84C101.433 99.2854 101.433 97.7294 101.451 96.1721C101.461 95.4436 101.932 94.9885 102.574 95.0002C103.217 95.0119 103.623 95.4768 103.637 96.2229C103.65 96.969 103.639 97.7405 103.639 98.4866Z" fill="white"/>
<path d="M160.846 47.748C161.236 47.748 161.627 47.7343 162.018 47.748C162.648 47.7734 163.027 48.1269 163.086 48.7363C163.145 49.3457 162.801 49.834 162.201 49.8847C161.255 49.9707 160.303 49.9707 159.357 49.8847C158.772 49.8261 158.441 49.3379 158.512 48.7129C158.522 48.4519 158.635 48.2057 158.826 48.0273C159.017 47.849 159.27 47.7528 159.531 47.7597C159.977 47.7304 160.406 47.748 160.846 47.748Z" fill="white"/>
<path d="M154.607 98.5002C154.607 99.2815 154.619 100.063 154.607 100.834C154.59 101.561 154.141 102.037 153.512 102.035C152.883 102.033 152.428 101.557 152.42 100.828C152.404 99.2658 152.404 97.7092 152.42 96.1584C152.43 95.4397 152.91 94.9865 153.553 95.0022C154.16 95.0236 154.586 95.4729 154.604 96.1643C154.621 96.9416 154.605 97.7209 154.607 98.5002Z" fill="white"/>
<path d="M134.096 105.752C131.361 105.752 128.627 105.752 125.893 105.752C124.191 105.752 123.283 104.834 123.281 103.115C123.281 100.088 123.281 97.0612 123.281 94.0352C123.281 92.3164 124.186 91.4102 125.898 91.4102C131.367 91.4102 136.836 91.4102 142.305 91.4102C144.014 91.4102 144.912 92.3184 144.916 94.0391C144.916 97.0664 144.916 100.094 144.916 103.121C144.916 104.838 144.006 105.748 142.299 105.752C139.563 105.756 136.829 105.756 134.096 105.752ZM125.521 93.6426V103.502H142.676V93.6465L125.521 93.6426Z" fill="white"/>
<path d="M134.119 82.0084C135.264 82.0084 135.773 82.3209 135.797 83.0572C135.82 83.7936 135.264 84.1979 134.111 84.1959C133.868 84.21 133.625 84.2035 133.383 84.1764C132.779 84.0729 132.428 83.7018 132.406 83.0865C132.383 82.5006 132.832 82.0651 133.467 82.0104C133.68 81.9928 133.9 82.0084 134.119 82.0084Z" fill="white"/>
<path d="M124.973 82.0084C125.191 82.0084 125.41 81.9967 125.629 82.0084C126.254 82.0494 126.615 82.399 126.676 83.0123C126.69 83.1524 126.677 83.294 126.636 83.4287C126.595 83.5635 126.527 83.6887 126.437 83.7969C126.347 83.9052 126.236 83.9944 126.111 84.0592C125.986 84.124 125.849 84.1632 125.709 84.1744C125.319 84.2103 124.928 84.2155 124.537 84.1901C123.77 84.1647 123.266 83.6998 123.285 83.0573C123.305 82.4147 123.783 82.028 124.527 82.0006C124.674 82.0006 124.82 82.0006 124.965 82.0006L124.973 82.0084Z" fill="white"/>
<path d="M143.197 82.0026C144.369 82.0026 144.918 82.3541 144.904 83.1061C144.891 83.858 144.342 84.1979 143.166 84.1959C142.994 84.1959 142.824 84.1959 142.654 84.1959C141.961 84.1471 141.52 83.7252 141.51 83.1139C141.498 82.4674 141.947 82.0436 142.682 82.0065C142.857 81.9947 143.027 82.0026 143.197 82.0026Z" fill="white"/>
<path d="M159.627 81.7207C160.018 81.7207 160.408 81.7012 160.799 81.7207C161.443 81.7617 161.9 82.1934 161.885 82.7754C161.869 83.3926 161.527 83.8301 160.92 83.8731C160.02 83.9395 159.117 83.9395 158.217 83.8731C158.08 83.8672 157.946 83.8329 157.824 83.7725C157.701 83.7121 157.592 83.6269 157.504 83.5222C157.416 83.4175 157.351 83.2957 157.313 83.1644C157.274 83.0332 157.264 82.8954 157.281 82.7598C157.279 82.6237 157.303 82.4885 157.354 82.3623C157.405 82.2361 157.481 82.1215 157.578 82.0253C157.674 81.9292 157.789 81.8535 157.915 81.8028C158.041 81.7522 158.176 81.7276 158.313 81.7305C158.748 81.7051 159.189 81.7305 159.629 81.7305L159.627 81.7207Z" fill="white"/>
<path d="M108.627 81.7227C109.041 81.7227 109.457 81.707 109.871 81.7227C110.506 81.7559 110.848 82.1367 110.92 82.7402C110.932 82.8813 110.916 83.0233 110.872 83.1578C110.828 83.2924 110.757 83.4166 110.664 83.5232C110.571 83.6297 110.457 83.7163 110.329 83.7778C110.202 83.8392 110.063 83.8743 109.922 83.8809C109.046 83.9356 108.167 83.9356 107.291 83.8809C106.684 83.8379 106.334 83.4102 106.314 82.7949C106.291 82.209 106.752 81.7676 107.387 81.7266C107.797 81.7012 108.219 81.7227 108.627 81.7227Z" fill="white"/>
<path d="M107.398 49.9316C106.984 49.9316 106.566 49.9629 106.156 49.9316C106.009 49.9268 105.864 49.8922 105.731 49.8301C105.597 49.7681 105.478 49.6797 105.379 49.5703C105.28 49.4609 105.205 49.3327 105.157 49.1935C105.109 49.0542 105.089 48.9067 105.1 48.7598C105.139 48.1738 105.586 47.7695 106.234 47.7539C107.016 47.7357 107.797 47.7357 108.578 47.7539C109.242 47.7715 109.664 48.1699 109.701 48.7637C109.713 48.9109 109.694 49.059 109.647 49.1988C109.6 49.3387 109.524 49.4674 109.425 49.5771C109.326 49.6868 109.206 49.7752 109.072 49.8368C108.938 49.8984 108.792 49.932 108.645 49.9355C108.229 49.9629 107.813 49.9316 107.398 49.9316Z" fill="white"/>
<path d="M134.059 98.457C132.57 98.457 131.084 98.457 129.596 98.457C128.664 98.457 128.162 98.0664 128.15 97.3809C128.139 96.6953 128.662 96.2637 129.564 96.2617C132.588 96.2617 135.611 96.2617 138.635 96.2617C139.533 96.2617 140.059 96.6914 140.043 97.3848C140.027 98.0781 139.541 98.4512 138.666 98.4551C137.125 98.4629 135.594 98.457 134.059 98.457Z" fill="white"/>
<defs>
<filter id="filter0_d_19_42" x="0" y="0" width="268" height="216" filterUnits="userSpaceOnUse" color-interpolation-filters="sRGB">
<feFlood flood-opacity="0" result="BackgroundImageFix"/>
<feColorMatrix in="SourceAlpha" type="matrix" values="0 0 0 0 0 0 0 0 0 0 0 0 0 0 0 0 0 0 127 0" result="hardAlpha"/>
<feOffset dy="2"/>
<feGaussianBlur stdDeviation="4"/>
<feComposite in2="hardAlpha" operator="out"/>
<feColorMatrix type="matrix" values="0 0 0 0 0 0 0 0 0 0 0 0 0 0 0 0 0 0 0.25 0"/>
<feBlend mode="normal" in2="BackgroundImageFix" result="effect1_dropShadow_19_42"/>
<feBlend mode="normal" in="SourceGraphic" in2="effect1_dropShadow_19_42" result="shape"/>
</filter>
</defs>
</svg>
