<svg width="268" height="216" viewBox="0 0 268 216" fill="none" xmlns="http://www.w3.org/2000/svg">
<g filter="url(#filter0_d_83_370)">
<rect x="8" y="6" width="252" height="200" rx="5" fill="white"/>
</g>
<path d="M112.632 172.108C111.684 172.108 110.808 171.952 110.004 171.64C109.2 171.316 108.504 170.866 107.916 170.29C107.328 169.714 106.866 169.036 106.53 168.256C106.206 167.476 106.044 166.624 106.044 165.7C106.044 164.776 106.206 163.924 106.53 163.144C106.866 162.364 107.328 161.686 107.916 161.11C108.516 160.534 109.218 160.09 110.022 159.778C110.826 159.454 111.702 159.292 112.65 159.292C113.562 159.292 114.42 159.448 115.224 159.76C116.028 160.06 116.706 160.516 117.258 161.128L116.412 161.974C115.896 161.446 115.326 161.068 114.702 160.84C114.078 160.6 113.406 160.48 112.686 160.48C111.93 160.48 111.228 160.612 110.58 160.876C109.932 161.128 109.368 161.494 108.888 161.974C108.408 162.442 108.03 162.994 107.754 163.63C107.49 164.254 107.358 164.944 107.358 165.7C107.358 166.456 107.49 167.152 107.754 167.788C108.03 168.412 108.408 168.964 108.888 169.444C109.368 169.912 109.932 170.278 110.58 170.542C111.228 170.794 111.93 170.92 112.686 170.92C113.406 170.92 114.078 170.8 114.702 170.56C115.326 170.32 115.896 169.936 116.412 169.408L117.258 170.254C116.706 170.866 116.028 171.328 115.224 171.64C114.42 171.952 113.556 172.108 112.632 172.108ZM121.239 172V163.324L121.563 163.666H117.657V162.55H126.099V163.666H122.193L122.517 163.324V172H121.239ZM131.395 172.09C130.483 172.09 129.661 171.886 128.929 171.478C128.209 171.058 127.639 170.488 127.219 169.768C126.799 169.036 126.589 168.202 126.589 167.266C126.589 166.318 126.799 165.484 127.219 164.764C127.639 164.044 128.209 163.48 128.929 163.072C129.649 162.664 130.471 162.46 131.395 162.46C132.331 162.46 133.159 162.664 133.879 163.072C134.611 163.48 135.181 164.044 135.589 164.764C136.009 165.484 136.219 166.318 136.219 167.266C136.219 168.202 136.009 169.036 135.589 169.768C135.181 170.488 134.611 171.058 133.879 171.478C133.147 171.886 132.319 172.09 131.395 172.09ZM131.395 170.956C132.079 170.956 132.685 170.806 133.213 170.506C133.741 170.194 134.155 169.762 134.455 169.21C134.767 168.646 134.923 167.998 134.923 167.266C134.923 166.522 134.767 165.874 134.455 165.322C134.155 164.77 133.741 164.344 133.213 164.044C132.685 163.732 132.085 163.576 131.413 163.576C130.741 163.576 130.141 163.732 129.613 164.044C129.085 164.344 128.665 164.77 128.353 165.322C128.041 165.874 127.885 166.522 127.885 167.266C127.885 167.998 128.041 168.646 128.353 169.21C128.665 169.762 129.085 170.194 129.613 170.506C130.141 170.806 130.735 170.956 131.395 170.956ZM137.17 171.982L137.26 170.884C137.344 170.896 137.422 170.914 137.494 170.938C137.578 170.95 137.65 170.956 137.71 170.956C138.094 170.956 138.4 170.812 138.628 170.524C138.868 170.236 139.048 169.852 139.168 169.372C139.288 168.892 139.372 168.352 139.42 167.752C139.468 167.14 139.51 166.528 139.546 165.916L139.708 162.55H146.638V172H145.36V163.288L145.684 163.666H140.536L140.842 163.27L140.698 166.006C140.662 166.822 140.596 167.602 140.5 168.346C140.416 169.09 140.278 169.744 140.086 170.308C139.906 170.872 139.654 171.316 139.33 171.64C139.006 171.952 138.592 172.108 138.088 172.108C137.944 172.108 137.794 172.096 137.638 172.072C137.494 172.048 137.338 172.018 137.17 171.982ZM159.487 172V162.55H160.765V172H159.487ZM154.249 165.88C155.437 165.892 156.343 166.156 156.967 166.672C157.591 167.188 157.903 167.932 157.903 168.904C157.903 169.912 157.567 170.686 156.895 171.226C156.223 171.766 155.263 172.03 154.015 172.018L150.271 172V162.55H151.549V165.844L154.249 165.88ZM153.925 171.046C154.813 171.058 155.479 170.884 155.923 170.524C156.379 170.152 156.607 169.612 156.607 168.904C156.607 168.196 156.385 167.68 155.941 167.356C155.497 167.02 154.825 166.846 153.925 166.834L151.549 166.798V171.01L153.925 171.046Z" fill="#454545"/>
<path d="M96.5977 60.9531C97.2109 59.2793 98.4219 58.7031 100.178 58.707C117.071 58.7435 133.965 58.7513 150.859 58.7305C151.153 58.72 151.446 58.7272 151.738 58.7519C151.988 58.7802 152.22 58.8951 152.393 59.0768C152.567 59.2585 152.671 59.4953 152.688 59.746C152.704 59.9966 152.633 60.2452 152.485 60.4483C152.337 60.6515 152.123 60.7962 151.879 60.8574C151.568 60.9189 151.252 60.9412 150.936 60.9238C134.018 60.9238 117.099 60.9238 100.18 60.9238C98.8125 60.9238 98.7949 60.9394 98.7949 62.3242C98.7949 63.0312 98.8164 63.7402 98.7949 64.4473C98.7734 65.1543 99.0859 65.4375 99.7715 65.3945C99.9414 65.3848 100.113 65.3945 100.285 65.3945H167.943C168.188 65.3945 168.434 65.3945 168.676 65.3945C169.148 65.3769 169.395 65.125 169.396 64.6543C169.396 63.7012 169.387 62.75 169.396 61.7969C169.408 61.1113 169.045 60.9219 168.42 60.9258C165.539 60.9375 162.658 60.9258 159.777 60.9258C158.824 60.9258 157.873 60.9375 156.92 60.9258C156.115 60.9141 155.631 60.4961 155.621 59.8398C155.611 59.1836 156.098 58.7383 156.889 58.7383C160.844 58.7383 164.799 58.7207 168.754 58.7383C170.375 58.7383 171.545 59.9609 171.578 61.5859C171.596 62.5859 171.59 63.5879 171.578 64.5898C171.559 66.3945 170.406 67.5449 168.598 67.5879C168.285 67.5879 167.973 67.5879 167.553 67.5879C167.553 68.3398 167.553 69.0156 167.553 69.6894C167.553 70.6406 167.582 71.5976 167.512 72.5449C167.457 73.4322 167.076 74.2678 166.442 74.8912C165.808 75.5146 164.966 75.8816 164.078 75.9219C163.232 75.9765 162.379 75.9316 161.418 75.9316V76.9433C161.418 86.5137 161.418 96.084 161.418 105.654C161.418 106.775 161.184 107.803 160.318 108.568C159.303 109.479 158.109 109.721 156.846 109.232C155.582 108.744 154.814 107.789 154.717 106.418C154.459 102.791 154.234 99.1601 154.008 95.5312C153.608 89.125 153.21 82.7181 152.814 76.3105C152.8 76.2051 152.778 76.1007 152.75 75.998H115.393C115.289 77.5195 115.182 78.998 115.09 80.4785C114.629 87.9342 114.17 95.3893 113.713 102.844C113.641 104.037 113.566 105.23 113.459 106.422C113.384 107.242 113.008 108.006 112.403 108.566C111.799 109.126 111.009 109.443 110.185 109.456C109.361 109.469 108.562 109.177 107.94 108.636C107.319 108.095 106.919 107.343 106.818 106.525C106.762 105.918 106.743 105.309 106.762 104.699C106.762 101.331 106.762 97.9616 106.762 94.5918C106.749 94.2998 106.776 94.0074 106.842 93.7226C106.996 93.1797 107.408 92.9414 107.955 92.9765C108.19 92.9793 108.417 93.067 108.593 93.2235C108.769 93.38 108.882 93.5947 108.912 93.8281C108.949 94.094 108.963 94.3626 108.953 94.6308C108.953 98.2441 108.953 101.857 108.953 105.471C108.944 105.714 108.952 105.959 108.979 106.201C109.074 106.836 109.434 107.219 110.094 107.248C110.754 107.277 111.197 106.877 111.266 106.191C111.373 105.1 111.437 104.002 111.508 102.906C112.047 94.2838 112.585 85.6608 113.121 77.0371C113.141 76.7012 113.121 76.3652 113.121 75.9922H108.957V76.8535C108.957 80.6855 108.957 84.5182 108.957 88.3516C108.967 88.6199 108.953 88.8886 108.914 89.1543C108.88 89.3886 108.763 89.6027 108.583 89.7568C108.404 89.9109 108.174 89.9946 107.938 89.9922C107.385 90.0254 106.98 89.7754 106.834 89.2324C106.771 88.9465 106.746 88.6537 106.758 88.3613C106.758 84.5527 106.758 80.7441 106.758 76.9355V75.959C106.045 75.959 105.391 75.959 104.748 75.959C102.113 75.9453 100.646 74.4648 100.625 71.8144C100.625 70.6191 100.607 69.4219 100.625 68.2266C100.625 67.7617 100.5 67.5508 100.006 67.5918C98.2891 67.7363 97.168 66.9512 96.5898 65.3496L96.5977 60.9531ZM165.305 67.6348H102.891C102.891 69.3242 102.822 70.9785 102.939 72.6191C102.967 73.0098 103.57 73.4101 103.992 73.6758C104.244 73.8359 104.656 73.7578 104.998 73.7578C124.399 73.7578 143.8 73.7578 163.201 73.7578C163.518 73.7677 163.835 73.7501 164.148 73.7051C164.758 73.5976 165.26 73.2148 165.283 72.6211C165.35 70.9766 165.305 69.3242 165.305 67.6348ZM155.027 75.9922C155.055 76.5449 155.072 77.0058 155.102 77.4668C155.273 80.2012 155.453 82.9199 155.623 85.6484C155.986 91.4922 156.347 97.3372 156.705 103.184C156.77 104.205 156.83 105.229 156.934 106.248C156.944 106.522 157.063 106.78 157.263 106.966C157.464 107.152 157.73 107.252 158.004 107.242C158.658 107.271 159.062 106.926 159.193 106.291C159.231 106.05 159.246 105.806 159.236 105.562C159.236 95.97 159.236 86.3776 159.236 76.7851C159.236 76.5273 159.213 76.2695 159.197 75.9883L155.027 75.9922Z" fill="#454545"/>
<path d="M108.233 69.0083C109.19 69.0083 110.149 68.9946 111.106 69.0083C112.016 69.0259 112.578 69.5044 112.59 70.229C112.602 70.9536 112.031 71.4712 111.141 71.479C109.224 71.4946 107.308 71.4946 105.393 71.479C104.555 71.4692 104.012 70.9634 104 70.2661C103.988 69.5688 104.529 69.0415 105.367 69.0161C106.32 68.9868 107.274 69.0083 108.233 69.0083Z" fill="#FF7D04"/>
<path d="M116.264 69.0161C116.682 68.9946 117.1 68.9946 117.518 69.0161C118.231 69.0884 118.701 69.4849 118.711 70.2271C118.721 70.9692 118.258 71.3989 117.539 71.4556C116.674 71.5181 115.806 71.5181 114.942 71.4556C114.276 71.4009 113.856 70.9771 113.846 70.2622C113.836 69.5474 114.252 69.145 114.914 69.0415C115.361 69.0027 115.81 68.9981 116.258 69.0278L116.264 69.0161Z" fill="#FF7D04"/>
<defs>
<filter id="filter0_d_83_370" x="0" y="0" width="268" height="216" filterUnits="userSpaceOnUse" color-interpolation-filters="sRGB">
<feFlood flood-opacity="0" result="BackgroundImageFix"/>
<feColorMatrix in="SourceAlpha" type="matrix" values="0 0 0 0 0 0 0 0 0 0 0 0 0 0 0 0 0 0 127 0" result="hardAlpha"/>
<feOffset dy="2"/>
<feGaussianBlur stdDeviation="4"/>
<feComposite in2="hardAlpha" operator="out"/>
<feColorMatrix type="matrix" values="0 0 0 0 0 0 0 0 0 0 0 0 0 0 0 0 0 0 0.25 0"/>
<feBlend mode="normal" in2="BackgroundImageFix" result="effect1_dropShadow_83_370"/>
<feBlend mode="normal" in="SourceGraphic" in2="effect1_dropShadow_83_370" result="shape"/>
</filter>
</defs>
</svg>
