<svg width="268" height="216" viewBox="0 0 268 216" fill="none" xmlns="http://www.w3.org/2000/svg">
<g filter="url(#filter0_d_21_156)">
<rect x="8" y="6" width="252" height="200" rx="5" fill="#FF7D04"/>
</g>
<line x1="8" y1="177.5" x2="58" y2="177.5" stroke="white"/>
<line x1="210" y1="177.5" x2="260" y2="177.5" stroke="white"/>
<path d="M94.784 184.096C93.9413 184.096 93.1627 183.957 92.448 183.68C91.7333 183.392 91.1147 182.992 90.592 182.48C90.0693 181.968 89.6587 181.365 89.36 180.672C89.072 179.979 88.928 179.221 88.928 178.4C88.928 177.579 89.072 176.821 89.36 176.128C89.6587 175.435 90.0693 174.832 90.592 174.32C91.1253 173.808 91.7493 173.413 92.464 173.136C93.1787 172.848 93.9573 172.704 94.8 172.704C95.6107 172.704 96.3733 172.843 97.088 173.12C97.8027 173.387 98.4053 173.792 98.896 174.336L98.144 175.088C97.6853 174.619 97.1787 174.283 96.624 174.08C96.0693 173.867 95.472 173.76 94.832 173.76C94.16 173.76 93.536 173.877 92.96 174.112C92.384 174.336 91.8827 174.661 91.456 175.088C91.0293 175.504 90.6933 175.995 90.448 176.56C90.2133 177.115 90.096 177.728 90.096 178.4C90.096 179.072 90.2133 179.691 90.448 180.256C90.6933 180.811 91.0293 181.301 91.456 181.728C91.8827 182.144 92.384 182.469 92.96 182.704C93.536 182.928 94.16 183.04 94.832 183.04C95.472 183.04 96.0693 182.933 96.624 182.72C97.1787 182.507 97.6853 182.165 98.144 181.696L98.896 182.448C98.4053 182.992 97.8027 183.403 97.088 183.68C96.3733 183.957 95.6053 184.096 94.784 184.096ZM101.341 184V172.8H102.317L107.437 181.536H106.925L111.997 172.8H112.973V184H111.837V174.576H112.109L107.437 182.576H106.877L102.173 174.576H102.477V184H101.341ZM121.659 184.096C120.817 184.096 120.033 183.957 119.307 183.68C118.593 183.392 117.969 182.992 117.435 182.48C116.913 181.957 116.502 181.355 116.203 180.672C115.915 179.979 115.771 179.221 115.771 178.4C115.771 177.579 115.915 176.827 116.203 176.144C116.502 175.451 116.913 174.848 117.435 174.336C117.969 173.813 118.593 173.413 119.307 173.136C120.022 172.848 120.806 172.704 121.659 172.704C122.502 172.704 123.281 172.848 123.995 173.136C124.71 173.413 125.329 173.808 125.851 174.32C126.385 174.832 126.795 175.435 127.083 176.128C127.382 176.821 127.531 177.579 127.531 178.4C127.531 179.221 127.382 179.979 127.083 180.672C126.795 181.365 126.385 181.968 125.851 182.48C125.329 182.992 124.71 183.392 123.995 183.68C123.281 183.957 122.502 184.096 121.659 184.096ZM121.659 183.04C122.331 183.04 122.95 182.928 123.515 182.704C124.091 182.469 124.587 182.144 125.003 181.728C125.43 181.301 125.761 180.811 125.995 180.256C126.23 179.691 126.347 179.072 126.347 178.4C126.347 177.728 126.23 177.115 125.995 176.56C125.761 175.995 125.43 175.504 125.003 175.088C124.587 174.661 124.091 174.336 123.515 174.112C122.95 173.877 122.331 173.76 121.659 173.76C120.987 173.76 120.363 173.877 119.787 174.112C119.211 174.336 118.71 174.661 118.283 175.088C117.867 175.504 117.537 175.995 117.291 176.56C117.057 177.115 116.939 177.728 116.939 178.4C116.939 179.061 117.057 179.675 117.291 180.24C117.537 180.805 117.867 181.301 118.283 181.728C118.71 182.144 119.211 182.469 119.787 182.704C120.363 182.928 120.987 183.04 121.659 183.04ZM132.424 184V173.504L132.745 173.824H128.489V172.8H137.529V173.824H133.289L133.593 173.504V184H132.424ZM139.607 184V172.8H143.799C144.748 172.8 145.564 172.955 146.247 173.264C146.929 173.563 147.452 174 147.815 174.576C148.188 175.141 148.375 175.829 148.375 176.64C148.375 177.429 148.188 178.112 147.815 178.688C147.452 179.253 146.929 179.691 146.247 180C145.564 180.309 144.748 180.464 143.799 180.464H140.263L140.791 179.904V184H139.607ZM140.791 180L140.263 179.424H143.767C144.887 179.424 145.735 179.184 146.311 178.704C146.897 178.213 147.191 177.525 147.191 176.64C147.191 175.744 146.897 175.051 146.311 174.56C145.735 174.069 144.887 173.824 143.767 173.824H140.263L140.791 173.264V180ZM151.85 177.808H157.77V178.816H151.85V177.808ZM151.978 182.976H158.714V184H150.794V172.8H158.474V173.824H151.978V182.976ZM163.565 184V173.504L163.885 173.824H159.629V172.8H168.669V173.824H164.429L164.733 173.504V184H163.565ZM175.435 176.8C176.758 176.8 177.766 177.099 178.459 177.696C179.163 178.283 179.515 179.157 179.515 180.32C179.515 181.525 179.142 182.443 178.395 183.072C177.649 183.691 176.582 184 175.195 184H170.747V172.8H171.915V176.8H175.435ZM175.163 183.056C176.198 183.056 176.982 182.827 177.515 182.368C178.059 181.909 178.331 181.237 178.331 180.352C178.331 179.467 178.065 178.816 177.531 178.4C176.998 177.973 176.209 177.76 175.163 177.76H171.915V183.056H175.163Z" fill="white"/>
<path d="M58.632 140.108C57.684 140.108 56.808 139.952 56.004 139.64C55.2 139.316 54.504 138.866 53.916 138.29C53.328 137.714 52.866 137.036 52.53 136.256C52.206 135.476 52.044 134.624 52.044 133.7C52.044 132.776 52.206 131.924 52.53 131.144C52.866 130.364 53.328 129.686 53.916 129.11C54.516 128.534 55.218 128.09 56.022 127.778C56.826 127.454 57.702 127.292 58.65 127.292C59.562 127.292 60.42 127.448 61.224 127.76C62.028 128.06 62.706 128.516 63.258 129.128L62.412 129.974C61.896 129.446 61.326 129.068 60.702 128.84C60.078 128.6 59.406 128.48 58.686 128.48C57.93 128.48 57.228 128.612 56.58 128.876C55.932 129.128 55.368 129.494 54.888 129.974C54.408 130.442 54.03 130.994 53.754 131.63C53.49 132.254 53.358 132.944 53.358 133.7C53.358 134.456 53.49 135.152 53.754 135.788C54.03 136.412 54.408 136.964 54.888 137.444C55.368 137.912 55.932 138.278 56.58 138.542C57.228 138.794 57.93 138.92 58.686 138.92C59.406 138.92 60.078 138.8 60.702 138.56C61.326 138.32 61.896 137.936 62.412 137.408L63.258 138.254C62.706 138.866 62.028 139.328 61.224 139.64C60.42 139.952 59.556 140.108 58.632 140.108ZM67.2391 140V131.324L67.5631 131.666H63.6571V130.55H72.0991V131.666H68.1931L68.5171 131.324V140H67.2391ZM77.5575 140.09C76.5735 140.09 75.7095 139.886 74.9655 139.478C74.2215 139.058 73.6395 138.488 73.2195 137.768C72.7995 137.036 72.5895 136.202 72.5895 135.266C72.5895 134.33 72.7875 133.502 73.1835 132.782C73.5915 132.062 74.1435 131.498 74.8395 131.09C75.5475 130.67 76.3395 130.46 77.2155 130.46C78.1035 130.46 78.8895 130.664 79.5735 131.072C80.2695 131.468 80.8155 132.032 81.2115 132.764C81.6075 133.484 81.8055 134.318 81.8055 135.266C81.8055 135.326 81.7995 135.392 81.7875 135.464C81.7875 135.524 81.7875 135.59 81.7875 135.662H73.5615V134.708H81.1035L80.5995 135.086C80.5995 134.402 80.4495 133.796 80.1495 133.268C79.8615 132.728 79.4655 132.308 78.9615 132.008C78.4575 131.708 77.8755 131.558 77.2155 131.558C76.5675 131.558 75.9855 131.708 75.4695 132.008C74.9535 132.308 74.5515 132.728 74.2635 133.268C73.9755 133.808 73.8315 134.426 73.8315 135.122V135.32C73.8315 136.04 73.9875 136.676 74.2995 137.228C74.6235 137.768 75.0675 138.194 75.6315 138.506C76.2075 138.806 76.8615 138.956 77.5935 138.956C78.1695 138.956 78.7035 138.854 79.1955 138.65C79.6995 138.446 80.1315 138.134 80.4915 137.714L81.2115 138.542C80.7915 139.046 80.2635 139.43 79.6275 139.694C79.0035 139.958 78.3135 140.09 77.5575 140.09ZM84.6344 140V130.55H85.9124V134.726H91.8704V130.55H93.1484V140H91.8704V135.824H85.9124V140H84.6344ZM100.669 140.09C99.7569 140.09 98.9349 139.886 98.2029 139.478C97.4829 139.058 96.9129 138.488 96.4929 137.768C96.0729 137.036 95.8629 136.202 95.8629 135.266C95.8629 134.318 96.0729 133.484 96.4929 132.764C96.9129 132.044 97.4829 131.48 98.2029 131.072C98.9229 130.664 99.7449 130.46 100.669 130.46C101.605 130.46 102.433 130.664 103.153 131.072C103.885 131.48 104.455 132.044 104.863 132.764C105.283 133.484 105.493 134.318 105.493 135.266C105.493 136.202 105.283 137.036 104.863 137.768C104.455 138.488 103.885 139.058 103.153 139.478C102.421 139.886 101.593 140.09 100.669 140.09ZM100.669 138.956C101.353 138.956 101.959 138.806 102.487 138.506C103.015 138.194 103.429 137.762 103.729 137.21C104.041 136.646 104.197 135.998 104.197 135.266C104.197 134.522 104.041 133.874 103.729 133.322C103.429 132.77 103.015 132.344 102.487 132.044C101.959 131.732 101.359 131.576 100.687 131.576C100.015 131.576 99.4149 131.732 98.8869 132.044C98.3589 132.344 97.9389 132.77 97.6269 133.322C97.3149 133.874 97.1589 134.522 97.1589 135.266C97.1589 135.998 97.3149 136.646 97.6269 137.21C97.9389 137.762 98.3589 138.194 98.8869 138.506C99.4149 138.806 100.009 138.956 100.669 138.956ZM108.224 140V130.55H112.4C113.468 130.55 114.308 130.754 114.92 131.162C115.544 131.57 115.856 132.17 115.856 132.962C115.856 133.73 115.562 134.324 114.974 134.744C114.386 135.152 113.612 135.356 112.652 135.356L112.904 134.978C114.032 134.978 114.86 135.188 115.388 135.608C115.916 136.028 116.18 136.634 116.18 137.426C116.18 138.242 115.88 138.878 115.28 139.334C114.692 139.778 113.774 140 112.526 140H108.224ZM109.466 138.992H112.472C113.276 138.992 113.882 138.866 114.29 138.614C114.71 138.35 114.92 137.93 114.92 137.354C114.92 136.778 114.734 136.358 114.362 136.094C113.99 135.83 113.402 135.698 112.598 135.698H109.466V138.992ZM109.466 134.744H112.31C113.042 134.744 113.6 134.606 113.984 134.33C114.38 134.054 114.578 133.652 114.578 133.124C114.578 132.596 114.38 132.2 113.984 131.936C113.6 131.672 113.042 131.54 112.31 131.54H109.466V134.744ZM128.391 140V130.55H129.669V140H128.391ZM123.153 133.88C124.341 133.892 125.247 134.156 125.871 134.672C126.495 135.188 126.807 135.932 126.807 136.904C126.807 137.912 126.471 138.686 125.799 139.226C125.127 139.766 124.167 140.03 122.919 140.018L119.175 140V130.55H120.453V133.844L123.153 133.88ZM122.829 139.046C123.717 139.058 124.383 138.884 124.827 138.524C125.283 138.152 125.511 137.612 125.511 136.904C125.511 136.196 125.289 135.68 124.845 135.356C124.401 135.02 123.729 134.846 122.829 134.834L120.453 134.798V139.01L122.829 139.046ZM137.358 140.09C136.374 140.09 135.51 139.886 134.766 139.478C134.022 139.058 133.44 138.488 133.02 137.768C132.6 137.036 132.39 136.202 132.39 135.266C132.39 134.33 132.588 133.502 132.984 132.782C133.392 132.062 133.944 131.498 134.64 131.09C135.348 130.67 136.14 130.46 137.016 130.46C137.904 130.46 138.69 130.664 139.374 131.072C140.07 131.468 140.616 132.032 141.012 132.764C141.408 133.484 141.606 134.318 141.606 135.266C141.606 135.326 141.6 135.392 141.588 135.464C141.588 135.524 141.588 135.59 141.588 135.662H133.362V134.708H140.904L140.4 135.086C140.4 134.402 140.25 133.796 139.95 133.268C139.662 132.728 139.266 132.308 138.762 132.008C138.258 131.708 137.676 131.558 137.016 131.558C136.368 131.558 135.786 131.708 135.27 132.008C134.754 132.308 134.352 132.728 134.064 133.268C133.776 133.808 133.632 134.426 133.632 135.122V135.32C133.632 136.04 133.788 136.676 134.1 137.228C134.424 137.768 134.868 138.194 135.432 138.506C136.008 138.806 136.662 138.956 137.394 138.956C137.97 138.956 138.504 138.854 138.996 138.65C139.5 138.446 139.932 138.134 140.292 137.714L141.012 138.542C140.592 139.046 140.064 139.43 139.428 139.694C138.804 139.958 138.114 140.09 137.358 140.09ZM149.146 140V130.55H157.642V140H156.364V131.324L156.688 131.666H150.1L150.424 131.324V140H149.146ZM167.143 140V137.912L167.089 137.57V134.078C167.089 133.274 166.861 132.656 166.405 132.224C165.961 131.792 165.295 131.576 164.407 131.576C163.795 131.576 163.213 131.678 162.661 131.882C162.109 132.086 161.641 132.356 161.257 132.692L160.681 131.738C161.161 131.33 161.737 131.018 162.409 130.802C163.081 130.574 163.789 130.46 164.533 130.46C165.757 130.46 166.699 130.766 167.359 131.378C168.031 131.978 168.367 132.896 168.367 134.132V140H167.143ZM163.885 140.09C163.177 140.09 162.559 139.976 162.031 139.748C161.515 139.508 161.119 139.184 160.843 138.776C160.567 138.356 160.429 137.876 160.429 137.336C160.429 136.844 160.543 136.4 160.771 136.004C161.011 135.596 161.395 135.272 161.923 135.032C162.463 134.78 163.183 134.654 164.083 134.654H167.341V135.608H164.119C163.207 135.608 162.571 135.77 162.211 136.094C161.863 136.418 161.689 136.82 161.689 137.3C161.689 137.84 161.899 138.272 162.319 138.596C162.739 138.92 163.327 139.082 164.083 139.082C164.803 139.082 165.421 138.92 165.937 138.596C166.465 138.26 166.849 137.78 167.089 137.156L167.377 138.038C167.137 138.662 166.717 139.16 166.117 139.532C165.529 139.904 164.785 140.09 163.885 140.09ZM171.769 140V130.55H173.047V134.726H179.005V130.55H180.283V140H179.005V135.824H173.047V140H171.769ZM187.966 140.09C186.982 140.09 186.118 139.886 185.374 139.478C184.63 139.058 184.048 138.488 183.628 137.768C183.208 137.036 182.998 136.202 182.998 135.266C182.998 134.33 183.196 133.502 183.592 132.782C184 132.062 184.552 131.498 185.248 131.09C185.956 130.67 186.748 130.46 187.624 130.46C188.512 130.46 189.298 130.664 189.982 131.072C190.678 131.468 191.224 132.032 191.62 132.764C192.016 133.484 192.214 134.318 192.214 135.266C192.214 135.326 192.208 135.392 192.196 135.464C192.196 135.524 192.196 135.59 192.196 135.662H183.97V134.708H191.512L191.008 135.086C191.008 134.402 190.858 133.796 190.558 133.268C190.27 132.728 189.874 132.308 189.37 132.008C188.866 131.708 188.284 131.558 187.624 131.558C186.976 131.558 186.394 131.708 185.878 132.008C185.362 132.308 184.96 132.728 184.672 133.268C184.384 133.808 184.24 134.426 184.24 135.122V135.32C184.24 136.04 184.396 136.676 184.708 137.228C185.032 137.768 185.476 138.194 186.04 138.506C186.616 138.806 187.27 138.956 188.002 138.956C188.578 138.956 189.112 138.854 189.604 138.65C190.108 138.446 190.54 138.134 190.9 137.714L191.62 138.542C191.2 139.046 190.672 139.43 190.036 139.694C189.412 139.958 188.722 140.09 187.966 140.09ZM193.121 139.982L193.211 138.884C193.295 138.896 193.373 138.914 193.445 138.938C193.529 138.95 193.601 138.956 193.661 138.956C194.045 138.956 194.351 138.812 194.579 138.524C194.819 138.236 194.999 137.852 195.119 137.372C195.239 136.892 195.323 136.352 195.371 135.752C195.419 135.14 195.461 134.528 195.497 133.916L195.659 130.55H202.589V140H201.311V131.288L201.635 131.666H196.487L196.793 131.27L196.649 134.006C196.613 134.822 196.547 135.602 196.451 136.346C196.367 137.09 196.229 137.744 196.037 138.308C195.857 138.872 195.605 139.316 195.281 139.64C194.957 139.952 194.543 140.108 194.039 140.108C193.895 140.108 193.745 140.096 193.589 140.072C193.445 140.048 193.289 140.018 193.121 139.982ZM206.222 140V130.55H207.5V138.056L213.818 130.55H214.952V140H213.674V132.476L207.374 140H206.222Z" fill="white"/>
<path d="M112.781 45.5762C112.781 44.4492 112.771 43.3457 112.781 42.2422C112.793 41.1875 113.191 40.7852 114.242 40.7344C114.451 40.7344 114.662 40.7344 114.871 40.7344H167.203C167.503 40.7253 167.803 40.7337 168.102 40.7598C168.834 40.8457 169.221 41.2735 169.262 42.0078C169.273 42.2481 169.262 42.4883 169.262 42.7266V98.9102C169.262 100.605 168.967 100.902 167.291 100.902H164.361C164.361 101.979 164.361 103.012 164.361 104.045C164.361 105.426 163.988 105.791 162.604 105.791H109.646C108.193 105.791 107.889 105.492 107.889 104.072C107.889 85.1647 107.889 66.2565 107.889 47.3477C107.889 45.9805 108.215 45.6719 109.6 45.666C110.559 45.666 111.518 45.666 112.477 45.6543C112.58 45.6363 112.682 45.6101 112.781 45.5762ZM123.883 67.8106C123.859 68.0762 123.82 68.3086 123.82 68.541C123.82 79.8692 123.814 91.1973 123.803 102.525C123.803 103.221 124.035 103.375 124.684 103.369C127.83 103.34 130.979 103.357 134.125 103.354C134.362 103.343 134.599 103.32 134.834 103.285V67.8106H123.883ZM137.395 48.1445V83.6465H148.322V48.1445H137.395ZM161.834 103.32V67.8164H150.93V103.32H161.834ZM121.344 48.1719H110.367V83.6113H121.344V48.1719ZM115.289 45.666H163.047C163.848 45.666 164.25 46.1211 164.344 46.8731C164.368 47.2019 164.374 47.5319 164.359 47.8613V98.377H166.727V43.2559H115.291L115.289 45.666ZM134.84 48.1641H123.883V65.2461H134.842L134.84 48.1641ZM110.377 86.211V103.273H121.338V86.2031L110.377 86.211ZM150.922 48.1445V65.2402H161.824V48.1445H150.922ZM137.393 103.283H148.342V86.2305H137.393V103.283Z" fill="white"/>
<path d="M103.531 43.2168C104.789 44.6153 104.949 45.1309 104.365 45.7559C103.748 46.4297 103.219 46.2813 101.748 45.0195C100.154 46.2735 99.7246 46.3985 99.123 45.7852C98.5215 45.1719 98.6484 44.75 99.9082 43.2149C99.3945 42.4336 98.0859 41.8242 99.1406 40.6074C99.6797 39.9863 100.254 40.1817 101.732 41.3887C102.514 40.8574 103.199 39.5078 104.316 40.6524C105.381 41.75 104.117 42.4258 103.531 43.2168Z" fill="white"/>
<path d="M152.057 81.8379C152.057 80.5235 152.045 79.209 152.057 77.8926C152.068 76.8985 152.527 76.3535 153.301 76.3613C154.074 76.3692 154.506 76.918 154.508 77.9238C154.508 80.5528 154.508 83.1823 154.508 85.8125C154.508 86.7891 154.062 87.375 153.322 87.4024C152.541 87.4278 152.064 86.8379 152.055 85.791C152.047 84.4668 152.057 83.1563 152.057 81.8379Z" fill="white"/>
<path d="M154.508 72.707C154.508 73.125 154.535 73.5449 154.508 73.9609C154.507 74.1128 154.476 74.263 154.416 74.4027C154.357 74.5423 154.27 74.6687 154.161 74.7742C154.051 74.8798 153.922 74.9624 153.781 75.0173C153.639 75.0722 153.488 75.0982 153.336 75.0937C152.703 75.1211 152.182 74.7851 152.133 74.1289C152.059 73.1485 152.059 72.164 152.133 71.1836C152.186 70.5293 152.719 70.207 153.342 70.2207C153.632 70.214 153.914 70.3199 154.128 70.5161C154.342 70.7123 154.472 70.9837 154.49 71.2734C154.522 71.7506 154.526 72.2293 154.502 72.707H154.508Z" fill="white"/>
<path d="M118.908 69.0273C118.908 70.166 118.918 71.3047 118.908 72.4434C118.898 73.2988 118.445 73.8477 117.754 73.8867C117.027 73.9277 116.477 73.373 116.469 72.4766C116.445 70.1328 116.445 67.7956 116.469 65.4648C116.479 64.5977 116.971 64.0781 117.676 64.0664C118.381 64.0547 118.898 64.6269 118.91 65.5215C118.918 66.6894 118.908 67.8594 118.908 69.0273Z" fill="white"/>
<path d="M114.018 54.7949C114.018 55.752 114.031 56.7109 114.018 57.668C114 58.5781 113.521 59.1406 112.797 59.1523C112.072 59.1641 111.555 58.5938 111.547 57.7031C111.531 55.7865 111.531 53.8704 111.547 51.9551C111.557 51.1172 112.063 50.5742 112.76 50.5625C113.457 50.5508 113.984 51.0918 114.01 51.9297C114.039 52.8828 114.018 53.8359 114.018 54.7949Z" fill="white"/>
<path d="M114.01 62.8262C114.031 63.2439 114.031 63.6624 114.01 64.0801C113.937 64.793 113.541 65.2637 112.799 65.2734C112.057 65.2832 111.627 64.8203 111.57 64.1015C111.508 63.2368 111.508 62.3686 111.57 61.5039C111.625 60.8379 112.049 60.418 112.764 60.4082C113.479 60.3984 113.881 60.8144 113.984 61.4765C114.023 61.9235 114.028 62.3727 113.998 62.8203L114.01 62.8262Z" fill="white"/>
<path d="M160.633 51.8887C160.654 52.3057 160.654 52.7236 160.633 53.1406C160.561 53.8437 160.107 54.2168 159.43 54.2148C158.791 54.2148 158.311 53.8633 158.271 53.2012C158.211 52.249 158.211 51.294 158.271 50.3418C158.314 49.6777 158.826 49.3398 159.443 49.3476C159.734 49.3294 160.02 49.4264 160.239 49.6176C160.459 49.8088 160.594 50.0789 160.615 50.3691C160.648 50.875 160.652 51.3823 160.627 51.8887H160.633Z" fill="white"/>
<path d="M142.26 96.0469C142.26 94.8496 142.246 93.6504 142.26 92.4531C142.271 91.6152 142.771 91.0469 143.477 91.0859C144.258 91.1348 144.676 91.6016 144.68 92.377C144.691 94.7734 144.701 97.168 144.68 99.5645C144.67 100.406 144.127 100.951 143.418 100.877C142.637 100.799 142.26 100.324 142.26 99.5449V96.0469Z" fill="white"/>
<defs>
<filter id="filter0_d_21_156" x="0" y="0" width="268" height="216" filterUnits="userSpaceOnUse" color-interpolation-filters="sRGB">
<feFlood flood-opacity="0" result="BackgroundImageFix"/>
<feColorMatrix in="SourceAlpha" type="matrix" values="0 0 0 0 0 0 0 0 0 0 0 0 0 0 0 0 0 0 127 0" result="hardAlpha"/>
<feOffset dy="2"/>
<feGaussianBlur stdDeviation="4"/>
<feComposite in2="hardAlpha" operator="out"/>
<feColorMatrix type="matrix" values="0 0 0 0 0 0 0 0 0 0 0 0 0 0 0 0 0 0 0.25 0"/>
<feBlend mode="normal" in2="BackgroundImageFix" result="effect1_dropShadow_21_156"/>
<feBlend mode="normal" in="SourceGraphic" in2="effect1_dropShadow_21_156" result="shape"/>
</filter>
</defs>
</svg>
