<svg width="268" height="216" viewBox="0 0 268 216" fill="none" xmlns="http://www.w3.org/2000/svg">
<g filter="url(#filter0_d_83_277)">
<rect x="8" y="6" width="252" height="200" rx="5" fill="white"/>
</g>
<path d="M116.746 172L111.904 165.718L112.984 165.07L118.276 172H116.746ZM108.124 172V159.4H109.42V172H108.124ZM109.024 166.222V165.052H112.966V166.222H109.024ZM113.092 165.844L111.868 165.628L116.566 159.4H118.006L113.092 165.844ZM120.179 175.582C119.735 175.582 119.309 175.51 118.901 175.366C118.505 175.222 118.163 175.006 117.875 174.718L118.469 173.764C118.709 173.992 118.967 174.166 119.243 174.286C119.531 174.418 119.849 174.484 120.197 174.484C120.617 174.484 120.977 174.364 121.277 174.124C121.589 173.896 121.883 173.488 122.159 172.9L122.771 171.514L122.915 171.316L126.803 162.55H128.063L123.329 173.134C123.065 173.746 122.771 174.232 122.447 174.592C122.135 174.952 121.793 175.204 121.421 175.348C121.049 175.504 120.635 175.582 120.179 175.582ZM122.699 172.27L118.343 162.55H119.675L123.527 171.226L122.699 172.27ZM127.961 172L131.957 166.816L131.939 167.446L128.141 162.55H129.581L132.695 166.6L132.155 166.582L135.269 162.55H136.673L132.839 167.5L132.857 166.816L136.889 172H135.431L132.137 167.68L132.641 167.752L129.401 172H127.961ZM138.984 172V162.55H140.262V166.726H146.22V162.55H147.498V172H146.22V167.824H140.262V172H138.984ZM151.131 172V162.55H152.409V170.056L158.727 162.55H159.861V172H158.583V164.476L152.283 172H151.131Z" fill="#454545"/>
<path d="M96.5977 89.5176C97.1836 88.2227 98.2109 87.7598 99.6055 87.8418C101 87.9238 102.381 87.8574 103.85 87.8574C103.865 87.543 103.889 87.2852 103.889 87.0293C103.889 84.9063 103.889 82.7813 103.889 80.6582C103.889 79.0625 104.791 78.1602 106.373 78.1426C107.082 78.1426 107.789 78.1309 108.498 78.1426C109.98 78.1699 110.92 79.0996 110.93 80.5801C110.945 82.7031 110.93 84.8281 110.93 86.9512V87.8574H111.977C130.87 87.8574 149.763 87.8574 168.656 87.8574C169.165 87.8299 169.675 87.892 170.162 88.041C171.127 88.4043 171.586 89.1856 171.588 90.2149C171.588 92.5332 171.588 94.8516 171.588 97.1719V118.773C171.588 120.76 170.77 121.59 168.809 121.59H111.406C110.234 121.59 109.705 121.236 109.727 120.457C109.748 119.713 110.25 119.393 111.4 119.393H118.387V99.8008H98.8555V119.4H99.6094C101.781 119.4 103.954 119.4 106.127 119.4C107.039 119.4 107.564 119.807 107.564 120.496C107.564 121.186 107.039 121.594 106.127 121.594C103.906 121.594 101.684 121.549 99.4648 121.613C98.0664 121.652 97.1211 121.143 96.5996 119.838L96.5977 89.5176ZM149.795 119.352H169.365V99.8203H149.795V119.352ZM120.693 99.791V119.352H147.51V99.7832L120.693 99.791ZM120.676 97.5059H147.514V90.0977H120.668L120.676 97.5059ZM169.383 90.1172H149.82V97.5215H169.375L169.383 90.1172ZM118.393 97.5391V90.1172H98.8438V97.5391H118.393ZM108.691 87.8184V80.3809H106.131V87.8145L108.691 87.8184Z" fill="#454545"/>
<path d="M139.518 46.5977C140.816 47.1191 141.311 48.0762 141.285 49.4687C141.23 52.5664 141.254 55.668 141.285 58.7676C141.299 59.1926 141.446 59.6025 141.705 59.9395C143.381 62.0059 145.115 64.0234 146.783 66.0957C147.08 66.4937 147.257 66.9679 147.295 67.4629C147.371 68.457 147.324 69.4629 147.316 70.4629C147.305 72.166 146.4 73.0664 144.678 73.0703C141.041 73.0703 137.404 73.0703 133.768 73.0703H123.662C121.746 73.0703 121.037 72.1973 120.84 70.3184C120.572 67.75 121.279 65.7031 123.148 63.9102C124.393 62.7168 125.416 61.291 126.49 59.9336C126.747 59.5956 126.893 59.1862 126.908 58.7617C126.941 55.6621 126.967 52.5605 126.908 49.4629C126.883 48.0684 127.385 47.1191 128.678 46.5918L139.518 46.5977ZM129.156 58.707H139.012V48.8437H129.156V58.707ZM124.371 65.9512H143.826C142.459 64.3145 141.191 62.7754 139.895 61.2637C139.716 61.0764 139.473 60.9651 139.215 60.9531C135.801 60.9336 132.387 60.9336 128.975 60.9531C128.741 60.9519 128.517 61.0408 128.348 61.2012C127.035 62.7344 125.748 64.291 124.371 65.9414V65.9512ZM123.111 70.834H145.059V68.2754H123.111V70.834Z" fill="#454545"/>
<path d="M116.52 46.5977C117.832 47.168 118.246 48.1914 118.23 49.584C118.182 54.0488 118.215 58.5137 118.211 62.9785C118.211 64.9512 117.379 65.7871 115.418 65.7871C110.1 65.7871 104.781 65.7617 99.4629 65.8047C98.0703 65.8164 97.1191 65.332 96.5977 64.0293V48.3555C96.7416 47.9502 96.974 47.5822 97.2781 47.2781C97.5822 46.974 97.9502 46.7416 98.3555 46.5977H116.52ZM115.967 48.8438H98.8438V63.5488H115.973L115.967 48.8438Z" fill="#454545"/>
<path d="M169.84 46.5977C171.145 47.1094 171.631 48.0625 171.615 49.459C171.568 54.0234 171.6 58.5859 171.598 63.1504C171.598 64.877 170.707 65.7852 169 65.7852C163.531 65.7852 158.063 65.7852 152.594 65.7852C150.879 65.7852 149.986 64.8906 149.979 63.166C149.979 60.8965 149.979 58.627 149.979 56.3574C149.975 56.2108 149.98 56.064 149.994 55.918C150.074 55.2715 150.508 54.8633 151.098 54.873C151.24 54.87 151.381 54.896 151.512 54.9494C151.644 55.0028 151.764 55.0825 151.863 55.1836C151.963 55.2847 152.041 55.4051 152.093 55.5374C152.145 55.6697 152.169 55.8111 152.164 55.9531C152.195 57.5391 152.182 59.127 152.184 60.7129C152.184 61.6367 152.184 62.5605 152.184 63.5371H169.371V48.8438H152.184C152.184 49.7148 152.205 50.5879 152.184 51.4609C152.158 52.2422 151.693 52.6934 151 52.6328C150.4 52.5762 150.045 52.2129 150.023 51.6328C149.992 50.6094 149.98 49.582 150.045 48.5625C150.109 47.543 150.859 47.0176 151.688 46.5957L169.84 46.5977Z" fill="#454545"/>
<path d="M154.85 75.4805C153.602 75.4805 152.48 75.4805 151.359 75.4805C150.484 75.4805 150.008 75.0898 150.002 74.4004C149.996 73.7109 150.492 73.2891 151.344 73.2891C157.638 73.2891 163.933 73.2891 170.229 73.2891C171.084 73.2891 171.586 73.709 171.596 74.3828C171.605 75.0566 171.1 75.4746 170.246 75.4805C169.127 75.4805 168.006 75.4805 166.762 75.4805C166.762 76.3828 166.732 77.248 166.789 78.1094C166.799 78.2793 167.129 78.457 167.342 78.5762C168.017 78.9564 168.551 79.5453 168.863 80.2544C169.175 80.9636 169.25 81.7549 169.074 82.5098C168.889 83.2487 168.47 83.908 167.88 84.389C167.289 84.87 166.559 85.147 165.798 85.1784C165.037 85.2098 164.286 84.9941 163.658 84.5634C163.03 84.1327 162.558 83.5102 162.312 82.7891C162.038 81.9973 162.06 81.1326 162.376 80.3563C162.692 79.58 163.28 78.9451 164.029 78.5703C164.443 78.3594 164.594 78.1387 164.568 77.6875C164.531 76.9863 164.559 76.2832 164.559 75.5391H157.047C157.047 76.4121 157.016 77.2598 157.072 78.1016C157.084 78.2754 157.408 78.459 157.619 78.582C158.445 78.9873 159.079 79.7001 159.385 80.5675C159.692 81.4349 159.646 82.3878 159.257 83.2218C158.869 84.0557 158.17 84.7043 157.309 85.0284C156.448 85.3524 155.494 85.3261 154.652 84.9551C153.314 84.4102 152.537 83.3828 152.426 81.9492C152.311 80.4766 152.945 79.3223 154.242 78.6289C154.734 78.3633 154.887 78.0742 154.852 77.5527C154.816 76.8887 154.85 76.2324 154.85 75.4805ZM155.957 82.9785C156.127 82.979 156.295 82.9459 156.452 82.8811C156.61 82.8163 156.752 82.7211 156.872 82.601C156.993 82.4808 157.088 82.3381 157.153 82.181C157.217 82.0239 157.251 81.8555 157.25 81.6855C157.253 81.5095 157.22 81.3348 157.155 81.1715C157.089 81.0083 156.991 80.8599 156.867 80.7352C156.742 80.6104 156.595 80.5119 156.432 80.4453C156.269 80.3787 156.094 80.3455 155.918 80.3477C155.575 80.3575 155.249 80.4981 155.006 80.7407C154.764 80.9833 154.623 81.3094 154.613 81.6523C154.612 81.8284 154.646 82.0029 154.713 82.1655C154.78 82.3282 154.88 82.4757 155.005 82.5993C155.13 82.723 155.279 82.8202 155.443 82.8854C155.606 82.9505 155.781 82.9822 155.957 82.9785ZM166.951 81.6387C166.946 81.2957 166.807 80.9683 166.563 80.7266C166.32 80.4849 165.991 80.3482 165.648 80.3457C165.294 80.3548 164.957 80.5013 164.708 80.7542C164.46 81.0071 164.319 81.3466 164.316 81.7012C164.33 82.0435 164.475 82.3675 164.721 82.6058C164.967 82.844 165.296 82.9782 165.639 82.9805C165.815 82.9841 165.989 82.9516 166.152 82.8851C166.315 82.8186 166.462 82.7194 166.585 82.5937C166.708 82.4679 166.804 82.3183 166.867 82.1541C166.93 81.9898 166.959 81.8144 166.951 81.6387V81.6387Z" fill="#454545"/>
<path d="M103.639 109.487C103.639 110.268 103.65 111.049 103.639 111.821C103.623 112.553 103.188 113.028 102.561 113.033C101.934 113.039 101.461 112.567 101.451 111.84C101.433 110.285 101.433 108.729 101.451 107.172C101.461 106.444 101.932 105.989 102.574 106C103.217 106.012 103.623 106.477 103.637 107.223C103.65 107.969 103.639 108.74 103.639 109.487Z" fill="#FF7D04"/>
<path d="M160.846 58.7481C161.236 58.7481 161.627 58.7344 162.018 58.7481C162.648 58.7734 163.027 59.127 163.086 59.7363C163.145 60.3457 162.801 60.834 162.201 60.8848C161.255 60.9707 160.303 60.9707 159.357 60.8848C158.772 60.8262 158.441 60.3379 158.512 59.7129C158.522 59.452 158.635 59.2057 158.826 59.0273C159.017 58.849 159.27 58.7529 159.531 58.7598C159.977 58.7305 160.406 58.7481 160.846 58.7481Z" fill="#FF7D04"/>
<path d="M154.607 109.5C154.607 110.281 154.619 111.063 154.607 111.834C154.59 112.561 154.141 113.037 153.512 113.035C152.883 113.033 152.428 112.557 152.42 111.828C152.404 110.266 152.404 108.709 152.42 107.158C152.43 106.44 152.91 105.987 153.553 106.002C154.16 106.024 154.586 106.473 154.604 107.164C154.621 107.942 154.605 108.721 154.607 109.5Z" fill="#FF7D04"/>
<path d="M134.096 116.752C131.361 116.752 128.627 116.752 125.893 116.752C124.191 116.752 123.283 115.834 123.281 114.115C123.281 111.088 123.281 108.061 123.281 105.035C123.281 103.316 124.186 102.41 125.898 102.41C131.367 102.41 136.836 102.41 142.305 102.41C144.014 102.41 144.912 103.318 144.916 105.039C144.916 108.066 144.916 111.094 144.916 114.121C144.916 115.838 144.006 116.748 142.299 116.752C139.563 116.756 136.829 116.756 134.096 116.752ZM125.521 104.643V114.502H142.676V104.646L125.521 104.643Z" fill="#454545"/>
<path d="M134.119 93.0084C135.264 93.0084 135.773 93.3209 135.797 94.0572C135.82 94.7936 135.264 95.1979 134.111 95.1959C133.868 95.21 133.625 95.2035 133.383 95.1764C132.779 95.0729 132.428 94.7018 132.406 94.0865C132.383 93.5006 132.832 93.0651 133.467 93.0104C133.68 92.9928 133.9 93.0084 134.119 93.0084Z" fill="#FF7D04"/>
<path d="M124.973 93.0084C125.191 93.0084 125.41 92.9967 125.629 93.0084C126.254 93.0494 126.615 93.399 126.676 94.0123C126.69 94.1524 126.677 94.294 126.636 94.4287C126.595 94.5635 126.527 94.6886 126.437 94.7969C126.347 94.9052 126.236 94.9944 126.111 95.0592C125.986 95.124 125.849 95.1632 125.709 95.1744C125.319 95.2102 124.928 95.2155 124.537 95.19C123.77 95.1647 123.266 94.6998 123.285 94.0572C123.305 93.4147 123.783 93.0279 124.527 93.0006C124.674 93.0006 124.82 93.0006 124.965 93.0006L124.973 93.0084Z" fill="#FF7D04"/>
<path d="M143.197 93.0026C144.369 93.0026 144.918 93.3541 144.904 94.1061C144.891 94.858 144.342 95.1979 143.166 95.1959C142.994 95.1959 142.824 95.1959 142.654 95.1959C141.961 95.1471 141.52 94.7252 141.51 94.1139C141.498 93.4674 141.947 93.0436 142.682 93.0065C142.857 92.9947 143.027 93.0026 143.197 93.0026Z" fill="#FF7D04"/>
<path d="M159.627 92.7207C160.018 92.7207 160.408 92.7012 160.799 92.7207C161.443 92.7617 161.9 93.1934 161.885 93.7754C161.869 94.3926 161.527 94.8301 160.92 94.873C160.02 94.9395 159.117 94.9395 158.217 94.873C158.08 94.8672 157.946 94.8329 157.824 94.7725C157.701 94.7121 157.592 94.6269 157.504 94.5222C157.416 94.4175 157.351 94.2957 157.313 94.1644C157.274 94.0332 157.264 93.8954 157.281 93.7598C157.279 93.6237 157.303 93.4885 157.354 93.3623C157.405 93.2361 157.481 93.1215 157.578 93.0253C157.674 92.9292 157.789 92.8535 157.915 92.8028C158.041 92.7522 158.176 92.7275 158.313 92.7305C158.748 92.7051 159.189 92.7305 159.629 92.7305L159.627 92.7207Z" fill="#FF7D04"/>
<path d="M108.627 92.7227C109.041 92.7227 109.457 92.707 109.871 92.7227C110.506 92.7559 110.848 93.1367 110.92 93.7402C110.932 93.8813 110.916 94.0233 110.872 94.1578C110.828 94.2924 110.757 94.4166 110.664 94.5232C110.571 94.6297 110.457 94.7163 110.329 94.7778C110.202 94.8392 110.063 94.8743 109.922 94.8809C109.046 94.9356 108.167 94.9356 107.291 94.8809C106.684 94.8379 106.334 94.4102 106.314 93.7949C106.291 93.209 106.752 92.7676 107.387 92.7266C107.797 92.7012 108.219 92.7227 108.627 92.7227Z" fill="#FF7D04"/>
<path d="M107.398 60.9316C106.984 60.9316 106.566 60.9629 106.156 60.9316C106.009 60.9268 105.864 60.8922 105.731 60.8301C105.597 60.7681 105.478 60.6797 105.379 60.5703C105.28 60.4609 105.205 60.3327 105.157 60.1935C105.109 60.0542 105.089 59.9067 105.1 59.7598C105.139 59.1738 105.586 58.7695 106.234 58.7539C107.016 58.7357 107.797 58.7357 108.578 58.7539C109.242 58.7715 109.664 59.1699 109.701 59.7637C109.713 59.9109 109.694 60.059 109.647 60.1988C109.6 60.3387 109.524 60.4674 109.425 60.5771C109.326 60.6868 109.206 60.7752 109.072 60.8368C108.938 60.8984 108.792 60.932 108.645 60.9355C108.229 60.9629 107.813 60.9316 107.398 60.9316Z" fill="#FF7D04"/>
<path d="M134.059 109.457C132.57 109.457 131.084 109.457 129.596 109.457C128.664 109.457 128.162 109.066 128.15 108.381C128.139 107.695 128.662 107.264 129.564 107.262C132.588 107.262 135.611 107.262 138.635 107.262C139.533 107.262 140.059 107.691 140.043 108.385C140.027 109.078 139.541 109.451 138.666 109.455C137.125 109.463 135.594 109.457 134.059 109.457Z" fill="#454545"/>
<defs>
<filter id="filter0_d_83_277" x="0" y="0" width="268" height="216" filterUnits="userSpaceOnUse" color-interpolation-filters="sRGB">
<feFlood flood-opacity="0" result="BackgroundImageFix"/>
<feColorMatrix in="SourceAlpha" type="matrix" values="0 0 0 0 0 0 0 0 0 0 0 0 0 0 0 0 0 0 127 0" result="hardAlpha"/>
<feOffset dy="2"/>
<feGaussianBlur stdDeviation="4"/>
<feComposite in2="hardAlpha" operator="out"/>
<feColorMatrix type="matrix" values="0 0 0 0 0 0 0 0 0 0 0 0 0 0 0 0 0 0 0.25 0"/>
<feBlend mode="normal" in2="BackgroundImageFix" result="effect1_dropShadow_83_277"/>
<feBlend mode="normal" in="SourceGraphic" in2="effect1_dropShadow_83_277" result="shape"/>
</filter>
</defs>
</svg>
