<svg width="268" height="216" viewBox="0 0 268 216" fill="none" xmlns="http://www.w3.org/2000/svg">
<g filter="url(#filter0_d_83_270)">
<rect x="8" y="6" width="252" height="200" rx="5" fill="white"/>
</g>
<path d="M105.082 171.136C103.582 171.136 102.298 170.926 101.23 170.506C100.162 170.074 99.34 169.45 98.764 168.634C98.188 167.818 97.9 166.834 97.9 165.682C97.9 164.53 98.188 163.552 98.764 162.748C99.34 161.932 100.162 161.308 101.23 160.876C102.298 160.444 103.582 160.228 105.082 160.228C105.094 160.228 105.124 160.228 105.172 160.228C105.22 160.228 105.268 160.228 105.316 160.228C105.364 160.228 105.394 160.228 105.406 160.228C106.918 160.228 108.208 160.444 109.276 160.876C110.344 161.308 111.166 161.932 111.742 162.748C112.318 163.552 112.606 164.53 112.606 165.682C112.606 166.834 112.318 167.818 111.742 168.634C111.178 169.45 110.362 170.074 109.294 170.506C108.226 170.926 106.948 171.136 105.46 171.136C105.436 171.136 105.394 171.136 105.334 171.136C105.286 171.136 105.232 171.136 105.172 171.136C105.124 171.136 105.094 171.136 105.082 171.136ZM105.226 170.092C105.25 170.092 105.274 170.092 105.298 170.092C105.322 170.092 105.34 170.092 105.352 170.092C106.612 170.08 107.686 169.906 108.574 169.57C109.474 169.222 110.158 168.724 110.626 168.076C111.094 167.416 111.328 166.618 111.328 165.682C111.328 164.734 111.088 163.936 110.608 163.288C110.14 162.64 109.462 162.148 108.574 161.812C107.698 161.464 106.636 161.29 105.388 161.29C105.376 161.29 105.352 161.29 105.316 161.29C105.28 161.29 105.25 161.29 105.226 161.29C103.954 161.29 102.868 161.458 101.968 161.794C101.068 162.13 100.378 162.628 99.898 163.288C99.418 163.936 99.178 164.734 99.178 165.682C99.178 166.642 99.418 167.452 99.898 168.112C100.39 168.76 101.086 169.252 101.986 169.588C102.898 169.924 103.978 170.092 105.226 170.092ZM104.632 172.432V158.968H105.874V172.432H104.632ZM121.192 172V169.912L121.138 169.57V166.078C121.138 165.274 120.91 164.656 120.454 164.224C120.01 163.792 119.344 163.576 118.456 163.576C117.844 163.576 117.262 163.678 116.71 163.882C116.158 164.086 115.69 164.356 115.306 164.692L114.73 163.738C115.21 163.33 115.786 163.018 116.458 162.802C117.13 162.574 117.838 162.46 118.582 162.46C119.806 162.46 120.748 162.766 121.408 163.378C122.08 163.978 122.416 164.896 122.416 166.132V172H121.192ZM117.934 172.09C117.226 172.09 116.608 171.976 116.08 171.748C115.564 171.508 115.168 171.184 114.892 170.776C114.616 170.356 114.478 169.876 114.478 169.336C114.478 168.844 114.592 168.4 114.82 168.004C115.06 167.596 115.444 167.272 115.972 167.032C116.512 166.78 117.232 166.654 118.132 166.654H121.39V167.608H118.168C117.256 167.608 116.62 167.77 116.26 168.094C115.912 168.418 115.738 168.82 115.738 169.3C115.738 169.84 115.948 170.272 116.368 170.596C116.788 170.92 117.376 171.082 118.132 171.082C118.852 171.082 119.47 170.92 119.986 170.596C120.514 170.26 120.898 169.78 121.138 169.156L121.426 170.038C121.186 170.662 120.766 171.16 120.166 171.532C119.578 171.904 118.834 172.09 117.934 172.09ZM129.778 172.09C128.842 172.09 128.002 171.886 127.258 171.478C126.526 171.058 125.95 170.488 125.53 169.768C125.11 169.036 124.9 168.202 124.9 167.266C124.9 166.318 125.11 165.484 125.53 164.764C125.95 164.044 126.526 163.48 127.258 163.072C128.002 162.664 128.842 162.46 129.778 162.46C130.582 162.46 131.308 162.616 131.956 162.928C132.604 163.24 133.114 163.708 133.486 164.332L132.532 164.98C132.208 164.5 131.806 164.146 131.326 163.918C130.846 163.69 130.324 163.576 129.76 163.576C129.088 163.576 128.482 163.732 127.942 164.044C127.402 164.344 126.976 164.77 126.664 165.322C126.352 165.874 126.196 166.522 126.196 167.266C126.196 168.01 126.352 168.658 126.664 169.21C126.976 169.762 127.402 170.194 127.942 170.506C128.482 170.806 129.088 170.956 129.76 170.956C130.324 170.956 130.846 170.842 131.326 170.614C131.806 170.386 132.208 170.038 132.532 169.57L133.486 170.218C133.114 170.83 132.604 171.298 131.956 171.622C131.308 171.934 130.582 172.09 129.778 172.09ZM141.829 172V169.912L141.775 169.57V166.078C141.775 165.274 141.547 164.656 141.091 164.224C140.647 163.792 139.981 163.576 139.093 163.576C138.481 163.576 137.899 163.678 137.347 163.882C136.795 164.086 136.327 164.356 135.943 164.692L135.367 163.738C135.847 163.33 136.423 163.018 137.095 162.802C137.767 162.574 138.475 162.46 139.219 162.46C140.443 162.46 141.385 162.766 142.045 163.378C142.717 163.978 143.053 164.896 143.053 166.132V172H141.829ZM138.571 172.09C137.863 172.09 137.245 171.976 136.717 171.748C136.201 171.508 135.805 171.184 135.529 170.776C135.253 170.356 135.115 169.876 135.115 169.336C135.115 168.844 135.229 168.4 135.457 168.004C135.697 167.596 136.081 167.272 136.609 167.032C137.149 166.78 137.869 166.654 138.769 166.654H142.027V167.608H138.805C137.893 167.608 137.257 167.77 136.897 168.094C136.549 168.418 136.375 168.82 136.375 169.3C136.375 169.84 136.585 170.272 137.005 170.596C137.425 170.92 138.013 171.082 138.769 171.082C139.489 171.082 140.107 170.92 140.623 170.596C141.151 170.26 141.535 169.78 141.775 169.156L142.063 170.038C141.823 170.662 141.403 171.16 140.803 171.532C140.215 171.904 139.471 172.09 138.571 172.09ZM152.935 171.388V163.666H148.381L148.273 165.772C148.249 166.408 148.207 167.032 148.147 167.644C148.099 168.256 148.009 168.82 147.877 169.336C147.757 169.84 147.583 170.254 147.355 170.578C147.127 170.89 146.833 171.07 146.473 171.118L145.195 170.884C145.567 170.896 145.873 170.764 146.113 170.488C146.353 170.2 146.539 169.81 146.671 169.318C146.803 168.826 146.899 168.268 146.959 167.644C147.019 167.008 147.067 166.36 147.103 165.7L147.229 162.55H154.213V171.388H152.935ZM144.799 174.286V170.884H155.689V174.286H154.483V172H146.005V174.286H144.799ZM167.395 172V162.55H168.673V172H167.395ZM162.157 165.88C163.345 165.892 164.251 166.156 164.875 166.672C165.499 167.188 165.811 167.932 165.811 168.904C165.811 169.912 165.475 170.686 164.803 171.226C164.131 171.766 163.171 172.03 161.923 172.018L158.179 172V162.55H159.457V165.844L162.157 165.88ZM161.833 171.046C162.721 171.058 163.387 170.884 163.831 170.524C164.287 170.152 164.515 169.612 164.515 168.904C164.515 168.196 164.293 167.68 163.849 167.356C163.405 167.02 162.733 166.846 161.833 166.834L159.457 166.798V171.01L161.833 171.046Z" fill="#454545"/>
<rect width="100" height="100" transform="translate(84 34)" fill="white"/>
<path d="M104.682 117.99C104.134 117.618 103.998 117.101 104 116.455C104.019 108.989 104.023 101.522 104.012 94.0568C104.012 92.8468 104.326 92.5399 105.562 92.5399H144.72V91.1834C144.72 89.4883 144.852 89.3616 146.595 89.3616H147.879C148.041 88.7675 148.333 88.312 149.002 88.312C149.67 88.312 149.966 88.7695 150.128 89.3596H151.814C151.922 89.3596 152.03 89.3457 152.214 89.3319V85.4209C152.214 85.0011 152.214 84.5812 152.214 84.1634C152.234 83.4446 152.673 82.9753 153.305 83.001C153.905 83.0149 154.341 83.4644 154.349 84.1496C154.363 85.7338 154.349 87.3298 154.349 88.92C154.349 89.0309 154.359 89.1398 154.367 89.3042H156.452C156.588 88.7734 156.88 88.314 157.544 88.314C158.208 88.314 158.528 88.7457 158.668 89.3636C159.359 89.3636 160.027 89.3636 160.695 89.3636C161.451 89.3636 161.839 89.7596 161.849 90.5081C161.859 91.1656 161.849 91.823 161.849 92.5419C162.149 92.5419 162.388 92.5419 162.628 92.5419C163.618 92.5537 163.98 92.9201 163.988 93.928V94.1261C163.988 101.569 163.992 109.014 164 116.459C164 117.105 163.856 117.618 163.324 118L104.682 117.99ZM161.817 115.84V94.7142H144.758V115.84H161.817ZM123.266 94.7063H106.201V104.174H123.266V94.7063ZM106.185 115.822H123.264V106.368H106.185V115.822ZM135.125 94.6904V115.816H142.544V94.6904H135.125ZM125.486 94.6904V115.816H132.901V94.6904H125.486ZM146.875 92.4884H159.679V91.53H146.875V92.4884Z" fill="#454545"/>
<path d="M163.324 50C163.858 50.3735 164.002 50.8794 164 51.5136C163.983 58.8508 163.979 66.1874 163.988 73.5233C163.988 74.6712 163.654 75 162.482 75H144.081C142.903 75 142.575 74.679 142.575 73.5292C142.575 71.2743 142.575 69.0195 142.575 66.7198H125.433V67.4163C125.433 69.4994 125.433 71.583 125.433 73.6673C125.433 74.6089 125.055 74.9981 124.117 75C117.85 75 111.58 75 105.307 75C104.402 75 104.014 74.6109 104.014 73.714C104.014 66.2471 104.01 58.7808 104 51.3152C103.994 51.0585 104.053 50.8043 104.172 50.5752C104.291 50.3461 104.466 50.1492 104.682 50.0019L163.324 50ZM123.259 52.1284H106.199V72.8813H123.259V52.1284ZM161.8 72.8833V52.1323H144.743V72.8833H161.8ZM125.479 52.1128V64.535H142.531V52.1128H125.479Z" fill="#454545"/>
<path d="M146.01 105.465C146.01 105.05 145.994 104.634 146.01 104.221C146.011 103.908 146.109 103.606 146.282 103.38C146.455 103.153 146.691 103.018 146.941 103.003C147.192 102.98 147.441 103.081 147.633 103.286C147.825 103.491 147.945 103.783 147.966 104.098C148.011 105.03 148.011 105.965 147.966 106.898C147.946 107.213 147.828 107.506 147.636 107.711C147.445 107.917 147.196 108.02 146.945 107.997C146.694 107.987 146.456 107.855 146.281 107.631C146.105 107.406 146.006 107.105 146.003 106.79C145.994 106.342 146.01 105.899 146.01 105.465Z" fill="#FF7D04"/>
<path d="M114.961 97.9901C114.625 97.9901 114.29 98.0124 113.958 97.9901C113.826 97.9863 113.697 97.9565 113.578 97.9025C113.458 97.8485 113.35 97.7713 113.261 97.6755C113.172 97.5797 113.103 97.4672 113.059 97.3446C113.014 97.222 112.995 97.0918 113.001 96.9617C113.006 96.7091 113.11 96.4685 113.293 96.292C113.475 96.1155 113.72 96.0173 113.975 96.0188C114.665 95.9947 115.357 95.9928 116.038 96.0188C116.292 96.0227 116.535 96.125 116.715 96.3038C116.895 96.4827 116.997 96.7241 117 96.9766C117.006 97.2289 116.915 97.4741 116.744 97.6613C116.573 97.8486 116.336 97.9636 116.083 97.9826C115.708 98.018 115.332 97.9826 114.957 97.9826L114.961 97.9901Z" fill="#FF7D04"/>
<path d="M114.983 109.986C114.629 109.986 114.271 110.012 113.919 109.986C113.665 109.971 113.427 109.858 113.256 109.672C113.084 109.486 112.993 109.241 113 108.989C112.998 108.736 113.096 108.493 113.274 108.312C113.451 108.131 113.694 108.027 113.949 108.023C114.657 107.993 115.371 107.991 116.079 108.023C116.326 108.04 116.558 108.148 116.729 108.327C116.899 108.505 116.996 108.74 117 108.986C117.004 109.231 116.915 109.469 116.75 109.653C116.586 109.836 116.358 109.952 116.111 109.977C115.737 110.004 115.361 110.007 114.987 109.986H114.983Z" fill="#FF7D04"/>
<path d="M137.992 105.529C137.992 105.945 138.01 106.361 137.992 106.775C137.991 106.938 137.964 107.098 137.914 107.248C137.863 107.398 137.789 107.534 137.697 107.647C137.604 107.761 137.495 107.851 137.375 107.911C137.255 107.972 137.126 108.002 136.997 108C136.867 108.003 136.739 107.973 136.619 107.911C136.499 107.85 136.39 107.759 136.298 107.644C136.207 107.528 136.135 107.391 136.087 107.239C136.039 107.088 136.016 106.926 136.019 106.763C135.995 105.908 135.993 105.05 136.019 104.192C136.023 103.877 136.125 103.575 136.303 103.353C136.481 103.13 136.722 103.004 136.973 103C137.223 102.996 137.466 103.109 137.654 103.318C137.842 103.526 137.961 103.814 137.99 104.127C137.993 104.178 137.993 104.23 137.99 104.281V105.527L137.992 105.529Z" fill="#FF7D04"/>
<path d="M130.013 105.474C130.013 105.033 129.991 104.589 130.013 104.152C130.024 103.836 130.133 103.538 130.316 103.323C130.5 103.107 130.744 102.992 130.995 103C131.552 103.024 131.923 103.414 131.962 104.082C132.013 105.015 132.013 105.952 131.962 106.885C131.945 107.201 131.829 107.496 131.64 107.704C131.451 107.912 131.203 108.018 130.952 107.997C130.703 107.989 130.465 107.86 130.288 107.638C130.111 107.417 130.008 107.118 130 106.804C130 106.752 130 106.699 130 106.647V105.479L130.013 105.474Z" fill="#FF7D04"/>
<path d="M107.017 62.4624C107 62.0223 107 61.5813 107.017 61.1412C107.035 60.8354 107.143 60.5491 107.32 60.3381C107.497 60.1271 107.73 60.0067 107.974 60.0003C108.217 59.9939 108.454 60.1019 108.638 60.3034C108.822 60.5049 108.939 60.7853 108.967 61.0898C109.011 62.0227 109.011 62.9581 108.967 63.891C108.947 64.2065 108.829 64.4994 108.639 64.7065C108.449 64.9135 108.202 65.0181 107.951 64.9974C107.7 64.9867 107.463 64.855 107.288 64.6299C107.113 64.4047 107.013 64.1033 107.01 63.7883C106.988 63.3494 107.01 62.9083 107.01 62.4671L107.017 62.4624Z" fill="#FF7D04"/>
<path d="M147.993 62.5547C147.993 62.945 148.009 63.3353 147.993 63.7233C147.955 64.5016 147.53 65.0204 146.969 64.9994C146.84 64.9961 146.712 64.9603 146.594 64.8942C146.475 64.8281 146.369 64.733 146.28 64.6144C146.191 64.4957 146.122 64.356 146.077 64.2034C146.031 64.0508 146.011 63.8884 146.016 63.7256C145.996 62.8959 145.994 62.0639 146.016 61.2342C146.014 61.0714 146.038 60.9096 146.086 60.7586C146.135 60.6076 146.207 60.4704 146.298 60.3553C146.39 60.2401 146.499 60.1493 146.619 60.0883C146.739 60.0273 146.867 59.9973 146.997 60.0002C147.126 59.9986 147.255 60.0293 147.375 60.0905C147.495 60.1516 147.604 60.242 147.696 60.3565C147.789 60.471 147.862 60.6072 147.912 60.7575C147.962 60.9077 147.988 61.0689 147.989 61.2319C148.011 61.6713 147.993 62.113 147.993 62.5547Z" fill="#FF7D04"/>
<path d="M134.011 61.0226C134.367 61.0226 134.723 60.9864 135.078 61.0226C135.332 61.0407 135.571 61.2066 135.744 61.4846C135.916 61.7626 136.008 62.1302 135.999 62.508C135.969 63.3425 135.655 63.8988 135.113 63.9489C134.383 64.017 133.651 64.017 132.921 63.9489C132.666 63.9323 132.426 63.7662 132.254 63.4872C132.081 63.2082 131.99 62.8391 132.001 62.4607C132.002 62.0862 132.1 61.7268 132.274 61.4559C132.449 61.1849 132.686 61.023 132.938 61.0031C132.98 60.999 133.021 60.999 133.063 61.0031H134L134.011 61.0226Z" fill="#FF7D04"/>
<defs>
<filter id="filter0_d_83_270" x="0" y="0" width="268" height="216" filterUnits="userSpaceOnUse" color-interpolation-filters="sRGB">
<feFlood flood-opacity="0" result="BackgroundImageFix"/>
<feColorMatrix in="SourceAlpha" type="matrix" values="0 0 0 0 0 0 0 0 0 0 0 0 0 0 0 0 0 0 127 0" result="hardAlpha"/>
<feOffset dy="2"/>
<feGaussianBlur stdDeviation="4"/>
<feComposite in2="hardAlpha" operator="out"/>
<feColorMatrix type="matrix" values="0 0 0 0 0 0 0 0 0 0 0 0 0 0 0 0 0 0 0.25 0"/>
<feBlend mode="normal" in2="BackgroundImageFix" result="effect1_dropShadow_83_270"/>
<feBlend mode="normal" in="SourceGraphic" in2="effect1_dropShadow_83_270" result="shape"/>
</filter>
</defs>
</svg>
