<svg width="268" height="216" viewBox="0 0 268 216" fill="none" xmlns="http://www.w3.org/2000/svg">
<g filter="url(#filter0_d_21_126)">
<rect x="8" y="6" width="252" height="200" rx="5" fill="#FF7D04"/>
</g>
<line x1="8" y1="177.5" x2="58" y2="177.5" stroke="white"/>
<line x1="210" y1="177.5" x2="260" y2="177.5" stroke="white"/>
<path d="M94.784 184.096C93.9413 184.096 93.1627 183.957 92.448 183.68C91.7333 183.392 91.1147 182.992 90.592 182.48C90.0693 181.968 89.6587 181.365 89.36 180.672C89.072 179.979 88.928 179.221 88.928 178.4C88.928 177.579 89.072 176.821 89.36 176.128C89.6587 175.435 90.0693 174.832 90.592 174.32C91.1253 173.808 91.7493 173.413 92.464 173.136C93.1787 172.848 93.9573 172.704 94.8 172.704C95.6107 172.704 96.3733 172.843 97.088 173.12C97.8027 173.387 98.4053 173.792 98.896 174.336L98.144 175.088C97.6853 174.619 97.1787 174.283 96.624 174.08C96.0693 173.867 95.472 173.76 94.832 173.76C94.16 173.76 93.536 173.877 92.96 174.112C92.384 174.336 91.8827 174.661 91.456 175.088C91.0293 175.504 90.6933 175.995 90.448 176.56C90.2133 177.115 90.096 177.728 90.096 178.4C90.096 179.072 90.2133 179.691 90.448 180.256C90.6933 180.811 91.0293 181.301 91.456 181.728C91.8827 182.144 92.384 182.469 92.96 182.704C93.536 182.928 94.16 183.04 94.832 183.04C95.472 183.04 96.0693 182.933 96.624 182.72C97.1787 182.507 97.6853 182.165 98.144 181.696L98.896 182.448C98.4053 182.992 97.8027 183.403 97.088 183.68C96.3733 183.957 95.6053 184.096 94.784 184.096ZM101.341 184V172.8H102.317L107.437 181.536H106.925L111.997 172.8H112.973V184H111.837V174.576H112.109L107.437 182.576H106.877L102.173 174.576H102.477V184H101.341ZM121.659 184.096C120.817 184.096 120.033 183.957 119.307 183.68C118.593 183.392 117.969 182.992 117.435 182.48C116.913 181.957 116.502 181.355 116.203 180.672C115.915 179.979 115.771 179.221 115.771 178.4C115.771 177.579 115.915 176.827 116.203 176.144C116.502 175.451 116.913 174.848 117.435 174.336C117.969 173.813 118.593 173.413 119.307 173.136C120.022 172.848 120.806 172.704 121.659 172.704C122.502 172.704 123.281 172.848 123.995 173.136C124.71 173.413 125.329 173.808 125.851 174.32C126.385 174.832 126.795 175.435 127.083 176.128C127.382 176.821 127.531 177.579 127.531 178.4C127.531 179.221 127.382 179.979 127.083 180.672C126.795 181.365 126.385 181.968 125.851 182.48C125.329 182.992 124.71 183.392 123.995 183.68C123.281 183.957 122.502 184.096 121.659 184.096ZM121.659 183.04C122.331 183.04 122.95 182.928 123.515 182.704C124.091 182.469 124.587 182.144 125.003 181.728C125.43 181.301 125.761 180.811 125.995 180.256C126.23 179.691 126.347 179.072 126.347 178.4C126.347 177.728 126.23 177.115 125.995 176.56C125.761 175.995 125.43 175.504 125.003 175.088C124.587 174.661 124.091 174.336 123.515 174.112C122.95 173.877 122.331 173.76 121.659 173.76C120.987 173.76 120.363 173.877 119.787 174.112C119.211 174.336 118.71 174.661 118.283 175.088C117.867 175.504 117.537 175.995 117.291 176.56C117.057 177.115 116.939 177.728 116.939 178.4C116.939 179.061 117.057 179.675 117.291 180.24C117.537 180.805 117.867 181.301 118.283 181.728C118.71 182.144 119.211 182.469 119.787 182.704C120.363 182.928 120.987 183.04 121.659 183.04ZM132.424 184V173.504L132.745 173.824H128.489V172.8H137.529V173.824H133.289L133.593 173.504V184H132.424ZM139.607 184V172.8H143.799C144.748 172.8 145.564 172.955 146.247 173.264C146.929 173.563 147.452 174 147.815 174.576C148.188 175.141 148.375 175.829 148.375 176.64C148.375 177.429 148.188 178.112 147.815 178.688C147.452 179.253 146.929 179.691 146.247 180C145.564 180.309 144.748 180.464 143.799 180.464H140.263L140.791 179.904V184H139.607ZM140.791 180L140.263 179.424H143.767C144.887 179.424 145.735 179.184 146.311 178.704C146.897 178.213 147.191 177.525 147.191 176.64C147.191 175.744 146.897 175.051 146.311 174.56C145.735 174.069 144.887 173.824 143.767 173.824H140.263L140.791 173.264V180ZM151.85 177.808H157.77V178.816H151.85V177.808ZM151.978 182.976H158.714V184H150.794V172.8H158.474V173.824H151.978V182.976ZM163.565 184V173.504L163.885 173.824H159.629V172.8H168.669V173.824H164.429L164.733 173.504V184H163.565ZM175.435 176.8C176.758 176.8 177.766 177.099 178.459 177.696C179.163 178.283 179.515 179.157 179.515 180.32C179.515 181.525 179.142 182.443 178.395 183.072C177.649 183.691 176.582 184 175.195 184H170.747V172.8H171.915V176.8H175.435ZM175.163 183.056C176.198 183.056 176.982 182.827 177.515 182.368C178.059 181.909 178.331 181.237 178.331 180.352C178.331 179.467 178.065 178.816 177.531 178.4C176.998 177.973 176.209 177.76 175.163 177.76H171.915V183.056H175.163Z" fill="white"/>
<path d="M87.124 140V127.4H97.726V140H96.412V128.192L96.754 128.552H88.096L88.438 128.192V140H87.124ZM106.55 140.09C105.734 140.09 104.996 139.904 104.336 139.532C103.676 139.148 103.148 138.602 102.752 137.894C102.368 137.174 102.176 136.298 102.176 135.266C102.176 134.234 102.368 133.364 102.752 132.656C103.136 131.936 103.658 131.39 104.318 131.018C104.978 130.646 105.722 130.46 106.55 130.46C107.45 130.46 108.254 130.664 108.962 131.072C109.682 131.468 110.246 132.032 110.654 132.764C111.062 133.484 111.266 134.318 111.266 135.266C111.266 136.226 111.062 137.066 110.654 137.786C110.246 138.506 109.682 139.07 108.962 139.478C108.254 139.886 107.45 140.09 106.55 140.09ZM101.672 143.492V130.55H102.896V133.394L102.77 135.284L102.95 137.192V143.492H101.672ZM106.46 138.956C107.132 138.956 107.732 138.806 108.26 138.506C108.788 138.194 109.208 137.762 109.52 137.21C109.832 136.646 109.988 135.998 109.988 135.266C109.988 134.534 109.832 133.892 109.52 133.34C109.208 132.788 108.788 132.356 108.26 132.044C107.732 131.732 107.132 131.576 106.46 131.576C105.788 131.576 105.182 131.732 104.642 132.044C104.114 132.356 103.694 132.788 103.382 133.34C103.082 133.892 102.932 134.534 102.932 135.266C102.932 135.998 103.082 136.646 103.382 137.21C103.694 137.762 104.114 138.194 104.642 138.506C105.182 138.806 105.788 138.956 106.46 138.956ZM114.011 140V130.55H115.289V138.056L121.607 130.55H122.741V140H121.463V132.476L115.163 140H114.011ZM124.856 140L128.852 134.816L128.834 135.446L125.036 130.55H126.476L129.59 134.6L129.05 134.582L132.164 130.55H133.568L129.734 135.5L129.752 134.816L133.784 140H132.326L129.032 135.68L129.536 135.752L126.296 140H124.856ZM139.433 140.09C138.521 140.09 137.699 139.886 136.967 139.478C136.247 139.058 135.677 138.488 135.257 137.768C134.837 137.036 134.627 136.202 134.627 135.266C134.627 134.318 134.837 133.484 135.257 132.764C135.677 132.044 136.247 131.48 136.967 131.072C137.687 130.664 138.509 130.46 139.433 130.46C140.369 130.46 141.197 130.664 141.917 131.072C142.649 131.48 143.219 132.044 143.627 132.764C144.047 133.484 144.257 134.318 144.257 135.266C144.257 136.202 144.047 137.036 143.627 137.768C143.219 138.488 142.649 139.058 141.917 139.478C141.185 139.886 140.357 140.09 139.433 140.09ZM139.433 138.956C140.117 138.956 140.723 138.806 141.251 138.506C141.779 138.194 142.193 137.762 142.493 137.21C142.805 136.646 142.961 135.998 142.961 135.266C142.961 134.522 142.805 133.874 142.493 133.322C142.193 132.77 141.779 132.344 141.251 132.044C140.723 131.732 140.123 131.576 139.451 131.576C138.779 131.576 138.179 131.732 137.651 132.044C137.123 132.344 136.703 132.77 136.391 133.322C136.079 133.874 135.923 134.522 135.923 135.266C135.923 135.998 136.079 136.646 136.391 137.21C136.703 137.762 137.123 138.194 137.651 138.506C138.179 138.806 138.773 138.956 139.433 138.956ZM157.868 140L154.628 135.32L155.69 134.69L159.398 140H157.868ZM152.504 135.788V134.69H155.492V135.788H152.504ZM155.816 135.41L154.592 135.23L157.742 130.55H159.128L155.816 135.41ZM146.672 140H145.142L148.85 134.69L149.894 135.32L146.672 140ZM152.9 140H151.622V130.55H152.9V140ZM152.018 135.788H149.048V134.69H152.018V135.788ZM148.742 135.41L145.412 130.55H146.798L149.93 135.23L148.742 135.41ZM161.525 140V130.55H162.803V138.056L169.121 130.55H170.255V140H168.977V132.476L162.677 140H161.525ZM177.968 140.09C176.984 140.09 176.12 139.886 175.376 139.478C174.632 139.058 174.05 138.488 173.63 137.768C173.21 137.036 173 136.202 173 135.266C173 134.33 173.198 133.502 173.594 132.782C174.002 132.062 174.554 131.498 175.25 131.09C175.958 130.67 176.75 130.46 177.626 130.46C178.514 130.46 179.3 130.664 179.984 131.072C180.68 131.468 181.226 132.032 181.622 132.764C182.018 133.484 182.216 134.318 182.216 135.266C182.216 135.326 182.21 135.392 182.198 135.464C182.198 135.524 182.198 135.59 182.198 135.662H173.972V134.708H181.514L181.01 135.086C181.01 134.402 180.86 133.796 180.56 133.268C180.272 132.728 179.876 132.308 179.372 132.008C178.868 131.708 178.286 131.558 177.626 131.558C176.978 131.558 176.396 131.708 175.88 132.008C175.364 132.308 174.962 132.728 174.674 133.268C174.386 133.808 174.242 134.426 174.242 135.122V135.32C174.242 136.04 174.398 136.676 174.71 137.228C175.034 137.768 175.478 138.194 176.042 138.506C176.618 138.806 177.272 138.956 178.004 138.956C178.58 138.956 179.114 138.854 179.606 138.65C180.11 138.446 180.542 138.134 180.902 137.714L181.622 138.542C181.202 139.046 180.674 139.43 180.038 139.694C179.414 139.958 178.724 140.09 177.968 140.09Z" fill="white"/>
<path d="M112.564 35.5977C112.859 35.6934 113.15 35.793 113.453 35.8828C114.686 36.2629 115.77 37.018 116.555 38.043C117.339 39.0679 117.784 40.3118 117.828 41.6016C117.867 43.4805 117.828 45.3613 117.844 47.2402C117.854 49.1934 119.152 50.5781 120.969 50.582C122.785 50.5859 124.094 49.2148 124.113 47.2617C124.127 45.5527 124.113 43.8438 124.113 42.1348C124.113 41.1582 124.609 40.5723 125.381 40.5957C126.123 40.6191 126.604 41.2012 126.607 42.123C126.618 43.8327 126.618 45.5417 126.607 47.25C126.58 51.7715 122.271 54.3965 118.209 52.3691C118.125 52.3262 118.035 52.2949 117.883 52.2285C117.861 52.3244 117.846 52.4216 117.838 52.5195C117.838 55.8398 117.822 59.1602 117.838 62.4805C117.848 64.0312 118.877 65.2148 120.377 65.5332C121.053 65.671 121.755 65.5748 122.369 65.2603C122.983 64.9457 123.471 64.4317 123.754 63.8027C123.96 63.2836 124.069 62.7306 124.074 62.1719C124.113 60.4883 124.084 58.8047 124.09 57.1191C124.09 56.166 124.537 55.6309 125.307 55.6191C126.076 55.6074 126.578 56.1484 126.584 57.0742C126.594 58.9063 126.627 60.7383 126.584 62.5664C126.567 63.5165 126.31 64.447 125.836 65.2707C125.363 66.0945 124.688 66.7848 123.875 67.2771C123.062 67.7695 122.138 68.0478 121.188 68.0861C120.239 68.1244 119.295 67.9214 118.445 67.4961C118.275 67.4141 118.107 67.3242 117.875 67.2051V103.109C118.508 103.109 119.158 103.15 119.801 103.109C122.465 102.902 124.271 104.893 124.098 107.389C124.096 107.616 124.107 107.844 124.131 108.07H126.537V73.1094C126.164 73.1094 125.807 73.1191 125.447 73.1094C124.623 73.082 124.111 72.6074 124.102 71.877C124.092 71.1465 124.602 70.6523 125.416 70.6172C125.588 70.6172 125.758 70.6172 125.93 70.6172H169.742C170.994 70.6172 171.598 71.0254 171.596 71.8672C171.594 72.709 170.99 73.1055 169.732 73.1133H169.156V108.104C169.525 108.104 169.906 108.09 170.287 108.104C171.047 108.135 171.57 108.631 171.588 109.314C171.605 109.998 171.064 110.553 170.273 110.594C170.129 110.594 169.982 110.594 169.836 110.594C146.008 110.594 122.18 110.598 98.3516 110.605C97.5703 110.605 96.9668 110.426 96.5938 109.715V108.982C97.0898 107.855 98.1562 108.148 99.0898 108.076C99.0898 107.707 99.0898 107.416 99.0898 107.127C99.1016 104.66 100.652 103.117 103.109 103.105C103.832 103.105 104.557 103.105 105.312 103.105V67.2207L104.74 67.4941C101.471 69.0664 97.7578 67.3867 96.7695 63.8887C96.7246 63.7324 96.6523 63.582 96.5938 63.4297V56.3984C97.0039 55.8262 97.5156 55.4355 98.2559 55.6875C98.9961 55.9395 99.1016 56.5938 99.0957 57.2969C99.0775 59.0065 99.0775 60.7148 99.0957 62.4219C99.086 63.1122 99.3051 63.7862 99.7189 64.3389C100.133 64.8915 100.718 65.2915 101.383 65.4766C103.451 66.041 105.342 64.5527 105.359 62.3047C105.383 59.498 105.359 56.6914 105.359 53.8848V52.2129C105.074 52.3438 104.879 52.4277 104.689 52.5195C103.94 52.8827 103.12 53.0756 102.288 53.0844C101.455 53.0932 100.631 52.9177 99.8745 52.5705C99.1178 52.2232 98.4474 51.7129 97.9113 51.076C97.3751 50.4391 96.9866 49.6915 96.7734 48.8867C96.7227 48.7031 96.6562 48.5234 96.5977 48.3418V41.457C96.9883 40.8828 97.4336 40.4102 98.2148 40.6758C98.9961 40.9414 99.1074 41.541 99.0996 42.2559C99.0801 43.9629 99.0234 45.6758 99.127 47.377C99.1844 48.1207 99.4356 48.8365 99.8555 49.4531C100.605 50.5352 102.037 50.8555 103.271 50.4121C104.551 49.9512 105.338 48.8262 105.355 47.3594C105.377 45.4336 105.312 43.5039 105.385 41.5781C105.475 39.1875 106.652 37.4199 108.762 36.3047C109.348 35.9941 110.025 35.8301 110.66 35.5977H112.564ZM166.586 73.1406H129.16V89.2949H166.586V73.1406ZM129.137 108.041H166.561V91.8945H129.137V108.041ZM115.348 103.078V42.4824C115.348 42.2148 115.348 41.9453 115.348 41.6777C115.32 41.0767 115.148 40.4912 114.847 39.9705C114.545 39.4498 114.123 39.0093 113.615 38.686C113.108 38.3628 112.53 38.1663 111.931 38.1132C111.332 38.0601 110.728 38.1519 110.172 38.3809C108.703 38.9805 107.854 40.2969 107.854 42.0273C107.854 62.1419 107.854 82.2591 107.854 102.379C107.854 102.611 107.881 102.844 107.896 103.092L115.348 103.078ZM101.592 108.055H121.602C121.602 107.623 121.629 107.236 121.602 106.854C121.535 106.057 121.068 105.613 120.258 105.611C114.474 105.604 108.691 105.604 102.908 105.611C102.113 105.611 101.648 106.094 101.602 106.889C101.578 107.254 101.592 107.619 101.592 108.055Z" fill="white"/>
<path d="M151.676 35.5977C152.697 35.8945 153.771 36.0762 154.73 36.5098C158.861 38.375 161.289 41.6035 161.527 46.1289C161.751 50.0742 161.734 54.0294 161.477 57.9727C161.086 63.5273 156.516 67.8301 150.93 68.0566C148.285 68.166 145.58 68.209 142.986 67.7773C137.895 66.9297 134.15 62.2363 134.098 57.0664C134.064 53.627 134.072 50.1875 134.098 46.7461C134.12 44.0742 135.094 41.4978 136.844 39.479C138.594 37.4602 141.007 36.1312 143.648 35.7305C143.787 35.6974 143.922 35.653 144.053 35.5977H151.676ZM136.664 51.7988H136.596C136.596 53.5312 136.576 55.2637 136.596 56.9961C136.652 61.293 139.916 65.0449 144.201 65.4687C146.484 65.6989 148.782 65.7191 151.068 65.5293C155.52 65.1387 158.754 61.9395 159.016 57.4863C159.242 53.7137 159.242 49.9309 159.016 46.1582C158.752 41.8047 155.574 38.6113 151.238 38.1816C148.979 37.96 146.703 37.96 144.443 38.1816C140.25 38.5977 137.201 41.6094 136.705 45.8086C136.471 47.7773 136.664 49.8008 136.664 51.7988Z" fill="white"/>
<path d="M145.35 78.0527H150.355C150.355 77.6621 150.338 77.2539 150.355 76.8535C150.362 76.5324 150.492 76.2262 150.72 75.9994C150.947 75.7727 151.254 75.643 151.575 75.6377C151.896 75.6324 152.207 75.7518 152.442 75.971C152.676 76.1901 152.817 76.4918 152.834 76.8125C152.869 77.3238 152.866 77.8369 152.824 78.3477C152.775 78.9499 152.502 79.5119 152.06 79.9237C151.618 80.3355 151.038 80.5675 150.434 80.5742C148.703 80.6042 146.973 80.6042 145.242 80.5742C144.613 80.5661 144.011 80.3117 143.567 79.8656C143.123 79.4195 142.871 78.8171 142.865 78.1875C142.846 77.75 142.844 77.3105 142.865 76.8711C142.898 76.1152 143.408 75.5996 144.094 75.5996C144.415 75.6026 144.723 75.728 144.955 75.9501C145.186 76.1721 145.325 76.4743 145.342 76.7949C145.381 77.1992 145.35 77.6094 145.35 78.0527Z" fill="white"/>
<path d="M145.34 96.7989H150.355C150.355 96.3789 150.34 95.9942 150.355 95.6113C150.393 94.8731 150.924 94.3438 151.602 94.3477C152.279 94.3516 152.803 94.8848 152.838 95.627C152.864 96.0895 152.864 96.5531 152.838 97.0156C152.807 97.632 152.542 98.2134 152.099 98.6421C151.655 99.0708 151.064 99.3146 150.447 99.3242C148.717 99.3555 146.986 99.3555 145.256 99.3242C144.626 99.3182 144.024 99.0658 143.578 98.6211C143.133 98.1764 142.879 97.5749 142.871 96.9453C142.852 96.4844 142.848 96.0196 142.871 95.5567C142.875 95.2485 142.995 94.9532 143.207 94.7298C143.419 94.5063 143.708 94.3713 144.016 94.3516C144.335 94.3322 144.65 94.4366 144.894 94.6433C145.139 94.8499 145.294 95.1427 145.328 95.461C145.358 95.9063 145.362 96.353 145.34 96.7989Z" fill="white"/>
<path d="M150.516 43.179C150.246 43.6321 150.115 43.9876 149.873 44.2337C147.438 46.6946 144.99 49.1451 142.527 51.5852C141.941 52.1614 141.221 52.1712 140.707 51.6516C140.193 51.1321 140.215 50.386 140.775 49.8216C143.232 47.3476 145.698 44.8802 148.172 42.4192C148.576 42.0169 149.103 41.8626 149.574 42.1419C149.949 42.3645 150.191 42.8079 150.516 43.179Z" fill="white"/>
<path d="M144.238 43.1497C144.016 43.5774 143.908 43.9075 143.701 44.1536C143.335 44.5738 142.944 44.9711 142.529 45.3431C141.943 45.8782 141.197 45.8782 140.709 45.3704C140.221 44.8626 140.244 44.1536 140.754 43.6009C141.166 43.1556 141.557 42.6517 142.062 42.345C142.467 42.1139 142.946 42.0515 143.396 42.1712C143.738 42.2923 143.961 42.7981 144.238 43.1497Z" fill="white"/>
<defs>
<filter id="filter0_d_21_126" x="0" y="0" width="268" height="216" filterUnits="userSpaceOnUse" color-interpolation-filters="sRGB">
<feFlood flood-opacity="0" result="BackgroundImageFix"/>
<feColorMatrix in="SourceAlpha" type="matrix" values="0 0 0 0 0 0 0 0 0 0 0 0 0 0 0 0 0 0 127 0" result="hardAlpha"/>
<feOffset dy="2"/>
<feGaussianBlur stdDeviation="4"/>
<feComposite in2="hardAlpha" operator="out"/>
<feColorMatrix type="matrix" values="0 0 0 0 0 0 0 0 0 0 0 0 0 0 0 0 0 0 0.25 0"/>
<feBlend mode="normal" in2="BackgroundImageFix" result="effect1_dropShadow_21_126"/>
<feBlend mode="normal" in="SourceGraphic" in2="effect1_dropShadow_21_126" result="shape"/>
</filter>
</defs>
</svg>
