<svg width="268" height="216" viewBox="0 0 268 216" fill="none" xmlns="http://www.w3.org/2000/svg">
<g filter="url(#filter0_d_83_357)">
<rect x="8" y="6" width="252" height="200" rx="5" fill="white"/>
</g>
<path d="M58.632 172.108C57.684 172.108 56.808 171.952 56.004 171.64C55.2 171.316 54.504 170.866 53.916 170.29C53.328 169.714 52.866 169.036 52.53 168.256C52.206 167.476 52.044 166.624 52.044 165.7C52.044 164.776 52.206 163.924 52.53 163.144C52.866 162.364 53.328 161.686 53.916 161.11C54.516 160.534 55.218 160.09 56.022 159.778C56.826 159.454 57.702 159.292 58.65 159.292C59.562 159.292 60.42 159.448 61.224 159.76C62.028 160.06 62.706 160.516 63.258 161.128L62.412 161.974C61.896 161.446 61.326 161.068 60.702 160.84C60.078 160.6 59.406 160.48 58.686 160.48C57.93 160.48 57.228 160.612 56.58 160.876C55.932 161.128 55.368 161.494 54.888 161.974C54.408 162.442 54.03 162.994 53.754 163.63C53.49 164.254 53.358 164.944 53.358 165.7C53.358 166.456 53.49 167.152 53.754 167.788C54.03 168.412 54.408 168.964 54.888 169.444C55.368 169.912 55.932 170.278 56.58 170.542C57.228 170.794 57.93 170.92 58.686 170.92C59.406 170.92 60.078 170.8 60.702 170.56C61.326 170.32 61.896 169.936 62.412 169.408L63.258 170.254C62.706 170.866 62.028 171.328 61.224 171.64C60.42 171.952 59.556 172.108 58.632 172.108ZM67.2391 172V163.324L67.5631 163.666H63.6571V162.55H72.0991V163.666H68.1931L68.5171 163.324V172H67.2391ZM77.5575 172.09C76.5735 172.09 75.7095 171.886 74.9655 171.478C74.2215 171.058 73.6395 170.488 73.2195 169.768C72.7995 169.036 72.5895 168.202 72.5895 167.266C72.5895 166.33 72.7875 165.502 73.1835 164.782C73.5915 164.062 74.1435 163.498 74.8395 163.09C75.5475 162.67 76.3395 162.46 77.2155 162.46C78.1035 162.46 78.8895 162.664 79.5735 163.072C80.2695 163.468 80.8155 164.032 81.2115 164.764C81.6075 165.484 81.8055 166.318 81.8055 167.266C81.8055 167.326 81.7995 167.392 81.7875 167.464C81.7875 167.524 81.7875 167.59 81.7875 167.662H73.5615V166.708H81.1035L80.5995 167.086C80.5995 166.402 80.4495 165.796 80.1495 165.268C79.8615 164.728 79.4655 164.308 78.9615 164.008C78.4575 163.708 77.8755 163.558 77.2155 163.558C76.5675 163.558 75.9855 163.708 75.4695 164.008C74.9535 164.308 74.5515 164.728 74.2635 165.268C73.9755 165.808 73.8315 166.426 73.8315 167.122V167.32C73.8315 168.04 73.9875 168.676 74.2995 169.228C74.6235 169.768 75.0675 170.194 75.6315 170.506C76.2075 170.806 76.8615 170.956 77.5935 170.956C78.1695 170.956 78.7035 170.854 79.1955 170.65C79.6995 170.446 80.1315 170.134 80.4915 169.714L81.2115 170.542C80.7915 171.046 80.2635 171.43 79.6275 171.694C79.0035 171.958 78.3135 172.09 77.5575 172.09ZM84.6344 172V162.55H85.9124V166.726H91.8704V162.55H93.1484V172H91.8704V167.824H85.9124V172H84.6344ZM100.669 172.09C99.7569 172.09 98.9349 171.886 98.2029 171.478C97.4829 171.058 96.9129 170.488 96.4929 169.768C96.0729 169.036 95.8629 168.202 95.8629 167.266C95.8629 166.318 96.0729 165.484 96.4929 164.764C96.9129 164.044 97.4829 163.48 98.2029 163.072C98.9229 162.664 99.7449 162.46 100.669 162.46C101.605 162.46 102.433 162.664 103.153 163.072C103.885 163.48 104.455 164.044 104.863 164.764C105.283 165.484 105.493 166.318 105.493 167.266C105.493 168.202 105.283 169.036 104.863 169.768C104.455 170.488 103.885 171.058 103.153 171.478C102.421 171.886 101.593 172.09 100.669 172.09ZM100.669 170.956C101.353 170.956 101.959 170.806 102.487 170.506C103.015 170.194 103.429 169.762 103.729 169.21C104.041 168.646 104.197 167.998 104.197 167.266C104.197 166.522 104.041 165.874 103.729 165.322C103.429 164.77 103.015 164.344 102.487 164.044C101.959 163.732 101.359 163.576 100.687 163.576C100.015 163.576 99.4149 163.732 98.8869 164.044C98.3589 164.344 97.9389 164.77 97.6269 165.322C97.3149 165.874 97.1589 166.522 97.1589 167.266C97.1589 167.998 97.3149 168.646 97.6269 169.21C97.9389 169.762 98.3589 170.194 98.8869 170.506C99.4149 170.806 100.009 170.956 100.669 170.956ZM108.224 172V162.55H112.4C113.468 162.55 114.308 162.754 114.92 163.162C115.544 163.57 115.856 164.17 115.856 164.962C115.856 165.73 115.562 166.324 114.974 166.744C114.386 167.152 113.612 167.356 112.652 167.356L112.904 166.978C114.032 166.978 114.86 167.188 115.388 167.608C115.916 168.028 116.18 168.634 116.18 169.426C116.18 170.242 115.88 170.878 115.28 171.334C114.692 171.778 113.774 172 112.526 172H108.224ZM109.466 170.992H112.472C113.276 170.992 113.882 170.866 114.29 170.614C114.71 170.35 114.92 169.93 114.92 169.354C114.92 168.778 114.734 168.358 114.362 168.094C113.99 167.83 113.402 167.698 112.598 167.698H109.466V170.992ZM109.466 166.744H112.31C113.042 166.744 113.6 166.606 113.984 166.33C114.38 166.054 114.578 165.652 114.578 165.124C114.578 164.596 114.38 164.2 113.984 163.936C113.6 163.672 113.042 163.54 112.31 163.54H109.466V166.744ZM128.391 172V162.55H129.669V172H128.391ZM123.153 165.88C124.341 165.892 125.247 166.156 125.871 166.672C126.495 167.188 126.807 167.932 126.807 168.904C126.807 169.912 126.471 170.686 125.799 171.226C125.127 171.766 124.167 172.03 122.919 172.018L119.175 172V162.55H120.453V165.844L123.153 165.88ZM122.829 171.046C123.717 171.058 124.383 170.884 124.827 170.524C125.283 170.152 125.511 169.612 125.511 168.904C125.511 168.196 125.289 167.68 124.845 167.356C124.401 167.02 123.729 166.846 122.829 166.834L120.453 166.798V171.01L122.829 171.046ZM137.358 172.09C136.374 172.09 135.51 171.886 134.766 171.478C134.022 171.058 133.44 170.488 133.02 169.768C132.6 169.036 132.39 168.202 132.39 167.266C132.39 166.33 132.588 165.502 132.984 164.782C133.392 164.062 133.944 163.498 134.64 163.09C135.348 162.67 136.14 162.46 137.016 162.46C137.904 162.46 138.69 162.664 139.374 163.072C140.07 163.468 140.616 164.032 141.012 164.764C141.408 165.484 141.606 166.318 141.606 167.266C141.606 167.326 141.6 167.392 141.588 167.464C141.588 167.524 141.588 167.59 141.588 167.662H133.362V166.708H140.904L140.4 167.086C140.4 166.402 140.25 165.796 139.95 165.268C139.662 164.728 139.266 164.308 138.762 164.008C138.258 163.708 137.676 163.558 137.016 163.558C136.368 163.558 135.786 163.708 135.27 164.008C134.754 164.308 134.352 164.728 134.064 165.268C133.776 165.808 133.632 166.426 133.632 167.122V167.32C133.632 168.04 133.788 168.676 134.1 169.228C134.424 169.768 134.868 170.194 135.432 170.506C136.008 170.806 136.662 170.956 137.394 170.956C137.97 170.956 138.504 170.854 138.996 170.65C139.5 170.446 139.932 170.134 140.292 169.714L141.012 170.542C140.592 171.046 140.064 171.43 139.428 171.694C138.804 171.958 138.114 172.09 137.358 172.09ZM149.146 172V162.55H157.642V172H156.364V163.324L156.688 163.666H150.1L150.424 163.324V172H149.146ZM167.143 172V169.912L167.089 169.57V166.078C167.089 165.274 166.861 164.656 166.405 164.224C165.961 163.792 165.295 163.576 164.407 163.576C163.795 163.576 163.213 163.678 162.661 163.882C162.109 164.086 161.641 164.356 161.257 164.692L160.681 163.738C161.161 163.33 161.737 163.018 162.409 162.802C163.081 162.574 163.789 162.46 164.533 162.46C165.757 162.46 166.699 162.766 167.359 163.378C168.031 163.978 168.367 164.896 168.367 166.132V172H167.143ZM163.885 172.09C163.177 172.09 162.559 171.976 162.031 171.748C161.515 171.508 161.119 171.184 160.843 170.776C160.567 170.356 160.429 169.876 160.429 169.336C160.429 168.844 160.543 168.4 160.771 168.004C161.011 167.596 161.395 167.272 161.923 167.032C162.463 166.78 163.183 166.654 164.083 166.654H167.341V167.608H164.119C163.207 167.608 162.571 167.77 162.211 168.094C161.863 168.418 161.689 168.82 161.689 169.3C161.689 169.84 161.899 170.272 162.319 170.596C162.739 170.92 163.327 171.082 164.083 171.082C164.803 171.082 165.421 170.92 165.937 170.596C166.465 170.26 166.849 169.78 167.089 169.156L167.377 170.038C167.137 170.662 166.717 171.16 166.117 171.532C165.529 171.904 164.785 172.09 163.885 172.09ZM171.769 172V162.55H173.047V166.726H179.005V162.55H180.283V172H179.005V167.824H173.047V172H171.769ZM187.966 172.09C186.982 172.09 186.118 171.886 185.374 171.478C184.63 171.058 184.048 170.488 183.628 169.768C183.208 169.036 182.998 168.202 182.998 167.266C182.998 166.33 183.196 165.502 183.592 164.782C184 164.062 184.552 163.498 185.248 163.09C185.956 162.67 186.748 162.46 187.624 162.46C188.512 162.46 189.298 162.664 189.982 163.072C190.678 163.468 191.224 164.032 191.62 164.764C192.016 165.484 192.214 166.318 192.214 167.266C192.214 167.326 192.208 167.392 192.196 167.464C192.196 167.524 192.196 167.59 192.196 167.662H183.97V166.708H191.512L191.008 167.086C191.008 166.402 190.858 165.796 190.558 165.268C190.27 164.728 189.874 164.308 189.37 164.008C188.866 163.708 188.284 163.558 187.624 163.558C186.976 163.558 186.394 163.708 185.878 164.008C185.362 164.308 184.96 164.728 184.672 165.268C184.384 165.808 184.24 166.426 184.24 167.122V167.32C184.24 168.04 184.396 168.676 184.708 169.228C185.032 169.768 185.476 170.194 186.04 170.506C186.616 170.806 187.27 170.956 188.002 170.956C188.578 170.956 189.112 170.854 189.604 170.65C190.108 170.446 190.54 170.134 190.9 169.714L191.62 170.542C191.2 171.046 190.672 171.43 190.036 171.694C189.412 171.958 188.722 172.09 187.966 172.09ZM193.121 171.982L193.211 170.884C193.295 170.896 193.373 170.914 193.445 170.938C193.529 170.95 193.601 170.956 193.661 170.956C194.045 170.956 194.351 170.812 194.579 170.524C194.819 170.236 194.999 169.852 195.119 169.372C195.239 168.892 195.323 168.352 195.371 167.752C195.419 167.14 195.461 166.528 195.497 165.916L195.659 162.55H202.589V172H201.311V163.288L201.635 163.666H196.487L196.793 163.27L196.649 166.006C196.613 166.822 196.547 167.602 196.451 168.346C196.367 169.09 196.229 169.744 196.037 170.308C195.857 170.872 195.605 171.316 195.281 171.64C194.957 171.952 194.543 172.108 194.039 172.108C193.895 172.108 193.745 172.096 193.589 172.072C193.445 172.048 193.289 172.018 193.121 171.982ZM206.222 172V162.55H207.5V170.056L213.818 162.55H214.952V172H213.674V164.476L207.374 172H206.222Z" fill="#454545"/>
<path d="M112.781 56.5762C112.781 55.4492 112.771 54.3457 112.781 53.2422C112.793 52.1875 113.191 51.7852 114.242 51.7344C114.451 51.7344 114.662 51.7344 114.871 51.7344H167.203C167.503 51.7253 167.803 51.7337 168.102 51.7598C168.834 51.8457 169.221 52.2735 169.262 53.0078C169.273 53.2481 169.262 53.4883 169.262 53.7266V109.91C169.262 111.605 168.967 111.902 167.291 111.902H164.361C164.361 112.979 164.361 114.012 164.361 115.045C164.361 116.426 163.988 116.791 162.604 116.791H109.646C108.193 116.791 107.889 116.492 107.889 115.072C107.889 96.1647 107.889 77.2565 107.889 58.3477C107.889 56.9805 108.215 56.6719 109.6 56.666C110.559 56.666 111.518 56.666 112.477 56.6543C112.58 56.6363 112.682 56.6101 112.781 56.5762ZM123.883 78.8106C123.859 79.0762 123.82 79.3086 123.82 79.541C123.82 90.8692 123.814 102.197 123.803 113.525C123.803 114.221 124.035 114.375 124.684 114.369C127.83 114.34 130.979 114.357 134.125 114.354C134.362 114.343 134.599 114.32 134.834 114.285V78.8106H123.883ZM137.395 59.1445V94.6465H148.322V59.1445H137.395ZM161.834 114.32V78.8164H150.93V114.32H161.834ZM121.344 59.1719H110.367V94.6113H121.344V59.1719ZM115.289 56.666H163.047C163.848 56.666 164.25 57.1211 164.344 57.8731C164.368 58.2019 164.374 58.5319 164.359 58.8613V109.377H166.727V54.2559H115.291L115.289 56.666ZM134.84 59.1641H123.883V76.2461H134.842L134.84 59.1641ZM110.377 97.211V114.273H121.338V97.2031L110.377 97.211ZM150.922 59.1445V76.2402H161.824V59.1445H150.922ZM137.393 114.283H148.342V97.2305H137.393V114.283Z" fill="#454545"/>
<path d="M103.531 54.2168C104.789 55.6152 104.949 56.1308 104.365 56.7558C103.748 57.4297 103.219 57.2812 101.748 56.0195C100.154 57.2734 99.7246 57.3984 99.123 56.7851C98.5215 56.1719 98.6484 55.75 99.9082 54.2148C99.3945 53.4336 98.0859 52.8242 99.1406 51.6074C99.6797 50.9863 100.254 51.1816 101.732 52.3887C102.514 51.8574 103.199 50.5078 104.316 51.6523C105.381 52.75 104.117 53.4258 103.531 54.2168Z" fill="#FF7D04"/>
<path d="M152.057 92.8379C152.057 91.5234 152.045 90.209 152.057 88.8926C152.068 87.8984 152.527 87.3535 153.301 87.3613C154.074 87.3691 154.506 87.918 154.508 88.9238C154.508 91.5527 154.508 94.1823 154.508 96.8125C154.508 97.7891 154.062 98.375 153.322 98.4023C152.541 98.4277 152.064 97.8379 152.055 96.791C152.047 95.4668 152.057 94.1562 152.057 92.8379Z" fill="#FF7D04"/>
<path d="M154.508 83.707C154.508 84.125 154.535 84.5449 154.508 84.9609C154.507 85.1128 154.476 85.263 154.416 85.4027C154.357 85.5423 154.27 85.6687 154.161 85.7742C154.051 85.8798 153.922 85.9624 153.781 86.0173C153.639 86.0722 153.488 86.0982 153.336 86.0937C152.703 86.1211 152.182 85.7851 152.133 85.1289C152.059 84.1485 152.059 83.164 152.133 82.1836C152.186 81.5293 152.719 81.207 153.342 81.2207C153.632 81.214 153.914 81.3199 154.128 81.5161C154.342 81.7123 154.472 81.9837 154.49 82.2734C154.522 82.7506 154.526 83.2293 154.502 83.707H154.508Z" fill="#FF7D04"/>
<path d="M118.908 80.0273C118.908 81.166 118.918 82.3047 118.908 83.4434C118.898 84.2988 118.445 84.8477 117.754 84.8867C117.027 84.9277 116.477 84.373 116.469 83.4766C116.445 81.1328 116.445 78.7956 116.469 76.4648C116.479 75.5977 116.971 75.0781 117.676 75.0664C118.381 75.0547 118.898 75.6269 118.91 76.5215C118.918 77.6894 118.908 78.8594 118.908 80.0273Z" fill="#FF7D04"/>
<path d="M114.018 65.7949C114.018 66.752 114.031 67.7109 114.018 68.668C114 69.5781 113.521 70.1406 112.797 70.1523C112.072 70.1641 111.555 69.5938 111.547 68.7031C111.531 66.7865 111.531 64.8704 111.547 62.9551C111.557 62.1172 112.063 61.5742 112.76 61.5625C113.457 61.5508 113.984 62.0918 114.01 62.9297C114.039 63.8828 114.018 64.8359 114.018 65.7949Z" fill="#FF7D04"/>
<path d="M114.01 73.8262C114.031 74.2439 114.031 74.6624 114.01 75.0801C113.937 75.793 113.541 76.2637 112.799 76.2734C112.057 76.2832 111.627 75.8203 111.57 75.1015C111.508 74.2368 111.508 73.3686 111.57 72.5039C111.625 71.8379 112.049 71.418 112.764 71.4082C113.479 71.3984 113.881 71.8144 113.984 72.4765C114.023 72.9235 114.028 73.3727 113.998 73.8203L114.01 73.8262Z" fill="#FF7D04"/>
<path d="M160.633 62.8887C160.654 63.3057 160.654 63.7236 160.633 64.1406C160.561 64.8437 160.107 65.2168 159.43 65.2148C158.791 65.2148 158.311 64.8633 158.271 64.2012C158.211 63.249 158.211 62.294 158.271 61.3418C158.314 60.6777 158.826 60.3398 159.443 60.3476C159.734 60.3294 160.02 60.4264 160.239 60.6176C160.459 60.8088 160.594 61.0789 160.615 61.3691C160.648 61.875 160.652 62.3823 160.627 62.8887H160.633Z" fill="#FF7D04"/>
<path d="M142.26 107.047C142.26 105.85 142.246 104.65 142.26 103.453C142.271 102.615 142.771 102.047 143.477 102.086C144.258 102.135 144.676 102.602 144.68 103.377C144.691 105.773 144.701 108.168 144.68 110.564C144.67 111.406 144.127 111.951 143.418 111.877C142.637 111.799 142.26 111.324 142.26 110.545V107.047Z" fill="#FF7D04"/>
<defs>
<filter id="filter0_d_83_357" x="0" y="0" width="268" height="216" filterUnits="userSpaceOnUse" color-interpolation-filters="sRGB">
<feFlood flood-opacity="0" result="BackgroundImageFix"/>
<feColorMatrix in="SourceAlpha" type="matrix" values="0 0 0 0 0 0 0 0 0 0 0 0 0 0 0 0 0 0 127 0" result="hardAlpha"/>
<feOffset dy="2"/>
<feGaussianBlur stdDeviation="4"/>
<feComposite in2="hardAlpha" operator="out"/>
<feColorMatrix type="matrix" values="0 0 0 0 0 0 0 0 0 0 0 0 0 0 0 0 0 0 0.25 0"/>
<feBlend mode="normal" in2="BackgroundImageFix" result="effect1_dropShadow_83_357"/>
<feBlend mode="normal" in="SourceGraphic" in2="effect1_dropShadow_83_357" result="shape"/>
</filter>
</defs>
</svg>
