<svg width="268" height="216" viewBox="0 0 268 216" fill="none" xmlns="http://www.w3.org/2000/svg">
<g filter="url(#filter0_d_21_192)">
<rect x="8" y="6" width="252" height="200" rx="5" fill="#FF7D04"/>
</g>
<line x1="8" y1="177.5" x2="58" y2="177.5" stroke="white"/>
<line x1="210" y1="177.5" x2="260" y2="177.5" stroke="white"/>
<path d="M94.784 184.096C93.9413 184.096 93.1627 183.957 92.448 183.68C91.7333 183.392 91.1147 182.992 90.592 182.48C90.0693 181.968 89.6587 181.365 89.36 180.672C89.072 179.979 88.928 179.221 88.928 178.4C88.928 177.579 89.072 176.821 89.36 176.128C89.6587 175.435 90.0693 174.832 90.592 174.32C91.1253 173.808 91.7493 173.413 92.464 173.136C93.1787 172.848 93.9573 172.704 94.8 172.704C95.6107 172.704 96.3733 172.843 97.088 173.12C97.8027 173.387 98.4053 173.792 98.896 174.336L98.144 175.088C97.6853 174.619 97.1787 174.283 96.624 174.08C96.0693 173.867 95.472 173.76 94.832 173.76C94.16 173.76 93.536 173.877 92.96 174.112C92.384 174.336 91.8827 174.661 91.456 175.088C91.0293 175.504 90.6933 175.995 90.448 176.56C90.2133 177.115 90.096 177.728 90.096 178.4C90.096 179.072 90.2133 179.691 90.448 180.256C90.6933 180.811 91.0293 181.301 91.456 181.728C91.8827 182.144 92.384 182.469 92.96 182.704C93.536 182.928 94.16 183.04 94.832 183.04C95.472 183.04 96.0693 182.933 96.624 182.72C97.1787 182.507 97.6853 182.165 98.144 181.696L98.896 182.448C98.4053 182.992 97.8027 183.403 97.088 183.68C96.3733 183.957 95.6053 184.096 94.784 184.096ZM101.341 184V172.8H102.317L107.437 181.536H106.925L111.997 172.8H112.973V184H111.837V174.576H112.109L107.437 182.576H106.877L102.173 174.576H102.477V184H101.341ZM121.659 184.096C120.817 184.096 120.033 183.957 119.307 183.68C118.593 183.392 117.969 182.992 117.435 182.48C116.913 181.957 116.502 181.355 116.203 180.672C115.915 179.979 115.771 179.221 115.771 178.4C115.771 177.579 115.915 176.827 116.203 176.144C116.502 175.451 116.913 174.848 117.435 174.336C117.969 173.813 118.593 173.413 119.307 173.136C120.022 172.848 120.806 172.704 121.659 172.704C122.502 172.704 123.281 172.848 123.995 173.136C124.71 173.413 125.329 173.808 125.851 174.32C126.385 174.832 126.795 175.435 127.083 176.128C127.382 176.821 127.531 177.579 127.531 178.4C127.531 179.221 127.382 179.979 127.083 180.672C126.795 181.365 126.385 181.968 125.851 182.48C125.329 182.992 124.71 183.392 123.995 183.68C123.281 183.957 122.502 184.096 121.659 184.096ZM121.659 183.04C122.331 183.04 122.95 182.928 123.515 182.704C124.091 182.469 124.587 182.144 125.003 181.728C125.43 181.301 125.761 180.811 125.995 180.256C126.23 179.691 126.347 179.072 126.347 178.4C126.347 177.728 126.23 177.115 125.995 176.56C125.761 175.995 125.43 175.504 125.003 175.088C124.587 174.661 124.091 174.336 123.515 174.112C122.95 173.877 122.331 173.76 121.659 173.76C120.987 173.76 120.363 173.877 119.787 174.112C119.211 174.336 118.71 174.661 118.283 175.088C117.867 175.504 117.537 175.995 117.291 176.56C117.057 177.115 116.939 177.728 116.939 178.4C116.939 179.061 117.057 179.675 117.291 180.24C117.537 180.805 117.867 181.301 118.283 181.728C118.71 182.144 119.211 182.469 119.787 182.704C120.363 182.928 120.987 183.04 121.659 183.04ZM132.424 184V173.504L132.745 173.824H128.489V172.8H137.529V173.824H133.289L133.593 173.504V184H132.424ZM139.607 184V172.8H143.799C144.748 172.8 145.564 172.955 146.247 173.264C146.929 173.563 147.452 174 147.815 174.576C148.188 175.141 148.375 175.829 148.375 176.64C148.375 177.429 148.188 178.112 147.815 178.688C147.452 179.253 146.929 179.691 146.247 180C145.564 180.309 144.748 180.464 143.799 180.464H140.263L140.791 179.904V184H139.607ZM140.791 180L140.263 179.424H143.767C144.887 179.424 145.735 179.184 146.311 178.704C146.897 178.213 147.191 177.525 147.191 176.64C147.191 175.744 146.897 175.051 146.311 174.56C145.735 174.069 144.887 173.824 143.767 173.824H140.263L140.791 173.264V180ZM151.85 177.808H157.77V178.816H151.85V177.808ZM151.978 182.976H158.714V184H150.794V172.8H158.474V173.824H151.978V182.976ZM163.565 184V173.504L163.885 173.824H159.629V172.8H168.669V173.824H164.429L164.733 173.504V184H163.565ZM175.435 176.8C176.758 176.8 177.766 177.099 178.459 177.696C179.163 178.283 179.515 179.157 179.515 180.32C179.515 181.525 179.142 182.443 178.395 183.072C177.649 183.691 176.582 184 175.195 184H170.747V172.8H171.915V176.8H175.435ZM175.163 183.056C176.198 183.056 176.982 182.827 177.515 182.368C178.059 181.909 178.331 181.237 178.331 180.352C178.331 179.467 178.065 178.816 177.531 178.4C176.998 177.973 176.209 177.76 175.163 177.76H171.915V183.056H175.163Z" fill="white"/>
<path d="M90.082 139.136C88.582 139.136 87.298 138.926 86.23 138.506C85.162 138.074 84.34 137.45 83.764 136.634C83.188 135.818 82.9 134.834 82.9 133.682C82.9 132.53 83.188 131.552 83.764 130.748C84.34 129.932 85.162 129.308 86.23 128.876C87.298 128.444 88.582 128.228 90.082 128.228C90.094 128.228 90.124 128.228 90.172 128.228C90.22 128.228 90.268 128.228 90.316 128.228C90.364 128.228 90.394 128.228 90.406 128.228C91.918 128.228 93.208 128.444 94.276 128.876C95.344 129.308 96.166 129.932 96.742 130.748C97.318 131.552 97.606 132.53 97.606 133.682C97.606 134.834 97.318 135.818 96.742 136.634C96.178 137.45 95.362 138.074 94.294 138.506C93.226 138.926 91.948 139.136 90.46 139.136C90.436 139.136 90.394 139.136 90.334 139.136C90.286 139.136 90.232 139.136 90.172 139.136C90.124 139.136 90.094 139.136 90.082 139.136ZM90.226 138.092C90.25 138.092 90.274 138.092 90.298 138.092C90.322 138.092 90.34 138.092 90.352 138.092C91.612 138.08 92.686 137.906 93.574 137.57C94.474 137.222 95.158 136.724 95.626 136.076C96.094 135.416 96.328 134.618 96.328 133.682C96.328 132.734 96.088 131.936 95.608 131.288C95.14 130.64 94.462 130.148 93.574 129.812C92.698 129.464 91.636 129.29 90.388 129.29C90.376 129.29 90.352 129.29 90.316 129.29C90.28 129.29 90.25 129.29 90.226 129.29C88.954 129.29 87.868 129.458 86.968 129.794C86.068 130.13 85.378 130.628 84.898 131.288C84.418 131.936 84.178 132.734 84.178 133.682C84.178 134.642 84.418 135.452 84.898 136.112C85.39 136.76 86.086 137.252 86.986 137.588C87.898 137.924 88.978 138.092 90.226 138.092ZM89.632 140.432V126.968H90.874V140.432H89.632ZM100.486 143.582C100.042 143.582 99.6159 143.51 99.2079 143.366C98.8119 143.222 98.4699 143.006 98.1819 142.718L98.7759 141.764C99.0159 141.992 99.2739 142.166 99.5499 142.286C99.8379 142.418 100.156 142.484 100.504 142.484C100.924 142.484 101.284 142.364 101.584 142.124C101.896 141.896 102.19 141.488 102.466 140.9L103.078 139.514L103.222 139.316L107.11 130.55H108.37L103.636 141.134C103.372 141.746 103.078 142.232 102.754 142.592C102.442 142.952 102.1 143.204 101.728 143.348C101.356 143.504 100.942 143.582 100.486 143.582ZM103.006 140.27L98.6499 130.55H99.9819L103.834 139.226L103.006 140.27ZM115.239 140.09C114.423 140.09 113.685 139.904 113.025 139.532C112.365 139.148 111.837 138.602 111.441 137.894C111.057 137.174 110.865 136.298 110.865 135.266C110.865 134.234 111.057 133.364 111.441 132.656C111.825 131.936 112.347 131.39 113.007 131.018C113.667 130.646 114.411 130.46 115.239 130.46C116.139 130.46 116.943 130.664 117.651 131.072C118.371 131.468 118.935 132.032 119.343 132.764C119.751 133.484 119.955 134.318 119.955 135.266C119.955 136.226 119.751 137.066 119.343 137.786C118.935 138.506 118.371 139.07 117.651 139.478C116.943 139.886 116.139 140.09 115.239 140.09ZM110.361 143.492V130.55H111.585V133.394L111.459 135.284L111.639 137.192V143.492H110.361ZM115.149 138.956C115.821 138.956 116.421 138.806 116.949 138.506C117.477 138.194 117.897 137.762 118.209 137.21C118.521 136.646 118.677 135.998 118.677 135.266C118.677 134.534 118.521 133.892 118.209 133.34C117.897 132.788 117.477 132.356 116.949 132.044C116.421 131.732 115.821 131.576 115.149 131.576C114.477 131.576 113.871 131.732 113.331 132.044C112.803 132.356 112.383 132.788 112.071 133.34C111.771 133.892 111.621 134.534 111.621 135.266C111.621 135.998 111.771 136.646 112.071 137.21C112.383 137.762 112.803 138.194 113.331 138.506C113.871 138.806 114.477 138.956 115.149 138.956ZM122.701 140V130.55H123.979V134.726H129.937V130.55H131.215V140H129.937V135.824H123.979V140H122.701ZM134.847 140V130.55H136.125V138.056L142.443 130.55H143.577V140H142.299V132.476L135.999 140H134.847ZM149.04 140V131.324L149.364 131.666H145.458V130.55H153.9V131.666H149.994L150.318 131.324V140H149.04ZM155.91 143.582C155.466 143.582 155.04 143.51 154.632 143.366C154.236 143.222 153.894 143.006 153.606 142.718L154.2 141.764C154.44 141.992 154.698 142.166 154.974 142.286C155.262 142.418 155.58 142.484 155.928 142.484C156.348 142.484 156.708 142.364 157.008 142.124C157.32 141.896 157.614 141.488 157.89 140.9L158.502 139.514L158.646 139.316L162.534 130.55H163.794L159.06 141.134C158.796 141.746 158.502 142.232 158.178 142.592C157.866 142.952 157.524 143.204 157.152 143.348C156.78 143.504 156.366 143.582 155.91 143.582ZM158.43 140.27L154.074 130.55H155.406L159.258 139.226L158.43 140.27ZM170.663 140.09C169.847 140.09 169.109 139.904 168.449 139.532C167.789 139.148 167.261 138.602 166.865 137.894C166.481 137.174 166.289 136.298 166.289 135.266C166.289 134.234 166.481 133.364 166.865 132.656C167.249 131.936 167.771 131.39 168.431 131.018C169.091 130.646 169.835 130.46 170.663 130.46C171.563 130.46 172.367 130.664 173.075 131.072C173.795 131.468 174.359 132.032 174.767 132.764C175.175 133.484 175.379 134.318 175.379 135.266C175.379 136.226 175.175 137.066 174.767 137.786C174.359 138.506 173.795 139.07 173.075 139.478C172.367 139.886 171.563 140.09 170.663 140.09ZM165.785 143.492V130.55H167.009V133.394L166.883 135.284L167.063 137.192V143.492H165.785ZM170.573 138.956C171.245 138.956 171.845 138.806 172.373 138.506C172.901 138.194 173.321 137.762 173.633 137.21C173.945 136.646 174.101 135.998 174.101 135.266C174.101 134.534 173.945 133.892 173.633 133.34C173.321 132.788 172.901 132.356 172.373 132.044C171.845 131.732 171.245 131.576 170.573 131.576C169.901 131.576 169.295 131.732 168.755 132.044C168.227 132.356 167.807 132.788 167.495 133.34C167.195 133.892 167.045 134.534 167.045 135.266C167.045 135.998 167.195 136.646 167.495 137.21C167.807 137.762 168.227 138.194 168.755 138.506C169.295 138.806 169.901 138.956 170.573 138.956ZM183.94 140V137.912L183.886 137.57V134.078C183.886 133.274 183.658 132.656 183.202 132.224C182.758 131.792 182.092 131.576 181.204 131.576C180.592 131.576 180.01 131.678 179.458 131.882C178.906 132.086 178.438 132.356 178.054 132.692L177.478 131.738C177.958 131.33 178.534 131.018 179.206 130.802C179.878 130.574 180.586 130.46 181.33 130.46C182.554 130.46 183.496 130.766 184.156 131.378C184.828 131.978 185.164 132.896 185.164 134.132V140H183.94ZM180.682 140.09C179.974 140.09 179.356 139.976 178.828 139.748C178.312 139.508 177.916 139.184 177.64 138.776C177.364 138.356 177.226 137.876 177.226 137.336C177.226 136.844 177.34 136.4 177.568 136.004C177.808 135.596 178.192 135.272 178.72 135.032C179.26 134.78 179.98 134.654 180.88 134.654H184.138V135.608H180.916C180.004 135.608 179.368 135.77 179.008 136.094C178.66 136.418 178.486 136.82 178.486 137.3C178.486 137.84 178.696 138.272 179.116 138.596C179.536 138.92 180.124 139.082 180.88 139.082C181.6 139.082 182.218 138.92 182.734 138.596C183.262 138.26 183.646 137.78 183.886 137.156L184.174 138.038C183.934 138.662 183.514 139.16 182.914 139.532C182.326 139.904 181.582 140.09 180.682 140.09Z" fill="white"/>
<path d="M123.404 107.266C122.002 107.088 120.592 106.947 119.195 106.725C116.303 106.272 113.476 105.478 110.771 104.357C109.328 103.758 108.623 102.625 108.623 101.07C108.623 95.5898 108.623 90.11 108.623 84.6308C108.623 71.6504 108.623 58.6712 108.623 45.6933C108.623 43.5449 109.27 42.5683 111.262 41.8066C120.922 38.1608 130.577 38.1823 140.227 41.8711C142 42.5488 142.701 43.6172 142.701 45.5371C142.701 49.041 142.701 52.5449 142.701 56.1465H143.432C147.381 56.1465 151.332 56.1152 155.279 56.1621C157.18 56.1855 158.584 57.1386 159.346 58.8965C160.107 60.6543 159.812 62.2929 158.564 63.7285C157.639 64.7929 156.416 65.2422 155.012 65.2363C151.174 65.2226 147.336 65.2363 143.488 65.2363H142.691V100.67C142.691 102.834 142.016 103.816 139.998 104.59C136.313 106.016 132.436 106.88 128.494 107.154C128.297 107.178 128.101 107.216 127.908 107.266H123.404ZM140.445 56.1445V45.5527C140.445 44.5644 140.285 44.3125 139.367 43.9648C130.233 40.5 121.099 40.5052 111.965 43.9804C111.057 44.3301 110.902 44.5664 110.902 45.5058V100.879C110.902 101.793 111.068 102.051 111.916 102.369C121.043 105.885 130.178 105.871 139.318 102.428C140.295 102.061 140.445 101.82 140.445 100.736V65.2539C140.17 65.2402 139.977 65.2246 139.781 65.2226C137.895 65.2226 136.01 65.2343 134.117 65.2129C133.935 65.1963 133.752 65.2333 133.59 65.3194C133.428 65.4054 133.295 65.5367 133.207 65.6972C131.43 68.3222 128.945 69.7011 125.766 69.7597C123.879 69.7821 122.032 69.2158 120.481 68.1394C118.931 67.0631 117.755 65.5304 117.117 63.7545C116.478 61.9786 116.41 60.0478 116.92 58.2309C117.43 56.414 118.493 54.8013 119.963 53.6172C124.186 50.2363 130.234 51.1933 133.254 55.707C133.381 55.9023 133.635 56.123 133.84 56.1269C136.004 56.1562 138.176 56.1445 140.445 56.1445ZM140.43 62.9511H141.828C146.264 62.9511 150.701 62.9511 155.137 62.9511C156.924 62.9511 158.025 61.1816 157.215 59.6504C156.756 58.7832 155.99 58.4179 155.021 58.4179H125.797C125.686 58.4144 125.575 58.4176 125.465 58.4277C124.553 58.5468 123.891 59.0136 123.549 59.873C122.939 61.3965 124.057 62.9472 125.779 62.9511C130.664 62.959 135.545 62.9511 140.424 62.9511H140.43ZM130.715 56.1465C129.757 55.0757 128.484 54.3361 127.08 54.0339C125.675 53.7317 124.211 53.8824 122.898 54.4643C121.584 55.0463 120.489 56.0296 119.77 57.273C119.05 58.5164 118.743 59.9559 118.893 61.3847C119.139 64.2363 121.311 66.6758 124.187 67.332C126.576 67.8769 129.596 66.9101 130.609 65.2226H130.066C128.537 65.2226 127.006 65.2363 125.479 65.207C124.832 65.2045 124.194 65.0521 123.616 64.7616C123.038 64.4712 122.535 64.0507 122.146 63.5332C121.008 62.084 120.789 60.459 121.561 58.7871C122.332 57.1152 123.752 56.2031 125.623 56.1562C127.273 56.1133 128.922 56.1465 130.709 56.1465H130.715Z" fill="white"/>
<path d="M126.066 78.8789C127.461 78.9375 128.818 79.6992 129.652 81.252C130.486 82.8047 130.377 84.3906 129.457 85.9258C129.243 86.2969 129.118 86.7128 129.092 87.1406C129.027 88.332 129.115 89.5371 128.998 90.7227C128.838 92.336 127.516 93.4922 125.855 93.625C125.086 93.6696 124.325 93.4513 123.696 93.0058C123.068 92.5603 122.609 91.9143 122.396 91.1738C122.301 90.7872 122.252 90.3905 122.25 89.9922C122.227 89.2832 122.221 88.5742 122.25 87.8652C122.299 87.0583 122.106 86.255 121.695 85.5586C119.982 82.5586 122.232 78.8594 126.066 78.8789ZM125.707 81.1485C124.762 81.1602 124.041 81.5703 123.631 82.4317C123.221 83.293 123.309 84.1895 123.982 84.8965C124.174 85.094 124.321 85.3293 124.416 85.5873C124.511 85.8453 124.551 86.1202 124.533 86.3945C124.514 87.5918 124.502 88.7891 124.545 89.9844C124.557 90.334 124.662 90.8008 124.902 90.9922C125.234 91.2241 125.642 91.3186 126.041 91.2559C126.578 91.1641 126.795 90.6699 126.801 90.1445C126.811 88.9727 126.826 87.8008 126.801 86.6289C126.785 85.9375 126.904 85.3594 127.414 84.8164C128.045 84.1485 128.109 83.3008 127.715 82.4727C127.548 82.0789 127.268 81.7431 126.911 81.5076C126.554 81.272 126.135 81.1471 125.707 81.1485V81.1485Z" fill="white"/>
<path d="M125.309 43.6426C125.519 43.6402 125.729 43.6579 125.936 43.6953C126.197 43.7527 126.427 43.9052 126.582 44.1233C126.737 44.3414 126.805 44.6094 126.773 44.875C126.713 45.461 126.383 45.8516 125.807 45.8828C123.529 45.9849 121.272 46.3627 119.086 47.0078C118.482 47.1895 117.932 46.8125 117.758 46.2129C117.71 46.0696 117.694 45.9177 117.71 45.7676C117.726 45.6174 117.773 45.4723 117.85 45.342C117.926 45.2117 118.029 45.0992 118.153 45.0119C118.276 44.9247 118.416 44.8647 118.564 44.836C120.283 44.4453 122.016 44.1016 123.748 43.7676C124.266 43.699 124.787 43.6573 125.309 43.6426V43.6426Z" fill="white"/>
<path d="M114.305 45.9199C114.606 45.924 114.893 46.0474 115.104 46.2631C115.314 46.4787 115.431 46.769 115.428 47.0703C115.429 47.2141 115.402 47.3568 115.348 47.4901C115.294 47.6234 115.214 47.7448 115.114 47.8473C115.013 47.9498 114.893 48.0314 114.76 48.0874C114.628 48.1434 114.486 48.1728 114.342 48.1738C114.192 48.1798 114.043 48.156 113.903 48.1038C113.763 48.0516 113.635 47.9719 113.525 47.8696C113.416 47.7672 113.329 47.6442 113.268 47.5077C113.207 47.3711 113.173 47.2238 113.17 47.0742C113.174 46.7728 113.295 46.4846 113.506 46.2697C113.717 46.0547 114.003 45.9294 114.305 45.9199Z" fill="white"/>
<defs>
<filter id="filter0_d_21_192" x="0" y="0" width="268" height="216" filterUnits="userSpaceOnUse" color-interpolation-filters="sRGB">
<feFlood flood-opacity="0" result="BackgroundImageFix"/>
<feColorMatrix in="SourceAlpha" type="matrix" values="0 0 0 0 0 0 0 0 0 0 0 0 0 0 0 0 0 0 127 0" result="hardAlpha"/>
<feOffset dy="2"/>
<feGaussianBlur stdDeviation="4"/>
<feComposite in2="hardAlpha" operator="out"/>
<feColorMatrix type="matrix" values="0 0 0 0 0 0 0 0 0 0 0 0 0 0 0 0 0 0 0.25 0"/>
<feBlend mode="normal" in2="BackgroundImageFix" result="effect1_dropShadow_21_192"/>
<feBlend mode="normal" in="SourceGraphic" in2="effect1_dropShadow_21_192" result="shape"/>
</filter>
</defs>
</svg>
