<svg width="268" height="216" viewBox="0 0 268 216" fill="none" xmlns="http://www.w3.org/2000/svg">
<g filter="url(#filter0_d_83_320)">
<rect x="8" y="6" width="252" height="200" rx="5" fill="white"/>
</g>
<path d="M87.124 172V159.4H97.726V172H96.412V160.192L96.754 160.552H88.096L88.438 160.192V172H87.124ZM106.55 172.09C105.734 172.09 104.996 171.904 104.336 171.532C103.676 171.148 103.148 170.602 102.752 169.894C102.368 169.174 102.176 168.298 102.176 167.266C102.176 166.234 102.368 165.364 102.752 164.656C103.136 163.936 103.658 163.39 104.318 163.018C104.978 162.646 105.722 162.46 106.55 162.46C107.45 162.46 108.254 162.664 108.962 163.072C109.682 163.468 110.246 164.032 110.654 164.764C111.062 165.484 111.266 166.318 111.266 167.266C111.266 168.226 111.062 169.066 110.654 169.786C110.246 170.506 109.682 171.07 108.962 171.478C108.254 171.886 107.45 172.09 106.55 172.09ZM101.672 175.492V162.55H102.896V165.394L102.77 167.284L102.95 169.192V175.492H101.672ZM106.46 170.956C107.132 170.956 107.732 170.806 108.26 170.506C108.788 170.194 109.208 169.762 109.52 169.21C109.832 168.646 109.988 167.998 109.988 167.266C109.988 166.534 109.832 165.892 109.52 165.34C109.208 164.788 108.788 164.356 108.26 164.044C107.732 163.732 107.132 163.576 106.46 163.576C105.788 163.576 105.182 163.732 104.642 164.044C104.114 164.356 103.694 164.788 103.382 165.34C103.082 165.892 102.932 166.534 102.932 167.266C102.932 167.998 103.082 168.646 103.382 169.21C103.694 169.762 104.114 170.194 104.642 170.506C105.182 170.806 105.788 170.956 106.46 170.956ZM114.011 172V162.55H115.289V170.056L121.607 162.55H122.741V172H121.463V164.476L115.163 172H114.011ZM124.856 172L128.852 166.816L128.834 167.446L125.036 162.55H126.476L129.59 166.6L129.05 166.582L132.164 162.55H133.568L129.734 167.5L129.752 166.816L133.784 172H132.326L129.032 167.68L129.536 167.752L126.296 172H124.856ZM139.433 172.09C138.521 172.09 137.699 171.886 136.967 171.478C136.247 171.058 135.677 170.488 135.257 169.768C134.837 169.036 134.627 168.202 134.627 167.266C134.627 166.318 134.837 165.484 135.257 164.764C135.677 164.044 136.247 163.48 136.967 163.072C137.687 162.664 138.509 162.46 139.433 162.46C140.369 162.46 141.197 162.664 141.917 163.072C142.649 163.48 143.219 164.044 143.627 164.764C144.047 165.484 144.257 166.318 144.257 167.266C144.257 168.202 144.047 169.036 143.627 169.768C143.219 170.488 142.649 171.058 141.917 171.478C141.185 171.886 140.357 172.09 139.433 172.09ZM139.433 170.956C140.117 170.956 140.723 170.806 141.251 170.506C141.779 170.194 142.193 169.762 142.493 169.21C142.805 168.646 142.961 167.998 142.961 167.266C142.961 166.522 142.805 165.874 142.493 165.322C142.193 164.77 141.779 164.344 141.251 164.044C140.723 163.732 140.123 163.576 139.451 163.576C138.779 163.576 138.179 163.732 137.651 164.044C137.123 164.344 136.703 164.77 136.391 165.322C136.079 165.874 135.923 166.522 135.923 167.266C135.923 167.998 136.079 168.646 136.391 169.21C136.703 169.762 137.123 170.194 137.651 170.506C138.179 170.806 138.773 170.956 139.433 170.956ZM157.868 172L154.628 167.32L155.69 166.69L159.398 172H157.868ZM152.504 167.788V166.69H155.492V167.788H152.504ZM155.816 167.41L154.592 167.23L157.742 162.55H159.128L155.816 167.41ZM146.672 172H145.142L148.85 166.69L149.894 167.32L146.672 172ZM152.9 172H151.622V162.55H152.9V172ZM152.018 167.788H149.048V166.69H152.018V167.788ZM148.742 167.41L145.412 162.55H146.798L149.93 167.23L148.742 167.41ZM161.525 172V162.55H162.803V170.056L169.121 162.55H170.255V172H168.977V164.476L162.677 172H161.525ZM177.968 172.09C176.984 172.09 176.12 171.886 175.376 171.478C174.632 171.058 174.05 170.488 173.63 169.768C173.21 169.036 173 168.202 173 167.266C173 166.33 173.198 165.502 173.594 164.782C174.002 164.062 174.554 163.498 175.25 163.09C175.958 162.67 176.75 162.46 177.626 162.46C178.514 162.46 179.3 162.664 179.984 163.072C180.68 163.468 181.226 164.032 181.622 164.764C182.018 165.484 182.216 166.318 182.216 167.266C182.216 167.326 182.21 167.392 182.198 167.464C182.198 167.524 182.198 167.59 182.198 167.662H173.972V166.708H181.514L181.01 167.086C181.01 166.402 180.86 165.796 180.56 165.268C180.272 164.728 179.876 164.308 179.372 164.008C178.868 163.708 178.286 163.558 177.626 163.558C176.978 163.558 176.396 163.708 175.88 164.008C175.364 164.308 174.962 164.728 174.674 165.268C174.386 165.808 174.242 166.426 174.242 167.122V167.32C174.242 168.04 174.398 168.676 174.71 169.228C175.034 169.768 175.478 170.194 176.042 170.506C176.618 170.806 177.272 170.956 178.004 170.956C178.58 170.956 179.114 170.854 179.606 170.65C180.11 170.446 180.542 170.134 180.902 169.714L181.622 170.542C181.202 171.046 180.674 171.43 180.038 171.694C179.414 171.958 178.724 172.09 177.968 172.09Z" fill="#454545"/>
<path d="M112.564 46.5977C112.859 46.6934 113.15 46.793 113.453 46.8828C114.686 47.2629 115.77 48.018 116.555 49.043C117.339 50.0679 117.784 51.3118 117.828 52.6016C117.867 54.4805 117.828 56.3613 117.844 58.2402C117.854 60.1934 119.152 61.5781 120.969 61.582C122.785 61.5859 124.094 60.2148 124.113 58.2617C124.127 56.5527 124.113 54.8438 124.113 53.1348C124.113 52.1582 124.609 51.5723 125.381 51.5957C126.123 51.6191 126.604 52.2012 126.607 53.123C126.618 54.8327 126.618 56.5417 126.607 58.25C126.58 62.7715 122.271 65.3965 118.209 63.3691C118.125 63.3262 118.035 63.2949 117.883 63.2285C117.861 63.3244 117.846 63.4216 117.838 63.5195C117.838 66.8398 117.822 70.1602 117.838 73.4805C117.848 75.0312 118.877 76.2148 120.377 76.5332C121.053 76.671 121.755 76.5748 122.369 76.2603C122.983 75.9457 123.471 75.4317 123.754 74.8027C123.96 74.2836 124.069 73.7306 124.074 73.1719C124.113 71.4883 124.084 69.8047 124.09 68.1191C124.09 67.166 124.537 66.6309 125.307 66.6191C126.076 66.6074 126.578 67.1484 126.584 68.0742C126.594 69.9063 126.627 71.7383 126.584 73.5664C126.567 74.5165 126.31 75.447 125.836 76.2707C125.363 77.0945 124.688 77.7848 123.875 78.2771C123.062 78.7695 122.138 79.0478 121.188 79.0861C120.239 79.1244 119.295 78.9214 118.445 78.4961C118.275 78.4141 118.107 78.3242 117.875 78.2051V114.109C118.508 114.109 119.158 114.15 119.801 114.109C122.465 113.902 124.271 115.893 124.098 118.389C124.096 118.616 124.107 118.844 124.131 119.07H126.537V84.1094C126.164 84.1094 125.807 84.1191 125.447 84.1094C124.623 84.082 124.111 83.6074 124.102 82.877C124.092 82.1465 124.602 81.6523 125.416 81.6172C125.588 81.6172 125.758 81.6172 125.93 81.6172H169.742C170.994 81.6172 171.598 82.0254 171.596 82.8672C171.594 83.709 170.99 84.1055 169.732 84.1133H169.156V119.104C169.525 119.104 169.906 119.09 170.287 119.104C171.047 119.135 171.57 119.631 171.588 120.314C171.605 120.998 171.064 121.553 170.273 121.594C170.129 121.594 169.982 121.594 169.836 121.594C146.008 121.594 122.18 121.598 98.3516 121.605C97.5703 121.605 96.9668 121.426 96.5938 120.715V119.982C97.0898 118.855 98.1562 119.148 99.0898 119.076C99.0898 118.707 99.0898 118.416 99.0898 118.127C99.1016 115.66 100.652 114.117 103.109 114.105C103.832 114.105 104.557 114.105 105.312 114.105V78.2207L104.74 78.4941C101.471 80.0664 97.7578 78.3867 96.7695 74.8887C96.7246 74.7324 96.6523 74.582 96.5938 74.4297V67.3984C97.0039 66.8262 97.5156 66.4355 98.2559 66.6875C98.9961 66.9395 99.1016 67.5938 99.0957 68.2969C99.0775 70.0065 99.0775 71.7148 99.0957 73.4219C99.086 74.1122 99.3051 74.7862 99.7189 75.3389C100.133 75.8915 100.718 76.2915 101.383 76.4766C103.451 77.041 105.342 75.5527 105.359 73.3047C105.383 70.498 105.359 67.6914 105.359 64.8848V63.2129C105.074 63.3438 104.879 63.4277 104.689 63.5195C103.94 63.8827 103.12 64.0756 102.288 64.0844C101.455 64.0932 100.631 63.9177 99.8745 63.5705C99.1178 63.2232 98.4474 62.7129 97.9113 62.076C97.3751 61.4391 96.9866 60.6915 96.7734 59.8867C96.7227 59.7031 96.6562 59.5234 96.5977 59.3418V52.457C96.9883 51.8828 97.4336 51.4102 98.2148 51.6758C98.9961 51.9414 99.1074 52.541 99.0996 53.2559C99.0801 54.9629 99.0234 56.6758 99.127 58.377C99.1844 59.1207 99.4356 59.8365 99.8555 60.4531C100.605 61.5352 102.037 61.8555 103.271 61.4121C104.551 60.9512 105.338 59.8262 105.355 58.3594C105.377 56.4336 105.312 54.5039 105.385 52.5781C105.475 50.1875 106.652 48.4199 108.762 47.3047C109.348 46.9941 110.025 46.8301 110.66 46.5977H112.564ZM166.586 84.1406H129.16V100.295H166.586V84.1406ZM129.137 119.041H166.561V102.895H129.137V119.041ZM115.348 114.078V53.4824C115.348 53.2148 115.348 52.9453 115.348 52.6777C115.32 52.0767 115.148 51.4912 114.847 50.9705C114.545 50.4498 114.123 50.0093 113.615 49.686C113.108 49.3628 112.53 49.1663 111.931 49.1132C111.332 49.0601 110.728 49.1519 110.172 49.3809C108.703 49.9805 107.854 51.2969 107.854 53.0273C107.854 73.1419 107.854 93.2591 107.854 113.379C107.854 113.611 107.881 113.844 107.896 114.092L115.348 114.078ZM101.592 119.055H121.602C121.602 118.623 121.629 118.236 121.602 117.854C121.535 117.057 121.068 116.613 120.258 116.611C114.474 116.604 108.691 116.604 102.908 116.611C102.113 116.611 101.648 117.094 101.602 117.889C101.578 118.254 101.592 118.619 101.592 119.055Z" fill="#454545"/>
<path d="M151.676 46.5977C152.697 46.8945 153.771 47.0762 154.73 47.5098C158.861 49.375 161.289 52.6035 161.527 57.1289C161.751 61.0742 161.734 65.0294 161.477 68.9727C161.086 74.5273 156.516 78.8301 150.93 79.0566C148.285 79.166 145.58 79.209 142.986 78.7773C137.895 77.9297 134.15 73.2363 134.098 68.0664C134.064 64.627 134.072 61.1875 134.098 57.7461C134.12 55.0742 135.094 52.4978 136.844 50.479C138.594 48.4602 141.007 47.1312 143.648 46.7305C143.787 46.6974 143.922 46.653 144.053 46.5977H151.676ZM136.664 62.7988H136.596C136.596 64.5312 136.576 66.2637 136.596 67.9961C136.652 72.293 139.916 76.0449 144.201 76.4687C146.484 76.6989 148.782 76.7191 151.068 76.5293C155.52 76.1387 158.754 72.9395 159.016 68.4863C159.242 64.7137 159.242 60.9309 159.016 57.1582C158.752 52.8047 155.574 49.6113 151.238 49.1816C148.979 48.96 146.703 48.96 144.443 49.1816C140.25 49.5977 137.201 52.6094 136.705 56.8086C136.471 58.7773 136.664 60.8008 136.664 62.7988Z" fill="#454545"/>
<path d="M145.35 89.0527H150.355C150.355 88.6621 150.338 88.2539 150.355 87.8535C150.362 87.5324 150.492 87.2262 150.72 86.9994C150.947 86.7727 151.254 86.643 151.575 86.6377C151.896 86.6324 152.207 86.7518 152.442 86.971C152.676 87.1901 152.817 87.4918 152.834 87.8125C152.869 88.3238 152.866 88.8369 152.824 89.3477C152.775 89.9499 152.502 90.5119 152.06 90.9237C151.618 91.3355 151.038 91.5675 150.434 91.5742C148.703 91.6042 146.973 91.6042 145.242 91.5742C144.613 91.5661 144.011 91.3117 143.567 90.8656C143.123 90.4195 142.871 89.8171 142.865 89.1875C142.846 88.75 142.844 88.3105 142.865 87.8711C142.898 87.1152 143.408 86.5996 144.094 86.5996C144.415 86.6026 144.723 86.728 144.955 86.9501C145.186 87.1721 145.325 87.4743 145.342 87.7949C145.381 88.1992 145.35 88.6094 145.35 89.0527Z" fill="#FF7D04"/>
<path d="M145.34 107.799H150.355C150.355 107.379 150.34 106.994 150.355 106.611C150.393 105.873 150.924 105.344 151.602 105.348C152.279 105.352 152.803 105.885 152.838 106.627C152.864 107.089 152.864 107.553 152.838 108.016C152.807 108.632 152.542 109.213 152.099 109.642C151.655 110.071 151.064 110.315 150.447 110.324C148.717 110.355 146.986 110.355 145.256 110.324C144.626 110.318 144.024 110.066 143.578 109.621C143.133 109.176 142.879 108.575 142.871 107.945C142.852 107.484 142.848 107.02 142.871 106.557C142.875 106.248 142.995 105.953 143.207 105.73C143.419 105.506 143.708 105.371 144.016 105.352C144.335 105.332 144.65 105.437 144.894 105.643C145.139 105.85 145.294 106.143 145.328 106.461C145.358 106.906 145.362 107.353 145.34 107.799Z" fill="#FF7D04"/>
<path d="M150.516 54.179C150.246 54.6321 150.115 54.9876 149.873 55.2337C147.438 57.6946 144.99 60.1451 142.527 62.5852C141.941 63.1614 141.221 63.1712 140.707 62.6516C140.193 62.1321 140.215 61.386 140.775 60.8216C143.232 58.3476 145.698 55.8802 148.172 53.4192C148.576 53.0169 149.103 52.8626 149.574 53.1419C149.949 53.3645 150.191 53.8079 150.516 54.179Z" fill="#FF7D04"/>
<path d="M144.238 54.1497C144.016 54.5774 143.908 54.9075 143.701 55.1536C143.335 55.5738 142.944 55.9711 142.529 56.343C141.943 56.8782 141.197 56.8782 140.709 56.3704C140.221 55.8626 140.244 55.1536 140.754 54.6009C141.166 54.1555 141.557 53.6516 142.062 53.345C142.467 53.1139 142.946 53.0515 143.396 53.1712C143.738 53.2923 143.961 53.7981 144.238 54.1497Z" fill="#FF7D04"/>
<defs>
<filter id="filter0_d_83_320" x="0" y="0" width="268" height="216" filterUnits="userSpaceOnUse" color-interpolation-filters="sRGB">
<feFlood flood-opacity="0" result="BackgroundImageFix"/>
<feColorMatrix in="SourceAlpha" type="matrix" values="0 0 0 0 0 0 0 0 0 0 0 0 0 0 0 0 0 0 127 0" result="hardAlpha"/>
<feOffset dy="2"/>
<feGaussianBlur stdDeviation="4"/>
<feComposite in2="hardAlpha" operator="out"/>
<feColorMatrix type="matrix" values="0 0 0 0 0 0 0 0 0 0 0 0 0 0 0 0 0 0 0.25 0"/>
<feBlend mode="normal" in2="BackgroundImageFix" result="effect1_dropShadow_83_320"/>
<feBlend mode="normal" in="SourceGraphic" in2="effect1_dropShadow_83_320" result="shape"/>
</filter>
</defs>
</svg>
