<svg width="268" height="216" viewBox="0 0 268 216" fill="none" xmlns="http://www.w3.org/2000/svg">
<g filter="url(#filter0_d_21_182)">
<rect x="8" y="6" width="252" height="200" rx="5" fill="#FF7D04"/>
</g>
<line x1="8" y1="177.5" x2="58" y2="177.5" stroke="white"/>
<line x1="210" y1="177.5" x2="260" y2="177.5" stroke="white"/>
<path d="M94.784 184.096C93.9413 184.096 93.1627 183.957 92.448 183.68C91.7333 183.392 91.1147 182.992 90.592 182.48C90.0693 181.968 89.6587 181.365 89.36 180.672C89.072 179.979 88.928 179.221 88.928 178.4C88.928 177.579 89.072 176.821 89.36 176.128C89.6587 175.435 90.0693 174.832 90.592 174.32C91.1253 173.808 91.7493 173.413 92.464 173.136C93.1787 172.848 93.9573 172.704 94.8 172.704C95.6107 172.704 96.3733 172.843 97.088 173.12C97.8027 173.387 98.4053 173.792 98.896 174.336L98.144 175.088C97.6853 174.619 97.1787 174.283 96.624 174.08C96.0693 173.867 95.472 173.76 94.832 173.76C94.16 173.76 93.536 173.877 92.96 174.112C92.384 174.336 91.8827 174.661 91.456 175.088C91.0293 175.504 90.6933 175.995 90.448 176.56C90.2133 177.115 90.096 177.728 90.096 178.4C90.096 179.072 90.2133 179.691 90.448 180.256C90.6933 180.811 91.0293 181.301 91.456 181.728C91.8827 182.144 92.384 182.469 92.96 182.704C93.536 182.928 94.16 183.04 94.832 183.04C95.472 183.04 96.0693 182.933 96.624 182.72C97.1787 182.507 97.6853 182.165 98.144 181.696L98.896 182.448C98.4053 182.992 97.8027 183.403 97.088 183.68C96.3733 183.957 95.6053 184.096 94.784 184.096ZM101.341 184V172.8H102.317L107.437 181.536H106.925L111.997 172.8H112.973V184H111.837V174.576H112.109L107.437 182.576H106.877L102.173 174.576H102.477V184H101.341ZM121.659 184.096C120.817 184.096 120.033 183.957 119.307 183.68C118.593 183.392 117.969 182.992 117.435 182.48C116.913 181.957 116.502 181.355 116.203 180.672C115.915 179.979 115.771 179.221 115.771 178.4C115.771 177.579 115.915 176.827 116.203 176.144C116.502 175.451 116.913 174.848 117.435 174.336C117.969 173.813 118.593 173.413 119.307 173.136C120.022 172.848 120.806 172.704 121.659 172.704C122.502 172.704 123.281 172.848 123.995 173.136C124.71 173.413 125.329 173.808 125.851 174.32C126.385 174.832 126.795 175.435 127.083 176.128C127.382 176.821 127.531 177.579 127.531 178.4C127.531 179.221 127.382 179.979 127.083 180.672C126.795 181.365 126.385 181.968 125.851 182.48C125.329 182.992 124.71 183.392 123.995 183.68C123.281 183.957 122.502 184.096 121.659 184.096ZM121.659 183.04C122.331 183.04 122.95 182.928 123.515 182.704C124.091 182.469 124.587 182.144 125.003 181.728C125.43 181.301 125.761 180.811 125.995 180.256C126.23 179.691 126.347 179.072 126.347 178.4C126.347 177.728 126.23 177.115 125.995 176.56C125.761 175.995 125.43 175.504 125.003 175.088C124.587 174.661 124.091 174.336 123.515 174.112C122.95 173.877 122.331 173.76 121.659 173.76C120.987 173.76 120.363 173.877 119.787 174.112C119.211 174.336 118.71 174.661 118.283 175.088C117.867 175.504 117.537 175.995 117.291 176.56C117.057 177.115 116.939 177.728 116.939 178.4C116.939 179.061 117.057 179.675 117.291 180.24C117.537 180.805 117.867 181.301 118.283 181.728C118.71 182.144 119.211 182.469 119.787 182.704C120.363 182.928 120.987 183.04 121.659 183.04ZM132.424 184V173.504L132.745 173.824H128.489V172.8H137.529V173.824H133.289L133.593 173.504V184H132.424ZM139.607 184V172.8H143.799C144.748 172.8 145.564 172.955 146.247 173.264C146.929 173.563 147.452 174 147.815 174.576C148.188 175.141 148.375 175.829 148.375 176.64C148.375 177.429 148.188 178.112 147.815 178.688C147.452 179.253 146.929 179.691 146.247 180C145.564 180.309 144.748 180.464 143.799 180.464H140.263L140.791 179.904V184H139.607ZM140.791 180L140.263 179.424H143.767C144.887 179.424 145.735 179.184 146.311 178.704C146.897 178.213 147.191 177.525 147.191 176.64C147.191 175.744 146.897 175.051 146.311 174.56C145.735 174.069 144.887 173.824 143.767 173.824H140.263L140.791 173.264V180ZM151.85 177.808H157.77V178.816H151.85V177.808ZM151.978 182.976H158.714V184H150.794V172.8H158.474V173.824H151.978V182.976ZM163.565 184V173.504L163.885 173.824H159.629V172.8H168.669V173.824H164.429L164.733 173.504V184H163.565ZM175.435 176.8C176.758 176.8 177.766 177.099 178.459 177.696C179.163 178.283 179.515 179.157 179.515 180.32C179.515 181.525 179.142 182.443 178.395 183.072C177.649 183.691 176.582 184 175.195 184H170.747V172.8H171.915V176.8H175.435ZM175.163 183.056C176.198 183.056 176.982 182.827 177.515 182.368C178.059 181.909 178.331 181.237 178.331 180.352C178.331 179.467 178.065 178.816 177.531 178.4C176.998 177.973 176.209 177.76 175.163 177.76H171.915V183.056H175.163Z" fill="white"/>
<path d="M112.632 140.108C111.684 140.108 110.808 139.952 110.004 139.64C109.2 139.316 108.504 138.866 107.916 138.29C107.328 137.714 106.866 137.036 106.53 136.256C106.206 135.476 106.044 134.624 106.044 133.7C106.044 132.776 106.206 131.924 106.53 131.144C106.866 130.364 107.328 129.686 107.916 129.11C108.516 128.534 109.218 128.09 110.022 127.778C110.826 127.454 111.702 127.292 112.65 127.292C113.562 127.292 114.42 127.448 115.224 127.76C116.028 128.06 116.706 128.516 117.258 129.128L116.412 129.974C115.896 129.446 115.326 129.068 114.702 128.84C114.078 128.6 113.406 128.48 112.686 128.48C111.93 128.48 111.228 128.612 110.58 128.876C109.932 129.128 109.368 129.494 108.888 129.974C108.408 130.442 108.03 130.994 107.754 131.63C107.49 132.254 107.358 132.944 107.358 133.7C107.358 134.456 107.49 135.152 107.754 135.788C108.03 136.412 108.408 136.964 108.888 137.444C109.368 137.912 109.932 138.278 110.58 138.542C111.228 138.794 111.93 138.92 112.686 138.92C113.406 138.92 114.078 138.8 114.702 138.56C115.326 138.32 115.896 137.936 116.412 137.408L117.258 138.254C116.706 138.866 116.028 139.328 115.224 139.64C114.42 139.952 113.556 140.108 112.632 140.108ZM121.239 140V131.324L121.563 131.666H117.657V130.55H126.099V131.666H122.193L122.517 131.324V140H121.239ZM131.395 140.09C130.483 140.09 129.661 139.886 128.929 139.478C128.209 139.058 127.639 138.488 127.219 137.768C126.799 137.036 126.589 136.202 126.589 135.266C126.589 134.318 126.799 133.484 127.219 132.764C127.639 132.044 128.209 131.48 128.929 131.072C129.649 130.664 130.471 130.46 131.395 130.46C132.331 130.46 133.159 130.664 133.879 131.072C134.611 131.48 135.181 132.044 135.589 132.764C136.009 133.484 136.219 134.318 136.219 135.266C136.219 136.202 136.009 137.036 135.589 137.768C135.181 138.488 134.611 139.058 133.879 139.478C133.147 139.886 132.319 140.09 131.395 140.09ZM131.395 138.956C132.079 138.956 132.685 138.806 133.213 138.506C133.741 138.194 134.155 137.762 134.455 137.21C134.767 136.646 134.923 135.998 134.923 135.266C134.923 134.522 134.767 133.874 134.455 133.322C134.155 132.77 133.741 132.344 133.213 132.044C132.685 131.732 132.085 131.576 131.413 131.576C130.741 131.576 130.141 131.732 129.613 132.044C129.085 132.344 128.665 132.77 128.353 133.322C128.041 133.874 127.885 134.522 127.885 135.266C127.885 135.998 128.041 136.646 128.353 137.21C128.665 137.762 129.085 138.194 129.613 138.506C130.141 138.806 130.735 138.956 131.395 138.956ZM137.17 139.982L137.26 138.884C137.344 138.896 137.422 138.914 137.494 138.938C137.578 138.95 137.65 138.956 137.71 138.956C138.094 138.956 138.4 138.812 138.628 138.524C138.868 138.236 139.048 137.852 139.168 137.372C139.288 136.892 139.372 136.352 139.42 135.752C139.468 135.14 139.51 134.528 139.546 133.916L139.708 130.55H146.638V140H145.36V131.288L145.684 131.666H140.536L140.842 131.27L140.698 134.006C140.662 134.822 140.596 135.602 140.5 136.346C140.416 137.09 140.278 137.744 140.086 138.308C139.906 138.872 139.654 139.316 139.33 139.64C139.006 139.952 138.592 140.108 138.088 140.108C137.944 140.108 137.794 140.096 137.638 140.072C137.494 140.048 137.338 140.018 137.17 139.982ZM159.487 140V130.55H160.765V140H159.487ZM154.249 133.88C155.437 133.892 156.343 134.156 156.967 134.672C157.591 135.188 157.903 135.932 157.903 136.904C157.903 137.912 157.567 138.686 156.895 139.226C156.223 139.766 155.263 140.03 154.015 140.018L150.271 140V130.55H151.549V133.844L154.249 133.88ZM153.925 139.046C154.813 139.058 155.479 138.884 155.923 138.524C156.379 138.152 156.607 137.612 156.607 136.904C156.607 136.196 156.385 135.68 155.941 135.356C155.497 135.02 154.825 134.846 153.925 134.834L151.549 134.798V139.01L153.925 139.046Z" fill="white"/>
<path d="M96.5977 49.9531C97.2109 48.2793 98.4219 47.7031 100.178 47.7071C117.071 47.7435 133.965 47.7513 150.859 47.7305C151.153 47.72 151.446 47.7272 151.738 47.752C151.988 47.7802 152.22 47.8952 152.393 48.0768C152.567 48.2585 152.671 48.4953 152.688 48.746C152.704 48.9967 152.633 49.2452 152.485 49.4484C152.337 49.6515 152.123 49.7963 151.879 49.8574C151.568 49.9189 151.252 49.9412 150.936 49.9238C134.018 49.9238 117.099 49.9238 100.18 49.9238C98.8125 49.9238 98.7949 49.9395 98.7949 51.3242C98.7949 52.0313 98.8164 52.7403 98.7949 53.4473C98.7734 54.1543 99.0859 54.4375 99.7715 54.3946C99.9414 54.3848 100.113 54.3946 100.285 54.3946H167.943C168.188 54.3946 168.434 54.3946 168.676 54.3946C169.148 54.377 169.395 54.125 169.396 53.6543C169.396 52.7012 169.387 51.75 169.396 50.7969C169.408 50.1113 169.045 49.9219 168.42 49.9258C165.539 49.9375 162.658 49.9258 159.777 49.9258C158.824 49.9258 157.873 49.9375 156.92 49.9258C156.115 49.9141 155.631 49.4961 155.621 48.8399C155.611 48.1836 156.098 47.7383 156.889 47.7383C160.844 47.7383 164.799 47.7207 168.754 47.7383C170.375 47.7383 171.545 48.961 171.578 50.586C171.596 51.586 171.59 52.5879 171.578 53.5899C171.559 55.3945 170.406 56.5449 168.598 56.5879C168.285 56.5879 167.973 56.5879 167.553 56.5879C167.553 57.3399 167.553 58.0156 167.553 58.6895C167.553 59.6406 167.582 60.5977 167.512 61.5449C167.457 62.4322 167.076 63.2679 166.442 63.8912C165.808 64.5146 164.966 64.8817 164.078 64.9219C163.232 64.9766 162.379 64.9317 161.418 64.9317V65.9434C161.418 75.5137 161.418 85.084 161.418 94.6543C161.418 95.7754 161.184 96.8028 160.318 97.5684C159.303 98.4785 158.109 98.7207 156.846 98.2324C155.582 97.7442 154.814 96.7891 154.717 95.418C154.459 91.791 154.234 88.1602 154.008 84.5313C153.608 78.125 153.21 71.7181 152.814 65.3106C152.8 65.2051 152.778 65.1007 152.75 64.9981H115.393C115.289 66.5195 115.182 67.9981 115.09 69.4785C114.629 76.9343 114.17 84.3893 113.713 91.8438C113.641 93.0371 113.566 94.2305 113.459 95.4219C113.384 96.2424 113.008 97.0062 112.403 97.5663C111.799 98.1264 111.009 98.4433 110.185 98.4562C109.361 98.469 108.562 98.1769 107.94 97.6359C107.319 97.0949 106.919 96.3432 106.818 95.5254C106.762 94.9184 106.743 94.3085 106.762 93.6992C106.762 90.3307 106.762 86.9616 106.762 83.5918C106.749 83.2998 106.776 83.0074 106.842 82.7227C106.996 82.1797 107.408 81.9414 107.955 81.9766C108.19 81.9794 108.417 82.067 108.593 82.2235C108.769 82.38 108.882 82.5947 108.912 82.8281C108.949 83.094 108.963 83.3626 108.953 83.6309C108.953 87.2442 108.953 90.8574 108.953 94.4707C108.944 94.7145 108.952 94.9586 108.979 95.2012C109.074 95.836 109.434 96.2188 110.094 96.2481C110.754 96.2774 111.197 95.877 111.266 95.1914C111.373 94.0996 111.437 93.002 111.508 91.9063C112.047 83.2839 112.585 74.6608 113.121 66.0371C113.141 65.7012 113.121 65.3653 113.121 64.9922H108.957V65.8535C108.957 69.6856 108.957 73.5182 108.957 77.3516C108.967 77.6199 108.953 77.8886 108.914 78.1543C108.88 78.3886 108.763 78.6027 108.583 78.7568C108.404 78.911 108.174 78.9946 107.937 78.9922C107.385 79.0254 106.98 78.7754 106.834 78.2324C106.771 77.9466 106.746 77.6538 106.758 77.3613C106.758 73.5528 106.758 69.7442 106.758 65.9356V64.959C106.045 64.959 105.391 64.959 104.748 64.959C102.113 64.9453 100.646 63.4649 100.625 60.8145C100.625 59.6192 100.607 58.4219 100.625 57.2266C100.625 56.7617 100.5 56.5508 100.006 56.5918C98.2891 56.7363 97.168 55.9512 96.5898 54.3496L96.5977 49.9531ZM165.305 56.6348H102.891C102.891 58.3242 102.822 59.9785 102.939 61.6192C102.967 62.0098 103.57 62.4102 103.992 62.6758C104.244 62.836 104.656 62.7578 104.998 62.7578C124.399 62.7578 143.8 62.7578 163.201 62.7578C163.518 62.7677 163.835 62.7501 164.148 62.7051C164.758 62.5977 165.26 62.2149 165.283 61.6211C165.35 59.9766 165.305 58.3242 165.305 56.6348ZM155.027 64.9922C155.055 65.5449 155.072 66.0059 155.102 66.4668C155.273 69.2012 155.453 71.9199 155.623 74.6485C155.986 80.4922 156.347 86.3373 156.705 92.1836C156.77 93.2051 156.83 94.2285 156.934 95.2481C156.944 95.5216 157.063 95.7798 157.263 95.9661C157.464 96.1524 157.73 96.2517 158.004 96.2422C158.658 96.2715 159.062 95.9258 159.193 95.291C159.231 95.0502 159.246 94.8062 159.236 94.5625C159.236 84.9701 159.236 75.3776 159.236 65.7852C159.236 65.5274 159.213 65.2695 159.197 64.9883L155.027 64.9922Z" fill="white"/>
<path d="M108.233 58.0083C109.19 58.0083 110.149 57.9946 111.106 58.0083C112.016 58.0259 112.578 58.5044 112.59 59.229C112.602 59.9536 112.031 60.4712 111.141 60.479C109.224 60.4946 107.308 60.4946 105.393 60.479C104.555 60.4692 104.012 59.9634 104 59.2661C103.988 58.5688 104.529 58.0415 105.367 58.0161C106.32 57.9868 107.274 58.0083 108.233 58.0083Z" fill="white"/>
<path d="M116.264 58.0161C116.682 57.9946 117.1 57.9946 117.518 58.0161C118.231 58.0884 118.701 58.4849 118.711 59.2271C118.721 59.9692 118.258 60.3989 117.539 60.4556C116.674 60.5181 115.806 60.5181 114.942 60.4556C114.276 60.4009 113.856 59.9771 113.846 59.2622C113.836 58.5474 114.252 58.145 114.914 58.0415C115.361 58.0027 115.81 57.9981 116.258 58.0278L116.264 58.0161Z" fill="white"/>
<defs>
<filter id="filter0_d_21_182" x="0" y="0" width="268" height="216" filterUnits="userSpaceOnUse" color-interpolation-filters="sRGB">
<feFlood flood-opacity="0" result="BackgroundImageFix"/>
<feColorMatrix in="SourceAlpha" type="matrix" values="0 0 0 0 0 0 0 0 0 0 0 0 0 0 0 0 0 0 127 0" result="hardAlpha"/>
<feOffset dy="2"/>
<feGaussianBlur stdDeviation="4"/>
<feComposite in2="hardAlpha" operator="out"/>
<feColorMatrix type="matrix" values="0 0 0 0 0 0 0 0 0 0 0 0 0 0 0 0 0 0 0.25 0"/>
<feBlend mode="normal" in2="BackgroundImageFix" result="effect1_dropShadow_21_182"/>
<feBlend mode="normal" in="SourceGraphic" in2="effect1_dropShadow_21_182" result="shape"/>
</filter>
</defs>
</svg>
