<svg width="268" height="216" viewBox="0 0 268 216" fill="none" xmlns="http://www.w3.org/2000/svg">
<g filter="url(#filter0_d_19_65)">
<rect x="8" y="6" width="252" height="200" rx="5" fill="#FF7D04"/>
</g>
<line x1="8" y1="177.5" x2="58" y2="177.5" stroke="white"/>
<line x1="210" y1="177.5" x2="260" y2="177.5" stroke="white"/>
<path d="M94.784 184.096C93.9413 184.096 93.1627 183.957 92.448 183.68C91.7333 183.392 91.1147 182.992 90.592 182.48C90.0693 181.968 89.6587 181.365 89.36 180.672C89.072 179.979 88.928 179.221 88.928 178.4C88.928 177.579 89.072 176.821 89.36 176.128C89.6587 175.435 90.0693 174.832 90.592 174.32C91.1253 173.808 91.7493 173.413 92.464 173.136C93.1787 172.848 93.9573 172.704 94.8 172.704C95.6107 172.704 96.3733 172.843 97.088 173.12C97.8027 173.387 98.4053 173.792 98.896 174.336L98.144 175.088C97.6853 174.619 97.1787 174.283 96.624 174.08C96.0693 173.867 95.472 173.76 94.832 173.76C94.16 173.76 93.536 173.877 92.96 174.112C92.384 174.336 91.8827 174.661 91.456 175.088C91.0293 175.504 90.6933 175.995 90.448 176.56C90.2133 177.115 90.096 177.728 90.096 178.4C90.096 179.072 90.2133 179.691 90.448 180.256C90.6933 180.811 91.0293 181.301 91.456 181.728C91.8827 182.144 92.384 182.469 92.96 182.704C93.536 182.928 94.16 183.04 94.832 183.04C95.472 183.04 96.0693 182.933 96.624 182.72C97.1787 182.507 97.6853 182.165 98.144 181.696L98.896 182.448C98.4053 182.992 97.8027 183.403 97.088 183.68C96.3733 183.957 95.6053 184.096 94.784 184.096ZM101.341 184V172.8H102.317L107.437 181.536H106.925L111.997 172.8H112.973V184H111.837V174.576H112.109L107.437 182.576H106.877L102.173 174.576H102.477V184H101.341ZM121.659 184.096C120.817 184.096 120.033 183.957 119.307 183.68C118.593 183.392 117.969 182.992 117.435 182.48C116.913 181.957 116.502 181.355 116.203 180.672C115.915 179.979 115.771 179.221 115.771 178.4C115.771 177.579 115.915 176.827 116.203 176.144C116.502 175.451 116.913 174.848 117.435 174.336C117.969 173.813 118.593 173.413 119.307 173.136C120.022 172.848 120.806 172.704 121.659 172.704C122.502 172.704 123.281 172.848 123.995 173.136C124.71 173.413 125.329 173.808 125.851 174.32C126.385 174.832 126.795 175.435 127.083 176.128C127.382 176.821 127.531 177.579 127.531 178.4C127.531 179.221 127.382 179.979 127.083 180.672C126.795 181.365 126.385 181.968 125.851 182.48C125.329 182.992 124.71 183.392 123.995 183.68C123.281 183.957 122.502 184.096 121.659 184.096ZM121.659 183.04C122.331 183.04 122.95 182.928 123.515 182.704C124.091 182.469 124.587 182.144 125.003 181.728C125.43 181.301 125.761 180.811 125.995 180.256C126.23 179.691 126.347 179.072 126.347 178.4C126.347 177.728 126.23 177.115 125.995 176.56C125.761 175.995 125.43 175.504 125.003 175.088C124.587 174.661 124.091 174.336 123.515 174.112C122.95 173.877 122.331 173.76 121.659 173.76C120.987 173.76 120.363 173.877 119.787 174.112C119.211 174.336 118.71 174.661 118.283 175.088C117.867 175.504 117.537 175.995 117.291 176.56C117.057 177.115 116.939 177.728 116.939 178.4C116.939 179.061 117.057 179.675 117.291 180.24C117.537 180.805 117.867 181.301 118.283 181.728C118.71 182.144 119.211 182.469 119.787 182.704C120.363 182.928 120.987 183.04 121.659 183.04ZM132.424 184V173.504L132.745 173.824H128.489V172.8H137.529V173.824H133.289L133.593 173.504V184H132.424ZM139.607 184V172.8H143.799C144.748 172.8 145.564 172.955 146.247 173.264C146.929 173.563 147.452 174 147.815 174.576C148.188 175.141 148.375 175.829 148.375 176.64C148.375 177.429 148.188 178.112 147.815 178.688C147.452 179.253 146.929 179.691 146.247 180C145.564 180.309 144.748 180.464 143.799 180.464H140.263L140.791 179.904V184H139.607ZM140.791 180L140.263 179.424H143.767C144.887 179.424 145.735 179.184 146.311 178.704C146.897 178.213 147.191 177.525 147.191 176.64C147.191 175.744 146.897 175.051 146.311 174.56C145.735 174.069 144.887 173.824 143.767 173.824H140.263L140.791 173.264V180ZM151.85 177.808H157.77V178.816H151.85V177.808ZM151.978 182.976H158.714V184H150.794V172.8H158.474V173.824H151.978V182.976ZM163.565 184V173.504L163.885 173.824H159.629V172.8H168.669V173.824H164.429L164.733 173.504V184H163.565ZM175.435 176.8C176.758 176.8 177.766 177.099 178.459 177.696C179.163 178.283 179.515 179.157 179.515 180.32C179.515 181.525 179.142 182.443 178.395 183.072C177.649 183.691 176.582 184 175.195 184H170.747V172.8H171.915V176.8H175.435ZM175.163 183.056C176.198 183.056 176.982 182.827 177.515 182.368C178.059 181.909 178.331 181.237 178.331 180.352C178.331 179.467 178.065 178.816 177.531 178.4C176.998 177.973 176.209 177.76 175.163 177.76H171.915V183.056H175.163Z" fill="white"/>
<path d="M109.522 138.848L109.198 139.208V127.4H110.512V139.208L110.152 138.848H116.614L116.254 139.208V127.4H117.568V140H102.124V127.4H103.438V139.208L103.096 138.848H109.522ZM128.436 140L124.548 135.32L125.61 134.69L129.948 140H128.436ZM121.506 140V130.55H122.784V140H121.506ZM122.388 135.788V134.69H125.43V135.788H122.388ZM125.718 135.41L124.53 135.23L128.292 130.55H129.678L125.718 135.41ZM137.657 140V137.912L137.603 137.57V134.078C137.603 133.274 137.375 132.656 136.919 132.224C136.475 131.792 135.809 131.576 134.921 131.576C134.309 131.576 133.727 131.678 133.175 131.882C132.623 132.086 132.155 132.356 131.771 132.692L131.195 131.738C131.675 131.33 132.251 131.018 132.923 130.802C133.595 130.574 134.303 130.46 135.047 130.46C136.271 130.46 137.213 130.766 137.873 131.378C138.545 131.978 138.881 132.896 138.881 134.132V140H137.657ZM134.399 140.09C133.691 140.09 133.073 139.976 132.545 139.748C132.029 139.508 131.633 139.184 131.357 138.776C131.081 138.356 130.943 137.876 130.943 137.336C130.943 136.844 131.057 136.4 131.285 136.004C131.525 135.596 131.909 135.272 132.437 135.032C132.977 134.78 133.697 134.654 134.597 134.654H137.855V135.608H134.633C133.721 135.608 133.085 135.77 132.725 136.094C132.377 136.418 132.203 136.82 132.203 137.3C132.203 137.84 132.413 138.272 132.833 138.596C133.253 138.92 133.841 139.082 134.597 139.082C135.317 139.082 135.935 138.92 136.451 138.596C136.979 138.26 137.363 137.78 137.603 137.156L137.891 138.038C137.651 138.662 137.231 139.16 136.631 139.532C136.043 139.904 135.299 140.09 134.399 140.09ZM147.593 140.108C147.593 140.108 147.569 140.108 147.521 140.108C147.473 140.108 147.425 140.108 147.377 140.108C147.341 140.108 147.311 140.108 147.287 140.108C145.415 140.096 143.957 139.67 142.913 138.83C141.869 137.99 141.347 136.796 141.347 135.248C141.347 133.724 141.869 132.548 142.913 131.72C143.969 130.88 145.451 130.454 147.359 130.442C147.371 130.442 147.395 130.442 147.431 130.442C147.479 130.442 147.521 130.442 147.557 130.442C147.593 130.442 147.617 130.442 147.629 130.442C149.549 130.454 151.043 130.88 152.111 131.72C153.179 132.548 153.713 133.724 153.713 135.248C153.713 136.808 153.173 138.008 152.093 138.848C151.025 139.688 149.525 140.108 147.593 140.108ZM147.575 138.992C148.643 138.992 149.537 138.848 150.257 138.56C150.977 138.26 151.523 137.834 151.895 137.282C152.267 136.73 152.453 136.052 152.453 135.248C152.453 134.468 152.267 133.808 151.895 133.268C151.523 132.716 150.977 132.296 150.257 132.008C149.537 131.72 148.643 131.576 147.575 131.576C147.563 131.576 147.527 131.576 147.467 131.576C147.419 131.576 147.389 131.576 147.377 131.576C146.333 131.576 145.457 131.726 144.749 132.026C144.041 132.314 143.507 132.728 143.147 133.268C142.787 133.808 142.607 134.468 142.607 135.248C142.607 136.04 142.787 136.712 143.147 137.264C143.519 137.816 144.059 138.242 144.767 138.542C145.475 138.83 146.345 138.98 147.377 138.992C147.401 138.992 147.437 138.992 147.485 138.992C147.533 138.992 147.563 138.992 147.575 138.992ZM146.891 143.492V126.644H148.133V143.492H146.891ZM165.632 140V130.55H166.91V140H165.632ZM160.394 133.88C161.582 133.892 162.488 134.156 163.112 134.672C163.736 135.188 164.048 135.932 164.048 136.904C164.048 137.912 163.712 138.686 163.04 139.226C162.368 139.766 161.408 140.03 160.16 140.018L156.416 140V130.55H157.694V133.844L160.394 133.88ZM160.07 139.046C160.958 139.058 161.624 138.884 162.068 138.524C162.524 138.152 162.752 137.612 162.752 136.904C162.752 136.196 162.53 135.68 162.086 135.356C161.642 135.02 160.97 134.846 160.07 134.834L157.694 134.798V139.01L160.07 139.046Z" fill="white"/>
<path d="M160.025 35.5977H167.057C167.977 36.043 168.168 36.8145 168.168 37.7715C168.152 59.86 168.148 81.9479 168.156 104.035C168.156 104.205 168.156 104.377 168.156 104.547C168.098 105.635 167.529 106.184 166.432 106.201C165.785 106.211 165.137 106.201 164.445 106.201C164.445 107.139 164.445 107.959 164.445 108.793C164.434 110.029 163.885 110.594 162.658 110.594H105.541C104.316 110.594 103.766 110.027 103.756 108.791C103.756 107.945 103.756 107.1 103.756 106.201H102.059C100.555 106.201 100.041 105.693 100.041 104.18C100.041 81.9948 100.036 59.8092 100.027 37.623C100.027 36.6992 100.297 36.0137 101.139 35.5957H155.631C156.162 35.9375 156.551 36.377 156.316 37.0449C156.082 37.7129 155.518 37.8262 154.885 37.7988C154.129 37.7754 153.371 37.7988 152.615 37.7988H148.43V99.5742H165.912V37.7949C164.211 37.7949 162.557 37.7949 160.902 37.7949C160.287 37.7949 159.709 37.7598 159.441 37.0898C159.174 36.4199 159.566 35.9941 160.025 35.5977ZM141.787 99.5859V87.6719C141.787 86.5566 142.152 86.0137 142.889 86.0156C143.625 86.0176 143.984 86.5566 143.986 87.6758C143.986 91.362 143.986 95.0482 143.986 98.7344C143.986 99.0137 144.01 99.293 144.023 99.5664H146.145V37.8438H143.986V38.9141C143.986 52.9974 143.986 67.0814 143.986 81.166C143.999 81.5073 143.983 81.849 143.938 82.1875C143.91 82.4344 143.789 82.6614 143.6 82.8225C143.411 82.9836 143.168 83.0667 142.92 83.0547C142.66 83.0815 142.399 83.004 142.196 82.8393C141.993 82.6745 141.864 82.4359 141.836 82.1758C141.793 81.862 141.778 81.545 141.791 81.2285C141.791 67.0957 141.791 52.9629 141.791 38.8301V37.8438H124.271V99.5859H141.787ZM121.979 47.5918H119.846C117.014 47.5918 114.182 47.5918 111.354 47.5918C110.475 47.5918 109.977 47.1191 110.033 46.3926C110.082 45.7539 110.52 45.4023 111.32 45.4004C114.59 45.4004 117.86 45.4004 121.131 45.4004H121.947V37.8438H102.291V45.3984H103.129C104.08 45.3984 105.033 45.3809 105.984 45.4121C106.605 45.4336 106.977 45.8027 107.014 46.4277C107.051 47.0527 106.695 47.4316 106.1 47.5645C105.858 47.5997 105.614 47.6095 105.371 47.5938H102.287V64.418H107.395C107.797 61.6172 108.223 58.8496 108.578 56.0742C108.707 55.0801 109.033 54.3398 110.141 54.1367C109.818 53.1719 109.502 52.2773 109.223 51.373C109.002 50.6563 109.271 50.0859 109.877 49.873C110.482 49.6602 111.049 49.9707 111.293 50.6699C111.612 51.4604 111.881 52.2707 112.096 53.0957C112.291 53.959 112.682 54.2676 113.584 54.209C114.682 54.127 115.201 54.6309 115.359 55.707C115.609 57.3965 115.844 59.0859 116.088 60.7852C116.264 62.0059 116.445 63.2246 116.621 64.418H121.975L121.979 47.5918ZM105.982 108.352H162.184V106.203H126.393C126.172 106.203 125.953 106.203 125.732 106.203C125 106.168 124.547 105.729 124.561 105.078C124.574 104.428 125.014 104.047 125.715 104.012C125.934 104 126.154 104.012 126.373 104.012H165.92V101.863H102.277V104.012H119.949C120.169 104.001 120.389 104.005 120.607 104.023C121.225 104.109 121.596 104.486 121.605 105.096C121.615 105.705 121.25 106.094 120.629 106.193C120.41 106.215 120.19 106.22 119.971 106.209H105.982V108.352ZM121.971 84.2793H102.279V90.7734H121.971V84.2793ZM102.301 93.043V99.5625H121.949V93.0391L102.301 93.043ZM121.988 71.1074H102.289V77.6387H105.219C105.219 76.8359 105.219 76.1328 105.219 75.4297C105.219 73.9121 105.891 73.2461 107.408 73.2461C110.482 73.2461 113.557 73.2461 116.633 73.2461C118.131 73.2461 118.826 73.9375 118.84 75.4316C118.84 76.1524 118.84 76.8731 118.84 77.5801H121.988V71.1074ZM102.262 68.791H121.965V66.7109H102.262V68.791ZM102.279 81.9844H121.971V79.8867H102.279V81.9844ZM114.389 64.4219C113.998 61.7168 113.629 59.0742 113.246 56.3809C112.555 56.3809 111.924 56.4063 111.293 56.3809C110.844 56.3555 110.707 56.5488 110.66 56.9668C110.607 57.5527 110.506 58.125 110.426 58.7031C110.158 60.6016 109.891 62.5 109.619 64.4375L114.389 64.4219ZM116.596 75.4863H107.465V77.5938H116.6L116.596 75.4863Z" fill="white"/>
<path d="M152.773 68.7558C152.773 69.6562 152.783 70.5586 152.773 71.4609C152.764 72.3633 152.398 72.8125 151.697 72.8281C150.996 72.8437 150.59 72.3906 150.584 71.5058C150.57 69.6282 150.57 67.7513 150.584 65.875C150.584 65.0332 150.975 64.5957 151.656 64.584C152.367 64.5722 152.758 65.0195 152.773 65.9062C152.785 66.8535 152.773 67.8047 152.773 68.7558Z" fill="white"/>
<path d="M139.592 68.6856C139.592 69.586 139.592 70.4883 139.592 71.3907C139.582 72.3672 139.232 72.8145 138.512 72.8242C137.791 72.834 137.402 72.3692 137.398 71.4258C137.388 69.6237 137.388 67.8197 137.398 66.0137C137.398 65.0469 137.756 64.5918 138.479 64.5801C139.201 64.5684 139.586 65.0449 139.594 66.0508C139.596 66.9297 139.592 67.8067 139.592 68.6856Z" fill="white"/>
<path d="M111.988 43.1973C110.844 43.1973 109.697 43.1973 108.553 43.1973C107.736 43.1973 107.277 42.793 107.268 42.1211C107.258 41.4492 107.723 41.0098 108.52 41.0078C110.833 40.9974 113.148 40.9974 115.465 41.0078C116.246 41.0078 116.758 41.4453 116.768 42.0898C116.779 42.7637 116.268 43.1953 115.426 43.2012C114.273 43.2031 113.135 43.1973 111.988 43.1973Z" fill="white"/>
<path d="M111.912 89.1875C110.791 89.1875 109.67 89.1875 108.549 89.1875C107.732 89.1875 107.275 88.7969 107.268 88.1113C107.26 87.4258 107.721 87 108.521 86.9961C110.837 86.9844 113.152 86.9844 115.467 86.9961C116.248 86.9961 116.758 87.4414 116.768 88.084C116.768 88.7598 116.27 89.1836 115.422 89.1875C114.252 89.1973 113.082 89.1875 111.912 89.1875Z" fill="white"/>
<path d="M112.016 97.4141C110.844 97.4141 109.672 97.4141 108.5 97.4141C107.719 97.4141 107.285 97.0234 107.264 96.3691C107.24 95.6895 107.701 95.2305 108.486 95.2266C110.83 95.2135 113.17 95.2135 115.506 95.2266C116.287 95.2266 116.779 95.709 116.76 96.3574C116.74 97.0059 116.27 97.4141 115.523 97.4141C114.355 97.4277 113.186 97.4141 112.016 97.4141Z" fill="white"/>
<defs>
<filter id="filter0_d_19_65" x="0" y="0" width="268" height="216" filterUnits="userSpaceOnUse" color-interpolation-filters="sRGB">
<feFlood flood-opacity="0" result="BackgroundImageFix"/>
<feColorMatrix in="SourceAlpha" type="matrix" values="0 0 0 0 0 0 0 0 0 0 0 0 0 0 0 0 0 0 127 0" result="hardAlpha"/>
<feOffset dy="2"/>
<feGaussianBlur stdDeviation="4"/>
<feComposite in2="hardAlpha" operator="out"/>
<feColorMatrix type="matrix" values="0 0 0 0 0 0 0 0 0 0 0 0 0 0 0 0 0 0 0.25 0"/>
<feBlend mode="normal" in2="BackgroundImageFix" result="effect1_dropShadow_19_65"/>
<feBlend mode="normal" in="SourceGraphic" in2="effect1_dropShadow_19_65" result="shape"/>
</filter>
</defs>
</svg>
