<svg width="268" height="216" viewBox="0 0 268 216" fill="none" xmlns="http://www.w3.org/2000/svg">
<g filter="url(#filter0_d_83_222)">
<rect x="8" y="6" width="252" height="200" rx="5" fill="white"/>
</g>
<path d="M90.082 171.136C88.582 171.136 87.298 170.926 86.23 170.506C85.162 170.074 84.34 169.45 83.764 168.634C83.188 167.818 82.9 166.834 82.9 165.682C82.9 164.53 83.188 163.552 83.764 162.748C84.34 161.932 85.162 161.308 86.23 160.876C87.298 160.444 88.582 160.228 90.082 160.228C90.094 160.228 90.124 160.228 90.172 160.228C90.22 160.228 90.268 160.228 90.316 160.228C90.364 160.228 90.394 160.228 90.406 160.228C91.918 160.228 93.208 160.444 94.276 160.876C95.344 161.308 96.166 161.932 96.742 162.748C97.318 163.552 97.606 164.53 97.606 165.682C97.606 166.834 97.318 167.818 96.742 168.634C96.178 169.45 95.362 170.074 94.294 170.506C93.226 170.926 91.948 171.136 90.46 171.136C90.436 171.136 90.394 171.136 90.334 171.136C90.286 171.136 90.232 171.136 90.172 171.136C90.124 171.136 90.094 171.136 90.082 171.136ZM90.226 170.092C90.25 170.092 90.274 170.092 90.298 170.092C90.322 170.092 90.34 170.092 90.352 170.092C91.612 170.08 92.686 169.906 93.574 169.57C94.474 169.222 95.158 168.724 95.626 168.076C96.094 167.416 96.328 166.618 96.328 165.682C96.328 164.734 96.088 163.936 95.608 163.288C95.14 162.64 94.462 162.148 93.574 161.812C92.698 161.464 91.636 161.29 90.388 161.29C90.376 161.29 90.352 161.29 90.316 161.29C90.28 161.29 90.25 161.29 90.226 161.29C88.954 161.29 87.868 161.458 86.968 161.794C86.068 162.13 85.378 162.628 84.898 163.288C84.418 163.936 84.178 164.734 84.178 165.682C84.178 166.642 84.418 167.452 84.898 168.112C85.39 168.76 86.086 169.252 86.986 169.588C87.898 169.924 88.978 170.092 90.226 170.092ZM89.632 172.432V158.968H90.874V172.432H89.632ZM100.486 175.582C100.042 175.582 99.6159 175.51 99.2079 175.366C98.8119 175.222 98.4699 175.006 98.1819 174.718L98.7759 173.764C99.0159 173.992 99.2739 174.166 99.5499 174.286C99.8379 174.418 100.156 174.484 100.504 174.484C100.924 174.484 101.284 174.364 101.584 174.124C101.896 173.896 102.19 173.488 102.466 172.9L103.078 171.514L103.222 171.316L107.11 162.55H108.37L103.636 173.134C103.372 173.746 103.078 174.232 102.754 174.592C102.442 174.952 102.1 175.204 101.728 175.348C101.356 175.504 100.942 175.582 100.486 175.582ZM103.006 172.27L98.6499 162.55H99.9819L103.834 171.226L103.006 172.27ZM115.239 172.09C114.423 172.09 113.685 171.904 113.025 171.532C112.365 171.148 111.837 170.602 111.441 169.894C111.057 169.174 110.865 168.298 110.865 167.266C110.865 166.234 111.057 165.364 111.441 164.656C111.825 163.936 112.347 163.39 113.007 163.018C113.667 162.646 114.411 162.46 115.239 162.46C116.139 162.46 116.943 162.664 117.651 163.072C118.371 163.468 118.935 164.032 119.343 164.764C119.751 165.484 119.955 166.318 119.955 167.266C119.955 168.226 119.751 169.066 119.343 169.786C118.935 170.506 118.371 171.07 117.651 171.478C116.943 171.886 116.139 172.09 115.239 172.09ZM110.361 175.492V162.55H111.585V165.394L111.459 167.284L111.639 169.192V175.492H110.361ZM115.149 170.956C115.821 170.956 116.421 170.806 116.949 170.506C117.477 170.194 117.897 169.762 118.209 169.21C118.521 168.646 118.677 167.998 118.677 167.266C118.677 166.534 118.521 165.892 118.209 165.34C117.897 164.788 117.477 164.356 116.949 164.044C116.421 163.732 115.821 163.576 115.149 163.576C114.477 163.576 113.871 163.732 113.331 164.044C112.803 164.356 112.383 164.788 112.071 165.34C111.771 165.892 111.621 166.534 111.621 167.266C111.621 167.998 111.771 168.646 112.071 169.21C112.383 169.762 112.803 170.194 113.331 170.506C113.871 170.806 114.477 170.956 115.149 170.956ZM122.701 172V162.55H123.979V166.726H129.937V162.55H131.215V172H129.937V167.824H123.979V172H122.701ZM134.847 172V162.55H136.125V170.056L142.443 162.55H143.577V172H142.299V164.476L135.999 172H134.847ZM149.04 172V163.324L149.364 163.666H145.458V162.55H153.9V163.666H149.994L150.318 163.324V172H149.04ZM155.91 175.582C155.466 175.582 155.04 175.51 154.632 175.366C154.236 175.222 153.894 175.006 153.606 174.718L154.2 173.764C154.44 173.992 154.698 174.166 154.974 174.286C155.262 174.418 155.58 174.484 155.928 174.484C156.348 174.484 156.708 174.364 157.008 174.124C157.32 173.896 157.614 173.488 157.89 172.9L158.502 171.514L158.646 171.316L162.534 162.55H163.794L159.06 173.134C158.796 173.746 158.502 174.232 158.178 174.592C157.866 174.952 157.524 175.204 157.152 175.348C156.78 175.504 156.366 175.582 155.91 175.582ZM158.43 172.27L154.074 162.55H155.406L159.258 171.226L158.43 172.27ZM170.663 172.09C169.847 172.09 169.109 171.904 168.449 171.532C167.789 171.148 167.261 170.602 166.865 169.894C166.481 169.174 166.289 168.298 166.289 167.266C166.289 166.234 166.481 165.364 166.865 164.656C167.249 163.936 167.771 163.39 168.431 163.018C169.091 162.646 169.835 162.46 170.663 162.46C171.563 162.46 172.367 162.664 173.075 163.072C173.795 163.468 174.359 164.032 174.767 164.764C175.175 165.484 175.379 166.318 175.379 167.266C175.379 168.226 175.175 169.066 174.767 169.786C174.359 170.506 173.795 171.07 173.075 171.478C172.367 171.886 171.563 172.09 170.663 172.09ZM165.785 175.492V162.55H167.009V165.394L166.883 167.284L167.063 169.192V175.492H165.785ZM170.573 170.956C171.245 170.956 171.845 170.806 172.373 170.506C172.901 170.194 173.321 169.762 173.633 169.21C173.945 168.646 174.101 167.998 174.101 167.266C174.101 166.534 173.945 165.892 173.633 165.34C173.321 164.788 172.901 164.356 172.373 164.044C171.845 163.732 171.245 163.576 170.573 163.576C169.901 163.576 169.295 163.732 168.755 164.044C168.227 164.356 167.807 164.788 167.495 165.34C167.195 165.892 167.045 166.534 167.045 167.266C167.045 167.998 167.195 168.646 167.495 169.21C167.807 169.762 168.227 170.194 168.755 170.506C169.295 170.806 169.901 170.956 170.573 170.956ZM183.94 172V169.912L183.886 169.57V166.078C183.886 165.274 183.658 164.656 183.202 164.224C182.758 163.792 182.092 163.576 181.204 163.576C180.592 163.576 180.01 163.678 179.458 163.882C178.906 164.086 178.438 164.356 178.054 164.692L177.478 163.738C177.958 163.33 178.534 163.018 179.206 162.802C179.878 162.574 180.586 162.46 181.33 162.46C182.554 162.46 183.496 162.766 184.156 163.378C184.828 163.978 185.164 164.896 185.164 166.132V172H183.94ZM180.682 172.09C179.974 172.09 179.356 171.976 178.828 171.748C178.312 171.508 177.916 171.184 177.64 170.776C177.364 170.356 177.226 169.876 177.226 169.336C177.226 168.844 177.34 168.4 177.568 168.004C177.808 167.596 178.192 167.272 178.72 167.032C179.26 166.78 179.98 166.654 180.88 166.654H184.138V167.608H180.916C180.004 167.608 179.368 167.77 179.008 168.094C178.66 168.418 178.486 168.82 178.486 169.3C178.486 169.84 178.696 170.272 179.116 170.596C179.536 170.92 180.124 171.082 180.88 171.082C181.6 171.082 182.218 170.92 182.734 170.596C183.262 170.26 183.646 169.78 183.886 169.156L184.174 170.038C183.934 170.662 183.514 171.16 182.914 171.532C182.326 171.904 181.582 172.09 180.682 172.09Z" fill="#454545"/>
<path d="M123.404 118.266C122.002 118.088 120.592 117.947 119.195 117.725C116.303 117.272 113.476 116.478 110.771 115.357C109.328 114.758 108.623 113.625 108.623 112.07C108.623 106.59 108.623 101.11 108.623 95.6309C108.623 82.6504 108.623 69.6712 108.623 56.6934C108.623 54.5449 109.27 53.5684 111.262 52.8066C120.922 49.1608 130.577 49.1823 140.227 52.8711C142 53.5488 142.701 54.6172 142.701 56.5371C142.701 60.041 142.701 63.5449 142.701 67.1465H143.432C147.381 67.1465 151.332 67.1152 155.279 67.1621C157.18 67.1855 158.584 68.1387 159.346 69.8965C160.107 71.6543 159.812 73.293 158.564 74.7285C157.639 75.793 156.416 76.2422 155.012 76.2363C151.174 76.2227 147.336 76.2363 143.488 76.2363H142.691V111.67C142.691 113.834 142.016 114.816 139.998 115.59C136.313 117.016 132.436 117.88 128.494 118.154C128.297 118.178 128.101 118.216 127.908 118.266H123.404ZM140.445 67.1445V56.5527C140.445 55.5645 140.285 55.3125 139.367 54.9648C130.233 51.5 121.099 51.5052 111.965 54.9805C111.057 55.3301 110.902 55.5664 110.902 56.5059V111.879C110.902 112.793 111.068 113.051 111.916 113.369C121.043 116.885 130.178 116.871 139.318 113.428C140.295 113.061 140.445 112.82 140.445 111.736V76.2539C140.17 76.2402 139.977 76.2246 139.781 76.2227C137.895 76.2227 136.01 76.2344 134.117 76.2129C133.935 76.1964 133.752 76.2334 133.59 76.3194C133.428 76.4054 133.295 76.5368 133.207 76.6973C131.43 79.3223 128.945 80.7012 125.766 80.7598C123.879 80.7822 122.032 80.2158 120.481 79.1395C118.931 78.0631 117.755 76.5304 117.117 74.7545C116.478 72.9786 116.41 71.0479 116.92 69.231C117.43 67.4141 118.493 65.8013 119.963 64.6172C124.186 61.2363 130.234 62.1934 133.254 66.707C133.381 66.9023 133.635 67.1231 133.84 67.127C136.004 67.1563 138.176 67.1445 140.445 67.1445ZM140.43 73.9512H141.828C146.264 73.9512 150.701 73.9512 155.137 73.9512C156.924 73.9512 158.025 72.1816 157.215 70.6504C156.756 69.7832 155.99 69.418 155.021 69.418H125.797C125.686 69.4144 125.575 69.4177 125.465 69.4277C124.553 69.5469 123.891 70.0137 123.549 70.8731C122.939 72.3965 124.057 73.9473 125.779 73.9512C130.664 73.959 135.545 73.9512 140.424 73.9512H140.43ZM130.715 67.1465C129.757 66.0758 128.484 65.3361 127.08 65.0339C125.675 64.7317 124.211 64.8824 122.898 65.4644C121.584 66.0464 120.489 67.0297 119.77 68.2731C119.05 69.5165 118.743 70.956 118.893 72.3848C119.139 75.2363 121.311 77.6758 124.187 78.332C126.576 78.877 129.596 77.9102 130.609 76.2227H130.066C128.537 76.2227 127.006 76.2363 125.479 76.207C124.832 76.2045 124.194 76.0521 123.616 75.7617C123.038 75.4712 122.535 75.0508 122.146 74.5332C121.008 73.084 120.789 71.459 121.561 69.7871C122.332 68.1152 123.752 67.2031 125.623 67.1563C127.273 67.1133 128.922 67.1465 130.709 67.1465H130.715Z" fill="#454545"/>
<path d="M126.066 89.8789C127.461 89.9375 128.818 90.6992 129.652 92.252C130.486 93.8047 130.377 95.3906 129.457 96.9258C129.243 97.2969 129.118 97.7128 129.092 98.1406C129.027 99.332 129.115 100.537 128.998 101.723C128.838 103.336 127.516 104.492 125.855 104.625C125.086 104.67 124.325 104.451 123.696 104.006C123.068 103.56 122.609 102.914 122.396 102.174C122.301 101.787 122.251 101.391 122.25 100.992C122.227 100.283 122.221 99.5742 122.25 98.8652C122.299 98.0583 122.106 97.255 121.695 96.5586C119.982 93.5586 122.232 89.8594 126.066 89.8789ZM125.707 92.1485C124.762 92.1602 124.041 92.5703 123.631 93.4317C123.221 94.293 123.309 95.1895 123.982 95.8965C124.174 96.094 124.321 96.3293 124.416 96.5873C124.511 96.8453 124.551 97.1202 124.533 97.3945C124.514 98.5918 124.502 99.7891 124.545 100.984C124.557 101.334 124.662 101.801 124.902 101.992C125.233 102.224 125.642 102.319 126.041 102.256C126.578 102.164 126.795 101.67 126.801 101.145C126.81 99.9727 126.826 98.8008 126.801 97.6289C126.785 96.9375 126.904 96.3594 127.414 95.8164C128.045 95.1485 128.109 94.3008 127.715 93.4727C127.548 93.0789 127.268 92.7431 126.911 92.5076C126.554 92.272 126.135 92.1471 125.707 92.1485Z" fill="#FF7D04"/>
<path d="M125.309 54.6426C125.519 54.6402 125.729 54.6579 125.936 54.6953C126.197 54.7526 126.427 54.9052 126.582 55.1233C126.737 55.3414 126.805 55.6094 126.773 55.875C126.713 56.4609 126.383 56.8516 125.807 56.8828C123.529 56.9849 121.272 57.3626 119.086 58.0078C118.482 58.1895 117.932 57.8125 117.758 57.2129C117.71 57.0695 117.694 56.9177 117.71 56.7675C117.726 56.6174 117.773 56.4723 117.85 56.342C117.926 56.2117 118.029 56.0992 118.153 56.0119C118.276 55.9246 118.416 55.8647 118.564 55.8359C120.283 55.4453 122.016 55.1016 123.748 54.7676C124.266 54.699 124.787 54.6572 125.309 54.6426Z" fill="#FF7D04"/>
<path d="M114.305 56.9199C114.606 56.924 114.893 57.0474 115.104 57.2631C115.314 57.4787 115.431 57.769 115.428 58.0703C115.429 58.2141 115.402 58.3568 115.348 58.4901C115.294 58.6234 115.214 58.7448 115.114 58.8473C115.013 58.9498 114.893 59.0314 114.76 59.0874C114.628 59.1434 114.486 59.1728 114.342 59.1738C114.192 59.1798 114.043 59.156 113.903 59.1038C113.763 59.0516 113.635 58.9719 113.525 58.8696C113.416 58.7672 113.329 58.6442 113.268 58.5077C113.207 58.3711 113.173 58.2238 113.17 58.0742C113.174 57.7728 113.295 57.4846 113.506 57.2697C113.717 57.0547 114.003 56.9294 114.305 56.9199Z" fill="#FF7D04"/>
<defs>
<filter id="filter0_d_83_222" x="0" y="0" width="268" height="216" filterUnits="userSpaceOnUse" color-interpolation-filters="sRGB">
<feFlood flood-opacity="0" result="BackgroundImageFix"/>
<feColorMatrix in="SourceAlpha" type="matrix" values="0 0 0 0 0 0 0 0 0 0 0 0 0 0 0 0 0 0 127 0" result="hardAlpha"/>
<feOffset dy="2"/>
<feGaussianBlur stdDeviation="4"/>
<feComposite in2="hardAlpha" operator="out"/>
<feColorMatrix type="matrix" values="0 0 0 0 0 0 0 0 0 0 0 0 0 0 0 0 0 0 0.25 0"/>
<feBlend mode="normal" in2="BackgroundImageFix" result="effect1_dropShadow_83_222"/>
<feBlend mode="normal" in="SourceGraphic" in2="effect1_dropShadow_83_222" result="shape"/>
</filter>
</defs>
</svg>
