<svg width="268" height="216" viewBox="0 0 268 216" fill="none" xmlns="http://www.w3.org/2000/svg">
<g filter="url(#filter0_d_21_139)">
<rect x="8" y="6" width="252" height="200" rx="5" fill="#FF7D04"/>
</g>
<path d="M105.082 139.136C103.582 139.136 102.298 138.926 101.23 138.506C100.162 138.074 99.34 137.45 98.764 136.634C98.188 135.818 97.9 134.834 97.9 133.682C97.9 132.53 98.188 131.552 98.764 130.748C99.34 129.932 100.162 129.308 101.23 128.876C102.298 128.444 103.582 128.228 105.082 128.228C105.094 128.228 105.124 128.228 105.172 128.228C105.22 128.228 105.268 128.228 105.316 128.228C105.364 128.228 105.394 128.228 105.406 128.228C106.918 128.228 108.208 128.444 109.276 128.876C110.344 129.308 111.166 129.932 111.742 130.748C112.318 131.552 112.606 132.53 112.606 133.682C112.606 134.834 112.318 135.818 111.742 136.634C111.178 137.45 110.362 138.074 109.294 138.506C108.226 138.926 106.948 139.136 105.46 139.136C105.436 139.136 105.394 139.136 105.334 139.136C105.286 139.136 105.232 139.136 105.172 139.136C105.124 139.136 105.094 139.136 105.082 139.136ZM105.226 138.092C105.25 138.092 105.274 138.092 105.298 138.092C105.322 138.092 105.34 138.092 105.352 138.092C106.612 138.08 107.686 137.906 108.574 137.57C109.474 137.222 110.158 136.724 110.626 136.076C111.094 135.416 111.328 134.618 111.328 133.682C111.328 132.734 111.088 131.936 110.608 131.288C110.14 130.64 109.462 130.148 108.574 129.812C107.698 129.464 106.636 129.29 105.388 129.29C105.376 129.29 105.352 129.29 105.316 129.29C105.28 129.29 105.25 129.29 105.226 129.29C103.954 129.29 102.868 129.458 101.968 129.794C101.068 130.13 100.378 130.628 99.898 131.288C99.418 131.936 99.178 132.734 99.178 133.682C99.178 134.642 99.418 135.452 99.898 136.112C100.39 136.76 101.086 137.252 101.986 137.588C102.898 137.924 103.978 138.092 105.226 138.092ZM104.632 140.432V126.968H105.874V140.432H104.632ZM121.192 140V137.912L121.138 137.57V134.078C121.138 133.274 120.91 132.656 120.454 132.224C120.01 131.792 119.344 131.576 118.456 131.576C117.844 131.576 117.262 131.678 116.71 131.882C116.158 132.086 115.69 132.356 115.306 132.692L114.73 131.738C115.21 131.33 115.786 131.018 116.458 130.802C117.13 130.574 117.838 130.46 118.582 130.46C119.806 130.46 120.748 130.766 121.408 131.378C122.08 131.978 122.416 132.896 122.416 134.132V140H121.192ZM117.934 140.09C117.226 140.09 116.608 139.976 116.08 139.748C115.564 139.508 115.168 139.184 114.892 138.776C114.616 138.356 114.478 137.876 114.478 137.336C114.478 136.844 114.592 136.4 114.82 136.004C115.06 135.596 115.444 135.272 115.972 135.032C116.512 134.78 117.232 134.654 118.132 134.654H121.39V135.608H118.168C117.256 135.608 116.62 135.77 116.26 136.094C115.912 136.418 115.738 136.82 115.738 137.3C115.738 137.84 115.948 138.272 116.368 138.596C116.788 138.92 117.376 139.082 118.132 139.082C118.852 139.082 119.47 138.92 119.986 138.596C120.514 138.26 120.898 137.78 121.138 137.156L121.426 138.038C121.186 138.662 120.766 139.16 120.166 139.532C119.578 139.904 118.834 140.09 117.934 140.09ZM129.778 140.09C128.842 140.09 128.002 139.886 127.258 139.478C126.526 139.058 125.95 138.488 125.53 137.768C125.11 137.036 124.9 136.202 124.9 135.266C124.9 134.318 125.11 133.484 125.53 132.764C125.95 132.044 126.526 131.48 127.258 131.072C128.002 130.664 128.842 130.46 129.778 130.46C130.582 130.46 131.308 130.616 131.956 130.928C132.604 131.24 133.114 131.708 133.486 132.332L132.532 132.98C132.208 132.5 131.806 132.146 131.326 131.918C130.846 131.69 130.324 131.576 129.76 131.576C129.088 131.576 128.482 131.732 127.942 132.044C127.402 132.344 126.976 132.77 126.664 133.322C126.352 133.874 126.196 134.522 126.196 135.266C126.196 136.01 126.352 136.658 126.664 137.21C126.976 137.762 127.402 138.194 127.942 138.506C128.482 138.806 129.088 138.956 129.76 138.956C130.324 138.956 130.846 138.842 131.326 138.614C131.806 138.386 132.208 138.038 132.532 137.57L133.486 138.218C133.114 138.83 132.604 139.298 131.956 139.622C131.308 139.934 130.582 140.09 129.778 140.09ZM141.829 140V137.912L141.775 137.57V134.078C141.775 133.274 141.547 132.656 141.091 132.224C140.647 131.792 139.981 131.576 139.093 131.576C138.481 131.576 137.899 131.678 137.347 131.882C136.795 132.086 136.327 132.356 135.943 132.692L135.367 131.738C135.847 131.33 136.423 131.018 137.095 130.802C137.767 130.574 138.475 130.46 139.219 130.46C140.443 130.46 141.385 130.766 142.045 131.378C142.717 131.978 143.053 132.896 143.053 134.132V140H141.829ZM138.571 140.09C137.863 140.09 137.245 139.976 136.717 139.748C136.201 139.508 135.805 139.184 135.529 138.776C135.253 138.356 135.115 137.876 135.115 137.336C135.115 136.844 135.229 136.4 135.457 136.004C135.697 135.596 136.081 135.272 136.609 135.032C137.149 134.78 137.869 134.654 138.769 134.654H142.027V135.608H138.805C137.893 135.608 137.257 135.77 136.897 136.094C136.549 136.418 136.375 136.82 136.375 137.3C136.375 137.84 136.585 138.272 137.005 138.596C137.425 138.92 138.013 139.082 138.769 139.082C139.489 139.082 140.107 138.92 140.623 138.596C141.151 138.26 141.535 137.78 141.775 137.156L142.063 138.038C141.823 138.662 141.403 139.16 140.803 139.532C140.215 139.904 139.471 140.09 138.571 140.09ZM152.935 139.388V131.666H148.381L148.273 133.772C148.249 134.408 148.207 135.032 148.147 135.644C148.099 136.256 148.009 136.82 147.877 137.336C147.757 137.84 147.583 138.254 147.355 138.578C147.127 138.89 146.833 139.07 146.473 139.118L145.195 138.884C145.567 138.896 145.873 138.764 146.113 138.488C146.353 138.2 146.539 137.81 146.671 137.318C146.803 136.826 146.899 136.268 146.959 135.644C147.019 135.008 147.067 134.36 147.103 133.7L147.229 130.55H154.213V139.388H152.935ZM144.799 142.286V138.884H155.689V142.286H154.483V140H146.005V142.286H144.799ZM167.395 140V130.55H168.673V140H167.395ZM162.157 133.88C163.345 133.892 164.251 134.156 164.875 134.672C165.499 135.188 165.811 135.932 165.811 136.904C165.811 137.912 165.475 138.686 164.803 139.226C164.131 139.766 163.171 140.03 161.923 140.018L158.179 140V130.55H159.457V133.844L162.157 133.88ZM161.833 139.046C162.721 139.058 163.387 138.884 163.831 138.524C164.287 138.152 164.515 137.612 164.515 136.904C164.515 136.196 164.293 135.68 163.849 135.356C163.405 135.02 162.733 134.846 161.833 134.834L159.457 134.798V139.01L161.833 139.046Z" fill="white"/>
<line x1="8" y1="177.5" x2="58" y2="177.5" stroke="white"/>
<line x1="210" y1="177.5" x2="260" y2="177.5" stroke="white"/>
<path d="M94.784 184.096C93.9413 184.096 93.1627 183.957 92.448 183.68C91.7333 183.392 91.1147 182.992 90.592 182.48C90.0693 181.968 89.6587 181.365 89.36 180.672C89.072 179.979 88.928 179.221 88.928 178.4C88.928 177.579 89.072 176.821 89.36 176.128C89.6587 175.435 90.0693 174.832 90.592 174.32C91.1253 173.808 91.7493 173.413 92.464 173.136C93.1787 172.848 93.9573 172.704 94.8 172.704C95.6107 172.704 96.3733 172.843 97.088 173.12C97.8027 173.387 98.4053 173.792 98.896 174.336L98.144 175.088C97.6853 174.619 97.1787 174.283 96.624 174.08C96.0693 173.867 95.472 173.76 94.832 173.76C94.16 173.76 93.536 173.877 92.96 174.112C92.384 174.336 91.8827 174.661 91.456 175.088C91.0293 175.504 90.6933 175.995 90.448 176.56C90.2133 177.115 90.096 177.728 90.096 178.4C90.096 179.072 90.2133 179.691 90.448 180.256C90.6933 180.811 91.0293 181.301 91.456 181.728C91.8827 182.144 92.384 182.469 92.96 182.704C93.536 182.928 94.16 183.04 94.832 183.04C95.472 183.04 96.0693 182.933 96.624 182.72C97.1787 182.507 97.6853 182.165 98.144 181.696L98.896 182.448C98.4053 182.992 97.8027 183.403 97.088 183.68C96.3733 183.957 95.6053 184.096 94.784 184.096ZM101.341 184V172.8H102.317L107.437 181.536H106.925L111.997 172.8H112.973V184H111.837V174.576H112.109L107.437 182.576H106.877L102.173 174.576H102.477V184H101.341ZM121.659 184.096C120.817 184.096 120.033 183.957 119.307 183.68C118.593 183.392 117.969 182.992 117.435 182.48C116.913 181.957 116.502 181.355 116.203 180.672C115.915 179.979 115.771 179.221 115.771 178.4C115.771 177.579 115.915 176.827 116.203 176.144C116.502 175.451 116.913 174.848 117.435 174.336C117.969 173.813 118.593 173.413 119.307 173.136C120.022 172.848 120.806 172.704 121.659 172.704C122.502 172.704 123.281 172.848 123.995 173.136C124.71 173.413 125.329 173.808 125.851 174.32C126.385 174.832 126.795 175.435 127.083 176.128C127.382 176.821 127.531 177.579 127.531 178.4C127.531 179.221 127.382 179.979 127.083 180.672C126.795 181.365 126.385 181.968 125.851 182.48C125.329 182.992 124.71 183.392 123.995 183.68C123.281 183.957 122.502 184.096 121.659 184.096ZM121.659 183.04C122.331 183.04 122.95 182.928 123.515 182.704C124.091 182.469 124.587 182.144 125.003 181.728C125.43 181.301 125.761 180.811 125.995 180.256C126.23 179.691 126.347 179.072 126.347 178.4C126.347 177.728 126.23 177.115 125.995 176.56C125.761 175.995 125.43 175.504 125.003 175.088C124.587 174.661 124.091 174.336 123.515 174.112C122.95 173.877 122.331 173.76 121.659 173.76C120.987 173.76 120.363 173.877 119.787 174.112C119.211 174.336 118.71 174.661 118.283 175.088C117.867 175.504 117.537 175.995 117.291 176.56C117.057 177.115 116.939 177.728 116.939 178.4C116.939 179.061 117.057 179.675 117.291 180.24C117.537 180.805 117.867 181.301 118.283 181.728C118.71 182.144 119.211 182.469 119.787 182.704C120.363 182.928 120.987 183.04 121.659 183.04ZM132.424 184V173.504L132.745 173.824H128.489V172.8H137.529V173.824H133.289L133.593 173.504V184H132.424ZM139.607 184V172.8H143.799C144.748 172.8 145.564 172.955 146.247 173.264C146.929 173.563 147.452 174 147.815 174.576C148.188 175.141 148.375 175.829 148.375 176.64C148.375 177.429 148.188 178.112 147.815 178.688C147.452 179.253 146.929 179.691 146.247 180C145.564 180.309 144.748 180.464 143.799 180.464H140.263L140.791 179.904V184H139.607ZM140.791 180L140.263 179.424H143.767C144.887 179.424 145.735 179.184 146.311 178.704C146.897 178.213 147.191 177.525 147.191 176.64C147.191 175.744 146.897 175.051 146.311 174.56C145.735 174.069 144.887 173.824 143.767 173.824H140.263L140.791 173.264V180ZM151.85 177.808H157.77V178.816H151.85V177.808ZM151.978 182.976H158.714V184H150.794V172.8H158.474V173.824H151.978V182.976ZM163.565 184V173.504L163.885 173.824H159.629V172.8H168.669V173.824H164.429L164.733 173.504V184H163.565ZM175.435 176.8C176.758 176.8 177.766 177.099 178.459 177.696C179.163 178.283 179.515 179.157 179.515 180.32C179.515 181.525 179.142 182.443 178.395 183.072C177.649 183.691 176.582 184 175.195 184H170.747V172.8H171.915V176.8H175.435ZM175.163 183.056C176.198 183.056 176.982 182.827 177.515 182.368C178.059 181.909 178.331 181.237 178.331 180.352C178.331 179.467 178.065 178.816 177.531 178.4C176.998 177.973 176.209 177.76 175.163 177.76H171.915V183.056H175.163Z" fill="white"/>
<path d="M104.682 106.99C104.134 106.618 103.998 106.101 104 105.455C104.019 97.9885 104.023 90.5223 104.012 83.0568C104.012 81.8468 104.326 81.5399 105.562 81.5399H144.72V80.1834C144.72 78.4883 144.852 78.3616 146.595 78.3616H147.879C148.041 77.7675 148.333 77.312 149.002 77.312C149.67 77.312 149.966 77.7695 150.128 78.3596H151.814C151.922 78.3596 152.03 78.3457 152.214 78.3319V74.4209C152.214 74.0011 152.214 73.5812 152.214 73.1634C152.234 72.4446 152.673 71.9753 153.305 72.001C153.905 72.0149 154.341 72.4644 154.349 73.1496C154.363 74.7338 154.349 76.3298 154.349 77.92C154.349 78.0309 154.359 78.1398 154.367 78.3042H156.452C156.588 77.7734 156.88 77.314 157.544 77.314C158.208 77.314 158.528 77.7457 158.668 78.3636C159.359 78.3636 160.027 78.3636 160.695 78.3636C161.451 78.3636 161.839 78.7596 161.849 79.5081C161.859 80.1656 161.849 80.823 161.849 81.5419C162.149 81.5419 162.388 81.5419 162.628 81.5419C163.618 81.5537 163.98 81.9201 163.988 82.928V83.1261C163.988 90.5692 163.992 98.0136 164 105.459C164 106.105 163.856 106.618 163.324 107L104.682 106.99ZM161.817 104.84V83.7142H144.758V104.84H161.817ZM123.266 83.7063H106.201V93.1739H123.266V83.7063ZM106.185 104.822H123.264V95.368H106.185V104.822ZM135.125 83.6904V104.816H142.544V83.6904H135.125ZM125.486 83.6904V104.816H132.901V83.6904H125.486ZM146.875 81.4884H159.679V80.53H146.875V81.4884Z" fill="white"/>
<path d="M163.324 39C163.858 39.3735 164.002 39.8794 164 40.5136C163.983 47.8508 163.979 55.1874 163.988 62.5233C163.988 63.6712 163.654 64 162.482 64H144.081C142.903 64 142.575 63.679 142.575 62.5292C142.575 60.2743 142.575 58.0195 142.575 55.7198H125.433V56.4163C125.433 58.4994 125.433 60.583 125.433 62.6673C125.433 63.6089 125.055 63.9981 124.117 64C117.85 64 111.58 64 105.307 64C104.402 64 104.014 63.6109 104.014 62.714C104.014 55.2471 104.01 47.7808 104 40.3152C103.994 40.0585 104.053 39.8043 104.172 39.5752C104.291 39.3461 104.466 39.1492 104.682 39.0019L163.324 39ZM123.259 41.1284H106.199V61.8813H123.259V41.1284ZM161.8 61.8833V41.1323H144.744V61.8833H161.8ZM125.479 41.1128V53.535H142.531V41.1128H125.479Z" fill="white"/>
<path d="M146.01 94.4651C146.01 94.0498 145.994 93.6344 146.01 93.2214C146.011 92.9076 146.109 92.6063 146.282 92.3797C146.455 92.153 146.691 92.0184 146.941 92.0034C147.192 91.9795 147.441 92.0811 147.633 92.286C147.825 92.491 147.945 92.7827 147.966 93.0978C148.011 94.0303 148.011 94.9653 147.966 95.8978C147.946 96.213 147.828 96.5056 147.636 96.7115C147.445 96.9174 147.196 97.02 146.945 96.9968C146.694 96.9866 146.456 96.8554 146.281 96.6307C146.105 96.4059 146.006 96.1049 146.003 95.7904C145.994 95.3424 146.01 94.8991 146.01 94.4651Z" fill="white"/>
<path d="M114.961 86.9901C114.625 86.9901 114.29 87.0124 113.958 86.9901C113.826 86.9863 113.697 86.9565 113.578 86.9025C113.458 86.8485 113.35 86.7713 113.261 86.6755C113.172 86.5797 113.103 86.4672 113.059 86.3446C113.014 86.222 112.995 86.0918 113.001 85.9617C113.006 85.7091 113.11 85.4685 113.293 85.292C113.475 85.1155 113.72 85.0173 113.975 85.0188C114.665 84.9947 115.357 84.9928 116.038 85.0188C116.292 85.0227 116.535 85.125 116.715 85.3038C116.895 85.4827 116.997 85.7241 117 85.9766C117.006 86.2289 116.915 86.4741 116.744 86.6613C116.573 86.8486 116.336 86.9636 116.083 86.9826C115.708 87.018 115.332 86.9826 114.957 86.9826L114.961 86.9901Z" fill="white"/>
<path d="M114.983 98.9863C114.629 98.9863 114.271 99.0123 113.919 98.9863C113.665 98.971 113.427 98.8583 113.256 98.6721C113.084 98.4859 112.993 98.2408 113 97.9889C112.998 97.7364 113.096 97.4932 113.274 97.3123C113.451 97.1314 113.694 97.0274 113.949 97.023C114.657 96.9933 115.371 96.9914 116.079 97.023C116.326 97.04 116.558 97.1484 116.729 97.3266C116.899 97.5048 116.996 97.74 117 97.9855C117.004 98.2311 116.915 98.4692 116.75 98.6528C116.586 98.8364 116.358 98.9521 116.111 98.977C115.737 99.0042 115.361 99.0073 114.987 98.9863H114.983Z" fill="white"/>
<path d="M137.992 94.5292C137.992 94.9452 138.01 95.3613 137.992 95.775C137.991 95.9377 137.964 96.0985 137.914 96.2482C137.863 96.398 137.789 96.5336 137.697 96.6475C137.604 96.7613 137.495 96.851 137.375 96.9115C137.255 96.972 137.126 97.002 136.997 96.9998C136.867 97.0027 136.739 96.9726 136.619 96.9114C136.499 96.8502 136.39 96.7591 136.298 96.6436C136.207 96.5281 136.135 96.3906 136.087 96.2393C136.039 96.0881 136.016 95.9261 136.019 95.7633C135.995 94.9078 135.993 94.05 136.019 93.1922C136.023 92.8765 136.125 92.5754 136.303 92.3528C136.481 92.1302 136.722 92.0037 136.973 92.0001C137.223 91.9963 137.466 92.1094 137.654 92.3175C137.842 92.5257 137.961 92.814 137.99 93.1267C137.993 93.1781 137.993 93.2296 137.99 93.281V94.5268L137.992 94.5292Z" fill="white"/>
<path d="M130.013 94.4744C130.013 94.0329 129.991 93.5891 130.013 93.1522C130.024 92.8364 130.133 92.5385 130.316 92.323C130.5 92.1074 130.744 91.9916 130.995 92.0005C131.552 92.0238 131.923 92.414 131.962 93.0821C132.013 94.0155 132.013 94.9521 131.962 95.8855C131.945 96.2013 131.829 96.4956 131.64 96.7041C131.451 96.9125 131.203 97.018 130.952 96.9975C130.703 96.9887 130.465 96.8603 130.288 96.6384C130.111 96.4165 130.008 96.118 130 95.8037C130 95.7523 130 95.6986 130 95.6472V94.4791L130.013 94.4744Z" fill="white"/>
<path d="M107.017 51.4624C107 51.0223 107 50.5813 107.017 50.1412C107.035 49.8354 107.143 49.5491 107.32 49.3381C107.497 49.1271 107.73 49.0067 107.974 49.0003C108.217 48.9939 108.454 49.1019 108.638 49.3034C108.822 49.5049 108.939 49.7853 108.967 50.0898C109.011 51.0227 109.011 51.9581 108.967 52.891C108.947 53.2065 108.829 53.4994 108.639 53.7065C108.449 53.9135 108.202 54.0181 107.951 53.9974C107.7 53.9867 107.463 53.855 107.288 53.6299C107.113 53.4047 107.013 53.1033 107.01 52.7883C106.988 52.3494 107.01 51.9083 107.01 51.4671L107.017 51.4624Z" fill="white"/>
<path d="M147.993 51.5547C147.993 51.945 148.009 52.3353 147.993 52.7233C147.955 53.5016 147.53 54.0204 146.969 53.9994C146.84 53.9961 146.712 53.9603 146.594 53.8942C146.475 53.8281 146.369 53.733 146.28 53.6144C146.191 53.4957 146.122 53.356 146.077 53.2034C146.031 53.0508 146.011 52.8884 146.016 52.7256C145.996 51.8959 145.994 51.0639 146.016 50.2342C146.014 50.0714 146.038 49.9096 146.086 49.7586C146.135 49.6076 146.207 49.4704 146.298 49.3553C146.39 49.2401 146.499 49.1493 146.619 49.0883C146.739 49.0273 146.867 48.9973 146.997 49.0002C147.126 48.9986 147.255 49.0293 147.375 49.0905C147.495 49.1516 147.604 49.242 147.696 49.3565C147.789 49.471 147.862 49.6072 147.912 49.7575C147.962 49.9077 147.988 50.0689 147.989 50.2319C148.011 50.6713 147.993 51.113 147.993 51.5547Z" fill="white"/>
<path d="M134.011 50.0226C134.367 50.0226 134.723 49.9864 135.078 50.0226C135.332 50.0407 135.571 50.2066 135.744 50.4846C135.916 50.7626 136.008 51.1302 135.999 51.508C135.969 52.3425 135.655 52.8988 135.113 52.9489C134.383 53.017 133.651 53.017 132.921 52.9489C132.666 52.9323 132.426 52.7662 132.254 52.4872C132.081 52.2082 131.99 51.8391 132.001 51.4607C132.002 51.0862 132.1 50.7268 132.274 50.4559C132.449 50.1849 132.686 50.023 132.938 50.0031C132.98 49.999 133.021 49.999 133.063 50.0031H134L134.011 50.0226Z" fill="white"/>
<defs>
<filter id="filter0_d_21_139" x="0" y="0" width="268" height="216" filterUnits="userSpaceOnUse" color-interpolation-filters="sRGB">
<feFlood flood-opacity="0" result="BackgroundImageFix"/>
<feColorMatrix in="SourceAlpha" type="matrix" values="0 0 0 0 0 0 0 0 0 0 0 0 0 0 0 0 0 0 127 0" result="hardAlpha"/>
<feOffset dy="2"/>
<feGaussianBlur stdDeviation="4"/>
<feComposite in2="hardAlpha" operator="out"/>
<feColorMatrix type="matrix" values="0 0 0 0 0 0 0 0 0 0 0 0 0 0 0 0 0 0 0.25 0"/>
<feBlend mode="normal" in2="BackgroundImageFix" result="effect1_dropShadow_21_139"/>
<feBlend mode="normal" in="SourceGraphic" in2="effect1_dropShadow_21_139" result="shape"/>
</filter>
</defs>
</svg>
