<svg width="268" height="216" viewBox="0 0 268 216" fill="none" xmlns="http://www.w3.org/2000/svg">
<g filter="url(#filter0_d_21_102)">
<rect x="8" y="6" width="252" height="200" rx="5" fill="#FF7D04"/>
</g>
<line x1="8" y1="177.5" x2="58" y2="177.5" stroke="white"/>
<line x1="210" y1="177.5" x2="260" y2="177.5" stroke="white"/>
<path d="M100.632 140.108C99.684 140.108 98.808 139.952 98.004 139.64C97.2 139.316 96.504 138.866 95.916 138.29C95.328 137.714 94.866 137.036 94.53 136.256C94.206 135.476 94.044 134.624 94.044 133.7C94.044 132.776 94.206 131.924 94.53 131.144C94.866 130.364 95.328 129.686 95.916 129.11C96.516 128.534 97.218 128.09 98.022 127.778C98.826 127.454 99.702 127.292 100.65 127.292C101.562 127.292 102.42 127.448 103.224 127.76C104.028 128.06 104.706 128.516 105.258 129.128L104.412 129.974C103.896 129.446 103.326 129.068 102.702 128.84C102.078 128.6 101.406 128.48 100.686 128.48C99.93 128.48 99.228 128.612 98.58 128.876C97.932 129.128 97.368 129.494 96.888 129.974C96.408 130.442 96.03 130.994 95.754 131.63C95.49 132.254 95.358 132.944 95.358 133.7C95.358 134.456 95.49 135.152 95.754 135.788C96.03 136.412 96.408 136.964 96.888 137.444C97.368 137.912 97.932 138.278 98.58 138.542C99.228 138.794 99.93 138.92 100.686 138.92C101.406 138.92 102.078 138.8 102.702 138.56C103.326 138.32 103.896 137.936 104.412 137.408L105.258 138.254C104.706 138.866 104.028 139.328 103.224 139.64C102.42 139.952 101.556 140.108 100.632 140.108ZM107.703 140V130.55H116.199V140H114.921V131.324L115.245 131.666H108.657L108.981 131.324V140H107.703ZM125.7 140V137.912L125.646 137.57V134.078C125.646 133.274 125.418 132.656 124.962 132.224C124.518 131.792 123.852 131.576 122.964 131.576C122.352 131.576 121.77 131.678 121.218 131.882C120.666 132.086 120.198 132.356 119.814 132.692L119.238 131.738C119.718 131.33 120.294 131.018 120.966 130.802C121.638 130.574 122.346 130.46 123.09 130.46C124.314 130.46 125.256 130.766 125.916 131.378C126.588 131.978 126.924 132.896 126.924 134.132V140H125.7ZM122.442 140.09C121.734 140.09 121.116 139.976 120.588 139.748C120.072 139.508 119.676 139.184 119.4 138.776C119.124 138.356 118.986 137.876 118.986 137.336C118.986 136.844 119.1 136.4 119.328 136.004C119.568 135.596 119.952 135.272 120.48 135.032C121.02 134.78 121.74 134.654 122.64 134.654H125.898V135.608H122.676C121.764 135.608 121.128 135.77 120.768 136.094C120.42 136.418 120.246 136.82 120.246 137.3C120.246 137.84 120.456 138.272 120.876 138.596C121.296 138.92 121.884 139.082 122.64 139.082C123.36 139.082 123.978 138.92 124.494 138.596C125.022 138.26 125.406 137.78 125.646 137.156L125.934 138.038C125.694 138.662 125.274 139.16 124.674 139.532C124.086 139.904 123.342 140.09 122.442 140.09ZM128.598 139.982L128.688 138.884C128.772 138.896 128.85 138.914 128.922 138.938C129.006 138.95 129.078 138.956 129.138 138.956C129.522 138.956 129.828 138.812 130.056 138.524C130.296 138.236 130.476 137.852 130.596 137.372C130.716 136.892 130.8 136.352 130.848 135.752C130.896 135.14 130.938 134.528 130.974 133.916L131.136 130.55H138.066V140H136.788V131.288L137.112 131.666H131.964L132.27 131.27L132.126 134.006C132.09 134.822 132.024 135.602 131.928 136.346C131.844 137.09 131.706 137.744 131.514 138.308C131.334 138.872 131.082 139.316 130.758 139.64C130.434 139.952 130.02 140.108 129.516 140.108C129.372 140.108 129.222 140.096 129.066 140.072C128.922 140.048 128.766 140.018 128.598 139.982ZM145.767 133.88C146.955 133.892 147.855 134.156 148.467 134.672C149.091 135.188 149.403 135.932 149.403 136.904C149.403 137.912 149.067 138.686 148.395 139.226C147.735 139.766 146.775 140.03 145.515 140.018L141.699 140V130.55H142.977V133.844L145.767 133.88ZM145.443 139.046C146.319 139.058 146.979 138.884 147.423 138.524C147.879 138.152 148.107 137.612 148.107 136.904C148.107 136.196 147.885 135.68 147.441 135.356C146.997 135.02 146.331 134.846 145.443 134.834L142.977 134.798V139.01L145.443 139.046ZM151.841 140V130.55H153.119V134.726H159.077V130.55H160.355V140H159.077V135.824H153.119V140H151.841ZM163.988 140V130.55H165.266V138.056L171.584 130.55H172.718V140H171.44V132.476L165.14 140H163.988Z" fill="white"/>
<path d="M94.784 184.096C93.9413 184.096 93.1627 183.957 92.448 183.68C91.7333 183.392 91.1147 182.992 90.592 182.48C90.0693 181.968 89.6587 181.365 89.36 180.672C89.072 179.979 88.928 179.221 88.928 178.4C88.928 177.579 89.072 176.821 89.36 176.128C89.6587 175.435 90.0693 174.832 90.592 174.32C91.1253 173.808 91.7493 173.413 92.464 173.136C93.1787 172.848 93.9573 172.704 94.8 172.704C95.6107 172.704 96.3733 172.843 97.088 173.12C97.8027 173.387 98.4053 173.792 98.896 174.336L98.144 175.088C97.6853 174.619 97.1787 174.283 96.624 174.08C96.0693 173.867 95.472 173.76 94.832 173.76C94.16 173.76 93.536 173.877 92.96 174.112C92.384 174.336 91.8827 174.661 91.456 175.088C91.0293 175.504 90.6933 175.995 90.448 176.56C90.2133 177.115 90.096 177.728 90.096 178.4C90.096 179.072 90.2133 179.691 90.448 180.256C90.6933 180.811 91.0293 181.301 91.456 181.728C91.8827 182.144 92.384 182.469 92.96 182.704C93.536 182.928 94.16 183.04 94.832 183.04C95.472 183.04 96.0693 182.933 96.624 182.72C97.1787 182.507 97.6853 182.165 98.144 181.696L98.896 182.448C98.4053 182.992 97.8027 183.403 97.088 183.68C96.3733 183.957 95.6053 184.096 94.784 184.096ZM101.341 184V172.8H102.317L107.437 181.536H106.925L111.997 172.8H112.973V184H111.837V174.576H112.109L107.437 182.576H106.877L102.173 174.576H102.477V184H101.341ZM121.659 184.096C120.817 184.096 120.033 183.957 119.307 183.68C118.593 183.392 117.969 182.992 117.435 182.48C116.913 181.957 116.502 181.355 116.203 180.672C115.915 179.979 115.771 179.221 115.771 178.4C115.771 177.579 115.915 176.827 116.203 176.144C116.502 175.451 116.913 174.848 117.435 174.336C117.969 173.813 118.593 173.413 119.307 173.136C120.022 172.848 120.806 172.704 121.659 172.704C122.502 172.704 123.281 172.848 123.995 173.136C124.71 173.413 125.329 173.808 125.851 174.32C126.385 174.832 126.795 175.435 127.083 176.128C127.382 176.821 127.531 177.579 127.531 178.4C127.531 179.221 127.382 179.979 127.083 180.672C126.795 181.365 126.385 181.968 125.851 182.48C125.329 182.992 124.71 183.392 123.995 183.68C123.281 183.957 122.502 184.096 121.659 184.096ZM121.659 183.04C122.331 183.04 122.95 182.928 123.515 182.704C124.091 182.469 124.587 182.144 125.003 181.728C125.43 181.301 125.761 180.811 125.995 180.256C126.23 179.691 126.347 179.072 126.347 178.4C126.347 177.728 126.23 177.115 125.995 176.56C125.761 175.995 125.43 175.504 125.003 175.088C124.587 174.661 124.091 174.336 123.515 174.112C122.95 173.877 122.331 173.76 121.659 173.76C120.987 173.76 120.363 173.877 119.787 174.112C119.211 174.336 118.71 174.661 118.283 175.088C117.867 175.504 117.537 175.995 117.291 176.56C117.057 177.115 116.939 177.728 116.939 178.4C116.939 179.061 117.057 179.675 117.291 180.24C117.537 180.805 117.867 181.301 118.283 181.728C118.71 182.144 119.211 182.469 119.787 182.704C120.363 182.928 120.987 183.04 121.659 183.04ZM132.424 184V173.504L132.745 173.824H128.489V172.8H137.529V173.824H133.289L133.593 173.504V184H132.424ZM139.607 184V172.8H143.799C144.748 172.8 145.564 172.955 146.247 173.264C146.929 173.563 147.452 174 147.815 174.576C148.188 175.141 148.375 175.829 148.375 176.64C148.375 177.429 148.188 178.112 147.815 178.688C147.452 179.253 146.929 179.691 146.247 180C145.564 180.309 144.748 180.464 143.799 180.464H140.263L140.791 179.904V184H139.607ZM140.791 180L140.263 179.424H143.767C144.887 179.424 145.735 179.184 146.311 178.704C146.897 178.213 147.191 177.525 147.191 176.64C147.191 175.744 146.897 175.051 146.311 174.56C145.735 174.069 144.887 173.824 143.767 173.824H140.263L140.791 173.264V180ZM151.85 177.808H157.77V178.816H151.85V177.808ZM151.978 182.976H158.714V184H150.794V172.8H158.474V173.824H151.978V182.976ZM163.565 184V173.504L163.885 173.824H159.629V172.8H168.669V173.824H164.429L164.733 173.504V184H163.565ZM175.435 176.8C176.758 176.8 177.766 177.099 178.459 177.696C179.163 178.283 179.515 179.157 179.515 180.32C179.515 181.525 179.142 182.443 178.395 183.072C177.649 183.691 176.582 184 175.195 184H170.747V172.8H171.915V176.8H175.435ZM175.163 183.056C176.198 183.056 176.982 182.827 177.515 182.368C178.059 181.909 178.331 181.237 178.331 180.352C178.331 179.467 178.065 178.816 177.531 178.4C176.998 177.973 176.209 177.76 175.163 177.76H171.915V183.056H175.163Z" fill="white"/>
<path d="M96.5977 81.3008C96.9355 80.6992 97.4551 80.5196 98.1289 80.5449C99.3418 80.586 100.557 80.5567 101.852 80.5567V77.1289C101.852 75.8848 101.84 74.6387 101.852 73.3946C101.867 71.9863 102.789 71.0606 104.195 71.0508C105.441 71.0365 106.687 71.0365 107.932 71.0508C109.404 71.0625 110.34 71.9981 110.348 73.4922C110.359 75.8106 110.348 78.1289 110.348 80.5059H113.359C113.371 80.2676 113.393 80.0078 113.395 79.75C113.395 77.627 113.395 75.502 113.395 73.3789C113.416 69.166 116.205 66.2266 120.406 66.1758C126.24 66.1035 132.076 66.1543 137.91 66.1602C138.742 66.1602 139.18 66.4942 139.232 67.1231C139.285 67.752 139.008 68.168 138.389 68.2949C138.1 68.3426 137.808 68.359 137.516 68.3438C131.9 68.3438 126.285 68.3438 120.67 68.3438C118.098 68.3438 116.277 69.6895 115.725 71.9551C115.637 72.3349 115.595 72.7236 115.598 73.1133C115.587 77.2643 115.587 81.4147 115.598 85.5645C115.598 85.709 115.621 85.8535 115.639 86.0547H119.285C119.285 85.1739 119.285 84.2969 119.285 83.4356C119.295 81.2442 120.602 79.9199 122.789 79.9199C124.716 79.9108 126.645 79.9108 128.574 79.9199C130.709 79.9336 132.033 81.2735 132.047 83.4063C132.047 84.2793 132.047 85.1524 132.047 86.0703H136.148C136.148 85.2285 136.148 84.3848 136.148 83.541C136.148 81.2188 137.449 79.9219 139.777 79.918C141.585 79.918 143.391 79.918 145.197 79.918C147.641 79.918 148.908 81.1758 148.908 83.5977C148.908 84.4004 148.908 85.2012 148.908 86.0586H152.598V85.2617C152.598 81.3321 152.598 77.4017 152.598 73.4707C152.598 70.2774 150.699 68.3711 147.506 68.3457C145.918 68.334 144.332 68.3574 142.744 68.3457C141.793 68.334 141.182 67.6192 141.572 66.9004C141.754 66.5645 142.256 66.2051 142.621 66.1973C144.67 66.1465 146.723 66.0977 148.77 66.2422C151.895 66.4649 154.629 69.3301 154.744 72.4707C154.84 74.834 154.781 77.2051 154.793 79.5742V80.502H157.838V79.7481C157.838 77.6973 157.838 75.6465 157.838 73.5977C157.838 71.9629 158.75 71.0586 160.377 71.0586C161.574 71.0586 162.77 71.0586 163.967 71.0586C165.414 71.0723 166.332 71.9922 166.34 73.4512C166.354 75.5254 166.34 77.6016 166.34 79.6758V80.5703H170.031C171.275 80.5703 171.594 80.8867 171.594 82.1231V94.7188C171.594 95.9981 171.293 96.291 169.984 96.293H159.977V97.9961C160.668 97.9961 161.344 97.9864 162.02 97.9961C162.883 98.0117 163.264 98.3867 163.27 99.2559C163.28 101.111 163.28 102.967 163.27 104.822C163.27 105.676 162.865 106.068 162.002 106.07C158.438 106.078 154.874 106.078 151.309 106.07C150.514 106.07 150.043 105.631 150.055 104.957C150.066 104.283 150.535 103.881 151.346 103.879C154.299 103.879 157.253 103.879 160.207 103.879H161.035V100.217H107.162V103.859H146.141C147.313 103.859 147.863 104.229 147.84 104.986C147.816 105.744 147.291 106.057 146.158 106.057H106.607C105.176 106.057 104.924 105.799 104.924 104.34C104.924 102.729 104.924 101.118 104.924 99.5059C104.924 98.293 105.232 97.9805 106.422 97.9766C107.008 97.9766 107.594 97.9766 108.225 97.9766V96.2735H107.41C104.285 96.2735 101.16 96.2598 98.0352 96.2832C97.3789 96.2832 96.8984 96.0879 96.5977 95.502V81.3008ZM157.678 97.9571C157.678 95.4766 157.713 93.0742 157.648 90.6543C157.637 90.1934 157.309 89.6875 157.004 89.2989C156.389 88.5176 155.506 88.3047 154.523 88.3067C140.906 88.3184 127.288 88.3184 113.668 88.3067C113.447 88.3067 113.227 88.3067 113.01 88.3223C111.723 88.4395 110.553 89.5117 110.52 90.793C110.461 93.1367 110.51 95.4805 110.52 97.8242C110.52 97.8594 110.574 97.8965 110.623 97.9551L157.678 97.9571ZM98.8438 82.7832V94.0293H108.299C108.299 92.959 108.279 91.9375 108.299 90.9199C108.314 90.2586 108.466 89.6075 108.745 89.008C109.025 88.4085 109.426 87.8737 109.924 87.4375C110.873 86.5567 112.023 86.1446 113.352 86.0899V82.7832H98.8438ZM154.848 86.0449C158.168 86.3164 160.213 88.6895 159.926 92.1524C159.875 92.7735 159.926 93.4004 159.926 94.0254H169.352V82.8086H154.842L154.848 86.0449ZM121.5 86.0625H129.857C129.857 85.0645 129.879 84.1094 129.857 83.1699C129.84 82.5489 129.467 82.1426 128.85 82.1367C126.732 82.112 124.615 82.112 122.498 82.1367C122.368 82.1303 122.238 82.1512 122.117 82.198C121.995 82.2448 121.885 82.3165 121.793 82.4085C121.701 82.5005 121.63 82.6107 121.583 82.7321C121.536 82.8535 121.515 82.9834 121.521 83.1133C121.467 84.0781 121.5 85.0489 121.5 86.0625ZM146.711 86.0742C146.711 85.043 146.744 84.0508 146.699 83.0606C146.672 82.4746 146.26 82.1348 145.674 82.1309C143.58 82.114 141.487 82.114 139.395 82.1309C138.809 82.1309 138.404 82.4942 138.375 83.0762C138.326 84.0625 138.361 85.0547 138.361 86.0742H146.711ZM104.068 80.4981H108.109V73.2949H104.068V80.4981ZM160.104 73.2598V80.5098H164.078V73.2598H160.104Z" fill="white"/>
<path d="M159.307 50.373C159.307 53.0098 159.307 55.6465 159.307 58.2813C159.307 59.8008 158.586 60.5156 157.062 60.5176C153.84 60.5176 150.618 60.5176 147.396 60.5176C145.928 60.5176 145.205 59.793 145.203 58.3066C145.203 52.9863 145.203 47.6654 145.203 42.3438C145.203 40.873 145.943 40.1406 147.41 40.1367C150.656 40.1367 153.902 40.1367 157.148 40.1367C158.557 40.1367 159.297 40.8965 159.307 42.3184C159.313 45.0039 159.307 47.6895 159.307 50.373ZM157.066 42.375H147.396C147.396 43.707 147.426 44.9961 147.383 46.2812C147.363 46.8535 147.547 47.0625 148.104 47.2051C151.379 48.0469 154.275 49.5801 156.633 52.0508C156.742 52.168 156.869 52.2676 157.066 52.4414V42.375ZM147.441 49.3066V58.2813H157.109C157.109 57.4199 157.121 56.5957 157.098 55.7715C157.078 55.5843 156.993 55.4101 156.857 55.2793C155.812 54.2891 154.789 53.2715 153.689 52.3496C151.887 50.834 149.785 49.9004 147.441 49.3066V49.3066Z" fill="white"/>
<path d="M127.045 50.3184C127.045 47.6816 127.045 45.0449 127.045 42.4102C127.045 40.8477 127.766 40.1367 129.33 40.1348C132.527 40.1348 135.724 40.1348 138.922 40.1348C140.402 40.1348 141.145 40.8633 141.146 42.3223C141.146 47.6673 141.146 53.013 141.146 58.3594C141.146 59.7852 140.404 60.5078 138.973 60.5078C135.727 60.5156 132.48 60.5156 129.232 60.5078C127.77 60.5078 127.049 59.7754 127.045 58.293C127.039 55.6406 127.045 52.9785 127.045 50.3184ZM138.914 48.2324C135.885 47.7852 132.914 47.7441 129.961 48.5371C129.428 48.6797 129.219 48.8613 129.227 49.4492C129.262 52.1562 129.24 54.8652 129.244 57.5723C129.244 57.8066 129.266 58.041 129.279 58.2734H138.914V48.2324ZM129.27 46.4922C132.48 45.5156 135.674 45.5918 138.895 45.998V42.377H129.27V46.4922Z" fill="white"/>
<path d="M111.08 53.2383C113.233 53.1316 115.344 52.6006 117.291 51.6758C118.334 51.2012 119.35 50.6699 120.363 50.1367C120.545 50.0391 120.777 49.8066 120.779 49.6367C120.807 47.2266 120.797 44.8164 120.797 42.3691H111.086C111.086 43.5273 111.086 44.666 111.086 45.8047C111.102 46.0723 111.083 46.3408 111.029 46.6035C110.879 47.168 110.475 47.4805 109.895 47.4277C109.314 47.375 108.918 47.0371 108.918 46.4336C108.891 44.8965 108.873 43.3574 108.932 41.8203C108.963 41.3613 109.169 40.9318 109.508 40.6206C109.847 40.3094 110.292 40.1404 110.752 40.1484C114.217 40.1237 117.682 40.1237 121.148 40.1484C122.32 40.1602 123.004 41.0059 123.006 42.3242C123.006 47.6628 123.006 53.0078 123.006 58.3594C123.006 58.4805 123.006 58.6035 122.992 58.7246C122.91 59.7285 122.193 60.4922 121.195 60.498C117.706 60.5228 114.215 60.5228 110.725 60.498C110.485 60.4991 110.247 60.4522 110.025 60.3602C109.803 60.2681 109.602 60.1327 109.434 59.9618C109.265 59.791 109.132 59.5882 109.043 59.3654C108.954 59.1425 108.91 58.9041 108.914 58.6641C108.885 56.0273 108.893 53.3906 108.914 50.7559C108.906 50.615 108.927 50.474 108.976 50.3415C109.024 50.2089 109.098 50.0874 109.195 49.9843C109.291 49.8813 109.407 49.7987 109.536 49.7417C109.665 49.6846 109.804 49.6542 109.945 49.6523C110.092 49.6443 110.238 49.6664 110.375 49.7174C110.512 49.7683 110.638 49.847 110.743 49.9485C110.849 50.05 110.932 50.1722 110.989 50.3074C111.045 50.4426 111.073 50.588 111.07 50.7344C111.107 51.5371 111.08 52.3398 111.08 53.2383ZM120.746 58.2832V52.3906C117.689 54.0957 114.562 55.3027 111.123 55.4648V58.2832H120.746Z" fill="white"/>
<path d="M134.098 76.1982C132.83 76.1982 131.559 76.1982 130.291 76.1982C129.402 76.1982 128.949 75.8076 128.947 75.1025C128.945 74.3975 129.393 74.0127 130.289 74.0088C132.828 73.9971 135.367 73.9971 137.906 74.0088C138.801 74.0088 139.252 74.3994 139.252 75.1006C139.252 75.8018 138.795 76.1885 137.908 76.1982C136.635 76.2139 135.367 76.1982 134.098 76.1982Z" fill="white"/>
<path d="M106.121 86.2119C106.484 86.2119 106.852 86.1943 107.215 86.2119C107.35 86.2088 107.485 86.2328 107.611 86.2826C107.736 86.3324 107.851 86.407 107.948 86.5018C108.044 86.5967 108.121 86.71 108.172 86.835C108.224 86.96 108.251 87.0941 108.25 87.2295C108.289 87.8428 107.936 88.2978 107.334 88.3545C106.511 88.4297 105.683 88.4297 104.859 88.3545C104.273 88.3017 103.9 87.8681 103.934 87.2412C103.967 86.6142 104.324 86.2646 104.953 86.2119C105.34 86.1885 105.732 86.2119 106.121 86.2119Z" fill="white"/>
<path d="M162.104 86.1211C162.467 86.1211 162.834 86.1074 163.197 86.1211C163.822 86.1504 164.203 86.5 164.26 87.1113C164.316 87.7226 163.977 88.1972 163.377 88.2558C162.533 88.3375 161.682 88.3375 160.838 88.2558C160.238 88.1972 159.896 87.7226 159.953 87.1093C160.01 86.4961 160.383 86.1445 161.014 86.1191C161.373 86.1094 161.734 86.1211 162.104 86.1211Z" fill="white"/>
<defs>
<filter id="filter0_d_21_102" x="0" y="0" width="268" height="216" filterUnits="userSpaceOnUse" color-interpolation-filters="sRGB">
<feFlood flood-opacity="0" result="BackgroundImageFix"/>
<feColorMatrix in="SourceAlpha" type="matrix" values="0 0 0 0 0 0 0 0 0 0 0 0 0 0 0 0 0 0 127 0" result="hardAlpha"/>
<feOffset dy="2"/>
<feGaussianBlur stdDeviation="4"/>
<feComposite in2="hardAlpha" operator="out"/>
<feColorMatrix type="matrix" values="0 0 0 0 0 0 0 0 0 0 0 0 0 0 0 0 0 0 0.25 0"/>
<feBlend mode="normal" in2="BackgroundImageFix" result="effect1_dropShadow_21_102"/>
<feBlend mode="normal" in="SourceGraphic" in2="effect1_dropShadow_21_102" result="shape"/>
</filter>
</defs>
</svg>
