<svg width="268" height="216" viewBox="0 0 268 216" fill="none" xmlns="http://www.w3.org/2000/svg">
<g filter="url(#filter0_d_83_215)">
<rect x="8" y="6" width="252" height="200" rx="5" fill="white"/>
</g>
<path d="M110.632 172.108C109.684 172.108 108.808 171.952 108.004 171.64C107.2 171.316 106.504 170.866 105.916 170.29C105.328 169.714 104.866 169.036 104.53 168.256C104.206 167.476 104.044 166.624 104.044 165.7C104.044 164.776 104.206 163.924 104.53 163.144C104.866 162.364 105.328 161.686 105.916 161.11C106.516 160.534 107.218 160.09 108.022 159.778C108.826 159.454 109.702 159.292 110.65 159.292C111.562 159.292 112.42 159.448 113.224 159.76C114.028 160.06 114.706 160.516 115.258 161.128L114.412 161.974C113.896 161.446 113.326 161.068 112.702 160.84C112.078 160.6 111.406 160.48 110.686 160.48C109.93 160.48 109.228 160.612 108.58 160.876C107.932 161.128 107.368 161.494 106.888 161.974C106.408 162.442 106.03 162.994 105.754 163.63C105.49 164.254 105.358 164.944 105.358 165.7C105.358 166.456 105.49 167.152 105.754 167.788C106.03 168.412 106.408 168.964 106.888 169.444C107.368 169.912 107.932 170.278 108.58 170.542C109.228 170.794 109.93 170.92 110.686 170.92C111.406 170.92 112.078 170.8 112.702 170.56C113.326 170.32 113.896 169.936 114.412 169.408L115.258 170.254C114.706 170.866 114.028 171.328 113.224 171.64C112.42 171.952 111.556 172.108 110.632 172.108ZM119.239 172V163.324L119.563 163.666H115.657V162.55H124.099V163.666H120.193L120.517 163.324V172H119.239ZM126.109 175.582C125.665 175.582 125.239 175.51 124.831 175.366C124.435 175.222 124.093 175.006 123.805 174.718L124.399 173.764C124.639 173.992 124.897 174.166 125.173 174.286C125.461 174.418 125.779 174.484 126.127 174.484C126.547 174.484 126.907 174.364 127.207 174.124C127.519 173.896 127.813 173.488 128.089 172.9L128.701 171.514L128.845 171.316L132.733 162.55H133.993L129.259 173.134C128.995 173.746 128.701 174.232 128.377 174.592C128.065 174.952 127.723 175.204 127.351 175.348C126.979 175.504 126.565 175.582 126.109 175.582ZM128.629 172.27L124.273 162.55H125.605L129.457 171.226L128.629 172.27ZM133.852 171.982L133.942 170.884C134.026 170.896 134.104 170.914 134.176 170.938C134.26 170.95 134.332 170.956 134.392 170.956C134.776 170.956 135.082 170.812 135.31 170.524C135.55 170.236 135.73 169.852 135.85 169.372C135.97 168.892 136.054 168.352 136.102 167.752C136.15 167.14 136.192 166.528 136.228 165.916L136.39 162.55H143.32V172H142.042V163.288L142.366 163.666H137.218L137.524 163.27L137.38 166.006C137.344 166.822 137.278 167.602 137.182 168.346C137.098 169.09 136.96 169.744 136.768 170.308C136.588 170.872 136.336 171.316 136.012 171.64C135.688 171.952 135.274 172.108 134.77 172.108C134.626 172.108 134.476 172.096 134.32 172.072C134.176 172.048 134.02 172.018 133.852 171.982ZM151.021 165.88C152.209 165.892 153.109 166.156 153.721 166.672C154.345 167.188 154.657 167.932 154.657 168.904C154.657 169.912 154.321 170.686 153.649 171.226C152.989 171.766 152.029 172.03 150.769 172.018L146.953 172V162.55H148.231V165.844L151.021 165.88ZM150.697 171.046C151.573 171.058 152.233 170.884 152.677 170.524C153.133 170.152 153.361 169.612 153.361 168.904C153.361 168.196 153.139 167.68 152.695 167.356C152.251 167.02 151.585 166.846 150.697 166.834L148.231 166.798V171.01L150.697 171.046ZM162.494 172V168.598L162.728 168.868H159.524C158.312 168.868 157.364 168.604 156.68 168.076C155.996 167.548 155.654 166.78 155.654 165.772C155.654 164.692 156.02 163.888 156.752 163.36C157.484 162.82 158.462 162.55 159.686 162.55H163.664V172H162.494ZM155.582 172L158.174 168.364H159.506L156.968 172H155.582ZM162.494 168.22V163.288L162.728 163.666H159.722C158.846 163.666 158.162 163.834 157.67 164.17C157.19 164.506 156.95 165.052 156.95 165.808C156.95 167.212 157.844 167.914 159.632 167.914H162.728L162.494 168.22Z" fill="#454545"/>
<path d="M141.715 46.5977C142.422 46.7637 143.143 46.8789 143.83 47.1016C148.977 48.7539 152.012 52.2695 152.986 57.5742C153.139 58.4141 153.271 59.2578 153.404 60.1016C153.549 61.0117 153.234 61.584 152.547 61.6895C151.859 61.7949 151.395 61.3594 151.23 60.4629C150.965 59.0254 150.789 57.5605 150.373 56.166C149.739 54.0699 148.456 52.229 146.709 50.908C144.963 49.587 142.842 48.854 140.652 48.8145C136.309 48.7559 131.963 48.7656 127.617 48.8145C125.126 48.8271 122.721 49.7229 120.828 51.3427C118.936 52.9625 117.68 55.2011 117.283 57.6602C116.248 63.8652 115.264 70.0801 114.258 76.291C114.244 76.3809 114.242 76.4727 114.225 76.6582L115.762 76.416C117.129 76.2012 118.496 75.9707 119.883 75.7734C120.805 75.6426 121.34 75.9844 121.422 76.6973C121.504 77.4102 121.031 77.8184 120.127 77.959C118.295 78.2422 116.463 78.5254 114.637 78.8418C113.872 78.9658 113.174 79.3546 112.667 79.9404C112.159 80.5263 111.873 81.2718 111.859 82.0469C111.823 83.2188 111.823 84.3906 111.859 85.5625C111.916 87.3496 113.201 88.6699 114.984 88.832C115.252 88.8555 115.521 88.8594 115.789 88.8594C127.996 88.8594 140.202 88.8594 152.408 88.8594C153.328 88.8594 154.213 88.7734 154.975 88.1855C155.39 87.8843 155.729 87.4903 155.965 87.035C156.202 86.5797 156.329 86.0755 156.336 85.5625C156.365 84.3906 156.369 83.2188 156.336 82.0469C156.293 80.3809 155.262 79.1309 153.602 78.7891C149.008 77.8618 144.351 77.2846 139.67 77.0625C134.987 76.8251 130.294 76.9191 125.625 77.3438C125.455 77.3597 125.284 77.3669 125.113 77.3652C124.408 77.3652 123.965 76.9746 123.941 76.3359C123.918 75.6973 124.318 75.2441 125.012 75.1836C126.35 75.0664 127.687 74.9629 129.027 74.8887C134.978 74.5543 140.947 74.7504 146.863 75.4746C149.16 75.7578 151.443 76.1543 153.834 76.5137C153.676 75.5039 153.523 74.5098 153.361 73.5156C152.943 70.9395 152.514 68.3672 152.105 65.7891C151.957 64.8477 152.26 64.3125 152.943 64.1934C153.627 64.0742 154.127 64.5449 154.281 65.4961C154.916 69.3691 155.543 73.2441 156.193 77.1172C156.246 77.3924 156.383 77.6447 156.584 77.8398C157.705 78.8535 158.398 80.0977 158.482 81.5957C158.587 83.0574 158.587 84.5247 158.482 85.9863C158.234 88.8477 156.113 90.8203 153.229 91.0332L152.18 91.1055C152.375 92.4258 152.557 93.7188 152.752 95.0117C153.76 101.667 154.769 108.322 155.779 114.977C155.992 116.375 156.209 117.771 156.414 119.172C156.609 120.498 155.752 121.543 154.426 121.596C154.059 121.609 153.691 121.609 153.326 121.596C152.389 121.559 151.676 121.074 151.402 120.174C149.937 115.348 148.486 110.518 147.047 105.682C146.993 105.537 146.971 105.383 146.983 105.23C146.994 105.076 147.038 104.927 147.112 104.792C147.186 104.657 147.289 104.54 147.412 104.448C147.536 104.356 147.678 104.292 147.828 104.26C148.439 104.102 148.953 104.426 149.18 105.168C150.211 108.574 151.236 111.982 152.254 115.391C152.654 116.717 153.054 118.044 153.455 119.371H154.236C152.804 109.911 151.372 100.487 149.939 91.0977H144.967C145.529 92.9785 146.068 94.793 146.611 96.6055C146.963 97.7773 147.32 98.9375 147.67 100.104C147.963 101.08 147.734 101.689 146.998 101.887C146.32 102.07 145.844 101.691 145.549 100.715C145.283 99.8281 145.057 98.9258 144.744 98.0566C144.601 97.7104 144.373 97.4056 144.082 97.1699C142.85 96.1289 141.426 95.8672 139.814 95.9043C135.812 96 131.807 95.9707 127.803 95.9141C126.69 95.8766 125.592 96.182 124.658 96.7891C123.955 97.2039 123.444 97.88 123.236 98.6699C121.156 105.701 119.037 112.732 116.926 119.752C116.793 120.169 116.566 120.55 116.263 120.865C115.959 121.18 115.586 121.421 115.174 121.569C114.762 121.716 114.322 121.767 113.887 121.716C113.452 121.666 113.035 121.515 112.668 121.277C112.328 121.076 112.058 120.774 111.895 120.414C111.732 120.054 111.683 119.652 111.756 119.264C112.83 112.15 113.909 105.038 114.994 97.9258C115.301 95.9004 115.613 93.875 115.916 91.8496C115.953 91.6152 115.953 91.375 115.973 91.1152C115.297 91.0547 114.656 91.0605 114.043 90.9316C111.789 90.4453 110.021 88.668 109.781 86.3711C109.607 84.709 109.672 83.0098 109.758 81.334C109.824 80.0469 110.504 78.9902 111.412 78.0781C111.641 77.8413 111.795 77.5425 111.855 77.2188C112.928 70.7734 113.986 64.3281 115.029 57.8828C116.006 51.7754 119.99 47.748 126.076 46.7246C126.167 46.6961 126.253 46.6568 126.334 46.6074L141.715 46.5977ZM118.244 91.0977L113.967 119.303C114.646 119.57 114.787 119.234 114.922 118.783C117.16 111.295 119.406 103.808 121.66 96.3223C122.176 94.6035 122.691 92.8848 123.223 91.0957L118.244 91.0977ZM143.531 93.9941C143.312 93.2559 143.047 92.4492 142.844 91.627C142.727 91.1543 142.486 91.0215 142.021 91.041C141.021 91.0723 140.021 91.0508 139.021 91.0508C134.755 91.0508 130.487 91.0508 126.219 91.0508C125.975 91.0508 125.561 91.1094 125.514 91.2461C125.178 92.1836 124.918 93.1484 124.662 94.0098C125.367 93.9102 126.002 93.7422 126.639 93.7383C131.587 93.7161 136.534 93.7161 141.482 93.7383C142.152 93.7441 142.814 93.9024 143.531 93.9941Z" fill="#454545"/>
<path d="M150.479 86.4941C149.522 86.4941 148.563 86.5078 147.606 86.4941C146.695 86.4766 146.133 85.998 146.121 85.2734C146.11 84.5488 146.68 84.0312 147.57 84.0234C149.487 84.0078 151.403 84.0078 153.319 84.0234C154.156 84.0332 154.699 84.5391 154.711 85.2363C154.723 85.9336 154.182 86.4609 153.344 86.4863C152.391 86.5156 151.438 86.4941 150.479 86.4941Z" fill="#FF7D04"/>
<path d="M142.447 86.4863C142.03 86.5078 141.611 86.5078 141.194 86.4863C140.481 86.4141 140.01 86.0176 140 85.2754C139.99 84.5332 140.453 84.1035 141.172 84.0469C142.037 83.9844 142.905 83.9844 143.77 84.0469C144.436 84.1016 144.856 84.5254 144.865 85.2402C144.875 85.9551 144.459 86.3574 143.797 86.4609C143.35 86.4997 142.901 86.5043 142.453 86.4746L142.447 86.4863Z" fill="#FF7D04"/>
<defs>
<filter id="filter0_d_83_215" x="0" y="0" width="268" height="216" filterUnits="userSpaceOnUse" color-interpolation-filters="sRGB">
<feFlood flood-opacity="0" result="BackgroundImageFix"/>
<feColorMatrix in="SourceAlpha" type="matrix" values="0 0 0 0 0 0 0 0 0 0 0 0 0 0 0 0 0 0 127 0" result="hardAlpha"/>
<feOffset dy="2"/>
<feGaussianBlur stdDeviation="4"/>
<feComposite in2="hardAlpha" operator="out"/>
<feColorMatrix type="matrix" values="0 0 0 0 0 0 0 0 0 0 0 0 0 0 0 0 0 0 0.25 0"/>
<feBlend mode="normal" in2="BackgroundImageFix" result="effect1_dropShadow_83_215"/>
<feBlend mode="normal" in="SourceGraphic" in2="effect1_dropShadow_83_215" result="shape"/>
</filter>
</defs>
</svg>
