<svg width="460" height="96" viewBox="0 0 460 96" fill="none" xmlns="http://www.w3.org/2000/svg">
<g clip-path="url(#clip0_83_822)">
<path d="M185.291 96H147.896C147.968 95.3475 148.034 94.702 148.121 93.8722C147.31 93.7129 146.489 93.6063 145.664 93.553C110.187 93.553 74.7063 93.553 39.2203 93.553C38.488 93.5996 37.7595 93.692 37.0393 93.8296L37.2865 95.9929H0V0.00709965H37.3301L37.0975 1.62424C37.9582 1.77534 38.8272 1.87717 39.7001 1.92922C47.5514 1.92922 55.4051 1.92922 63.2613 1.92922H114.019C124.453 1.92922 134.885 1.92922 145.315 1.92922C146.216 1.92922 147.118 1.76609 148.128 1.66679L147.925 0H185.211C184.484 5.77348 184.891 11.5257 184.877 17.2637C184.819 39.2228 184.819 61.1795 184.877 83.1338C184.884 87.4107 184.426 91.7018 185.291 96ZM67.2015 23.4273C67.1579 23.4273 66.7726 23.4273 66.729 23.4273C65.1514 23.2996 63.9229 23.2854 62.3671 23.2783C54.6903 23.2429 47.0134 23.2783 39.3366 23.2783C37.4464 23.2783 37.1557 23.562 37.1557 25.4487C37.1557 34.2295 37.1557 43.0103 37.1557 51.7911C37.1557 53.2451 37.5337 53.6068 39.0312 53.6068C51.2105 53.6068 63.3873 53.6068 75.5617 53.6068C76.001 53.5833 76.4381 53.5311 76.8703 53.4508L76.972 51.9471C78.426 52.089 79.531 52.3088 80.6069 52.3017C82.8896 52.3017 85.165 52.1457 87.4477 52.0748C87.8071 52.0909 88.1646 52.136 88.5164 52.2095L88.1311 53.4649H93.4889V51.8904C97.5056 52.5429 101.605 52.5429 105.622 51.8904V53.472C106.204 53.5217 106.749 53.6068 107.301 53.6068H123.048C126.537 53.6068 130.019 53.6068 133.502 53.6068C134.563 53.6068 135.217 53.2096 135.195 52.1173C135.115 48.344 135.05 44.5707 134.883 40.769C134.779 40.1894 134.458 39.6684 133.981 39.3079C132.106 37.8326 129.445 38.2652 128.166 41.152L126.537 41.2513C126.915 40.6271 127.199 40.0952 127.54 39.6058C129.627 36.6197 133.283 36.3077 135.537 38.8965C136.035 39.4157 136.408 40.0362 136.631 40.7132C136.853 41.3901 136.919 42.1069 136.824 42.8117C136.475 45.9183 136.693 49.0887 136.722 52.2308C136.722 53.2805 137.449 53.5501 138.438 53.5501C140.997 53.5501 143.527 53.5501 146.115 53.5501C147.867 53.5501 148.201 53.2096 148.201 51.5215C148.201 42.9204 148.201 34.3122 148.201 25.6969C148.199 25.1033 148.109 24.5131 147.932 23.945C147.872 23.7919 147.774 23.6556 147.647 23.548C147.521 23.4404 147.369 23.3648 147.205 23.328C145.998 23.2358 144.784 23.2216 143.57 23.2216C136.155 23.2216 128.747 23.2216 121.332 23.2216C119.878 23.2216 118.468 23.2216 116.643 23.3634C115.189 23.3634 112.463 23.3634 109.962 23.5478C110.064 24.9167 109.919 26.6828 109.962 28.2503H73.8097C73.9036 26.6534 73.9036 25.0525 73.8097 23.4556C71.5633 23.5195 69.3824 23.4273 67.2015 23.4273ZM149.4 1.58168C149.268 2.2136 149.178 2.85332 149.132 3.49672C149.132 19.375 149.132 35.2603 149.132 51.1527C149.18 51.8023 149.279 52.4473 149.43 53.0819C150.102 53.2108 150.782 53.2985 151.465 53.3444C161.526 53.3444 171.588 53.3444 181.649 53.3444C182.314 53.2909 182.975 53.1937 183.626 53.0536C183.766 52.4439 183.861 51.8253 183.91 51.2024C183.91 35.2296 183.91 19.2567 183.91 3.28393C183.91 1.65261 183.568 1.31925 181.925 1.31925C171.777 1.31925 161.628 1.31925 151.48 1.31925C150.777 1.36298 150.077 1.45065 149.386 1.58168H149.4ZM149.4 94.397C150.064 94.5372 150.737 94.632 151.414 94.6807C161.476 94.6807 171.537 94.6807 181.598 94.6807C182.288 94.6245 182.973 94.5226 183.648 94.3758C183.77 93.7857 183.852 93.1887 183.895 92.5884C183.895 81.0462 183.895 69.5063 183.895 57.9688C183.895 56.4439 183.546 56.0963 181.933 56.0963C171.653 56.0963 161.371 56.0963 151.087 56.0963C149.415 56.0963 149.11 56.451 149.11 58.0894C149.11 69.5418 149.11 80.9942 149.11 92.4465C149.159 93.1026 149.256 93.7544 149.4 94.397ZM1.34491 18.4198C1.34491 23.5407 1.34491 28.6617 1.34491 33.7826C1.34491 35.7757 1.62842 36.0452 3.59125 36.0452H33.6371C35.5636 36.0452 35.8689 35.7686 35.8762 33.9174C35.8762 23.7606 35.8762 13.5944 35.8762 3.4187C35.8762 1.61005 35.5563 1.29088 33.7461 1.29088H3.43859C1.66477 1.29088 1.34491 1.58877 1.34491 3.28393V18.4198ZM118.562 91.5599C119.239 91.6943 119.924 91.7867 120.612 91.8366C129.036 91.8366 137.464 91.8366 145.896 91.8366C147.489 91.8366 147.874 91.5032 147.881 89.9712C147.881 79.6347 147.881 69.3006 147.881 58.9689C147.881 57.444 147.474 57.1106 145.896 57.1106C137.507 57.1106 129.123 57.1106 120.743 57.1106C120.01 57.1598 119.281 57.2593 118.562 57.4085V91.5599ZM65.3623 57.4085C64.6857 57.2737 64.0009 57.1813 63.3122 57.1319C55.2331 57.1319 47.1588 57.1319 39.0894 57.1319C37.4973 57.1319 37.1048 57.4581 37.1048 58.9902C37.1048 69.3219 37.1048 79.656 37.1048 89.9925C37.1048 91.5316 37.4973 91.8508 39.0821 91.8508C47.1613 91.8508 55.2379 91.8508 63.3122 91.8508C64.0029 91.7954 64.6882 91.6887 65.3623 91.5316V57.4085ZM67.6159 21.9449C68.4083 21.9945 69.0044 22.0655 69.6078 22.0655H114.593C116.658 22.0655 116.897 21.8314 116.905 19.739C116.905 15.0106 116.905 10.2821 116.905 5.5536C116.905 3.65985 116.599 3.36904 114.724 3.36904H69.4624C67.5795 3.36904 67.2815 3.65985 67.2815 5.5607C67.2815 10.3412 67.2815 15.117 67.2815 19.888C67.3423 20.5876 67.4541 21.282 67.6159 21.9662V21.9449ZM116.636 65.8985C116.585 64.8275 115.727 64.87 114.869 64.87H69.3824C67.6668 64.87 67.3324 65.2034 67.3178 66.9198C67.3178 69.5938 67.3178 72.2607 67.3178 74.9275C67.3178 76.8567 67.6086 77.1192 69.6296 77.1192C84.6246 77.1192 99.6221 77.1192 114.622 77.1192C114.927 77.1192 115.24 77.1192 115.545 77.1192C115.734 77.1347 115.923 77.1095 116.1 77.0455C116.277 76.9816 116.438 76.8803 116.57 76.749C116.703 76.6176 116.804 76.4594 116.867 76.2856C116.93 76.1118 116.953 75.9266 116.934 75.7432C116.934 73.6154 116.97 71.445 116.934 69.2888C116.868 68.154 116.716 67.0262 116.636 65.8985ZM116.919 80.1336C116.199 80.001 115.47 79.911 114.738 79.8641C99.6464 79.8641 84.5592 79.8641 69.4769 79.8641C67.5868 79.8641 67.296 80.1549 67.296 82.0557C67.296 84.5523 67.296 87.049 67.296 89.5456C67.296 91.6025 67.565 91.8578 69.6296 91.8578H113.699C116.919 91.8578 116.919 91.8578 116.927 88.7441L116.919 80.1336ZM118.729 22.0655C128.18 22.1151 137.58 22.0655 146.849 22.0655C147.576 20.1291 147.539 5.17059 146.9 3.62438C146.291 3.50108 145.674 3.42049 145.053 3.38323C136.814 3.38323 128.575 3.38323 120.336 3.38323C118.766 3.38323 118.41 3.73787 118.41 5.28409C118.41 10.1402 118.41 15.0011 118.41 19.8667C118.466 20.6053 118.57 21.3397 118.722 22.0655H118.729ZM38.1734 21.6541C39.8309 22.2853 61.9237 22.2641 65.2677 21.6541C65.4007 21.0535 65.4881 20.4443 65.5295 19.8313C65.5295 15.1028 65.5295 10.3743 65.5295 5.64581C65.4785 4.9703 65.3765 4.29939 65.2241 3.63857C64.6194 3.52011 64.0075 3.43956 63.3922 3.39742C55.5408 3.39742 47.6871 3.39742 39.8309 3.39742C38.2534 3.39742 37.8972 3.74497 37.8972 5.28409C37.8972 10.1497 37.8972 15.0153 37.8972 19.8738C37.9391 20.4732 38.029 21.0684 38.1661 21.6541H38.1734ZM18.6687 81.6656C13.5072 81.6656 8.34567 81.6656 3.18415 81.6656C2.19547 81.6656 1.38125 81.8713 1.36672 83.0203C1.36672 86.3752 1.36672 89.73 1.36672 93.092C1.32953 93.3176 1.34877 93.5487 1.42282 93.7656C1.49687 93.9824 1.62353 94.1786 1.79201 94.3374C1.96049 94.4962 2.1658 94.6129 2.39046 94.6776C2.61513 94.7423 2.85251 94.7532 3.08237 94.7091C13.449 94.7091 23.8157 94.7091 34.1823 94.7091C35.6363 94.7091 36.0579 94.1062 35.7599 92.7586C35.6681 92.3416 35.6266 91.9155 35.6363 91.489C35.709 88.8789 35.8253 86.2617 35.8762 83.687C35.8762 82.0628 35.549 81.7294 33.8915 81.7294L18.6687 81.6656ZM18.705 38.7759C13.5435 38.7759 8.38202 38.7759 3.2205 38.7759C1.76655 38.7759 1.35217 39.1447 1.35217 40.5987C1.35217 47.961 1.35217 55.3232 1.35217 62.6855C1.35217 64.3948 1.70112 64.714 3.43132 64.714H33.7607C35.5636 64.714 35.8907 64.4019 35.8907 62.5862C35.8907 55.2665 35.8907 47.9492 35.8907 40.6342C35.8907 39.0951 35.5345 38.7688 33.9352 38.7617L18.705 38.7759ZM18.487 78.9278H33.8334C35.5127 78.9278 35.8616 78.6157 35.8762 76.9844C35.8762 74.3601 35.8762 71.7358 35.8762 69.1115C35.8762 67.9908 35.3964 67.4518 34.2259 67.4518H2.96606C1.79563 67.4518 1.30855 67.9908 1.31582 69.1115C1.31582 71.7358 1.31582 74.3601 1.31582 76.9844C1.31582 78.6157 1.67204 78.9278 3.35135 78.9278H18.487ZM91.9186 62.1535C99.5519 62.1535 107.18 62.1535 114.804 62.1535C115.349 62.1535 116.338 62.0117 116.367 61.8202C116.62 60.5547 116.701 59.262 116.607 57.9759C116.49 56.8127 115.334 57.1603 114.564 57.1603C99.7918 57.1603 85.0099 57.1603 70.2184 57.1603C67.3105 57.1603 67.1361 57.3021 67.2233 60.2385C67.2669 61.8627 67.5868 62.1748 69.2661 62.1819L91.9186 62.1535ZM108.319 23.7039C106.865 23.7039 77.3646 23.1223 75.867 23.7039C75.867 25.9594 75.758 26.2644 75.867 26.7892C85.2668 26.7892 96.7385 26.7892 106.138 26.7892H108.319C108.366 26.1612 108.366 25.5306 108.319 24.9025C108.356 24.4993 108.366 24.0942 108.348 23.6897L108.319 23.7039Z" fill="white"/>
<path d="M32.9901 44.8828V61.6855C28.6283 60.8343 24.2664 61.3592 19.9409 61.2741C15.6154 61.189 11.3045 61.2315 6.97898 61.2741C6.05498 61.3501 5.13857 61.4972 4.23828 61.7139V45.2162C12.962 45.4928 21.5984 45.2871 30.2494 45.3226C31.1739 45.25 32.0906 45.1029 32.9901 44.8828Z" fill="white"/>
<path d="M4.21643 44.0742V42.2443C9.03627 42.2443 13.8852 42.2443 18.7559 42.2443C23.6266 42.2443 28.2865 42.4642 32.9537 42.0315V44.0813L4.21643 44.0742Z" fill="white"/>
<path d="M20.1663 40.3647C20.1862 40.5604 20.1577 40.7579 20.083 40.9406C20.0084 41.1234 19.8898 41.2859 19.7373 41.4145C19.5848 41.5431 19.4028 41.6341 19.2067 41.6798C19.0106 41.7254 18.8061 41.7244 18.6105 41.6768C17.7018 41.5208 17.7236 40.7406 17.7236 40.2583C17.7236 39.9675 18.5378 39.3575 18.8213 39.4072C19.2212 39.4568 20.1154 39.6767 20.1663 40.3647Z" fill="white"/>
<path d="M90.9517 23.8529C91.1078 23.7927 91.2751 23.7652 91.4427 23.772C91.6104 23.7789 91.7747 23.82 91.925 23.8927C92.0754 23.9653 92.2084 24.068 92.3156 24.194C92.4227 24.3199 92.5016 24.4665 92.5471 24.624C92.5926 24.7816 92.6037 24.9467 92.5797 25.1088C92.5556 25.2708 92.4971 25.4261 92.4077 25.5647C92.3183 25.7032 92.2001 25.8219 92.0608 25.9131C91.9215 26.0043 91.764 26.066 91.5987 26.0942C91.4 26.1179 91.1984 26.096 91.0099 26.0303C90.8597 25.9873 90.7208 25.9131 90.6028 25.8127C90.4849 25.7123 90.3906 25.5881 90.3265 25.4487C90.2568 25.3044 90.2177 25.1478 90.2116 24.9884C90.2054 24.8289 90.2323 24.6699 90.2907 24.5209C90.3491 24.3718 90.4377 24.2358 90.5513 24.121C90.6649 24.0062 90.8011 23.915 90.9517 23.8529Z" fill="white"/>
<path d="M192.593 31.4976H220.057V34.5506H195.722V54.6094L207.791 54.6908C210.388 54.5818 212.984 54.9583 215.437 55.8001C217.425 56.5097 219.233 57.6311 220.735 59.0872C222.119 60.462 223.164 62.1254 223.792 63.9518C224.427 65.7775 224.751 67.6924 224.751 69.6203C224.818 72.7982 224.084 75.9434 222.613 78.7796C221.096 81.5656 219.029 84.0316 216.532 86.0357C213.243 88.8022 209.425 90.9053 205.298 92.2233C201.17 93.5563 196.944 94.577 192.655 95.2764L192.593 31.4976ZM221.101 69.5491C221.161 67.6135 220.773 65.6896 219.964 63.9212C219.259 62.445 218.182 61.167 216.834 60.2067C215.439 59.2376 213.862 58.546 212.193 58.1713C210.29 57.7294 208.339 57.5141 206.383 57.5301H195.722V91.572C198.742 90.9721 201.71 90.1453 204.599 89.099C207.517 88.0599 210.27 86.6244 212.777 84.8348C215.192 83.1016 217.239 80.9277 218.806 78.4335C220.416 75.7566 221.226 72.6928 221.142 69.5898L221.101 69.5491Z" fill="white"/>
<path d="M242.745 91.6533C239.198 91.6533 236.497 90.673 234.64 88.7122C232.685 86.4903 231.687 83.6165 231.855 80.6928V55.342H246.103V57.0518H233.586V67.6765H251.392V69.3862H233.607V80.6928C233.453 83.1538 234.27 85.5791 235.892 87.4706C237.415 89.0854 239.699 89.8927 242.745 89.8927H246.156V91.6533H242.745Z" fill="white"/>
<path d="M254.521 91.6533H252.675L265.609 57.8862L278.554 91.6533H276.697L265.609 62.8322L254.521 91.6533Z" fill="white"/>
<path d="M286.064 31.4976H313.519V34.5506H289.121V54.6094L301.189 54.6908C303.79 54.5818 306.389 54.9583 308.845 55.8001C310.832 56.5075 312.637 57.6293 314.134 59.0872C315.521 60.4594 316.566 62.1236 317.19 63.9518C317.834 65.7758 318.161 67.6914 318.16 69.6203C318.224 72.799 317.486 75.9443 316.012 78.7796C314.495 81.5631 312.432 84.0286 309.941 86.0357C306.648 88.8025 302.826 90.9056 298.696 92.2233C294.573 93.5575 290.349 94.5782 286.064 95.2764V31.4976ZM314.572 69.5491C314.627 67.614 314.239 65.6911 313.435 63.9212C312.726 62.4478 311.65 61.1709 310.306 60.2067C308.914 59.2376 307.34 58.5459 305.674 58.1713C303.768 57.7294 301.814 57.5141 299.854 57.5301H289.121V91.572C292.141 90.9733 295.109 90.1465 297.997 89.099C300.916 88.0622 303.67 86.6265 306.175 84.8348C308.596 83.1047 310.648 80.9303 312.215 78.4335C313.828 75.7568 314.644 72.6942 314.572 69.5898V69.5491Z" fill="white"/>
<path d="M342.068 54.0293C344.528 54.02 346.964 54.505 349.224 55.4541C353.662 57.3018 357.197 60.751 359.091 65.0814C360.055 67.2942 360.552 69.6738 360.552 72.0781C360.552 74.4823 360.055 76.8619 359.091 79.0747C358.142 81.2081 356.791 83.1483 355.107 84.7941C353.42 86.4444 351.422 87.761 349.224 88.6715C346.956 89.6118 344.517 90.0964 342.052 90.0964C339.588 90.0964 337.149 89.6118 334.881 88.6715C330.464 86.8193 326.943 83.3844 325.045 79.0747C324.084 76.8606 323.591 74.4802 323.595 72.076C323.598 69.6717 324.099 67.2928 325.066 65.0814C326.001 62.9345 327.35 60.9826 329.04 59.3315C330.728 57.6926 332.716 56.3774 334.902 55.4541C337.164 54.5016 339.604 54.0165 342.068 54.0293ZM342.068 55.6678C339.828 55.6554 337.609 56.0918 335.549 56.9501C331.506 58.6243 328.289 61.7664 326.578 65.7124C325.706 67.7214 325.256 69.881 325.256 72.0628C325.256 74.2446 325.706 76.4042 326.578 78.4132C328.281 82.3647 331.501 85.5095 335.549 87.1755C337.611 88.0217 339.826 88.4575 342.063 88.4575C344.3 88.4575 346.515 88.0217 348.577 87.1755C350.579 86.3488 352.4 85.1533 353.938 83.6543C355.475 82.1472 356.703 80.3685 357.558 78.4132C358.425 76.403 358.872 74.2439 358.872 72.0628C358.872 69.8817 358.425 67.7226 357.558 65.7124C356.703 63.7603 355.474 61.985 353.938 60.4815C352.4 58.9794 350.58 57.7805 348.577 56.9501C346.52 56.0926 344.305 55.6562 342.068 55.6678Z" fill="white"/>
<path d="M390.175 55.0876C393.712 55.6816 396.945 57.4075 399.365 59.9928C401.652 62.6799 402.834 66.1001 402.682 69.5897C402.733 72.7432 401.999 75.8616 400.544 78.6777C399.036 81.4815 396.968 83.9626 394.463 85.9745C391.174 88.7411 387.355 90.8441 383.228 92.1621C379.101 93.4951 374.874 94.5158 370.586 95.2152V33.5837H373.653V91.5922C376.698 90.9861 379.693 90.1595 382.613 89.1192C385.599 88.0791 388.424 86.6443 391.01 84.8551C393.493 83.1435 395.603 80.9676 397.216 78.4538C398.871 75.7806 399.707 72.7013 399.626 69.5795C399.689 67.634 399.267 65.7026 398.395 63.9517C397.625 62.4623 396.485 61.1852 395.078 60.2371C393.6 59.2721 391.952 58.5821 390.217 58.2017C388.313 57.7663 386.363 57.5511 384.407 57.5605H377.106V54.5787H379.025C380.611 54.5632 382.193 54.4065 383.75 54.1106C385.402 53.8089 387.006 53.292 388.517 52.5739C389.953 51.8957 391.221 50.9197 392.23 49.7141C393.245 48.4512 393.773 46.8809 393.722 45.277C393.772 43.6931 393.328 42.1317 392.449 40.7992C391.6 39.5597 390.482 38.5174 389.174 37.7461C387.789 36.939 386.282 36.3484 384.71 35.9957C383.161 35.6384 381.576 35.454 379.984 35.4461H370.597V32.5151H379.984C381.996 32.5172 383.998 32.7772 385.94 33.2886C387.852 33.7715 389.668 34.5626 391.312 35.6293C392.898 36.6644 394.238 38.0175 395.245 39.5983C396.303 41.3237 396.835 43.3078 396.778 45.3177C396.821 47.4001 396.194 49.4432 394.984 51.1593C393.752 52.8481 392.096 54.2005 390.175 55.0876Z" fill="white"/>
<path d="M430.793 57.8355V90.5238H429.041V64.6439L412.039 89.9743V56.4922H413.791V82.9522L430.793 57.8355Z" fill="white"/>
<path d="M460 31.4976V34.5506H446.972V94.8795H443.905V34.5506H430.877V31.4976H460Z" fill="white"/>
<path d="M459.99 19.5906H192.635V21.626H459.99V19.5906Z" fill="white"/>
<path d="M198.789 7.66326C198.803 7.91357 198.752 8.16337 198.641 8.38936C198.53 8.61534 198.362 8.81019 198.153 8.95575C197.586 9.30236 196.921 9.46283 196.254 9.4137H193.26V3.00224H196.171C196.789 2.97154 197.402 3.12029 197.933 3.42969C198.139 3.56188 198.306 3.74398 198.417 3.9581C198.529 4.17222 198.581 4.41097 198.57 4.6509C198.579 4.97306 198.476 5.28877 198.278 5.54648C198.063 5.80329 197.777 5.99414 197.454 6.09604C197.839 6.14201 198.192 6.32982 198.44 6.62113C198.688 6.91243 198.813 7.28521 198.789 7.66326ZM194.126 5.84162H196.108C196.517 5.86381 196.923 5.76823 197.276 5.56682C197.41 5.47416 197.517 5.34996 197.589 5.20581C197.66 5.06165 197.692 4.90224 197.683 4.74249C197.692 4.5857 197.659 4.4294 197.587 4.28862C197.516 4.14783 197.409 4.02729 197.276 3.93853C196.921 3.74394 196.515 3.65216 196.108 3.67392H194.126V5.84162ZM197.495 8.45706C197.638 8.36648 197.752 8.24034 197.828 8.09176C197.903 7.94319 197.936 7.77764 197.923 7.61239C197.93 7.45101 197.898 7.29024 197.829 7.14336C197.761 6.99648 197.657 6.86772 197.527 6.76772C197.158 6.55633 196.732 6.4604 196.306 6.49292H194.126V8.73186H196.212C196.658 8.76185 197.103 8.66647 197.495 8.45706Z" fill="white"/>
<path d="M205.308 3.57216C205.551 3.81777 205.738 4.11063 205.856 4.43158C205.975 4.75253 206.023 5.09433 205.997 5.43455V9.4137H205.11V8.39601C204.903 8.73884 204.593 9.01214 204.223 9.17965C203.794 9.38043 203.322 9.47813 202.846 9.46461C202.218 9.49943 201.597 9.31551 201.094 8.94557C200.895 8.78223 200.734 8.57822 200.624 8.3479C200.514 8.11758 200.457 7.86653 200.457 7.6124C200.457 7.35826 200.514 7.10722 200.624 6.87689C200.734 6.64657 200.895 6.44257 201.094 6.27922C201.656 5.89344 202.339 5.71326 203.024 5.77038H205.11V5.38365C205.127 5.15295 205.094 4.92137 205.013 4.70395C204.932 4.48654 204.805 4.28817 204.641 4.12172C204.25 3.8048 203.749 3.64793 203.243 3.68412C202.834 3.6846 202.428 3.75342 202.043 3.88764C201.68 4.00597 201.346 4.19659 201.063 4.44739L200.656 3.79605C201.01 3.50948 201.417 3.29183 201.856 3.1549C202.334 3.0023 202.834 2.92667 203.337 2.931C204.055 2.88422 204.763 3.11448 205.308 3.57216ZM204.265 8.45707C204.638 8.21131 204.92 7.85429 205.068 7.43938V6.42168H202.982C201.856 6.42168 201.292 6.80841 201.292 7.57168C201.283 7.74335 201.318 7.91461 201.394 8.06944C201.471 8.22427 201.587 8.35761 201.73 8.45707C202.094 8.69289 202.526 8.80719 202.961 8.78274C203.433 8.8108 203.903 8.69715 204.307 8.45707H204.265Z" fill="white"/>
<path d="M217.627 3.0022V9.42384H208.542V3.0022H209.428V8.66057H212.662V3.0022H213.549V8.66057H216.74V3.0022H217.627Z" fill="white"/>
<path d="M226.139 6.47259H220.631C220.646 6.78025 220.724 7.08189 220.86 7.35978C220.996 7.63767 221.188 7.88618 221.424 8.09072C221.926 8.50694 222.57 8.72476 223.228 8.70134C223.615 8.70515 223.998 8.63245 224.355 8.48763C224.696 8.34601 224.999 8.13016 225.242 7.85664L225.742 8.42654C225.448 8.76791 225.072 9.0335 224.647 9.2C224.127 9.40472 223.568 9.49708 223.008 9.47073C222.448 9.44437 221.9 9.29994 221.403 9.04735C220.891 8.78178 220.468 8.37929 220.183 7.88717C219.886 7.37182 219.735 6.78886 219.745 6.19782C219.738 5.61287 219.881 5.03553 220.162 4.5186C220.429 4.03413 220.83 3.63229 221.32 3.35845C221.822 3.08483 222.387 2.94116 222.962 2.94116C223.538 2.94116 224.103 3.08483 224.605 3.35845C225.082 3.63651 225.475 4.03344 225.742 4.50845C226.021 5.02949 226.161 5.61036 226.149 6.19782L226.139 6.47259ZM221.372 4.27437C220.933 4.68003 220.669 5.23278 220.631 5.82125H225.304C225.266 5.23519 225.005 4.68399 224.574 4.27437C224.139 3.87948 223.562 3.66748 222.968 3.68412C222.675 3.67501 222.383 3.72245 222.109 3.82375C221.835 3.92506 221.585 4.0782 221.372 4.27437Z" fill="white"/>
<path d="M237.321 7.66327C237.335 7.91358 237.284 8.16338 237.173 8.38936C237.062 8.61535 236.894 8.81019 236.684 8.95576C236.117 9.29909 235.452 9.45929 234.786 9.4137H231.792V3.00225H234.692C235.314 2.9695 235.931 3.11833 236.465 3.42969C236.669 3.56331 236.835 3.74569 236.946 3.95947C237.058 4.17325 237.111 4.41128 237.102 4.6509C237.105 4.97229 237.003 5.28632 236.81 5.54648C236.595 5.80329 236.309 5.99414 235.986 6.09604C236.371 6.14201 236.724 6.32983 236.972 6.62113C237.22 6.91244 237.345 7.28521 237.321 7.66327ZM232.658 5.84162H234.63C235.042 5.86584 235.452 5.77019 235.808 5.56682C235.942 5.47417 236.049 5.34997 236.12 5.20581C236.192 5.06165 236.224 4.90224 236.215 4.74249C236.224 4.5857 236.191 4.42941 236.119 4.28862C236.048 4.14783 235.941 4.02729 235.808 3.93854C235.449 3.74311 235.04 3.65134 234.63 3.67393H232.658V5.84162ZM236.027 8.45707C236.168 8.36524 236.28 8.23855 236.354 8.09006C236.427 7.94157 236.458 7.77668 236.444 7.61239C236.453 7.45187 236.423 7.29164 236.356 7.14482C236.288 6.998 236.187 6.86877 236.059 6.76772C235.69 6.55634 235.264 6.4604 234.838 6.49293H232.658V8.73186H234.744C235.19 8.76016 235.635 8.66488 236.027 8.45707Z" fill="white"/>
<path d="M240.575 9.04737C240.07 8.77673 239.651 8.37523 239.365 7.88718C239.068 7.37184 238.917 6.78888 238.927 6.19784C238.917 5.61001 239.068 5.03024 239.365 4.51862C239.651 4.03057 240.07 3.62911 240.575 3.35847C241.102 3.08495 241.689 2.94189 242.286 2.94189C242.882 2.94189 243.47 3.08495 243.996 3.35847C244.5 3.62757 244.916 4.02964 245.196 4.51862C245.485 5.03299 245.632 5.61149 245.624 6.19784C245.632 6.78742 245.485 7.36913 245.196 7.88718C244.916 8.37617 244.5 8.77826 243.996 9.04737C243.472 9.32797 242.884 9.47506 242.286 9.47506C241.688 9.47506 241.099 9.32797 240.575 9.04737ZM243.538 8.39603C243.909 8.18655 244.212 7.87984 244.414 7.51064C244.627 7.10473 244.734 6.65388 244.727 6.19784C244.736 5.74492 244.628 5.29699 244.414 4.89516C244.218 4.52152 243.913 4.21323 243.538 4.00978C243.158 3.79387 242.725 3.68467 242.286 3.69429C241.844 3.68594 241.407 3.79498 241.024 4.00978C240.653 4.21926 240.349 4.52597 240.147 4.89516C239.933 5.29699 239.825 5.74492 239.835 6.19784C239.827 6.65388 239.934 7.10473 240.147 7.51064C240.355 7.87558 240.657 8.1809 241.024 8.39603C241.41 8.60271 241.845 8.70793 242.286 8.70136C242.734 8.71447 243.177 8.60895 243.569 8.39603H243.538Z" fill="white"/>
<path d="M248.763 9.04727C248.258 8.77663 247.84 8.37513 247.553 7.88709C247.257 7.37174 247.105 6.78878 247.115 6.19774C247.105 5.60992 247.257 5.03014 247.553 4.51852C247.84 4.03048 248.258 3.62901 248.763 3.35837C249.29 3.08398 249.877 2.94043 250.474 2.94043C251.071 2.94043 251.658 3.08398 252.185 3.35837C252.688 3.62747 253.104 4.02954 253.384 4.51852C253.673 5.03289 253.82 5.61139 253.812 6.19774C253.82 6.78732 253.673 7.36903 253.384 7.88709C253.104 8.37607 252.688 8.77817 252.185 9.04727C251.66 9.32787 251.072 9.47496 250.474 9.47496C249.876 9.47496 249.288 9.32787 248.763 9.04727ZM251.726 8.39593C252.097 8.18645 252.4 7.87974 252.602 7.51054C252.815 7.10463 252.923 6.65378 252.915 6.19774C252.924 5.74482 252.816 5.2969 252.602 4.89507C252.407 4.52142 252.102 4.21314 251.726 4.00968C251.346 3.79377 250.913 3.68458 250.474 3.6942C250.032 3.68584 249.596 3.79488 249.212 4.00968C248.841 4.21916 248.537 4.52587 248.336 4.89507C248.121 5.2969 248.014 5.74482 248.023 6.19774C248.015 6.65378 248.123 7.10463 248.336 7.51054C248.543 7.87548 248.845 8.18081 249.212 8.39593C249.598 8.60261 250.033 8.70783 250.474 8.70126C250.912 8.7089 251.343 8.60355 251.726 8.39593Z" fill="white"/>
<path d="M260.738 3.54158C261.21 3.80065 261.597 4.18536 261.854 4.65086C262.131 5.15407 262.271 5.71824 262.261 6.28937C262.271 6.86944 262.123 7.44174 261.833 7.94818C261.567 8.42901 261.16 8.82209 260.665 9.07783C260.138 9.35765 259.544 9.49799 258.944 9.48491C258.459 9.50812 257.976 9.41876 257.533 9.22415C257.091 9.02953 256.702 8.73522 256.399 8.36544C255.766 7.47065 255.451 6.39833 255.502 5.31236C255.432 4.20207 255.712 3.09754 256.305 2.14735C256.927 1.36231 257.827 0.832395 258.829 0.661525L261.781 0L261.927 0.793799L259.153 1.41461C258.353 1.53582 257.618 1.91574 257.066 2.49336C256.574 3.15893 256.318 3.96277 256.336 4.78317C256.591 4.30312 256.977 3.90148 257.452 3.62298C257.947 3.33621 258.514 3.18832 259.09 3.19557C259.661 3.16816 260.229 3.28747 260.738 3.54158ZM260.196 8.45703C260.558 8.24777 260.854 7.9449 261.051 7.58182C261.255 7.18753 261.358 6.75126 261.353 6.30971C261.366 5.8771 261.262 5.44886 261.051 5.06812C260.861 4.71132 260.567 4.41742 260.206 4.22345C259.825 4.02242 259.398 3.92075 258.965 3.92831C258.532 3.92212 258.105 4.02371 257.724 4.22345C257.363 4.42098 257.066 4.71372 256.868 5.06812C256.662 5.45066 256.558 5.87764 256.566 6.30971C256.561 6.75126 256.664 7.18753 256.868 7.58182C257.065 7.9449 257.361 8.24777 257.724 8.45703C258.103 8.66247 258.531 8.76773 258.965 8.76235C259.396 8.76882 259.82 8.66343 260.196 8.45703Z" fill="white"/>
<path d="M269.427 3.3482C269.919 3.62051 270.327 4.01794 270.606 4.4982C270.88 5.02665 271.023 5.61058 271.023 6.20282C271.023 6.79507 270.88 7.37903 270.606 7.90748C270.328 8.39148 269.921 8.79254 269.427 9.06763C268.912 9.34148 268.334 9.48165 267.748 9.4747C267.248 9.47982 266.755 9.36818 266.308 9.14907C265.88 8.9299 265.52 8.60312 265.265 8.20259V11.7849H264.379V3.00219H265.234V4.26412C265.481 3.83927 265.842 3.48761 266.277 3.24643C266.735 3.01736 267.244 2.90202 267.758 2.9106C268.344 2.91242 268.919 3.06324 269.427 3.3482ZM268.937 8.43667C269.309 8.22491 269.615 7.91899 269.823 7.55128C270.037 7.14537 270.144 6.69448 270.136 6.23845C270.144 5.78566 270.037 5.33808 269.823 4.9358C269.615 4.56809 269.309 4.26217 268.937 4.05041C268.554 3.84189 268.123 3.73323 267.685 3.73493C267.247 3.73039 266.815 3.83924 266.433 4.05041C266.062 4.25989 265.759 4.56661 265.557 4.9358C265.336 5.33541 265.224 5.78425 265.234 6.23845C265.224 6.69587 265.336 7.14799 265.557 7.55128C265.759 7.92047 266.062 8.22719 266.433 8.43667C266.816 8.64429 267.248 8.74963 267.685 8.74199C268.126 8.73487 268.558 8.61557 268.937 8.39595V8.43667Z" fill="white"/>
<path d="M277.344 3.57208C277.587 3.81769 277.774 4.11056 277.892 4.4315C278.011 4.75245 278.059 5.09425 278.033 5.43447V9.41363H277.177V8.39593C276.974 8.73804 276.668 9.01144 276.301 9.17958C275.868 9.38044 275.393 9.47811 274.914 9.46453C274.286 9.49585 273.666 9.31228 273.161 8.9455C272.953 8.78491 272.785 8.57882 272.673 8.34376C272.561 8.10869 272.506 7.85121 272.515 7.59198C272.505 7.34244 272.554 7.09408 272.659 6.86632C272.764 6.63856 272.922 6.43759 273.12 6.27915C273.683 5.89652 274.365 5.71666 275.049 5.7703H277.136V5.38357C277.153 5.15195 277.119 4.91936 277.037 4.70161C276.954 4.48386 276.824 4.28607 276.656 4.12164C276.27 3.80438 275.772 3.64729 275.268 3.68404C274.86 3.68452 274.454 3.75335 274.069 3.88756C273.685 4.00202 273.33 4.1926 273.026 4.44731L272.629 3.79597C272.984 3.5094 273.391 3.29175 273.829 3.15482C274.304 3.00313 274.8 2.92752 275.3 2.93093C275.667 2.89874 276.037 2.93893 276.389 3.04907C276.74 3.15921 277.065 3.33705 277.344 3.57208ZM276.301 8.45699C276.674 8.21123 276.956 7.85422 277.104 7.4393V6.42161H275.018C273.892 6.42161 273.328 6.80834 273.328 7.5716C273.319 7.74328 273.354 7.91454 273.43 8.06936C273.507 8.22419 273.623 8.35753 273.766 8.45699C274.126 8.69204 274.555 8.80637 274.987 8.78266C275.462 8.81086 275.935 8.69727 276.343 8.45699H276.301Z" fill="white"/>
<path d="M286.367 6.55394H284.938V9.41365H284.051V6.55394H282.622L280.609 9.41365H279.566L281.934 6.10615L279.733 3.0022H280.692L282.622 5.8212H284.051V3.0022H284.938V5.8212H286.367L288.307 3.0022H289.267L287.087 6.12652L289.454 9.42384H288.411L286.367 6.55394Z" fill="white"/>
<path d="M296.641 6.47254H291.144C291.176 7.09143 291.457 7.67297 291.927 8.09067C292.43 8.50516 293.073 8.72275 293.731 8.70129C294.118 8.7051 294.501 8.6324 294.858 8.48758C295.2 8.34858 295.504 8.13232 295.744 7.85659L296.245 8.42649C295.95 8.76786 295.574 9.03345 295.15 9.19995C294.632 9.40448 294.074 9.49676 293.516 9.4704C292.957 9.44404 292.412 9.29969 291.916 9.0473C291.405 8.78174 290.981 8.37925 290.696 7.88712C290.399 7.37177 290.248 6.78881 290.258 6.19777C290.246 5.61227 290.389 5.03371 290.675 4.51856C290.938 4.03447 291.336 3.63244 291.822 3.3584C292.322 3.07337 292.892 2.92894 293.47 2.94114C294.045 2.93082 294.612 3.07519 295.108 3.3584C295.589 3.63203 295.982 4.03005 296.245 4.5084C296.532 5.02674 296.676 5.60889 296.662 6.19777L296.641 6.47254ZM291.874 4.27432C291.439 4.68102 291.178 5.23391 291.144 5.8212H295.859C295.825 5.23391 295.564 4.68102 295.129 4.27432C294.914 4.07784 294.662 3.92458 294.386 3.8233C294.11 3.72202 293.817 3.67473 293.523 3.68407C293.221 3.66807 292.92 3.71216 292.636 3.81364C292.353 3.91513 292.094 4.07187 291.874 4.27432Z" fill="white"/>
<path d="M298.821 3.0022H299.708V5.84157H303.88V3.0022H304.767V9.42384H303.88V6.58446H299.708V9.42384H298.821V3.0022Z" fill="white"/>
<path d="M307.469 3.0022H308.376V8.09066L312.768 3.0022H313.592V9.42384H312.695V4.33537L308.324 9.42384H307.521L307.469 3.0022Z" fill="white"/>
<path d="M322.03 6.47247H316.523C316.538 6.78013 316.615 7.08177 316.752 7.35966C316.888 7.63755 317.079 7.88606 317.315 8.0906C317.814 8.50704 318.454 8.72507 319.11 8.70122C319.496 8.70706 319.88 8.63428 320.236 8.48751C320.582 8.34855 320.889 8.13241 321.133 7.85652L321.623 8.42642C321.346 8.76414 320.988 9.02983 320.58 9.19988C320.121 9.38634 319.628 9.47982 319.13 9.47464C318.504 9.48686 317.886 9.33955 317.336 9.04723C316.825 8.78166 316.401 8.37917 316.116 7.88705C315.819 7.3717 315.668 6.78874 315.678 6.1977C315.666 5.6122 315.81 5.03364 316.095 4.51848C316.363 4.03401 316.764 3.63217 317.253 3.35833C317.753 3.08466 318.317 2.94092 318.891 2.94092C319.464 2.94092 320.028 3.08466 320.528 3.35833C321.011 3.62893 321.405 4.02772 321.665 4.50833C321.952 5.02667 322.096 5.60882 322.082 6.1977L322.03 6.47247ZM317.253 4.27425C316.822 4.68387 316.561 5.23507 316.523 5.82113H321.196C321.158 5.23266 320.894 4.67991 320.455 4.27425C320.013 3.89361 319.444 3.68357 318.854 3.68357C318.264 3.68357 317.695 3.89361 317.253 4.27425Z" fill="white"/>
<path d="M327.152 5.71948H330.427V6.48275H327.152V5.71948Z" fill="white"/>
<path d="M336.143 3.0022H337.03V5.84157H341.202V3.0022H342.089V9.42384H341.202V6.58446H337.03V9.42384H336.143V3.0022Z" fill="white"/>
<path d="M349.057 3.57207C349.299 3.81768 349.486 4.11055 349.605 4.43149C349.723 4.75244 349.771 5.09424 349.745 5.43447V9.41362H348.89V8.39593C348.686 8.73803 348.381 9.01143 348.014 9.17957C347.581 9.38043 347.105 9.4781 346.626 9.46452C345.998 9.49585 345.378 9.31227 344.874 8.94549C344.665 8.78491 344.498 8.57882 344.386 8.34375C344.273 8.10868 344.219 7.8512 344.227 7.59197C344.217 7.34244 344.267 7.09407 344.372 6.86631C344.477 6.63855 344.634 6.43758 344.832 6.27914C345.396 5.89651 346.078 5.71665 346.762 5.77029H348.848V5.38356C348.866 5.15194 348.832 4.91935 348.749 4.7016C348.666 4.48385 348.536 4.28606 348.368 4.12163C347.982 3.80437 347.484 3.64729 346.981 3.68403C346.572 3.68451 346.166 3.75334 345.781 3.88755C345.416 4.00826 345.08 4.19854 344.79 4.4473L344.394 3.79596C344.748 3.5094 345.155 3.29174 345.594 3.15481C346.072 3.00221 346.572 2.92659 347.075 2.93092C347.796 2.88141 348.509 3.11184 349.057 3.57207ZM348.014 8.45698C348.387 8.21122 348.669 7.85421 348.817 7.43929V6.4216H346.731C345.604 6.4216 345.041 6.80833 345.041 7.5716C345.031 7.74327 345.066 7.91453 345.143 8.06936C345.22 8.22418 345.335 8.35752 345.479 8.45698C345.839 8.69203 346.267 8.80636 346.699 8.78265C347.161 8.80263 347.618 8.68934 348.014 8.45698Z" fill="white"/>
<path d="M361.365 3.0022V9.42384H352.28V3.0022H353.167V8.66057H356.358V3.0022H357.255V8.66057H360.437V3.0022H361.365Z" fill="white"/>
<path d="M369.856 6.47245H364.349C364.363 6.78011 364.441 7.08176 364.577 7.35964C364.713 7.63753 364.905 7.88604 365.141 8.09058C365.639 8.50702 366.28 8.72505 366.935 8.7012C367.322 8.70616 367.705 8.63342 368.062 8.4875C368.404 8.34849 368.708 8.13223 368.949 7.8565L369.449 8.42641C369.154 8.76777 368.778 9.03337 368.354 9.19986C367.836 9.4044 367.278 9.49667 366.72 9.47031C366.162 9.44395 365.616 9.2996 365.12 9.04722C364.609 8.78165 364.185 8.37916 363.9 7.88703C363.603 7.37169 363.452 6.78872 363.462 6.19769C363.45 5.61219 363.594 5.03363 363.879 4.51847C364.146 4.0366 364.542 3.63533 365.027 3.35832C365.526 3.07328 366.096 2.92885 366.675 2.94106C367.25 2.9275 367.817 3.0721 368.312 3.35832C368.795 3.62891 369.189 4.0277 369.449 4.50831C369.736 5.02665 369.88 5.60881 369.866 6.19769L369.856 6.47245ZM365.079 4.27423C364.647 4.68386 364.387 5.23506 364.349 5.82112H369.011C368.978 5.23383 368.717 4.68093 368.281 4.27423C367.839 3.8936 367.269 3.68355 366.68 3.68355C366.09 3.68355 365.521 3.8936 365.079 4.27423Z" fill="white"/>
<path d="M381.038 7.66313C381.052 7.91344 381.001 8.16324 380.89 8.38922C380.779 8.61521 380.611 8.81005 380.402 8.95562C379.833 9.29767 379.169 9.45777 378.503 9.41356H375.51V3.00211H378.409C379.028 2.96699 379.643 3.11607 380.172 3.42955C380.378 3.56175 380.544 3.74385 380.656 3.95797C380.768 4.17209 380.82 4.41084 380.808 4.65077C380.818 4.97293 380.715 5.28864 380.516 5.54634C380.304 5.80073 380.022 5.99125 379.703 6.0959C380.087 6.14418 380.438 6.33266 380.686 6.62342C380.934 6.91418 381.06 7.28564 381.038 7.66313ZM376.375 5.84148H378.347C378.755 5.86367 379.162 5.76809 379.515 5.56668C379.649 5.47403 379.756 5.34983 379.827 5.20567C379.898 5.06151 379.931 4.90211 379.922 4.74236C379.93 4.58556 379.897 4.42927 379.826 4.28848C379.755 4.14769 379.648 4.02715 379.515 3.9384C379.161 3.74054 378.754 3.64852 378.347 3.67379H376.375V5.84148ZM379.734 8.45693C379.876 8.36634 379.991 8.2402 380.066 8.09163C380.141 7.94306 380.174 7.77751 380.162 7.61226C380.17 7.45173 380.14 7.29151 380.073 7.14469C380.006 6.99787 379.904 6.86864 379.776 6.76759C379.404 6.55415 378.974 6.45814 378.545 6.49279H376.375V8.73173H378.461C378.904 8.76032 379.345 8.66497 379.734 8.45693Z" fill="white"/>
<path d="M384.313 9.0474C383.81 8.7783 383.394 8.3762 383.114 7.88722C382.817 7.37187 382.666 6.78891 382.676 6.19787C382.666 5.61004 382.817 5.03027 383.114 4.51865C383.394 4.02967 383.81 3.6276 384.313 3.3585C384.842 3.08495 385.431 2.94189 386.029 2.94189C386.627 2.94189 387.217 3.08495 387.745 3.3585C388.248 3.62503 388.661 4.02798 388.934 4.51865C389.231 5.03027 389.382 5.61004 389.372 6.19787C389.382 6.78891 389.231 7.37187 388.934 7.88722C388.661 8.37789 388.248 8.78087 387.745 9.0474C387.219 9.32799 386.629 9.47503 386.029 9.47503C385.43 9.47503 384.839 9.32799 384.313 9.0474ZM387.286 8.39606C387.654 8.18639 387.955 7.87948 388.152 7.51067C388.365 7.10476 388.473 6.65391 388.465 6.19787C388.474 5.74495 388.366 5.29703 388.152 4.8952C387.96 4.52227 387.659 4.21387 387.286 4.00981C386.901 3.80313 386.469 3.69476 386.029 3.69476C385.59 3.69476 385.157 3.80313 384.772 4.00981C384.396 4.21326 384.091 4.52155 383.896 4.8952C383.678 5.2961 383.567 5.74408 383.573 6.19787C383.568 6.65476 383.679 7.10567 383.896 7.51067C384.098 7.87987 384.401 8.18658 384.772 8.39606C385.159 8.59654 385.591 8.70139 386.029 8.70139C386.467 8.70139 386.899 8.59654 387.286 8.39606Z" fill="white"/>
<path d="M397.373 3.0022V9.42384H396.486V3.76547H392.314V9.42384H391.427V3.0022H397.373Z" fill="white"/>
<path d="M405.478 3.00221V9.42385H404.591V3.76548H401.462L401.378 5.35308C401.351 6.38648 401.19 7.41238 400.898 8.40616C400.834 8.70614 400.667 8.97568 400.424 9.17005C400.181 9.36441 399.877 9.47191 399.563 9.47472C399.348 9.46921 399.135 9.43847 398.927 9.38313L398.99 8.63005C399.091 8.66069 399.196 8.6778 399.303 8.68092C399.462 8.68368 399.62 8.64214 399.756 8.56107C399.893 8.48 400.003 8.36276 400.074 8.22298C400.266 7.86559 400.383 7.47473 400.419 7.07298C400.481 6.61502 400.533 6.05529 400.575 5.26149L400.69 2.97168L405.478 3.00221Z" fill="white"/>
<path d="M409.212 9.04727C408.708 8.77817 408.292 8.37607 408.012 7.88709C407.716 7.37174 407.564 6.78878 407.574 6.19774C407.564 5.60992 407.715 5.03014 408.012 4.51852C408.292 4.02954 408.708 3.62747 409.212 3.35837C409.738 3.08398 410.326 2.94043 410.923 2.94043C411.519 2.94043 412.107 3.08398 412.633 3.35837C413.137 3.62747 413.553 4.02954 413.833 4.51852C414.126 5.03095 414.274 5.61079 414.26 6.19774C414.274 6.78791 414.126 7.37094 413.833 7.88709C413.553 8.37607 413.137 8.77817 412.633 9.04727C412.109 9.32787 411.521 9.47496 410.923 9.47496C410.325 9.47496 409.736 9.32787 409.212 9.04727ZM412.185 8.39593C412.551 8.1833 412.85 7.87714 413.05 7.51054C413.264 7.10463 413.371 6.65378 413.363 6.19774C413.372 5.74482 413.265 5.2969 413.05 4.89507C412.856 4.52426 412.555 4.21664 412.185 4.00968C411.801 3.79488 411.365 3.68584 410.923 3.6942C410.483 3.68458 410.05 3.79377 409.671 4.00968C409.295 4.21314 408.99 4.52142 408.795 4.89507C408.572 5.29417 408.46 5.74339 408.471 6.19774C408.462 6.65517 408.573 7.10725 408.795 7.51054C408.996 7.87974 409.3 8.18645 409.671 8.39593C410.053 8.60355 410.485 8.7089 410.923 8.70126C411.363 8.70783 411.798 8.60261 412.185 8.39593Z" fill="white"/>
<path d="M425.442 3.0022V9.42384H416.367V3.0022H417.254V8.66057H420.477V3.0022H421.374V8.66057H424.556V3.0022H425.442ZM426.485 8.66057V10.8283H425.641V9.41365H424.535V8.65038L426.485 8.66057Z" fill="white"/>
<path d="M433.944 6.47247H428.436C428.451 6.78013 428.529 7.08177 428.665 7.35966C428.801 7.63755 428.993 7.88606 429.229 8.0906C429.727 8.50704 430.367 8.72507 431.023 8.70122C431.41 8.70706 431.793 8.63428 432.149 8.48751C432.495 8.34855 432.802 8.13241 433.046 7.85652L433.547 8.42642C433.252 8.76779 432.876 9.03338 432.452 9.19988C431.993 9.38634 431.499 9.47982 431.002 9.47464C430.376 9.48686 429.758 9.33955 429.208 9.04723C428.696 8.78166 428.273 8.37917 427.988 7.88705C427.691 7.3717 427.54 6.78874 427.549 6.1977C427.537 5.6122 427.681 5.03364 427.967 4.51848C428.234 4.03401 428.635 3.63217 429.124 3.35833C429.625 3.08466 430.189 2.94092 430.762 2.94092C431.336 2.94092 431.9 3.08466 432.4 3.35833C432.883 3.63132 433.28 4.02927 433.547 4.50833C433.826 5.02937 433.965 5.61024 433.954 6.1977L433.944 6.47247ZM429.166 4.27425C428.735 4.68387 428.475 5.23507 428.436 5.82113H433.109C433.072 5.23266 432.807 4.67991 432.368 4.27425C431.926 3.89361 431.357 3.68357 430.767 3.68357C430.178 3.68357 429.608 3.89361 429.166 4.27425Z" fill="white"/>
<path d="M436.124 3.0022H437.01V5.84157H441.183V3.0022H442.069V9.42384H441.183V6.58446H437.01V9.42384H436.124V3.0022Z" fill="white"/>
<path d="M444.76 3.0022H445.647V8.09066L450.039 3.0022H450.831V9.42384H449.945V4.33537L445.564 9.42384H444.76V3.0022Z" fill="white"/>
<path d="M459.322 6.47259H453.825C453.838 6.77951 453.915 7.08069 454.049 7.35854C454.183 7.63638 454.373 7.8853 454.607 8.09072C455.109 8.50694 455.753 8.72476 456.412 8.70134C456.798 8.70515 457.181 8.63245 457.538 8.48763C457.881 8.34863 458.185 8.13237 458.425 7.85664L458.926 8.42654C458.631 8.76791 458.255 9.0335 457.83 9.2C457.31 9.40472 456.751 9.49708 456.191 9.47073C455.631 9.44437 455.084 9.29994 454.586 9.04735C454.075 8.78178 453.651 8.37929 453.366 7.88717C453.069 7.37182 452.918 6.78886 452.928 6.19782C452.92 5.61147 453.067 5.03297 453.355 4.5186C453.616 4.03252 454.014 3.62981 454.503 3.35845C455.005 3.08483 455.571 2.94116 456.146 2.94116C456.721 2.94116 457.286 3.08483 457.789 3.35845C458.269 3.63207 458.663 4.0301 458.926 4.50845C459.204 5.02949 459.344 5.61036 459.332 6.19782L459.322 6.47259ZM454.555 4.27437C454.12 4.68107 453.859 5.23396 453.825 5.82125H458.488C458.449 5.23519 458.189 4.68399 457.757 4.27437C457.542 4.07789 457.29 3.92463 457.014 3.82335C456.739 3.72207 456.445 3.67478 456.151 3.68412C455.858 3.67501 455.566 3.72245 455.293 3.82375C455.019 3.92506 454.768 4.0782 454.555 4.27437Z" fill="white"/>
</g>
<defs>
<clipPath id="clip0_83_822">
<rect width="460" height="96" fill="white"/>
</clipPath>
</defs>
</svg>
