<svg width="20" height="20" viewBox="0 0 20 20" fill="none" xmlns="http://www.w3.org/2000/svg">
<g clip-path="url(#clip0_83_739)">
<path d="M10.0019 0C5.81796 0.00425364 2.42793 3.36801 2.42578 7.51734C2.42578 11.5544 9.41309 19.3773 9.70943 19.7059C9.85306 19.8651 10.0996 19.8786 10.26 19.7361C10.2707 19.7266 10.2808 19.7166 10.2904 19.7059C10.5868 19.3734 17.5741 11.5544 17.5741 7.51734C17.5719 3.36951 14.1842 0.00638046 10.0019 0ZM10.0019 18.8591C8.66835 17.3123 3.20561 10.8197 3.20561 7.51347C3.20561 3.79101 6.24838 0.773389 10.0019 0.773389C13.7553 0.773389 16.7981 3.79101 16.7981 7.51347C16.7981 10.8197 11.3354 17.32 10.0019 18.8591Z" fill="#FF7D04"/>
<path d="M10.1381 3.96695C7.8705 3.96908 6.03399 5.79389 6.03613 8.04271C6.03828 10.2915 7.8783 12.1129 10.1459 12.1107C12.4119 12.1086 14.2478 10.2862 14.2478 8.03884C14.2435 5.79026 12.4054 3.96908 10.1381 3.96695ZM10.1381 11.3412C8.30116 11.3412 6.81207 9.86443 6.81207 8.04271C6.81207 6.22099 8.30116 4.74421 10.1381 4.74421C11.975 4.74421 13.464 6.22099 13.464 8.04271C13.4619 9.86356 11.974 11.3391 10.1381 11.3412Z" fill="#FF7D04"/>
</g>
<defs>
<clipPath id="clip0_83_739">
<rect width="20" height="19.8347" fill="white"/>
</clipPath>
</defs>
</svg>
