<svg width="72" height="66" viewBox="0 0 72 66" fill="none" xmlns="http://www.w3.org/2000/svg">
<g clip-path="url(#clip0_1_523)">
<path d="M71.7416 37.8041H57.2944C57.3225 37.5471 57.3478 37.2929 57.3815 36.9661C57.0682 36.9034 56.7511 36.8614 56.4322 36.8405C42.7265 36.8405 29.0189 36.8405 15.3094 36.8405C15.0265 36.8588 14.7451 36.8952 14.4669 36.9494L14.5623 37.8013H0.157288V0.00279579H14.5792L14.4893 0.639613C14.8218 0.699114 15.1576 0.739214 15.4948 0.759712C18.528 0.759712 21.5622 0.759712 24.5973 0.759712H44.2066C48.2378 0.759712 52.2681 0.759712 56.2974 0.759712C56.6457 0.759712 56.9939 0.695473 57.3843 0.656371L57.3057 0H71.7107C71.4299 2.27355 71.5872 4.53872 71.5815 6.79831C71.5591 15.4456 71.5591 24.092 71.5815 32.7375C71.5844 34.4217 71.4074 36.1115 71.7416 37.8041ZM26.1195 9.22547C26.1027 9.22547 25.9538 9.22547 25.937 9.22547C25.3275 9.1752 24.8529 9.16962 24.2518 9.16682C21.286 9.15286 18.3202 9.16682 15.3544 9.16682C14.6241 9.16682 14.5118 9.27854 14.5118 10.0215C14.5118 13.4793 14.5118 16.9371 14.5118 20.3949C14.5118 20.9675 14.6578 21.1099 15.2364 21.1099C19.9417 21.1099 24.646 21.1099 29.3494 21.1099C29.5191 21.1007 29.688 21.0801 29.8549 21.0485L29.8942 20.4564C30.4559 20.5122 30.8828 20.5988 31.2985 20.596C32.1804 20.596 33.0595 20.5346 33.9413 20.5066C34.0802 20.513 34.2183 20.5308 34.3542 20.5597L34.2053 21.0541H36.2753V20.434C37.8271 20.691 39.4109 20.691 40.9627 20.434V21.0569C41.1874 21.0764 41.3981 21.1099 41.6115 21.1099H47.6948C49.0429 21.1099 50.3882 21.1099 51.7335 21.1099C52.1436 21.1099 52.3963 20.9535 52.3879 20.5234C52.357 19.0375 52.3317 17.5516 52.2671 16.0545C52.2272 15.8263 52.103 15.6211 51.9189 15.4791C51.1943 14.8982 50.1663 15.0686 49.672 16.2053L49.0429 16.2444C49.189 15.9986 49.2985 15.7892 49.4305 15.5964C50.2366 14.4206 51.6493 14.2977 52.5199 15.3171C52.7122 15.5216 52.8565 15.7659 52.9425 16.0325C53.0285 16.2991 53.0539 16.5814 53.017 16.8589C52.8822 18.0823 52.9665 19.3308 52.9777 20.5681C52.9777 20.9815 53.2586 21.0876 53.6405 21.0876C54.6291 21.0876 55.6065 21.0876 56.6063 21.0876C57.2832 21.0876 57.4124 20.9535 57.4124 20.2888C57.4124 16.9017 57.4124 13.5119 57.4124 10.1193C57.4118 9.88549 57.3767 9.65307 57.3085 9.42937C57.2853 9.36908 57.2475 9.31538 57.1986 9.27301C57.1496 9.23063 57.0909 9.20088 57.0276 9.18637C56.5614 9.15006 56.0924 9.14448 55.6234 9.14448C52.7586 9.14448 49.8967 9.14448 47.032 9.14448C46.4703 9.14448 45.9254 9.14448 45.2205 9.20034C44.6588 9.20034 43.6056 9.20034 42.6394 9.27296C42.6788 9.81202 42.6226 10.5075 42.6394 11.1248H28.6725C28.7088 10.4959 28.7088 9.8655 28.6725 9.23665C27.8047 9.26179 26.9621 9.22547 26.1195 9.22547ZM57.8758 0.622855C57.8246 0.871699 57.7899 1.12361 57.7719 1.37698C57.7719 7.62971 57.7719 13.8852 57.7719 20.1435C57.7905 20.3994 57.829 20.6534 57.887 20.9033C58.1467 20.954 58.4094 20.9885 58.6734 21.0066C62.5605 21.0066 66.4475 21.0066 70.3345 21.0066C70.5915 20.9855 70.8467 20.9473 71.0985 20.8921C71.1525 20.652 71.1891 20.4084 71.208 20.1631C71.208 13.8731 71.208 7.58316 71.208 1.29319C71.208 0.650784 71.076 0.519509 70.4413 0.519509C66.5205 0.519509 62.5998 0.519509 58.6791 0.519509C58.4075 0.536732 58.1373 0.571253 57.8702 0.622855H57.8758ZM57.8758 37.1728C58.1322 37.228 58.3922 37.2653 58.6538 37.2845C62.5408 37.2845 66.4279 37.2845 70.3149 37.2845C70.5813 37.2624 70.8459 37.2223 71.1069 37.1644C71.1538 36.9321 71.1857 36.697 71.2024 36.4606C71.2024 31.9154 71.2024 27.3711 71.2024 22.8277C71.2024 22.2272 71.0676 22.0903 70.4441 22.0903C66.4728 22.0903 62.5006 22.0903 58.5274 22.0903C57.8814 22.0903 57.7635 22.23 57.7635 22.8752C57.7635 27.385 57.7635 31.8949 57.7635 36.4047C57.7825 36.6631 57.8201 36.9198 57.8758 37.1728V37.1728ZM0.676871 7.25358C0.676871 9.27016 0.676871 11.2868 0.676871 13.3033C0.676871 14.0882 0.786404 14.1943 1.54471 14.1943H13.1525C13.8967 14.1943 14.0147 14.0854 14.0175 13.3564C14.0175 9.35675 14.0175 5.35337 14.0175 1.34626C14.0175 0.634027 13.8939 0.508339 13.1946 0.508339H1.48573C0.800445 0.508339 0.676871 0.625647 0.676871 1.29319V7.25358ZM45.9619 36.0556C46.2234 36.1085 46.4879 36.1449 46.754 36.1645C50.0081 36.1645 53.2642 36.1645 56.5221 36.1645C57.1372 36.1645 57.286 36.0333 57.2888 35.43C57.2888 31.3595 57.2888 27.2901 57.2888 23.2215C57.2888 22.621 57.1316 22.4897 56.5221 22.4897C53.281 22.4897 50.0418 22.4897 46.8045 22.4897C46.5212 22.5091 46.2397 22.5483 45.9619 22.607V36.0556ZM25.409 22.607C25.1476 22.5539 24.883 22.5175 24.617 22.4981C21.4957 22.4981 18.3764 22.4981 15.2589 22.4981C14.6438 22.4981 14.4921 22.6266 14.4921 23.2299C14.4921 27.2984 14.4921 31.3679 14.4921 35.4383C14.4921 36.0444 14.6438 36.1701 15.2561 36.1701C18.3773 36.1701 21.4976 36.1701 24.617 36.1701C24.8838 36.1483 25.1486 36.1063 25.409 36.0444V22.607ZM26.2796 8.64173C26.5858 8.66128 26.8161 8.68921 27.0492 8.68921H44.4285C45.2261 8.68921 45.3188 8.59704 45.3216 7.77308C45.3216 5.91105 45.3216 4.04901 45.3216 2.18697C45.3216 1.44122 45.2036 1.3267 44.479 1.3267H26.993C26.2656 1.3267 26.1504 1.44122 26.1504 2.18976C26.1504 4.07228 26.1504 5.95294 26.1504 7.83174C26.1739 8.10723 26.2171 8.3807 26.2796 8.65011V8.64173ZM45.2177 25.9503C45.198 25.5286 44.8666 25.5453 44.5352 25.5453H26.9621C26.2993 25.5453 26.1701 25.6766 26.1645 26.3525C26.1645 27.4055 26.1645 28.4557 26.1645 29.5059C26.1645 30.2656 26.2768 30.3689 27.0576 30.3689C32.8507 30.3689 38.6447 30.3689 44.4397 30.3689C44.5577 30.3689 44.6784 30.3689 44.7964 30.3689C44.8691 30.375 44.9423 30.3651 45.0107 30.3399C45.0792 30.3147 45.1412 30.2749 45.1924 30.2232C45.2436 30.1714 45.2828 30.1091 45.307 30.0407C45.3313 29.9722 45.3401 29.8993 45.3328 29.8271C45.3328 28.9892 45.3469 28.1345 45.3328 27.2854C45.3076 26.8385 45.2486 26.3944 45.2177 25.9503ZM45.3272 31.556C45.0488 31.5038 44.7674 31.4683 44.4847 31.4498C38.6541 31.4498 32.8254 31.4498 26.9986 31.4498C26.2684 31.4498 26.156 31.5644 26.156 32.3129C26.156 33.2961 26.156 34.2792 26.156 35.2624C26.156 36.0724 26.26 36.1729 27.0576 36.1729H44.083C45.3272 36.1729 45.3272 36.1729 45.33 34.9468L45.3272 31.556ZM46.0265 8.68921C49.6777 8.70876 53.3091 8.68921 56.89 8.68921C57.1709 7.9267 57.1568 2.03614 56.9097 1.42725C56.6745 1.3787 56.4361 1.34696 56.1963 1.33229C53.0133 1.33229 49.8303 1.33229 46.6472 1.33229C46.0406 1.33229 45.903 1.47195 45.903 2.08083C45.903 3.99315 45.903 5.90732 45.903 7.82336C45.9248 8.11423 45.9651 8.40342 46.0237 8.68921H46.0265ZM14.905 8.52721C15.5453 8.77579 24.0805 8.76741 25.3725 8.52721C25.4238 8.29073 25.4576 8.05081 25.4736 7.8094C25.4736 5.94736 25.4736 4.08532 25.4736 2.22328C25.4539 1.95727 25.4145 1.69307 25.3556 1.43284C25.122 1.38619 24.8856 1.35447 24.6479 1.33788C21.6146 1.33788 18.5804 1.33788 15.5453 1.33788C14.9359 1.33788 14.7983 1.47474 14.7983 2.08083C14.7983 3.99687 14.7983 5.91291 14.7983 7.82615C14.8144 8.06218 14.8492 8.29658 14.9022 8.52721H14.905ZM7.36965 32.1593C5.37558 32.1593 3.38151 32.1593 1.38743 32.1593C1.00547 32.1593 0.690914 32.2403 0.685297 32.6928C0.685297 34.0139 0.685297 35.335 0.685297 36.6589C0.67093 36.7478 0.678365 36.8388 0.706973 36.9242C0.73558 37.0095 0.784514 37.0868 0.849603 37.1493C0.914691 37.2119 0.994009 37.2578 1.08081 37.2833C1.1676 37.3088 1.25931 37.3131 1.34811 37.2957C5.35311 37.2957 9.3581 37.2957 13.3631 37.2957C13.9248 37.2957 14.0877 37.0583 13.9726 36.5276C13.9371 36.3634 13.9211 36.1956 13.9248 36.0277C13.9529 34.9998 13.9978 33.9692 14.0175 32.9553C14.0175 32.3157 13.8911 32.1844 13.2508 32.1844L7.36965 32.1593ZM7.38369 15.2697C5.38962 15.2697 3.39555 15.2697 1.40148 15.2697C0.839768 15.2697 0.679678 15.4149 0.679678 15.9875C0.679678 18.8867 0.679678 21.7859 0.679678 24.6851C0.679678 25.3582 0.814489 25.4839 1.48292 25.4839H13.2002C13.8967 25.4839 14.0231 25.361 14.0231 24.646C14.0231 21.7635 14.0231 18.882 14.0231 16.0014C14.0231 15.3953 13.8855 15.2669 13.2676 15.2641L7.38369 15.2697ZM7.29943 31.0812H13.2283C13.8771 31.0812 14.0119 30.9583 14.0175 30.3159C14.0175 29.2824 14.0175 28.249 14.0175 27.2156C14.0175 26.7743 13.8321 26.562 13.3799 26.562H1.30318C0.851 26.562 0.662826 26.7743 0.665635 27.2156C0.665635 28.249 0.665635 29.2824 0.665635 30.3159C0.665635 30.9583 0.803254 31.0812 1.45203 31.0812H7.29943ZM35.6686 24.4756C38.6176 24.4756 41.5647 24.4756 44.5099 24.4756C44.7206 24.4756 45.1025 24.4197 45.1138 24.3443C45.2116 23.846 45.2428 23.3369 45.2064 22.8305C45.1615 22.3724 44.7149 22.5093 44.4172 22.5093C38.7103 22.5093 32.9995 22.5093 27.2851 22.5093C26.1617 22.5093 26.0943 22.5651 26.128 23.7215C26.1448 24.3611 26.2684 24.484 26.9172 24.4868L35.6686 24.4756ZM42.0047 9.3344C41.443 9.3344 30.0459 9.10537 29.4673 9.3344C29.4673 10.2226 29.4252 10.3427 29.4673 10.5494C33.0988 10.5494 37.5307 10.5494 41.1621 10.5494H42.0047C42.0229 10.3021 42.0229 10.0538 42.0047 9.80643C42.0191 9.64765 42.0229 9.4881 42.0159 9.32882L42.0047 9.3344Z" fill="#454545"/>
<path d="M12.9025 17.6744V24.2912C11.2174 23.956 9.53224 24.1627 7.86115 24.1292C6.19006 24.0957 4.52459 24.1124 2.8535 24.1292C2.49653 24.1591 2.14249 24.217 1.79468 24.3024V17.8057C5.16494 17.9146 8.5015 17.8336 11.8437 17.8476C12.2008 17.8191 12.555 17.7611 12.9025 17.6744V17.6744Z" fill="#454545"/>
<path d="M1.78625 17.356V16.6354C3.64832 16.6354 5.52163 16.6354 7.40336 16.6354C9.28508 16.6354 11.0854 16.722 12.8885 16.5516V17.3588L1.78625 17.356Z" fill="#454545"/>
<path d="M7.94821 15.8953C7.95592 15.9724 7.9449 16.0501 7.91605 16.1221C7.88721 16.194 7.8414 16.258 7.78248 16.3087C7.72356 16.3593 7.65326 16.3952 7.5775 16.4132C7.50174 16.4311 7.42275 16.4307 7.34718 16.412C6.99611 16.3506 7.00453 16.0433 7.00453 15.8534C7.00453 15.7389 7.31909 15.4987 7.42862 15.5182C7.58309 15.5378 7.92855 15.6244 7.94821 15.8953Z" fill="#454545"/>
<path d="M35.2951 9.39308C35.3554 9.36939 35.42 9.35855 35.4848 9.36124C35.5495 9.36394 35.613 9.38013 35.6711 9.40875C35.7292 9.43737 35.7806 9.47779 35.822 9.5274C35.8634 9.57701 35.8938 9.63471 35.9114 9.69676C35.929 9.75881 35.9333 9.82384 35.924 9.88764C35.9147 9.95145 35.8921 10.0126 35.8576 10.0672C35.823 10.1217 35.7774 10.1685 35.7235 10.2044C35.6697 10.2403 35.6089 10.2646 35.545 10.2757C35.4683 10.285 35.3904 10.2764 35.3175 10.2506C35.2595 10.2336 35.2059 10.2044 35.1603 10.1648C35.1147 10.1253 35.0783 10.0764 35.0535 10.0215C35.0266 9.96468 35.0115 9.90302 35.0091 9.84023C35.0067 9.77744 35.0171 9.71482 35.0397 9.65613C35.0623 9.59744 35.0965 9.54388 35.1404 9.49868C35.1843 9.45348 35.2369 9.41756 35.2951 9.39308V9.39308Z" fill="#454545"/>
<path d="M0 48.4958H7.39492V49.3338H0.842565V54.8389L4.09206 54.8612C4.79152 54.8313 5.49028 54.9347 6.15072 55.1657C6.68622 55.3604 7.17296 55.6682 7.57747 56.0678C7.94988 56.4452 8.23126 56.9017 8.40038 57.4029C8.57133 57.904 8.65862 58.4295 8.65876 58.9586C8.67673 59.8308 8.47902 60.694 8.08301 61.4724C7.67452 62.237 7.11805 62.9138 6.44562 63.4639C5.5601 64.2231 4.53202 64.8003 3.42081 65.162C2.30948 65.5279 1.17146 65.808 0.0168506 66L0 48.4958ZM7.67577 58.9391C7.69212 58.4079 7.58747 57.8799 7.36964 57.3945C7.1799 56.9894 6.89003 56.6386 6.52707 56.3751C6.15137 56.1091 5.72669 55.9193 5.27727 55.8165C4.76487 55.6952 4.23959 55.6361 3.7129 55.6405H0.842565V64.9833C1.65566 64.8186 2.45473 64.5917 3.23264 64.3046C4.0183 64.0194 4.75958 63.6254 5.43455 63.1343C6.08483 62.6586 6.63613 62.062 7.05789 61.3774C7.49155 60.6427 7.70949 59.8019 7.687 58.9503L7.67577 58.9391Z" fill="#454545"/>
<path d="M13.5035 65.0057C12.5486 65.0057 11.8212 64.7366 11.3213 64.1985C10.7949 63.5887 10.5261 62.8 10.5714 61.9976V55.04H14.4079V55.5093H11.0376V58.4252H15.8318V58.8945H11.0432V61.9976C11.0017 62.673 11.2218 63.3386 11.6583 63.8577C12.0683 64.3009 12.6834 64.5225 13.5035 64.5225H14.4219V65.0057H13.5035Z" fill="#454545"/>
<path d="M16.6744 65.0057H16.1772L19.6598 55.7383L23.1453 65.0057H22.6453L19.6598 57.0957L16.6744 65.0057Z" fill="#454545"/>
<path d="M25.1674 48.4958H32.5595V49.3338H25.9903V54.8389L29.2398 54.8612C29.9402 54.8313 30.6399 54.9346 31.3013 55.1657C31.8363 55.3598 32.3222 55.6677 32.7252 56.0678C33.0986 56.4444 33.3801 56.9012 33.5481 57.4029C33.7213 57.9035 33.8096 58.4293 33.8093 58.9586C33.8264 59.831 33.6278 60.6943 33.2308 61.4724C32.8224 62.2363 32.267 62.913 31.5962 63.4639C30.7097 64.2232 29.6807 64.8004 28.5686 65.162C27.4583 65.5282 26.3212 65.8083 25.1674 66V48.4958ZM32.8432 58.9391C32.8581 58.408 32.7535 57.8803 32.5371 57.3945C32.3461 56.9901 32.0564 56.6397 31.6945 56.3751C31.3198 56.1091 30.8961 55.9193 30.4475 55.8165C29.9341 55.6952 29.4079 55.6361 28.8803 55.6405H25.9903V64.9833C26.8035 64.819 27.6026 64.5921 28.3804 64.3046C29.1663 64.02 29.9077 63.626 30.5823 63.1343C31.2341 62.6595 31.7865 62.0627 32.2085 61.3774C32.6428 60.6428 32.8626 59.8023 32.8432 58.9503V58.9391Z" fill="#454545"/>
<path d="M40.2465 54.6796C40.9089 54.6771 41.5648 54.8102 42.1732 55.0707C43.3683 55.5778 44.3202 56.5244 44.8301 57.7129C45.0896 58.3202 45.2233 58.9733 45.2233 59.6331C45.2233 60.293 45.0896 60.946 44.8301 61.5533C44.5746 62.1389 44.2107 62.6714 43.7572 63.123C43.3031 63.576 42.7652 63.9373 42.1732 64.1872C41.5625 64.4452 40.9058 64.5782 40.2423 64.5782C39.5788 64.5782 38.9221 64.4452 38.3115 64.1872C37.1221 63.6789 36.1741 62.7361 35.663 61.5533C35.4044 60.9457 35.2716 60.2924 35.2726 59.6325C35.2736 58.9727 35.4082 58.3198 35.6686 57.7129C35.9206 57.1237 36.2838 56.588 36.7387 56.1348C37.1932 55.685 37.7286 55.3241 38.3171 55.0707C38.9262 54.8093 39.5831 54.6761 40.2465 54.6796V54.6796ZM40.2465 55.1293C39.6434 55.1259 39.0459 55.2457 38.4912 55.4812C37.4028 55.9407 36.5366 56.8031 36.0759 57.8861C35.841 58.4374 35.72 59.0301 35.72 59.6289C35.72 60.2277 35.841 60.8204 36.0759 61.3718C36.5344 62.4563 37.4012 63.3194 38.4912 63.7766C39.0465 64.0088 39.6428 64.1285 40.2451 64.1285C40.8475 64.1285 41.4438 64.0088 41.9991 63.7766C42.5383 63.5497 43.0284 63.2216 43.4427 62.8102C43.8564 62.3966 44.1871 61.9084 44.4172 61.3718C44.6508 60.8201 44.7712 60.2275 44.7712 59.6289C44.7712 59.0303 44.6508 58.4378 44.4172 57.8861C44.187 57.3503 43.8563 56.8631 43.4427 56.4504C43.0285 56.0382 42.5384 55.7091 41.9991 55.4812C41.4453 55.2459 40.8488 55.1261 40.2465 55.1293V55.1293Z" fill="#454545"/>
<path d="M53.1996 54.9702C54.1518 55.1332 55.0223 55.6068 55.6739 56.3164C56.2897 57.0539 56.608 57.9926 56.567 58.9503C56.5808 59.8157 56.3832 60.6716 55.9913 61.4445C55.5853 62.214 55.0286 62.8949 54.3539 63.4471C53.4684 64.2064 52.4403 64.7835 51.3291 65.1453C50.2177 65.5111 49.0797 65.7912 47.9251 65.9832V49.0684H48.7508V64.9889C49.5708 64.8225 50.3772 64.5956 51.1634 64.3101C51.9673 64.0247 52.728 63.6309 53.4242 63.1398C54.0928 62.6701 54.6608 62.0729 55.0953 61.383C55.5408 60.6494 55.766 59.8043 55.7441 58.9475C55.7612 58.4135 55.6474 57.8834 55.4127 57.4029C55.2054 56.9942 54.8983 56.6436 54.5196 56.3834C54.1217 56.1186 53.6779 55.9292 53.2108 55.8248C52.6981 55.7053 52.173 55.6463 51.6464 55.6489H49.6805V54.8305H50.1972C50.6244 54.8262 51.0502 54.7832 51.4695 54.702C51.9144 54.6192 52.3461 54.4774 52.753 54.2803C53.1397 54.0941 53.481 53.8263 53.7529 53.4954C54.026 53.1488 54.1682 52.7178 54.1545 52.2776C54.168 51.8429 54.0485 51.4144 53.8118 51.0487C53.5831 50.7085 53.2821 50.4225 52.9299 50.2108C52.5569 49.9893 52.1513 49.8272 51.7279 49.7304C51.3109 49.6323 50.8841 49.5817 50.4556 49.5795H47.9279V48.7751H50.4556C50.9972 48.7757 51.5364 48.8471 52.0593 48.9874C52.574 49.12 53.0629 49.3371 53.5057 49.6298C53.9325 49.9139 54.2935 50.2853 54.5645 50.7191C54.8494 51.1927 54.9926 51.7372 54.9774 52.2888C54.989 52.8603 54.82 53.4211 54.4943 53.892C54.1625 54.3555 53.7167 54.7267 53.1996 54.9702Z" fill="#454545"/>
<path d="M64.1361 55.7243V64.6956H63.6642V57.5928L59.0863 64.5448V55.3556H59.5581V62.6175L64.1361 55.7243Z" fill="#454545"/>
<path d="M72 48.4958V49.3338H68.4921V65.891H67.6664V49.3338H64.1585V48.4958H72Z" fill="#454545"/>
<path d="M71.9972 45.228H0.0112305V46.0213H71.9972V45.228Z" fill="#454545"/>
<path d="M1.66828 41.9545C1.67214 42.0232 1.65845 42.0918 1.62849 42.1538C1.59854 42.2158 1.55329 42.2693 1.49696 42.3092C1.34445 42.4043 1.16531 42.4484 0.985801 42.4349H0.179749V40.6753H0.963332C1.12973 40.6669 1.29491 40.7077 1.43798 40.7926C1.49332 40.8289 1.53822 40.8788 1.56826 40.9376C1.5983 40.9964 1.61244 41.0619 1.6093 41.1278C1.61179 41.2162 1.58407 41.3028 1.53066 41.3735C1.47286 41.444 1.39581 41.4964 1.30879 41.5244C1.41255 41.537 1.50755 41.5885 1.57437 41.6685C1.64119 41.7484 1.67478 41.8507 1.66828 41.9545ZM0.412859 41.4545H0.946482C1.0565 41.4606 1.1659 41.4344 1.26104 41.3791C1.29704 41.3537 1.32597 41.3196 1.34512 41.28C1.36428 41.2405 1.37304 41.1967 1.37058 41.1529C1.37287 41.1099 1.36399 41.067 1.34481 41.0283C1.32563 40.9897 1.29679 40.9566 1.26104 40.9322C1.16525 40.8788 1.05614 40.8536 0.946482 40.8596H0.412859V41.4545ZM1.32002 42.1724C1.35831 42.1475 1.3892 42.1129 1.40945 42.0721C1.42971 42.0313 1.43859 41.9859 1.43517 41.9405C1.43716 41.8962 1.42852 41.8521 1.40996 41.8118C1.3914 41.7715 1.36346 41.7362 1.32844 41.7087C1.22926 41.6507 1.11456 41.6244 0.999845 41.6333H0.412859V42.2478H0.974569C1.0946 42.256 1.21449 42.2298 1.32002 42.1724V42.1724Z" fill="#454545"/>
<path d="M3.4236 40.8317C3.48896 40.8991 3.53925 40.9794 3.57119 41.0675C3.60314 41.1556 3.61601 41.2494 3.60897 41.3428V42.4349H3.37024V42.1556C3.31442 42.2496 3.23116 42.3247 3.13151 42.3706C3.01598 42.4257 2.88886 42.4525 2.76078 42.4488C2.59151 42.4584 2.42431 42.4079 2.28895 42.3064C2.23522 42.2616 2.19201 42.2056 2.16237 42.1424C2.13273 42.0791 2.11737 42.0102 2.11737 41.9405C2.11737 41.8707 2.13273 41.8018 2.16237 41.7386C2.19201 41.6754 2.23522 41.6194 2.28895 41.5746C2.44023 41.4687 2.62421 41.4193 2.80853 41.435H3.37024V41.3288C3.37478 41.2655 3.36587 41.2019 3.3441 41.1423C3.32232 41.0826 3.28817 41.0282 3.24385 40.9825C3.13877 40.8955 3.00386 40.8524 2.86751 40.8624C2.75743 40.8625 2.64819 40.8814 2.54452 40.9182C2.44678 40.9507 2.35688 41.003 2.28052 41.0719L2.17099 40.8931C2.26635 40.8145 2.37599 40.7547 2.49397 40.7171C2.62267 40.6753 2.75738 40.6545 2.89279 40.6557C3.08608 40.6428 3.27671 40.706 3.4236 40.8317V40.8317ZM3.14275 42.1723C3.24326 42.1049 3.31912 42.0069 3.35901 41.893V41.6137H2.7973C2.49397 41.6137 2.34231 41.7198 2.34231 41.9293C2.33973 41.9764 2.3492 42.0234 2.36983 42.0659C2.39045 42.1084 2.42157 42.145 2.46027 42.1723C2.55808 42.237 2.67439 42.2684 2.79168 42.2617C2.91879 42.2694 3.04522 42.2382 3.15398 42.1723H3.14275Z" fill="#454545"/>
<path d="M6.7405 40.6753V42.4377H4.29425V40.6753H4.53298V42.2282H5.40363V40.6753H5.64236V42.2282H6.50177V40.6753H6.7405Z" fill="#454545"/>
<path d="M9.03231 41.6276H7.5494C7.55341 41.7121 7.57436 41.7949 7.61102 41.8711C7.64768 41.9474 7.6993 42.0156 7.76285 42.0717C7.89808 42.186 8.0714 42.2458 8.24872 42.2393C8.35278 42.2404 8.45597 42.2204 8.55205 42.1807C8.64386 42.1418 8.72552 42.0826 8.79078 42.0075L8.92559 42.1639C8.84623 42.2576 8.74497 42.3305 8.63069 42.3762C8.4907 42.4324 8.34013 42.4577 8.18934 42.4505C8.03855 42.4433 7.89113 42.4036 7.75723 42.3343C7.61946 42.2614 7.50547 42.1509 7.42863 42.0159C7.34872 41.8744 7.30801 41.7144 7.31067 41.5522C7.30881 41.3917 7.34743 41.2332 7.42301 41.0914C7.49504 40.9584 7.60302 40.8481 7.73476 40.773C7.86996 40.6979 8.02225 40.6584 8.17711 40.6584C8.33197 40.6584 8.48425 40.6979 8.61945 40.773C8.74786 40.8493 8.85352 40.9582 8.92559 41.0886C9.00053 41.2316 9.03819 41.391 9.03512 41.5522L9.03231 41.6276ZM7.7488 41.0243C7.63073 41.1357 7.55947 41.2874 7.5494 41.4489H8.80763C8.79722 41.288 8.72717 41.1368 8.61103 41.0243C8.49384 40.916 8.33848 40.8578 8.17851 40.8624C8.09968 40.8599 8.02114 40.8729 7.94739 40.9007C7.87365 40.9285 7.80615 40.9705 7.7488 41.0243V41.0243Z" fill="#454545"/>
<path d="M12.0431 41.9545C12.047 42.0232 12.0333 42.0918 12.0033 42.1538C11.9734 42.2158 11.9281 42.2693 11.8718 42.3092C11.7189 42.4035 11.54 42.4474 11.3606 42.4349H10.5546V40.6753H11.3353C11.5027 40.6663 11.6689 40.7072 11.8128 40.7926C11.8678 40.8293 11.9123 40.8793 11.9423 40.938C11.9723 40.9967 11.9867 41.062 11.9841 41.1278C11.9851 41.216 11.9576 41.3022 11.9055 41.3736C11.8477 41.444 11.7706 41.4964 11.6836 41.5244C11.7874 41.537 11.8824 41.5885 11.9492 41.6685C12.016 41.7484 12.0496 41.8508 12.0431 41.9545ZM10.7877 41.4546H11.3185C11.4295 41.4612 11.5399 41.435 11.6359 41.3791C11.6719 41.3537 11.7008 41.3196 11.7199 41.2801C11.7391 41.2405 11.7479 41.1967 11.7454 41.1529C11.7477 41.1099 11.7388 41.067 11.7196 41.0283C11.7004 40.9897 11.6716 40.9566 11.6359 40.9323C11.5391 40.8786 11.4291 40.8534 11.3185 40.8596H10.7877V41.4546ZM11.6948 42.1724C11.7326 42.1472 11.7629 42.1124 11.7827 42.0716C11.8024 42.0309 11.8109 41.9856 11.8072 41.9405C11.8095 41.8965 11.8013 41.8525 11.7832 41.8122C11.7652 41.7719 11.7378 41.7365 11.7033 41.7087C11.6041 41.6507 11.4894 41.6244 11.3747 41.6333H10.7877V42.2478H11.3494C11.4694 42.2556 11.5891 42.2294 11.6948 42.1724V42.1724Z" fill="#454545"/>
<path d="M12.9193 42.3343C12.7833 42.2601 12.6706 42.1499 12.5935 42.0159C12.5136 41.8745 12.4729 41.7145 12.4756 41.5523C12.4729 41.391 12.5136 41.2318 12.5935 41.0914C12.6706 40.9575 12.7833 40.8473 12.9193 40.773C13.0611 40.698 13.2193 40.6587 13.3799 40.6587C13.5406 40.6587 13.6988 40.698 13.8405 40.773C13.9761 40.8469 14.0881 40.9572 14.1635 41.0914C14.2412 41.2326 14.2809 41.3914 14.2787 41.5523C14.2809 41.7141 14.2412 41.8737 14.1635 42.0159C14.0881 42.1501 13.9761 42.2605 13.8405 42.3343C13.6994 42.4114 13.541 42.4517 13.3799 42.4517C13.2189 42.4517 13.0605 42.4114 12.9193 42.3343V42.3343ZM13.717 42.1556C13.8169 42.0981 13.8986 42.0139 13.9529 41.9126C14.0103 41.8012 14.0392 41.6774 14.0371 41.5523C14.0396 41.428 14.0106 41.305 13.9529 41.1948C13.9003 41.0922 13.8182 41.0076 13.717 40.9518C13.6148 40.8925 13.4982 40.8625 13.3799 40.8652C13.2609 40.8629 13.1434 40.8928 13.0401 40.9518C12.9402 41.0093 12.8585 41.0934 12.8042 41.1948C12.7465 41.305 12.7175 41.428 12.7199 41.5523C12.7179 41.6774 12.7468 41.8012 12.8042 41.9126C12.8601 42.0127 12.9414 42.0965 13.0401 42.1556C13.1442 42.2123 13.2613 42.2412 13.3799 42.2394C13.5006 42.243 13.62 42.214 13.7254 42.1556H13.717Z" fill="#454545"/>
<path d="M15.1241 42.3343C14.988 42.2601 14.8753 42.1499 14.7983 42.0159C14.7184 41.8745 14.6776 41.7145 14.6803 41.5523C14.6776 41.391 14.7183 41.2318 14.7983 41.0914C14.8753 40.9575 14.988 40.8473 15.1241 40.773C15.2658 40.6977 15.424 40.6583 15.5847 40.6583C15.7453 40.6583 15.9035 40.6977 16.0453 40.773C16.1809 40.8469 16.2928 40.9572 16.3682 41.0914C16.446 41.2326 16.4856 41.3914 16.4834 41.5523C16.4856 41.7141 16.4459 41.8738 16.3682 42.0159C16.2928 42.1501 16.1809 42.2605 16.0453 42.3343C15.9041 42.4114 15.7457 42.4517 15.5847 42.4517C15.4236 42.4517 15.2652 42.4114 15.1241 42.3343ZM15.9217 42.1556C16.0216 42.0981 16.1033 42.0139 16.1576 41.9126C16.215 41.8012 16.2439 41.6775 16.2419 41.5523C16.2443 41.428 16.2153 41.3051 16.1576 41.1948C16.105 41.0922 16.0229 41.0076 15.9217 40.9518C15.8195 40.8925 15.7029 40.8626 15.5847 40.8652C15.4656 40.8629 15.3481 40.8928 15.2448 40.9518C15.1449 41.0093 15.0632 41.0935 15.0089 41.1948C14.9512 41.3051 14.9222 41.428 14.9246 41.5523C14.9226 41.6775 14.9515 41.8012 15.0089 41.9126C15.0648 42.0128 15.1461 42.0965 15.2448 42.1556C15.3489 42.2123 15.466 42.2412 15.5847 42.2394C15.7025 42.2415 15.8187 42.2126 15.9217 42.1556V42.1556Z" fill="#454545"/>
<path d="M18.3483 40.8233C18.4754 40.8944 18.5797 41 18.6488 41.1277C18.7234 41.2659 18.7611 41.4207 18.7583 41.5774C18.761 41.7366 18.7213 41.8937 18.6432 42.0327C18.5714 42.1647 18.4619 42.2725 18.3286 42.3427C18.1866 42.4195 18.0268 42.458 17.8652 42.4545C17.7347 42.4608 17.6045 42.4363 17.4854 42.3829C17.3662 42.3295 17.2615 42.2487 17.1799 42.1472C17.0095 41.9016 16.9247 41.6073 16.9384 41.3093C16.9195 41.0046 16.995 40.7014 17.1546 40.4407C17.3221 40.2252 17.5645 40.0798 17.8343 40.0329L18.6291 39.8513L18.6684 40.0692L17.9214 40.2396C17.7061 40.2728 17.5082 40.3771 17.3597 40.5356C17.2272 40.7183 17.1582 40.9389 17.1631 41.1641C17.2317 41.0323 17.3357 40.9221 17.4636 40.8456C17.5969 40.7669 17.7495 40.7264 17.9045 40.7283C18.0582 40.7208 18.2113 40.7536 18.3483 40.8233V40.8233ZM18.2022 42.1724C18.2998 42.1149 18.3795 42.0318 18.4325 41.9322C18.4874 41.8239 18.5153 41.7042 18.514 41.583C18.5174 41.4643 18.4893 41.3468 18.4325 41.2423C18.3814 41.1443 18.3022 41.0637 18.205 41.0104C18.1025 40.9553 17.9874 40.9274 17.8708 40.9294C17.7543 40.9277 17.6393 40.9556 17.5366 41.0104C17.4394 41.0647 17.3596 41.145 17.3063 41.2423C17.2508 41.3473 17.2228 41.4644 17.2249 41.583C17.2235 41.7042 17.2514 41.8239 17.3063 41.9322C17.3593 42.0318 17.439 42.1149 17.5366 42.1724C17.6388 42.2287 17.754 42.2576 17.8708 42.2561C17.9868 42.2579 18.1012 42.229 18.2022 42.1724V42.1724Z" fill="#454545"/>
<path d="M20.6878 40.7702C20.8203 40.845 20.93 40.9541 21.0051 41.0859C21.0789 41.2309 21.1174 41.3912 21.1174 41.5537C21.1174 41.7162 21.0789 41.8765 21.0051 42.0215C20.9304 42.1544 20.8207 42.2644 20.6878 42.3399C20.5492 42.4151 20.3935 42.4536 20.2356 42.4517C20.1011 42.4531 19.9682 42.4224 19.848 42.3623C19.7328 42.3021 19.6358 42.2125 19.5672 42.1025V43.0857H19.3284V40.6753H19.5587V41.0216C19.6253 40.905 19.7223 40.8085 19.8396 40.7423C19.9629 40.6794 20.0999 40.6478 20.2384 40.6501C20.3961 40.6506 20.551 40.692 20.6878 40.7702V40.7702ZM20.5558 42.1668C20.6559 42.1087 20.7384 42.0247 20.7945 41.9238C20.8519 41.8124 20.8808 41.6886 20.8787 41.5635C20.8808 41.4392 20.8519 41.3164 20.7945 41.206C20.7384 41.105 20.6559 41.0211 20.5558 40.963C20.4528 40.9057 20.3367 40.8759 20.2187 40.8764C20.1007 40.8751 19.9844 40.905 19.8817 40.963C19.7818 41.0205 19.7001 41.1046 19.6458 41.206C19.5862 41.3156 19.5562 41.4388 19.5587 41.5635C19.5562 41.689 19.5862 41.8131 19.6458 41.9238C19.7001 42.0251 19.7818 42.1093 19.8817 42.1668C19.9847 42.2238 20.1009 42.2527 20.2187 42.2506C20.3375 42.2486 20.4536 42.2159 20.5558 42.1556V42.1668Z" fill="#454545"/>
<path d="M22.8195 40.8316C22.8848 40.899 22.9351 40.9794 22.9671 41.0675C22.999 41.1556 23.0119 41.2494 23.0049 41.3428V42.4348H22.7746V42.1555C22.7197 42.2494 22.6374 42.3245 22.5386 42.3706C22.4221 42.4257 22.2941 42.4525 22.1651 42.4488C21.9959 42.4574 21.8291 42.407 21.6933 42.3064C21.6371 42.2623 21.592 42.2057 21.5618 42.1412C21.5315 42.0767 21.5169 42.006 21.5191 41.9349C21.5165 41.8664 21.5298 41.7982 21.5581 41.7357C21.5863 41.6732 21.6288 41.6181 21.682 41.5746C21.8337 41.4696 22.0174 41.4202 22.2016 41.4349H22.7633V41.3288C22.768 41.2652 22.7589 41.2014 22.7366 41.1416C22.7144 41.0819 22.6794 41.0276 22.6341 40.9825C22.5302 40.8954 22.3961 40.8523 22.2606 40.8624C22.1505 40.8625 22.0413 40.8814 21.9376 40.9182C21.8343 40.9496 21.7387 41.0019 21.6567 41.0718L21.55 40.8931C21.6454 40.8144 21.755 40.7547 21.873 40.7171C22.0008 40.6755 22.1345 40.6547 22.269 40.6557C22.3679 40.6468 22.4676 40.6579 22.5622 40.6881C22.6568 40.7183 22.7443 40.7671 22.8195 40.8316V40.8316ZM22.5386 42.1723C22.6391 42.1048 22.715 42.0069 22.7549 41.893V41.6137H22.1932C21.8899 41.6137 21.7382 41.7198 21.7382 41.9293C21.7356 41.9764 21.7451 42.0234 21.7657 42.0659C21.7863 42.1084 21.8175 42.145 21.8562 42.1723C21.953 42.2368 22.0684 42.2682 22.1848 42.2617C22.3128 42.2694 22.4401 42.2382 22.5499 42.1723H22.5386Z" fill="#454545"/>
<path d="M25.2489 41.6501H24.8641V42.4349H24.6254V41.6501H24.2406L23.6986 42.4349H23.4177L24.0553 41.5272L23.4627 40.6753H23.721L24.2406 41.449H24.6254V40.6753H24.8641V41.449H25.2489L25.7713 40.6753H26.0297L25.4427 41.5328L26.0802 42.4377H25.7994L25.2489 41.6501Z" fill="#454545"/>
<path d="M28.0153 41.6277H26.5352C26.5438 41.7976 26.6195 41.9572 26.7458 42.0718C26.8813 42.1856 27.0545 42.2453 27.2317 42.2394C27.3358 42.2404 27.4389 42.2205 27.535 42.1807C27.6272 42.1426 27.7091 42.0832 27.7737 42.0076L27.9086 42.164C27.8292 42.2577 27.7279 42.3306 27.6137 42.3763C27.4741 42.4324 27.324 42.4577 27.1737 42.4505C27.0234 42.4432 26.8764 42.4036 26.743 42.3344C26.6052 42.2615 26.4913 42.151 26.4144 42.0159C26.3345 41.8745 26.2938 41.7145 26.2965 41.5523C26.2932 41.3916 26.3319 41.2328 26.4088 41.0914C26.4797 40.9586 26.5868 40.8482 26.7177 40.773C26.8522 40.6948 27.0058 40.6552 27.1615 40.6585C27.3163 40.6557 27.4688 40.6953 27.6024 40.773C27.7318 40.8481 27.8378 40.9574 27.9086 41.0887C27.9858 41.2309 28.0245 41.3907 28.0209 41.5523L28.0153 41.6277ZM26.7318 41.0244C26.6145 41.136 26.5442 41.2878 26.5352 41.449H27.8046C27.7956 41.2878 27.7253 41.136 27.608 41.0244C27.5502 40.9705 27.4822 40.9284 27.408 40.9006C27.3338 40.8728 27.2548 40.8599 27.1755 40.8624C27.0944 40.858 27.0132 40.8701 26.9369 40.898C26.8606 40.9258 26.7908 40.9688 26.7318 41.0244V41.0244Z" fill="#454545"/>
<path d="M28.6023 40.6753H28.841V41.4546H29.9644V40.6753H30.2032V42.4377H29.9644V41.6584H28.841V42.4377H28.6023V40.6753Z" fill="#454545"/>
<path d="M30.9305 40.6753H31.1749V42.0718L32.3573 40.6753H32.5792V42.4377H32.3376V41.0412L31.1608 42.4377H30.9446L30.9305 40.6753Z" fill="#454545"/>
<path d="M34.8513 41.6277H33.3684C33.3724 41.7121 33.3934 41.7949 33.43 41.8712C33.4667 41.9474 33.5183 42.0156 33.5819 42.0718C33.716 42.1861 33.8885 42.2459 34.0649 42.2394C34.1691 42.241 34.2724 42.221 34.3683 42.1807C34.4613 42.1426 34.544 42.0833 34.6098 42.0075L34.7418 42.1639C34.6672 42.2566 34.5707 42.3296 34.461 42.3762C34.3373 42.4274 34.2045 42.453 34.0706 42.4516C33.902 42.455 33.7355 42.4146 33.5875 42.3343C33.4497 42.2614 33.3357 42.151 33.2589 42.0159C33.179 41.8745 33.1383 41.7145 33.1409 41.5523C33.1377 41.3916 33.1764 41.2328 33.2533 41.0914C33.3253 40.9584 33.4333 40.8482 33.565 40.773C33.6997 40.6979 33.8515 40.6584 34.006 40.6584C34.1604 40.6584 34.3122 40.6979 34.4469 40.773C34.5769 40.8473 34.6831 40.9567 34.753 41.0886C34.8303 41.2309 34.869 41.3907 34.8654 41.5523L34.8513 41.6277ZM33.565 41.0244C33.4489 41.1368 33.3788 41.2881 33.3684 41.4489H34.6267C34.6166 41.2874 34.5453 41.1357 34.4272 41.0244C34.3082 40.9199 34.1549 40.8623 33.9961 40.8623C33.8374 40.8623 33.6841 40.9199 33.565 41.0244V41.0244Z" fill="#454545"/>
<path d="M36.2303 41.421H37.1122V41.6305H36.2303V41.421Z" fill="#454545"/>
<path d="M38.6512 40.6753H38.89V41.4546H40.0134V40.6753H40.2521V42.4377H40.0134V41.6584H38.89V42.4377H38.6512V40.6753Z" fill="#454545"/>
<path d="M42.1283 40.8317C42.1936 40.8991 42.2439 40.9795 42.2759 41.0676C42.3078 41.1557 42.3207 41.2495 42.3136 41.3428V42.4349H42.0833V42.1556C42.0285 42.2495 41.9462 42.3245 41.8474 42.3707C41.7309 42.4258 41.6029 42.4526 41.4739 42.4489C41.3047 42.4575 41.1378 42.4071 41.002 42.3064C40.9458 42.2624 40.9008 42.2058 40.8706 42.1413C40.8403 42.0768 40.8257 42.0061 40.8279 41.935C40.8253 41.8665 40.8386 41.7983 40.8669 41.7358C40.8951 41.6733 40.9375 41.6181 40.9908 41.5747C41.1425 41.4696 41.3261 41.4203 41.5104 41.435H42.0721V41.3289C42.0768 41.2653 42.0677 41.2015 42.0454 41.1417C42.0231 41.0819 41.9882 41.0277 41.9429 40.9825C41.839 40.8955 41.7049 40.8523 41.5694 40.8624C41.4593 40.8626 41.35 40.8815 41.2464 40.9183C41.1481 40.9514 41.0574 41.0036 40.9796 41.0719L40.8728 40.8932C40.9682 40.8145 41.0778 40.7548 41.1958 40.7172C41.3245 40.6753 41.4592 40.6546 41.5946 40.6557C41.7889 40.6422 41.9807 40.7054 42.1283 40.8317V40.8317ZM41.8474 42.1724C41.9479 42.1049 42.0238 42.0069 42.0637 41.8931V41.6138H41.502C41.1986 41.6138 41.047 41.7199 41.047 41.9294C41.0444 41.9765 41.0539 42.0235 41.0745 42.066C41.0951 42.1085 41.1262 42.1451 41.1649 42.1724C41.2618 42.2369 41.3771 42.2683 41.4935 42.2618C41.6178 42.2672 41.7409 42.2361 41.8474 42.1724Z" fill="#454545"/>
<path d="M45.4423 40.6753V42.4377H42.9961V40.6753H43.2348V42.2282H44.0942V40.6753H44.3358V42.2282H45.1924V40.6753H45.4423Z" fill="#454545"/>
<path d="M47.7285 41.6278H46.2456C46.2496 41.7122 46.2705 41.795 46.3072 41.8712C46.3438 41.9475 46.3955 42.0157 46.459 42.0719C46.5931 42.1861 46.7656 42.246 46.9421 42.2394C47.0462 42.2408 47.1494 42.2208 47.2454 42.1808C47.3376 42.1426 47.4194 42.0833 47.4841 42.0076L47.6189 42.164C47.5396 42.2577 47.4383 42.3306 47.324 42.3763C47.1845 42.4324 47.0344 42.4578 46.8841 42.4505C46.7338 42.4433 46.5868 42.4037 46.4534 42.3344C46.3156 42.2615 46.2016 42.1511 46.1248 42.016C46.0449 41.8746 46.0042 41.7146 46.0068 41.5523C46.0036 41.3917 46.0423 41.2329 46.1192 41.0915C46.1909 40.9592 46.2978 40.8491 46.4281 40.7731C46.5626 40.6949 46.7162 40.6552 46.8719 40.6586C47.0267 40.6548 47.1795 40.6945 47.3128 40.7731C47.4428 40.8473 47.549 40.9568 47.6189 41.0887C47.6962 41.231 47.7349 41.3907 47.7313 41.5523L47.7285 41.6278ZM46.4422 41.0245C46.326 41.1369 46.256 41.2882 46.2456 41.449H47.501C47.4919 41.2878 47.4217 41.1361 47.3044 41.0245C47.1853 40.92 47.032 40.8623 46.8733 40.8623C46.7145 40.8623 46.5612 40.92 46.4422 41.0245V41.0245Z" fill="#454545"/>
<path d="M50.7393 41.9546C50.7431 42.0232 50.7294 42.0918 50.6995 42.1538C50.6695 42.2158 50.6243 42.2693 50.5679 42.3093C50.4149 42.4032 50.2362 42.4471 50.0568 42.435H49.2507V40.6753H50.0315C50.198 40.6657 50.3636 40.7066 50.5062 40.7926C50.5615 40.8289 50.6064 40.8789 50.6364 40.9377C50.6665 40.9964 50.6806 41.062 50.6775 41.1278C50.68 41.2162 50.6523 41.3029 50.5988 41.3736C50.5416 41.4434 50.4656 41.4957 50.3798 41.5244C50.4833 41.5377 50.5779 41.5894 50.6446 41.6692C50.7113 41.749 50.7451 41.8509 50.7393 41.9546V41.9546ZM49.4838 41.4546H50.0147C50.1247 41.4607 50.2341 41.4345 50.3292 41.3792C50.3652 41.3538 50.3941 41.3197 50.4133 41.2801C50.4325 41.2405 50.4412 41.1968 50.4388 41.1529C50.441 41.1099 50.4322 41.067 50.413 41.0284C50.3938 40.9897 50.365 40.9567 50.3292 40.9323C50.2338 40.878 50.1244 40.8527 50.0147 40.8597H49.4838V41.4546ZM50.3882 42.1724C50.4265 42.1475 50.4574 42.1129 50.4776 42.0722C50.4979 42.0314 50.5068 41.9859 50.5034 41.9406C50.5057 41.8965 50.4975 41.8526 50.4794 41.8123C50.4613 41.772 50.4339 41.7365 50.3994 41.7088C50.2995 41.6502 50.1837 41.6238 50.068 41.6334H49.4838V42.2478H50.0456C50.1647 42.2557 50.2835 42.2295 50.3882 42.1724V42.1724Z" fill="#454545"/>
<path d="M51.6212 42.3343C51.4856 42.2605 51.3736 42.1501 51.2982 42.0159C51.2183 41.8745 51.1776 41.7145 51.1802 41.5523C51.1775 41.391 51.2183 41.2318 51.2982 41.0914C51.3736 40.9572 51.4856 40.8469 51.6212 40.773C51.7635 40.698 51.9221 40.6587 52.0832 40.6587C52.2443 40.6587 52.4029 40.698 52.5452 40.773C52.6806 40.8462 52.7918 40.9568 52.8654 41.0914C52.9453 41.2318 52.986 41.391 52.9833 41.5523C52.986 41.7145 52.9453 41.8745 52.8654 42.0159C52.7918 42.1506 52.6806 42.2612 52.5452 42.3343C52.4035 42.4114 52.2446 42.4517 52.0832 42.4517C51.9217 42.4517 51.7629 42.4114 51.6212 42.3343V42.3343ZM52.4216 42.1556C52.5208 42.098 52.6016 42.0138 52.6547 41.9126C52.7121 41.8012 52.7411 41.6775 52.739 41.5523C52.7414 41.428 52.7125 41.3051 52.6547 41.1948C52.6032 41.0924 52.522 41.0078 52.4216 40.9518C52.3179 40.8951 52.2015 40.8653 52.0832 40.8653C51.9649 40.8653 51.8484 40.8951 51.7448 40.9518C51.6435 41.0076 51.5614 41.0922 51.5088 41.1948C51.4501 41.3048 51.4202 41.4278 51.4218 41.5523C51.4206 41.6777 51.4505 41.8014 51.5088 41.9126C51.5631 42.0139 51.6448 42.0981 51.7448 42.1556C51.849 42.2106 51.9652 42.2394 52.0832 42.2394C52.2012 42.2394 52.3174 42.2106 52.4216 42.1556V42.1556Z" fill="#454545"/>
<path d="M55.1375 40.6753V42.4377H54.8988V40.8848H53.7753V42.4377H53.5366V40.6753H55.1375Z" fill="#454545"/>
<path d="M57.3197 40.6752V42.4377H57.081V40.8847H56.2384L56.216 41.3204C56.2087 41.6041 56.1653 41.8856 56.0868 42.1584C56.0695 42.2407 56.0244 42.3147 55.959 42.368C55.8936 42.4214 55.8119 42.4509 55.7273 42.4516C55.6694 42.4501 55.6119 42.4417 55.556 42.4265L55.5728 42.2198C55.6001 42.2282 55.6285 42.2329 55.6571 42.2338C55.7001 42.2345 55.7425 42.2231 55.7793 42.2009C55.8161 42.1786 55.8458 42.1465 55.8649 42.1081C55.9165 42.01 55.948 41.9027 55.9576 41.7925C55.9744 41.6668 55.9885 41.5132 55.9997 41.2953L56.0306 40.6669L57.3197 40.6752Z" fill="#454545"/>
<path d="M58.3252 42.3343C58.1896 42.2605 58.0776 42.1501 58.0022 42.0159C57.9223 41.8745 57.8816 41.7145 57.8842 41.5523C57.8815 41.391 57.9222 41.2318 58.0022 41.0914C58.0776 40.9572 58.1896 40.8469 58.3252 40.773C58.4669 40.6977 58.6251 40.6583 58.7858 40.6583C58.9464 40.6583 59.1046 40.6977 59.2464 40.773C59.382 40.8469 59.4939 40.9572 59.5694 41.0914C59.6484 41.2321 59.6882 41.3912 59.6845 41.5523C59.6881 41.7143 59.6484 41.8743 59.5694 42.0159C59.4939 42.1501 59.382 42.2605 59.2464 42.3343C59.1052 42.4114 58.9468 42.4517 58.7858 42.4517C58.6247 42.4517 58.4663 42.4114 58.3252 42.3343ZM59.1256 42.1556C59.2241 42.0972 59.3047 42.0132 59.3587 41.9126C59.4161 41.8012 59.445 41.6775 59.443 41.5523C59.4454 41.428 59.4164 41.3051 59.3587 41.1948C59.3063 41.093 59.2254 41.0086 59.1256 40.9518C59.0223 40.8928 58.9048 40.8629 58.7858 40.8652C58.6675 40.8626 58.5509 40.8925 58.4487 40.9518C58.3475 41.0076 58.2654 41.0922 58.2128 41.1948C58.1528 41.3043 58.1228 41.4276 58.1258 41.5523C58.1232 41.6778 58.1532 41.8019 58.2128 41.9126C58.2671 42.0139 58.3488 42.0981 58.4487 42.1556C58.5517 42.2126 58.668 42.2415 58.7858 42.2394C58.9044 42.2412 59.0215 42.2123 59.1256 42.1556V42.1556Z" fill="#454545"/>
<path d="M62.6953 40.6753V42.4377H60.2518V40.6753H60.4906V42.2282H61.3584V40.6753H61.5999V42.2282H62.4565V40.6753H62.6953ZM62.9761 42.2282V42.8232H62.7486V42.4349H62.4509V42.2254L62.9761 42.2282Z" fill="#454545"/>
<path d="M64.9842 41.6277H63.5013C63.5053 41.7121 63.5263 41.7949 63.5629 41.8712C63.5996 41.9474 63.6512 42.0156 63.7147 42.0718C63.8488 42.1861 64.0213 42.2459 64.1978 42.2394C64.3019 42.241 64.4052 42.221 64.5011 42.1807C64.5942 42.1426 64.6769 42.0833 64.7427 42.0075L64.8775 42.1639C64.7981 42.2576 64.6969 42.3305 64.5826 42.3762C64.4589 42.4274 64.3261 42.453 64.1922 42.4516C64.0237 42.455 63.8572 42.4146 63.7091 42.3343C63.5714 42.2614 63.4574 42.151 63.3805 42.0159C63.3006 41.8745 63.2599 41.7145 63.2626 41.5523C63.2594 41.3916 63.2981 41.2328 63.3749 41.0914C63.4469 40.9584 63.5549 40.8482 63.6867 40.773C63.8214 40.6979 63.9732 40.6584 64.1276 40.6584C64.282 40.6584 64.4339 40.6979 64.5686 40.773C64.6988 40.8479 64.8057 40.9571 64.8775 41.0886C64.9524 41.2316 64.9901 41.391 64.987 41.5523L64.9842 41.6277ZM63.6979 41.0244C63.5818 41.1368 63.5117 41.2881 63.5013 41.4489H64.7595C64.7495 41.2874 64.6782 41.1357 64.5601 41.0244C64.4411 40.9199 64.2878 40.8623 64.129 40.8623C63.9702 40.8623 63.8169 40.9199 63.6979 41.0244V41.0244Z" fill="#454545"/>
<path d="M65.5712 40.6753H65.81V41.4546H66.9334V40.6753H67.1721V42.4377H66.9334V41.6584H65.81V42.4377H65.5712V40.6753Z" fill="#454545"/>
<path d="M67.8967 40.6753H68.1355V42.0718L69.3179 40.6753H69.5313V42.4377H69.2926V41.0412L68.113 42.4377H67.8967V40.6753Z" fill="#454545"/>
<path d="M71.8175 41.6276H70.3374C70.341 41.7119 70.3615 41.7945 70.3977 41.8708C70.4339 41.9471 70.485 42.0154 70.548 42.0717C70.6832 42.186 70.8566 42.2458 71.0339 42.2393C71.1379 42.2404 71.2411 42.2204 71.3372 42.1807C71.4294 42.1425 71.5112 42.0832 71.5759 42.0075L71.7107 42.1639C71.6314 42.2576 71.5301 42.3305 71.4158 42.3762C71.2759 42.4324 71.1253 42.4577 70.9745 42.4505C70.8237 42.4433 70.6763 42.4036 70.5424 42.3343C70.4046 42.2614 70.2906 42.1509 70.2138 42.0159C70.1339 41.8744 70.0932 41.7144 70.0958 41.5522C70.0936 41.3913 70.1333 41.2325 70.211 41.0914C70.2811 40.958 70.3884 40.8474 70.5199 40.773C70.6551 40.6979 70.8074 40.6584 70.9623 40.6584C71.1171 40.6584 71.2694 40.6979 71.4046 40.773C71.534 40.8481 71.6399 40.9573 71.7107 41.0886C71.7857 41.2316 71.8234 41.391 71.8203 41.5522L71.8175 41.6276ZM70.534 41.0243C70.4167 41.136 70.3464 41.2877 70.3374 41.4489H71.5928C71.5824 41.288 71.5123 41.1368 71.3962 41.0243C71.3383 40.9704 71.2703 40.9284 71.1961 40.9006C71.1219 40.8728 71.0429 40.8598 70.9637 40.8624C70.8848 40.8599 70.8063 40.8729 70.7325 40.9007C70.6588 40.9285 70.5913 40.9705 70.534 41.0243Z" fill="#454545"/>
</g>
<defs>
<clipPath id="clip0_1_523">
<rect width="72" height="66" fill="white"/>
</clipPath>
</defs>
</svg>
