<svg width="20" height="20" viewBox="0 0 20 20" fill="none" xmlns="http://www.w3.org/2000/svg">
<g clip-path="url(#clip0_83_510)">
<path d="M10 19.8347C15.5228 19.8347 20 15.3946 20 9.91736C20 4.44015 15.5228 0 10 0C4.47715 0 0 4.44015 0 9.91736C0 15.3946 4.47715 19.8347 10 19.8347Z" fill="#6C27B3"/>
<path d="M12.3136 4.24072H7.68644C5.80597 4.24072 4.27612 5.75792 4.27612 7.62285V12.2118C4.27612 14.0766 5.80597 15.5939 7.68647 15.5939H12.3136C14.194 15.5939 15.724 14.0767 15.724 12.2118V7.62285C15.7239 5.75792 14.1941 4.24072 12.3136 4.24072ZM14.5723 12.2118C14.5723 13.4489 13.561 14.4518 12.3136 14.4518H7.68647C6.43905 14.4518 5.4278 13.4489 5.4278 12.2118V7.62289C5.4278 6.38578 6.43905 5.38285 7.68647 5.38285H12.3136C13.561 5.38285 14.5723 6.38582 14.5723 7.62289V12.2118Z" fill="white"/>
<path d="M10 6.98096C8.36747 6.98096 7.03918 8.29826 7.03918 9.91735C7.03918 11.5363 8.36747 12.8536 10 12.8536C11.6326 12.8536 12.9608 11.5364 12.9608 9.91735C12.9608 8.29826 11.6326 6.98096 10 6.98096ZM10 11.7115C9.00086 11.7115 8.19083 10.9083 8.19083 9.91735C8.19083 8.92639 9.00086 8.12308 10 8.12308C10.9992 8.12308 11.8091 8.92635 11.8091 9.91735C11.8091 10.9083 10.9992 11.7115 10 11.7115Z" fill="white"/>
<path d="M13.6759 7.00319C13.6759 7.39175 13.3583 7.70682 12.9664 7.70682C12.5747 7.70682 12.257 7.39175 12.257 7.00319C12.257 6.61459 12.5747 6.29956 12.9664 6.29956C13.3584 6.29956 13.6759 6.61451 13.6759 7.00319Z" fill="white"/>
</g>
<defs>
<clipPath id="clip0_83_510">
<rect width="20" height="19.8347" fill="white"/>
</clipPath>
</defs>
</svg>
