<svg width="20" height="20" viewBox="0 0 20 20" fill="none" xmlns="http://www.w3.org/2000/svg">
<path d="M17.5584 3.96704H2.44568C1.09663 3.96704 0 5.06268 0 6.41052V16.7302C0 18.078 1.09663 19.1737 2.44568 19.1737H17.5543C18.9034 19.1737 20 18.078 20 16.7302V6.41465C20.0041 5.06681 18.9075 3.96704 17.5584 3.96704ZM18.8868 16.7302C18.8868 17.462 18.2909 18.0573 17.5584 18.0573H2.44568C1.71322 18.0573 1.11732 17.462 1.11732 16.7302V6.41465C1.11732 5.68285 1.71322 5.08748 2.44568 5.08748H17.5543C18.2868 5.08748 18.8827 5.68285 18.8827 6.41465V16.7302H18.8868Z" fill="#FF7D04"/>
<path d="M12.6113 11.3999L17.5026 7.01707C17.7302 6.81033 17.7509 6.45888 17.544 6.22734C17.3371 5.99993 16.9854 5.97925 16.7536 6.18599L10.0083 12.2351L8.6924 11.0608C8.68826 11.0567 8.68412 11.0526 8.68412 11.0484C8.65516 11.0195 8.62619 10.9947 8.59308 10.9699L3.23824 6.18186C3.0065 5.97512 2.65476 5.99579 2.44785 6.22734C2.24094 6.45888 2.26163 6.81033 2.49337 7.01707L7.44266 11.4371L2.51406 16.0473C2.29059 16.2582 2.27818 16.6096 2.48923 16.837C2.60096 16.9528 2.74993 17.0148 2.89891 17.0148C3.03547 17.0148 3.17203 16.9652 3.27963 16.866L8.28272 12.1896L9.64005 13.4011C9.74764 13.4962 9.88006 13.5417 10.0125 13.5417C10.1449 13.5417 10.2815 13.492 10.3849 13.3969L11.7795 12.1483L16.7536 16.8701C16.8612 16.9735 17.0019 17.0231 17.1385 17.0231C17.2875 17.0231 17.4323 16.9652 17.544 16.8494C17.7551 16.6262 17.7468 16.2706 17.5233 16.0597L12.6113 11.3999Z" fill="#FF7D04"/>
</svg>
