<svg width="20" height="20" viewBox="0 0 20 20" fill="none" xmlns="http://www.w3.org/2000/svg">
<path d="M16.0743 19.8347C15.2422 19.8347 14.2372 19.6279 13.1319 19.2142C10.7089 18.3083 8.07255 16.5177 5.70869 14.1733C3.34416 11.8283 1.53863 9.21316 0.624435 6.81013C-0.206348 4.62525 -0.208366 2.83198 0.619726 2.0114C0.738794 1.89331 0.859879 1.76656 0.985001 1.6358C1.74044 0.847907 2.5941 -0.038721 3.72558 0.00130734C4.50523 0.03333 5.26067 0.51367 6.03428 1.46835C8.32011 4.28768 7.28953 5.29239 6.09684 6.45721L5.88628 6.66403C5.6912 6.8575 5.32256 7.75346 8.75198 11.1545C9.87135 12.2647 10.8259 13.0772 11.5887 13.5689C12.0691 13.8785 12.9281 14.3468 13.2806 13.9972L13.4925 13.7851C14.6657 12.6049 15.6788 11.5862 18.5196 13.8511C19.4822 14.6183 19.9659 15.3669 19.9982 16.1414C20.0446 17.2629 19.1438 18.1115 18.3487 18.86C18.2175 18.9841 18.0897 19.1042 17.9706 19.2216C17.5596 19.6299 16.9024 19.8347 16.0743 19.8347ZM3.64485 0.667112C2.84098 0.667112 2.11513 1.42498 1.47271 2.09546C1.34355 2.23022 1.21843 2.36098 1.09532 2.48306C0.478459 3.09416 0.54102 4.69997 1.25408 6.5753C2.13532 8.8916 3.88635 11.4227 6.18496 13.7023C8.4829 15.9806 11.0338 17.7172 13.3701 18.5905C15.261 19.299 16.8802 19.359 17.4957 18.7486C17.6188 18.6265 17.7507 18.5024 17.8866 18.375C18.5774 17.7239 19.3611 16.986 19.3268 16.1674C19.3033 15.605 18.8902 14.9999 18.0991 14.3695C15.7319 12.4815 15.07 13.148 13.9721 14.2521L13.7569 14.4676C13.2322 14.9886 12.3798 14.8732 11.2228 14.1273C10.4203 13.6096 9.42871 12.7677 8.27705 11.6249C5.43087 8.80287 4.5207 7.07565 5.41136 6.19036L5.62595 5.98021C6.74196 4.89144 7.41533 4.2343 5.51092 1.88531C4.87387 1.10142 4.26441 0.691796 3.69732 0.667779C3.67983 0.667112 3.66234 0.667112 3.64485 0.667112Z" fill="#FF7D04"/>
</svg>
