<svg width="100" height="100" viewBox="0 0 100 100" fill="none" xmlns="http://www.w3.org/2000/svg">
<path d="M12.5977 55.5176C13.1836 54.2227 14.2109 53.7598 15.6055 53.8418C17 53.9238 18.3809 53.8574 19.8496 53.8574C19.8652 53.543 19.8887 53.2852 19.8887 53.0293C19.8887 50.9063 19.8887 48.7813 19.8887 46.6582C19.8887 45.0625 20.791 44.1602 22.373 44.1426C23.082 44.1426 23.7891 44.1309 24.498 44.1426C25.9805 44.1699 26.9199 45.0996 26.9297 46.5801C26.9453 48.7031 26.9297 50.8281 26.9297 52.9512V53.8574H27.9766C46.8698 53.8574 65.763 53.8574 84.6562 53.8574C85.1651 53.8299 85.6748 53.892 86.1621 54.041C87.127 54.4043 87.5859 55.1856 87.5879 56.2149C87.5879 58.5332 87.5879 60.8516 87.5879 63.1719V84.7734C87.5879 86.7598 86.7695 87.5898 84.8086 87.5898H27.4063C26.2344 87.5898 25.7051 87.2363 25.7266 86.457C25.748 85.7129 26.25 85.3926 27.4004 85.3926H34.3867V65.8008H14.8555V85.4004H15.6094C17.7812 85.4004 19.9538 85.4004 22.127 85.4004C23.0391 85.4004 23.5645 85.8066 23.5645 86.4961C23.5645 87.1856 23.0391 87.5938 22.127 87.5938C19.9062 87.5938 17.6836 87.5488 15.4648 87.6133C14.0664 87.6523 13.1211 87.1426 12.5996 85.8379L12.5977 55.5176ZM65.7949 85.3516H85.3652V65.8203H65.7949V85.3516ZM36.6934 65.791V85.3516H63.5098V65.7832L36.6934 65.791ZM36.6758 63.5059H63.5137V56.0977H36.668L36.6758 63.5059ZM85.3828 56.1172H65.8203V63.5215H85.375L85.3828 56.1172ZM34.3926 63.5391V56.1172H14.8438V63.5391H34.3926ZM24.6914 53.8184V46.3809H22.1309V53.8145L24.6914 53.8184Z" fill="#454545"/>
<path d="M55.5176 12.5977C56.8164 13.1191 57.3105 14.0762 57.2852 15.4687C57.2305 18.5664 57.2539 21.668 57.2852 24.7676C57.2988 25.1926 57.4457 25.6025 57.7051 25.9395C59.3809 28.0059 61.1152 30.0234 62.7832 32.0957C63.08 32.4937 63.2575 32.9679 63.2949 33.4629C63.3711 34.457 63.3242 35.4629 63.3164 36.4629C63.3047 38.166 62.4004 39.0664 60.6777 39.0703C57.041 39.0703 53.4043 39.0703 49.7676 39.0703H39.6621C37.7461 39.0703 37.0371 38.1973 36.8398 36.3184C36.5723 33.75 37.2793 31.7031 39.1484 29.9102C40.3926 28.7168 41.416 27.291 42.4902 25.9336C42.7473 25.5956 42.8933 25.1862 42.9082 24.7617C42.9414 21.6621 42.9668 18.5605 42.9082 15.4629C42.8828 14.0684 43.3848 13.1191 44.6777 12.5918L55.5176 12.5977ZM45.1562 24.707H55.0117V14.8437H45.1562V24.707ZM40.3711 31.9512H59.8262C58.459 30.3145 57.1914 28.7754 55.8945 27.2637C55.7165 27.0764 55.473 26.9651 55.2148 26.9531C51.8008 26.9336 48.3874 26.9336 44.9746 26.9531C44.7415 26.9519 44.5168 27.0408 44.3477 27.2012C43.0352 28.7344 41.748 30.291 40.3711 31.9414V31.9512ZM39.1113 36.834H61.0586V34.2754H39.1113V36.834Z" fill="#454545"/>
<path d="M32.5195 12.5977C33.832 13.168 34.2461 14.1914 34.2305 15.584C34.1816 20.0488 34.2148 24.5137 34.2109 28.9785C34.2109 30.9512 33.3789 31.7871 31.418 31.7871C26.0996 31.7871 20.7812 31.7617 15.4629 31.8047C14.0703 31.8164 13.1191 31.332 12.5977 30.0293V14.3555C12.7416 13.9502 12.974 13.5822 13.2781 13.2781C13.5822 12.974 13.9502 12.7416 14.3555 12.5977H32.5195ZM31.9668 14.8438H14.8438V29.5488H31.9727L31.9668 14.8438Z" fill="#454545"/>
<path d="M85.8399 12.5977C87.1445 13.1094 87.6309 14.0625 87.6152 15.459C87.5684 20.0234 87.5996 24.5859 87.5977 29.1504C87.5977 30.877 86.707 31.7852 85 31.7852C79.5313 31.7852 74.0625 31.7852 68.5938 31.7852C66.8789 31.7852 65.9863 30.8906 65.9785 29.166C65.9785 26.8965 65.9785 24.627 65.9785 22.3574C65.9749 22.2108 65.9801 22.064 65.9942 21.918C66.0742 21.2715 66.5078 20.8633 67.0977 20.873C67.2397 20.87 67.3808 20.896 67.5125 20.9494C67.6441 21.0028 67.7635 21.0825 67.8633 21.1836C67.9631 21.2847 68.0413 21.4051 68.093 21.5374C68.1447 21.6697 68.1689 21.8111 68.1641 21.9531C68.1953 23.5391 68.1817 25.127 68.1836 26.7129C68.1836 27.6367 68.1836 28.5605 68.1836 29.5371H85.3711V14.8438H68.1836C68.1836 15.7148 68.2051 16.5879 68.1836 17.4609C68.1582 18.2422 67.6934 18.6934 67 18.6328C66.4004 18.5762 66.0449 18.2129 66.0234 17.6328C65.9922 16.6094 65.9805 15.582 66.0449 14.5625C66.1094 13.543 66.8594 13.0176 67.6875 12.5957L85.8399 12.5977Z" fill="#454545"/>
<path d="M70.8496 41.4805C69.6016 41.4805 68.4805 41.4805 67.3594 41.4805C66.4844 41.4805 66.0078 41.0898 66.0019 40.4004C65.9961 39.7109 66.4922 39.2891 67.3437 39.2891C73.638 39.2891 79.9329 39.2891 86.2285 39.2891C87.084 39.2891 87.5859 39.709 87.5957 40.3828C87.6055 41.0566 87.0996 41.4746 86.2461 41.4805C85.1269 41.4805 84.0058 41.4805 82.7617 41.4805C82.7617 42.3828 82.7324 43.248 82.7891 44.1094C82.7988 44.2793 83.1289 44.457 83.3418 44.5762C84.017 44.9564 84.5508 45.5453 84.8631 46.2544C85.1754 46.9636 85.2495 47.7549 85.0742 48.5098C84.8894 49.2487 84.4704 49.908 83.8798 50.389C83.2893 50.87 82.5588 51.147 81.7978 51.1784C81.0368 51.2098 80.286 50.9941 79.6578 50.5634C79.0295 50.1327 78.5576 49.5102 78.3125 48.7891C78.0376 47.9973 78.0602 47.1326 78.3761 46.3563C78.692 45.58 79.2797 44.9451 80.0293 44.5703C80.4434 44.3594 80.5937 44.1387 80.5684 43.6875C80.5312 42.9863 80.5586 42.2832 80.5586 41.5391H73.0469C73.0469 42.4121 73.0156 43.2598 73.0723 44.1016C73.084 44.2754 73.4082 44.459 73.6191 44.582C74.4449 44.9873 75.079 45.7001 75.3853 46.5675C75.6916 47.4349 75.6457 48.3878 75.2575 49.2218C74.8692 50.0557 74.1696 50.7043 73.3087 51.0284C72.4477 51.3524 71.4941 51.3261 70.6523 50.9551C69.3144 50.4102 68.5371 49.3828 68.4258 47.9492C68.3105 46.4766 68.9453 45.3223 70.2422 44.6289C70.7344 44.3633 70.8867 44.0742 70.8516 43.5527C70.8164 42.8887 70.8496 42.2324 70.8496 41.4805ZM71.957 48.9785C72.127 48.979 72.2953 48.9459 72.4524 48.8811C72.6095 48.8163 72.7523 48.7211 72.8724 48.601C72.9926 48.4808 73.0878 48.3381 73.1526 48.181C73.2174 48.0239 73.2505 47.8555 73.25 47.6855C73.2529 47.5095 73.2204 47.3348 73.1546 47.1715C73.0887 47.0083 72.9908 46.8599 72.8666 46.7352C72.7424 46.6104 72.5945 46.5119 72.4316 46.4453C72.2686 46.3787 72.094 46.3455 71.918 46.3477C71.575 46.3575 71.2489 46.4981 71.0063 46.7407C70.7637 46.9833 70.6231 47.3094 70.6133 47.6523C70.6119 47.8284 70.6459 48.0029 70.7132 48.1655C70.7805 48.3282 70.8797 48.4757 71.0049 48.5993C71.1302 48.723 71.279 48.8202 71.4426 48.8854C71.6061 48.9505 71.781 48.9822 71.957 48.9785ZM82.9512 47.6387C82.9461 47.2957 82.8069 46.9683 82.5634 46.7266C82.3199 46.4849 81.9915 46.3482 81.6484 46.3457C81.294 46.3548 80.9569 46.5013 80.7084 46.7542C80.4599 47.0071 80.3193 47.3466 80.3164 47.7012C80.33 48.0435 80.4749 48.3675 80.7212 48.6058C80.9674 48.844 81.296 48.9782 81.6387 48.9805C81.8145 48.9841 81.9892 48.9516 82.1521 48.8851C82.3149 48.8186 82.4624 48.7194 82.5853 48.5937C82.7083 48.4679 82.8042 48.3183 82.8672 48.1541C82.9301 47.9898 82.9587 47.8144 82.9512 47.6387Z" fill="#454545"/>
<path d="M19.6387 75.4866C19.6387 76.2678 19.6504 77.049 19.6387 77.8205C19.623 78.553 19.1875 79.0276 18.5605 79.0334C17.9336 79.0393 17.4609 78.5666 17.4512 77.8401C17.4329 76.2854 17.4329 74.7294 17.4512 73.1721C17.4609 72.4436 17.9316 71.9885 18.5742 72.0002C19.2168 72.0119 19.623 72.4768 19.6367 73.2229C19.6504 73.969 19.6387 74.7405 19.6387 75.4866Z" fill="#FF7D04"/>
<path d="M76.8457 24.7481C77.2364 24.7481 77.627 24.7344 78.0176 24.7481C78.6485 24.7734 79.0274 25.127 79.086 25.7363C79.1446 26.3457 78.8008 26.834 78.2012 26.8848C77.2552 26.9707 76.3034 26.9707 75.3574 26.8848C74.7715 26.8262 74.4414 26.3379 74.5117 25.7129C74.5224 25.452 74.6354 25.2057 74.8261 25.0273C75.0169 24.849 75.2702 24.7529 75.5313 24.7598C75.9766 24.7305 76.4063 24.7481 76.8457 24.7481Z" fill="#FF7D04"/>
<path d="M70.6074 75.5002C70.6074 76.2815 70.6191 77.0627 70.6074 77.8342C70.5898 78.5608 70.1406 79.0373 69.5117 79.0354C68.8828 79.0334 68.4277 78.5568 68.4199 77.8283C68.4043 76.2658 68.4043 74.7092 68.4199 73.1584C68.4297 72.4397 68.9102 71.9865 69.5527 72.0022C70.1602 72.0236 70.5859 72.4729 70.6035 73.1643C70.6211 73.9416 70.6055 74.7209 70.6074 75.5002Z" fill="#FF7D04"/>
<path d="M50.0957 82.752C47.3613 82.752 44.627 82.752 41.8926 82.752C40.1914 82.752 39.2832 81.834 39.2812 80.1152C39.2812 77.0879 39.2812 74.0612 39.2812 71.0352C39.2812 69.3164 40.1855 68.4102 41.8984 68.4102C47.3672 68.4102 52.8359 68.4102 58.3047 68.4102C60.0137 68.4102 60.9121 69.3184 60.916 71.0391C60.916 74.0664 60.916 77.0937 60.916 80.1211C60.916 81.8379 60.0059 82.748 58.2988 82.752C55.5632 82.7559 52.8288 82.7559 50.0957 82.752ZM41.5215 70.6426V80.502H58.6758V70.6465L41.5215 70.6426Z" fill="#454545"/>
<path d="M50.1192 59.0084C51.2637 59.0084 51.7735 59.3209 51.7969 60.0572C51.8203 60.7936 51.2637 61.1979 50.1114 61.1959C49.8684 61.21 49.6247 61.2035 49.3828 61.1764C48.7793 61.0729 48.4278 60.7018 48.4063 60.0865C48.3828 59.5006 48.8321 59.0651 49.4668 59.0104C49.6797 58.9928 49.9004 59.0084 50.1192 59.0084Z" fill="#FF7D04"/>
<path d="M40.9727 59.0084C41.1914 59.0084 41.4102 58.9967 41.6289 59.0084C42.2539 59.0494 42.6152 59.399 42.6758 60.0123C42.6903 60.1524 42.6766 60.294 42.6356 60.4287C42.5946 60.5635 42.5271 60.6886 42.4371 60.7969C42.347 60.9052 42.2362 60.9944 42.1111 61.0592C41.9861 61.124 41.8494 61.1632 41.709 61.1744C41.3194 61.2102 40.9275 61.2155 40.5371 61.19C39.7695 61.1647 39.2656 60.6998 39.2852 60.0572C39.3047 59.4147 39.7832 59.0279 40.5273 59.0006C40.6738 59.0006 40.8203 59.0006 40.9648 59.0006L40.9727 59.0084Z" fill="#FF7D04"/>
<path d="M59.1972 59.0026C60.3691 59.0026 60.9179 59.3541 60.9043 60.1061C60.8906 60.858 60.3418 61.1979 59.166 61.1959C58.9941 61.1959 58.8242 61.1959 58.6543 61.1959C57.9609 61.1471 57.5195 60.7252 57.5097 60.1139C57.498 59.4674 57.9472 59.0436 58.6816 59.0065C58.8574 58.9947 59.0273 59.0026 59.1972 59.0026Z" fill="#FF7D04"/>
<path d="M75.627 58.7207C76.0176 58.7207 76.4082 58.7012 76.7988 58.7207C77.4434 58.7617 77.9004 59.1934 77.8848 59.7754C77.8692 60.3926 77.5274 60.8301 76.9199 60.873C76.0201 60.9395 75.1166 60.9395 74.2168 60.873C74.0802 60.8672 73.9463 60.8329 73.8236 60.7725C73.7009 60.7121 73.5921 60.6269 73.5042 60.5222C73.4162 60.4175 73.3509 60.2957 73.3126 60.1644C73.2742 60.0332 73.2635 59.8954 73.2813 59.7598C73.2786 59.6237 73.3035 59.4885 73.3544 59.3623C73.4053 59.2361 73.4812 59.1215 73.5775 59.0253C73.6738 58.9292 73.7886 58.8535 73.9149 58.8028C74.0412 58.7522 74.1765 58.7275 74.3125 58.7305C74.7481 58.7051 75.1895 58.7305 75.6289 58.7305L75.627 58.7207Z" fill="#FF7D04"/>
<path d="M24.627 58.7227C25.041 58.7227 25.457 58.707 25.8711 58.7227C26.5059 58.7559 26.8477 59.1367 26.9199 59.7402C26.9322 59.8813 26.9158 60.0233 26.8718 60.1578C26.8278 60.2924 26.7571 60.4166 26.6639 60.5232C26.5707 60.6297 26.4569 60.7163 26.3294 60.7778C26.2019 60.8392 26.0633 60.8743 25.9219 60.8809C25.0458 60.9356 24.1671 60.9356 23.291 60.8809C22.6836 60.8379 22.334 60.4102 22.3145 59.7949C22.291 59.209 22.752 58.7676 23.3867 58.7266C23.7969 58.7012 24.2187 58.7227 24.627 58.7227Z" fill="#FF7D04"/>
<path d="M23.3984 26.9316C22.9844 26.9316 22.5664 26.9629 22.1563 26.9316C22.009 26.9268 21.8643 26.8922 21.7308 26.8301C21.5972 26.7681 21.4775 26.6797 21.3789 26.5703C21.2802 26.4609 21.2047 26.3327 21.1567 26.1935C21.1087 26.0542 21.0893 25.9067 21.0996 25.7598C21.1387 25.1738 21.5859 24.7695 22.2344 24.7539C23.0156 24.7357 23.7969 24.7357 24.5781 24.7539C25.2422 24.7715 25.6641 25.1699 25.7012 25.7637C25.7129 25.9109 25.6945 26.059 25.647 26.1988C25.5996 26.3387 25.5241 26.4674 25.4252 26.5771C25.3263 26.6868 25.206 26.7752 25.0718 26.8368C24.9376 26.8984 24.7922 26.932 24.6445 26.9355C24.2285 26.9629 23.8125 26.9316 23.3984 26.9316Z" fill="#FF7D04"/>
<path d="M50.0586 75.457C48.5703 75.457 47.084 75.457 45.5957 75.457C44.6641 75.457 44.1621 75.0664 44.1504 74.3809C44.1387 73.6953 44.6621 73.2637 45.5645 73.2617C48.5879 73.2617 51.6113 73.2617 54.6348 73.2617C55.5332 73.2617 56.0586 73.6914 56.043 74.3848C56.0274 75.0781 55.541 75.4512 54.666 75.4551C53.125 75.4629 51.5938 75.457 50.0586 75.457Z" fill="#454545"/>
</svg>
