<svg width="268" height="216" viewBox="0 0 268 216" fill="none" xmlns="http://www.w3.org/2000/svg">
<g filter="url(#filter0_d_83_230)">
<rect x="8" y="6" width="252" height="200" rx="5" fill="white"/>
</g>
<path d="M109.522 172.848L109.198 173.208V161.4H110.512V173.208L110.152 172.848H116.614L116.254 173.208V161.4H117.568V174H102.124V161.4H103.438V173.208L103.096 172.848H109.522ZM128.436 174L124.548 169.32L125.61 168.69L129.948 174H128.436ZM121.506 174V164.55H122.784V174H121.506ZM122.388 169.788V168.69H125.43V169.788H122.388ZM125.718 169.41L124.53 169.23L128.292 164.55H129.678L125.718 169.41ZM137.657 174V171.912L137.603 171.57V168.078C137.603 167.274 137.375 166.656 136.919 166.224C136.475 165.792 135.809 165.576 134.921 165.576C134.309 165.576 133.727 165.678 133.175 165.882C132.623 166.086 132.155 166.356 131.771 166.692L131.195 165.738C131.675 165.33 132.251 165.018 132.923 164.802C133.595 164.574 134.303 164.46 135.047 164.46C136.271 164.46 137.213 164.766 137.873 165.378C138.545 165.978 138.881 166.896 138.881 168.132V174H137.657ZM134.399 174.09C133.691 174.09 133.073 173.976 132.545 173.748C132.029 173.508 131.633 173.184 131.357 172.776C131.081 172.356 130.943 171.876 130.943 171.336C130.943 170.844 131.057 170.4 131.285 170.004C131.525 169.596 131.909 169.272 132.437 169.032C132.977 168.78 133.697 168.654 134.597 168.654H137.855V169.608H134.633C133.721 169.608 133.085 169.77 132.725 170.094C132.377 170.418 132.203 170.82 132.203 171.3C132.203 171.84 132.413 172.272 132.833 172.596C133.253 172.92 133.841 173.082 134.597 173.082C135.317 173.082 135.935 172.92 136.451 172.596C136.979 172.26 137.363 171.78 137.603 171.156L137.891 172.038C137.651 172.662 137.231 173.16 136.631 173.532C136.043 173.904 135.299 174.09 134.399 174.09ZM147.593 174.108C147.593 174.108 147.569 174.108 147.521 174.108C147.473 174.108 147.425 174.108 147.377 174.108C147.341 174.108 147.311 174.108 147.287 174.108C145.415 174.096 143.957 173.67 142.913 172.83C141.869 171.99 141.347 170.796 141.347 169.248C141.347 167.724 141.869 166.548 142.913 165.72C143.969 164.88 145.451 164.454 147.359 164.442C147.371 164.442 147.395 164.442 147.431 164.442C147.479 164.442 147.521 164.442 147.557 164.442C147.593 164.442 147.617 164.442 147.629 164.442C149.549 164.454 151.043 164.88 152.111 165.72C153.179 166.548 153.713 167.724 153.713 169.248C153.713 170.808 153.173 172.008 152.093 172.848C151.025 173.688 149.525 174.108 147.593 174.108ZM147.575 172.992C148.643 172.992 149.537 172.848 150.257 172.56C150.977 172.26 151.523 171.834 151.895 171.282C152.267 170.73 152.453 170.052 152.453 169.248C152.453 168.468 152.267 167.808 151.895 167.268C151.523 166.716 150.977 166.296 150.257 166.008C149.537 165.72 148.643 165.576 147.575 165.576C147.563 165.576 147.527 165.576 147.467 165.576C147.419 165.576 147.389 165.576 147.377 165.576C146.333 165.576 145.457 165.726 144.749 166.026C144.041 166.314 143.507 166.728 143.147 167.268C142.787 167.808 142.607 168.468 142.607 169.248C142.607 170.04 142.787 170.712 143.147 171.264C143.519 171.816 144.059 172.242 144.767 172.542C145.475 172.83 146.345 172.98 147.377 172.992C147.401 172.992 147.437 172.992 147.485 172.992C147.533 172.992 147.563 172.992 147.575 172.992ZM146.891 177.492V160.644H148.133V177.492H146.891ZM165.632 174V164.55H166.91V174H165.632ZM160.394 167.88C161.582 167.892 162.488 168.156 163.112 168.672C163.736 169.188 164.048 169.932 164.048 170.904C164.048 171.912 163.712 172.686 163.04 173.226C162.368 173.766 161.408 174.03 160.16 174.018L156.416 174V164.55H157.694V167.844L160.394 167.88ZM160.07 173.046C160.958 173.058 161.624 172.884 162.068 172.524C162.524 172.152 162.752 171.612 162.752 170.904C162.752 170.196 162.53 169.68 162.086 169.356C161.642 169.02 160.97 168.846 160.07 168.834L157.694 168.798V173.01L160.07 173.046Z" fill="#454545"/>
<path d="M160.025 46.5977H167.057C167.977 47.043 168.168 47.8145 168.168 48.7715C168.152 70.86 168.148 92.9479 168.156 115.035C168.156 115.205 168.156 115.377 168.156 115.547C168.098 116.635 167.529 117.184 166.432 117.201C165.785 117.211 165.137 117.201 164.445 117.201C164.445 118.139 164.445 118.959 164.445 119.793C164.434 121.029 163.885 121.594 162.658 121.594H105.541C104.316 121.594 103.766 121.027 103.756 119.791C103.756 118.945 103.756 118.1 103.756 117.201H102.059C100.555 117.201 100.041 116.693 100.041 115.18C100.041 92.9948 100.036 70.8092 100.027 48.623C100.027 47.6992 100.297 47.0137 101.139 46.5957H155.631C156.162 46.9375 156.551 47.377 156.316 48.0449C156.082 48.7129 155.518 48.8262 154.885 48.7988C154.129 48.7754 153.371 48.7988 152.615 48.7988H148.43V110.574H165.912V48.7949C164.211 48.7949 162.557 48.7949 160.902 48.7949C160.287 48.7949 159.709 48.7598 159.441 48.0898C159.174 47.4199 159.566 46.9941 160.025 46.5977ZM141.787 110.586V98.6719C141.787 97.5566 142.152 97.0137 142.889 97.0156C143.625 97.0176 143.984 97.5566 143.986 98.6758C143.986 102.362 143.986 106.048 143.986 109.734C143.986 110.014 144.01 110.293 144.023 110.566H146.145V48.8438H143.986V49.9141C143.986 63.9974 143.986 78.0814 143.986 92.166C143.999 92.5073 143.983 92.849 143.938 93.1875C143.91 93.4344 143.789 93.6614 143.6 93.8225C143.411 93.9836 143.168 94.0667 142.92 94.0547C142.66 94.0815 142.399 94.004 142.196 93.8393C141.993 93.6745 141.864 93.4359 141.836 93.1758C141.793 92.862 141.778 92.545 141.791 92.2285C141.791 78.0957 141.791 63.9629 141.791 49.8301V48.8438H124.271V110.586H141.787ZM121.979 58.5918H119.846C117.014 58.5918 114.182 58.5918 111.354 58.5918C110.475 58.5918 109.977 58.1191 110.033 57.3926C110.082 56.7539 110.52 56.4023 111.32 56.4004C114.59 56.4004 117.86 56.4004 121.131 56.4004H121.947V48.8438H102.291V56.3984H103.129C104.08 56.3984 105.033 56.3809 105.984 56.4121C106.605 56.4336 106.977 56.8027 107.014 57.4277C107.051 58.0527 106.695 58.4316 106.1 58.5645C105.858 58.5997 105.614 58.6095 105.371 58.5938H102.287V75.418H107.395C107.797 72.6172 108.223 69.8496 108.578 67.0742C108.707 66.0801 109.033 65.3398 110.141 65.1367C109.818 64.1719 109.502 63.2773 109.223 62.373C109.002 61.6563 109.271 61.0859 109.877 60.873C110.482 60.6602 111.049 60.9707 111.293 61.6699C111.612 62.4604 111.881 63.2707 112.096 64.0957C112.291 64.959 112.682 65.2676 113.584 65.209C114.682 65.127 115.201 65.6309 115.359 66.707C115.609 68.3965 115.844 70.0859 116.088 71.7852C116.264 73.0059 116.445 74.2246 116.621 75.418H121.975L121.979 58.5918ZM105.982 119.352H162.184V117.203H126.393C126.172 117.203 125.953 117.203 125.732 117.203C125 117.168 124.547 116.729 124.561 116.078C124.574 115.428 125.014 115.047 125.715 115.012C125.934 115 126.154 115.012 126.373 115.012H165.92V112.863H102.277V115.012H119.949C120.169 115.001 120.389 115.005 120.607 115.023C121.225 115.109 121.596 115.486 121.605 116.096C121.615 116.705 121.25 117.094 120.629 117.193C120.41 117.215 120.19 117.22 119.971 117.209H105.982V119.352ZM121.971 95.2793H102.279V101.773H121.971V95.2793ZM102.301 104.043V110.563H121.949V104.039L102.301 104.043ZM121.988 82.1074H102.289V88.6387H105.219C105.219 87.8359 105.219 87.1328 105.219 86.4297C105.219 84.9121 105.891 84.2461 107.408 84.2461C110.482 84.2461 113.557 84.2461 116.633 84.2461C118.131 84.2461 118.826 84.9375 118.84 86.4316C118.84 87.1524 118.84 87.8731 118.84 88.5801H121.988V82.1074ZM102.262 79.791H121.965V77.7109H102.262V79.791ZM102.279 92.9844H121.971V90.8867H102.279V92.9844ZM114.389 75.4219C113.998 72.7168 113.629 70.0742 113.246 67.3809C112.555 67.3809 111.924 67.4063 111.293 67.3809C110.844 67.3555 110.707 67.5488 110.66 67.9668C110.607 68.5527 110.506 69.125 110.426 69.7031C110.158 71.6016 109.891 73.5 109.619 75.4375L114.389 75.4219ZM116.596 86.4863H107.465V88.5938H116.6L116.596 86.4863Z" fill="#454545"/>
<path d="M152.773 79.7559C152.773 80.6562 152.783 81.5586 152.773 82.4609C152.764 83.3633 152.398 83.8125 151.697 83.8281C150.996 83.8437 150.59 83.3906 150.584 82.5059C150.57 80.6283 150.57 78.7513 150.584 76.875C150.584 76.0332 150.975 75.5957 151.656 75.584C152.367 75.5723 152.758 76.0195 152.773 76.9062C152.785 77.8535 152.773 78.8047 152.773 79.7559Z" fill="#FF7D04"/>
<path d="M139.592 79.6855C139.592 80.5859 139.592 81.4883 139.592 82.3906C139.582 83.3672 139.232 83.8145 138.512 83.8242C137.791 83.834 137.402 83.3691 137.398 82.4258C137.388 80.6237 137.388 78.8197 137.398 77.0137C137.398 76.0469 137.756 75.5918 138.479 75.5801C139.201 75.5684 139.586 76.0449 139.594 77.0508C139.596 77.9297 139.592 78.8066 139.592 79.6855Z" fill="#FF7D04"/>
<path d="M111.988 54.1973C110.844 54.1973 109.697 54.1973 108.553 54.1973C107.736 54.1973 107.277 53.793 107.268 53.1211C107.258 52.4492 107.723 52.0098 108.52 52.0078C110.833 51.9974 113.148 51.9974 115.465 52.0078C116.246 52.0078 116.758 52.4453 116.768 53.0898C116.779 53.7637 116.268 54.1953 115.426 54.2012C114.273 54.2031 113.135 54.1973 111.988 54.1973Z" fill="#FF7D04"/>
<path d="M111.912 100.188C110.791 100.188 109.67 100.188 108.549 100.188C107.732 100.188 107.275 99.7969 107.268 99.1113C107.26 98.4258 107.721 98 108.521 97.9961C110.837 97.9844 113.152 97.9844 115.467 97.9961C116.248 97.9961 116.758 98.4414 116.768 99.084C116.768 99.7598 116.27 100.184 115.422 100.188C114.252 100.197 113.082 100.188 111.912 100.188Z" fill="#FF7D04"/>
<path d="M112.016 108.414C110.844 108.414 109.672 108.414 108.5 108.414C107.719 108.414 107.285 108.023 107.264 107.369C107.24 106.689 107.701 106.23 108.486 106.227C110.83 106.214 113.17 106.214 115.506 106.227C116.287 106.227 116.779 106.709 116.76 107.357C116.74 108.006 116.27 108.414 115.523 108.414C114.355 108.428 113.186 108.414 112.016 108.414Z" fill="#FF7D04"/>
<defs>
<filter id="filter0_d_83_230" x="0" y="0" width="268" height="216" filterUnits="userSpaceOnUse" color-interpolation-filters="sRGB">
<feFlood flood-opacity="0" result="BackgroundImageFix"/>
<feColorMatrix in="SourceAlpha" type="matrix" values="0 0 0 0 0 0 0 0 0 0 0 0 0 0 0 0 0 0 127 0" result="hardAlpha"/>
<feOffset dy="2"/>
<feGaussianBlur stdDeviation="4"/>
<feComposite in2="hardAlpha" operator="out"/>
<feColorMatrix type="matrix" values="0 0 0 0 0 0 0 0 0 0 0 0 0 0 0 0 0 0 0.25 0"/>
<feBlend mode="normal" in2="BackgroundImageFix" result="effect1_dropShadow_83_230"/>
<feBlend mode="normal" in="SourceGraphic" in2="effect1_dropShadow_83_230" result="shape"/>
</filter>
</defs>
</svg>
